<svg id="Layer_1" data-name="Layer 1" xmlns="http://www.w3.org/2000/svg" viewBox="0 0 717.62 217.98"><defs><style>.cls-1{stroke:#003b63;stroke-miterlimit:10;stroke-width:1.51px;}</style></defs><title>lfedgemember-premier-horizontal-black</title><polygon points="23.5 86.58 23.5 44.46 1.03 44.46 1.03 107.63 68.34 107.63 68.34 86.58 23.5 86.58"/><polygon points="113.17 2.3 1.05 2.3 1.05 33.91 23.47 33.91 23.47 23.46 90.75 23.46 90.75 86.58 79.55 86.58 79.55 107.63 113.17 107.63 113.17 2.3"/><path d="M142.8,2.3H177V80.64h49v27H142.8Z"/><path d="M240.61,2.3h85.71v27H274.78V42.42H319V67.5H274.78v40.13H240.61Z"/><path d="M353.3,2.3h70.11v8.56H363V48.92h56.6v8.56H363V99.09h61.16v8.56H353.3Z"/><path d="M437.63,2.3h35.13c30.72.7,46.65,17.85,46.65,52.7s-15.93,51.93-46.65,52.67H437.63Zm9.66,96.77h20.62c29.16,0,41.81-12.54,41.81-44.11s-12.66-44.11-41.81-44.11H447.29Z"/><path d="M621.8,105.92h-7l-1.28-18.5h-.29C606.44,101.94,592.79,108,578.14,108c-32,0-47.92-25-47.92-52.9S546.15,2.2,578.14,2.2c21.33,0,38.54,11.52,42.38,33.7h-9.68c-1.13-11.66-13.5-25.45-32.7-25.45-26.87,0-38.25,22.47-38.25,44.65s11.38,44.7,38.25,44.7c22.47,0,35.55-15.65,35.13-37.26H578.71V54.3H621.8Z"/><path d="M640.44,2.24h70.11V10.8H650.1V48.89h56.61v8.56H650.1V99.07h61.16v8.56H640.44Z"/><line class="cls-1" x1="1.05" y1="134.62" x2="711.26001" y2="134.62"/><path d="M25.3,161.62a19.84981,19.84981,0,0,1,6.59,1,13.89992,13.89992,0,0,1,5.08,3,13.36,13.36,0,0,1,3.25,4.89,19.19,19.19,0,0,1,0,13A13.36008,13.36008,0,0,1,37,188.49a13.9002,13.9002,0,0,1-5.08,3,20.12032,20.12032,0,0,1-6.59,1H6.42v23.19H1.27V161.62Zm-1.14,26.53a13.29,13.29,0,0,0,8.71-2.73q3.35-2.73,3.34-8.34c0-3.74-1.11-6.51-3.34-8.33A13.29,13.29,0,0,0,24.16,166H6.42v22.13Z"/><path d="M79.1,161.62a23.36964,23.36964,0,0,1,6.33.84A15.16992,15.16992,0,0,1,90.66,165a12.13,12.13,0,0,1,3.56,4.39,14.23,14.23,0,0,1,1.33,6.33,15.17993,15.17993,0,0,1-2.66,8.94A12.06,12.06,0,0,1,85,189.51v.15a11.99992,11.99992,0,0,1,4.4,1.41,8.79,8.79,0,0,1,2.84,2.61,10.84007,10.84007,0,0,1,1.59,3.68,27.66942,27.66942,0,0,1,.65,4.5c.05.91.1,2,.15,3.34s.15,2.64.3,4a24.25046,24.25046,0,0,0,.72,3.79A7.17985,7.17985,0,0,0,97,215.73H91.3a6.74,6.74,0,0,1-.72-1.85,18.38075,18.38075,0,0,1-.38-2.28c-.07-.78-.14-1.55-.19-2.31s-.1-1.41-.15-2q-.15-2.88-.49-5.72a15.76993,15.76993,0,0,0-1.44-5.08,8.92,8.92,0,0,0-3.18-3.6A9.62005,9.62005,0,0,0,79,191.71H59.47v24H54.32V161.62Zm-.38,25.69a13.78,13.78,0,0,0,4.47-.72,11.0901,11.0901,0,0,0,3.72-2.08,10.33977,10.33977,0,0,0,2.54-3.3,10,10,0,0,0,.94-4.43,10.65,10.65,0,0,0-2.88-7.88q-2.88-2.9-8.79-2.9H59.47v21.29Z"/><path d="M147.53,161.62V166h-32.2v19.55h30.16V190H115.33v21.37h32.58v4.39H110.17V161.62Z"/><path d="M167.84,161.62l18,47.44,18.65-47.44H212v54.11h-5.16V169h-.15L188.2,215.76h-4.85L165.57,169h-.15v46.76h-5.16V161.62Z"/><path d="M233.47,161.62v54.11h-5.15V161.62Z"/><path d="M287.43,161.62V166H255.22v19.55h30.16V190H255.22v21.37h32.59v4.39H250.07V161.62Z"/><path d="M325.09,161.62a23.26953,23.26953,0,0,1,6.33.84,15.09016,15.09016,0,0,1,5.23,2.54,12.13028,12.13028,0,0,1,3.56,4.39,14.09019,14.09019,0,0,1,1.33,6.33,15.16993,15.16993,0,0,1-2.65,8.94,12.1099,12.1099,0,0,1-7.88,4.85v.15a12.00007,12.00007,0,0,1,4.39,1.41,8.79,8.79,0,0,1,2.84,2.61,10.84009,10.84009,0,0,1,1.59,3.68,26.61866,26.61866,0,0,1,.65,4.5c0,.91.1,2,.15,3.34s.15,2.64.3,4a25.4583,25.4583,0,0,0,.72,3.79,7.17981,7.17981,0,0,0,1.33,2.76H337.3a6.15979,6.15979,0,0,1-.72-1.85,15.27879,15.27879,0,0,1-.38-2.28c-.08-.78-.14-1.55-.19-2.31s-.1-1.41-.15-2c-.11-1.92-.27-3.83-.5-5.72a15.2803,15.2803,0,0,0-1.44-5.08,8.91992,8.91992,0,0,0-3.18-3.6,9.62,9.62,0,0,0-5.72-1.21H305.47v24h-5.16V161.62Zm-.37,25.69a13.86019,13.86019,0,0,0,4.47-.72,11.14,11.14,0,0,0,3.71-2.08,10.19973,10.19973,0,0,0,2.54-3.3,9.99982,9.99982,0,0,0,.95-4.43,10.64994,10.64994,0,0,0-2.88-7.88q-2.88-2.88-8.79-2.88H305.47v21.29Z"/><path d="M390,161.62l18,47.44,18.65-47.44h7.58v54.11H429V169h-.15l-18.49,46.76H405.5L387.69,169h-.15v46.76h-5.15V161.62Z"/><path d="M487.42,161.62V166H455.21v19.55h30.17V190H455.21v21.37H487.8v4.39H450.06V161.62Z"/><path d="M507.73,161.62l18,47.44,18.65-47.44h7.58v54.11h-5.16V169h-.15l-18.49,46.76h-4.85L505.46,169h-.15v46.76h-5.16V161.62Z"/><path d="M590.72,161.62a32.54986,32.54986,0,0,1,6.55.65,15.94022,15.94022,0,0,1,5.53,2.19,11.59961,11.59961,0,0,1,3.83,4.1,12.66954,12.66954,0,0,1,1.44,6.33,12.90911,12.90911,0,0,1-.68,4.13,12.64,12.64,0,0,1-1.93,3.63,12.37,12.37,0,0,1-3,2.77,10.86949,10.86949,0,0,1-3.83,1.59v.15a12.81993,12.81993,0,0,1,8.34,4.28,13.17016,13.17016,0,0,1,3.11,8.91,21.69157,21.69157,0,0,1-.23,2.92,14.06964,14.06964,0,0,1-.91,3.33,13.81,13.81,0,0,1-2,3.37,11.51981,11.51981,0,0,1-3.45,2.92,20.56967,20.56967,0,0,1-5.3,2.05,31.16,31.16,0,0,1-7.54.79H567.83V161.62Zm0,23.72a17.92074,17.92074,0,0,0,5.38-.72,11.12987,11.12987,0,0,0,3.79-2,8.11932,8.11932,0,0,0,2.27-2.91,8.63036,8.63036,0,0,0,.76-3.57q0-10.15-12.2-10.15H573v19.32Zm0,26a29.62112,29.62112,0,0,0,5.45-.49,12.50025,12.50025,0,0,0,4.55-1.79,9.07014,9.07014,0,0,0,3.11-3.44A11.55016,11.55016,0,0,0,605,200.2c0-3.49-1.22-6.1-3.67-7.85s-6-2.61-10.57-2.61H573v21.6Z"/><path d="M661,161.62V166H628.8v19.55H659V190H628.84v21.37h32.58v4.39H623.68V161.62Z"/><path d="M698.71,161.62a23.36989,23.36989,0,0,1,6.33.84,15.12013,15.12013,0,0,1,5.22,2.54,12.25986,12.25986,0,0,1,3.57,4.39,14.23,14.23,0,0,1,1.32,6.33,15.17,15.17,0,0,1-2.65,8.94,12.11,12.11,0,0,1-7.88,4.85v.15a11.93978,11.93978,0,0,1,4.39,1.41,8.83016,8.83016,0,0,1,2.85,2.61,10.84013,10.84013,0,0,1,1.59,3.68,26.64472,26.64472,0,0,1,.64,4.5c0,.91.1,2,.15,3.34s.16,2.64.31,4a24.25039,24.25039,0,0,0,.72,3.79,7.17043,7.17043,0,0,0,1.32,2.76h-5.68a6.73879,6.73879,0,0,1-.72-1.85,16.6762,16.6762,0,0,1-.38-2.28c-.08-.78-.14-1.55-.19-2.31s-.1-1.41-.15-2c-.1-1.92-.27-3.83-.49-5.72a15.77049,15.77049,0,0,0-1.44-5.08,9,9,0,0,0-3.19-3.6,9.6,9.6,0,0,0-5.72-1.21H679.08v24h-5.15V161.62Zm-.38,25.69a13.85975,13.85975,0,0,0,4.47-.72,11.14028,11.14028,0,0,0,3.71-2.08,10.20019,10.20019,0,0,0,2.54-3.3,10.00077,10.00077,0,0,0,1-4.43,10.65011,10.65011,0,0,0-2.88-7.88q-2.88-2.88-8.79-2.88h-19.3v21.29Z"/></svg>