<svg id="Layer_1" data-name="Layer 1" xmlns="http://www.w3.org/2000/svg" viewBox="0 0 471.26001 70.21"><defs><style>.cls-1{fill:#009ade;}.cls-2{fill:#003764;}</style></defs><title>lfedge-horizontal-color</title><polygon class="cls-1" points="14.91 55.96 14.91 28.01 0 28.01 0 69.93 44.66 69.93 44.66 55.96 14.91 55.96"/><polygon class="cls-2" points="74.41 0.04 0.01 0.04 0.01 21.01 14.89 21.01 14.89 14.08 59.53 14.08 59.53 55.96 52.1 55.96 52.1 69.93 74.41 69.93 74.41 0.04"/><path class="cls-2" d="M94.07.04h22.67V52.02H149.3V69.93H94.07Z"/><path class="cls-2" d="M158.97.04h56.87V17.95h-34.2v8.71H211V43.3H181.64V69.93H158.97Z"/><path class="cls-1" d="M233.74.04h46.52V5.72H240.15V30.97h37.56v5.68H240.15V64.26h40.58v5.68H233.74V.04Z"/><path class="cls-1" d="M289.7.04h23.31c20.38.49,30.95,11.84,30.95,34.95,0,23.1-10.57,34.46-30.95,34.95H289.7Zm6.41,64.21h13.68c19.35,0,27.74-8.32,27.74-29.27s-8.4-29.27-27.74-29.27H296.11Z"/><path class="cls-1" d="M411.9,68.79h-4.62l-.85-12.27h-.19c-4.53,9.63-13.59,13.68-23.31,13.68-21.23,0-31.8-16.61-31.8-35.1,0-18.5,10.57-35.1,31.8-35.1,14.15,0,25.57,7.64,28.12,22.36h-6.42c-.75-7.74-8.96-16.89-21.7-16.89-17.83,0-25.38,14.91-25.38,29.63s7.55,29.63,25.38,29.63c14.91,0,23.59-10.38,23.31-24.72H383.31V34.54H411.9V68.79Z"/><path class="cls-1" d="M424.27,0h46.52V5.68H430.68V30.95h37.56v5.68H430.68V64.25h40.58v5.68H424.27V0Z"/></svg>