<svg id="Layer_1" data-name="Layer 1" xmlns="http://www.w3.org/2000/svg" viewBox="0 0 360 360"><defs><style>.cls-1{fill:#fff;}</style></defs><title>edgexfoundry-icon-white</title><polygon class="cls-1" points="282.587 29.145 345.048 29.145 209.811 206.786 287.171 307.927 264.823 307.927 188.036 206.786 310.952 44.903 292.328 44.903 72.569 333.427 10.968 334 127.581 179.28 13.547 29.145 35.895 29.145 149.929 178.994 45.064 317.955 62.828 317.955 282.587 29.145"/><polygon class="cls-1" points="179.44 111.375 241.615 28.858 263.677 28.858 159.098 166.673 51.94 28.858 116.12 28.858 169.985 99.342 159.098 114.241 105.805 44.33 86.036 44.33 159.098 138.022 178.867 112.235 179.44 111.375"/><polygon class="cls-1" points="240.469 193.32 242.188 195.612 347.626 333.427 244.193 333.427 178.294 248.617 112.968 333.427 90.62 333.427 177.721 219.966 254.508 317.955 313.531 317.955 229.008 208.218 240.469 193.32"/></svg>