<svg id="Layer_1" data-name="Layer 1" xmlns="http://www.w3.org/2000/svg" viewBox="0 0 717.62 217.98"><defs><style>.cls-1{stroke:#000;stroke-miterlimit:10;stroke-width:1.51px;}</style></defs><title>lfedge-member-general-horizontal-black</title><polygon points="25.37 86.05 25.37 43.93 2.9 43.93 2.9 107.11 70.2 107.11 70.2 86.05 25.37 86.05"/><polygon points="115.04 1.78 2.91 1.78 2.91 33.38 25.34 33.38 25.34 22.94 92.61 22.94 92.61 86.05 81.42 86.05 81.42 107.11 115.04 107.11 115.04 1.78"/><path d="M144.67,1.78h34.17V80.11h49.07v27H144.67Z"/><path d="M242.48,1.78h85.71v27H276.65V41.9h44.24V67H276.65v40.14H242.48Z"/><path d="M355.16,1.78h70.11v8.56H364.83V48.39h56.6V57h-56.6V98.56H426v8.56H355.16Z"/><path d="M439.5,1.78h35.13c30.72.73,46.65,17.84,46.65,52.67s-15.93,51.93-46.65,52.67H439.5Zm9.66,96.77h20.62c29.16,0,41.81-12.54,41.81-44.12s-12.66-44.11-41.81-44.11H449.16Z"/><path d="M623.67,105.39h-7L615.42,86.9h-.28c-6.83,14.51-20.48,20.61-35.13,20.61-32,0-47.93-25-47.93-52.9S548,1.72,580,1.72c21.32,0,38.53,11.51,42.38,33.69H612.7C611.58,23.75,599.21,10,580,10c-26.87,0-38.25,22.47-38.25,44.65S553.14,99.27,580,99.27c22.47,0,35.55-15.64,35.13-37.26H580.58V53.77h43.09v51.62Z"/><path d="M642.31,1.72h70.11v8.56H652V48.36h56.61v8.56H652V98.55h61.16v8.56H642.31Z"/><path d="M50.55,215.21l-.67-9.79h-.15a18.7,18.7,0,0,1-3.35,4.93A18.29022,18.29022,0,0,1,42,213.74a19.09,19.09,0,0,1-5.15,1.92,26.56951,26.56951,0,0,1-5.68.6A25.4,25.4,0,0,1,20,214a23.10008,23.10008,0,0,1-7.94-6.13A26.33,26.33,0,0,1,7.35,199a36.41006,36.41006,0,0,1,0-21.22,26.72009,26.72009,0,0,1,4.74-8.92A22.84,22.84,0,0,1,20,162.64a25.4,25.4,0,0,1,11.11-2.3,27.7099,27.7099,0,0,1,8,1.13,20.14,20.14,0,0,1,11.67,9,21.55019,21.55019,0,0,1,2.78,7.75H48.45a11.99988,11.99988,0,0,0-1.55-4.71,16.28,16.28,0,0,0-3.53-4.32,18.1499,18.1499,0,0,0-5.31-3.2,18.38,18.38,0,0,0-6.92-1.24,19.33,19.33,0,0,0-9.19,2,18.23,18.23,0,0,0-6.28,5.38,22.99976,22.99976,0,0,0-3.61,7.56,32.49,32.49,0,0,0,0,17.28,23.09994,23.09994,0,0,0,3.61,7.6A18.34,18.34,0,0,0,22,209.94a19.45,19.45,0,0,0,9.19,2,20.35976,20.35976,0,0,0,7.94-1.47,16.47,16.47,0,0,0,5.9-4.1,17.27021,17.27021,0,0,0,3.62-6.25,23.82,23.82,0,0,0,1.13-7.9H31.44v-4.36h22.8v27.32Z"/><path d="M104.59,161.47v4.36h-32v19.42h30v4.37h-30v21.22H105v4.37H67.49V161.47Z"/><path d="M121.15,161.47l31.31,45.46h.15V161.47h5.11v53.74H152l-31.3-45.46h-.16v45.46h-5.11V161.47Z"/><path d="M209,161.47v4.36H177v19.42h29.95v4.37H177v21.22h32.36v4.37H171.87V161.47Z"/><path d="M244.5,161.47a23.34982,23.34982,0,0,1,6.28.83,15.17007,15.17007,0,0,1,5.2,2.52,12.13986,12.13986,0,0,1,3.53,4.36,14.08,14.08,0,0,1,1.32,6.29,15.13984,15.13984,0,0,1-2.63,8.88,12.06,12.06,0,0,1-7.83,4.82v.15a11.83986,11.83986,0,0,1,4.36,1.39,8.81,8.81,0,0,1,2.83,2.59,10.99974,10.99974,0,0,1,1.58,3.66,27.31844,27.31844,0,0,1,.64,4.47c.05.91.1,2,.15,3.32s.15,2.62.3,3.95a25.07215,25.07215,0,0,0,.71,3.76,7.35024,7.35024,0,0,0,1.32,2.75h-5.64a6.74064,6.74064,0,0,1-.72-1.85,16.14024,16.14024,0,0,1-.38-2.26c-.07-.77-.13-1.54-.18-2.29s-.11-1.41-.15-2c-.11-1.9-.27-3.8-.49-5.68a15.84963,15.84963,0,0,0-1.43-5,8.99994,8.99994,0,0,0-3.16-3.58,9.59,9.59,0,0,0-5.69-1.2H225v23.86h-5.12V161.47ZM244.12,187a13.58987,13.58987,0,0,0,4.44-.71,11.09984,11.09984,0,0,0,3.69-2.07,10.31991,10.31991,0,0,0,2.52-3.28,9.79,9.79,0,0,0,.94-4.4,10.58,10.58,0,0,0-2.86-7.83c-1.91-1.9-4.81-2.86-8.73-2.86H225V187Z"/><path d="M294.92,161.47,316,215.21h-5.5L304,198.5H279.49L273,215.21h-5.4l21.6-53.74Zm7.3,32.66-10.38-27.54-10.76,27.54Z"/><path d="M329.39,161.47v49.37H359.5v4.37H324.27V161.47Z"/><path d="M399.76,161.47l17.84,47.11,18.51-47.11h7.53v53.74h-5.12V168.77h-.15L420,215.21h-4.82L397.5,168.77h-.15v46.44h-5.12V161.47Z"/><path d="M494.66,161.47v4.36h-32v19.42h29.95v4.37H462.68v21.22H495v4.37H457.56V161.47Z"/><path d="M513,161.47l17.84,47.11,18.51-47.11h7.53v53.74h-5.12V168.77h-.15L533.2,215.21h-4.82l-17.69-46.44h-.15v46.44h-5.11V161.47Z"/><path d="M593.48,161.47a32.09041,32.09041,0,0,1,6.51.64,15.93017,15.93017,0,0,1,5.5,2.18,11.6901,11.6901,0,0,1,3.8,4.07,13.74988,13.74988,0,0,1,.75,10.38,12.35011,12.35011,0,0,1-4.86,6.36,10.81026,10.81026,0,0,1-3.8,1.58v.15a12.6601,12.6601,0,0,1,8.28,4.25,13.07993,13.07993,0,0,1,3.09,8.85,21.42429,21.42429,0,0,1-.23,2.9,14.23159,14.23159,0,0,1-.9,3.31,13.84986,13.84986,0,0,1-2,3.35,11.4502,11.4502,0,0,1-3.42,2.89,20.69984,20.69984,0,0,1-5.27,2,31.22967,31.22967,0,0,1-7.49.79H570.75v-53.7Zm0,23.56a17.59975,17.59975,0,0,0,5.34-.72,11.19039,11.19039,0,0,0,3.77-2,8.14027,8.14027,0,0,0,2.26-2.89,8.51991,8.51991,0,0,0,.75-3.54q0-10.08-12.12-10.09H575.87V185Zm0,25.81a28.53114,28.53114,0,0,0,5.42-.49,12.2203,12.2203,0,0,0,4.52-1.77,9,9,0,0,0,3.08-3.42,11.5,11.5,0,0,0,1.13-5.38q0-5.19-3.65-7.79t-10.5-2.6H575.87v21.45Z"/><path d="M661.44,161.47v4.36h-32v19.42h29.95v4.37H629.46v21.22h32.36v4.37H624.34V161.47Z"/><path d="M697,161.47a23.42012,23.42012,0,0,1,6.29.83,15.11994,15.11994,0,0,1,5.19,2.52,12.17,12.17,0,0,1,3.54,4.36,14.08,14.08,0,0,1,1.32,6.29,15.0698,15.0698,0,0,1-2.64,8.88,12,12,0,0,1-7.83,4.82v.15a11.83988,11.83988,0,0,1,4.37,1.39A8.88013,8.88013,0,0,1,710,193.3a10.61,10.61,0,0,1,1.6,3.7,26.28341,26.28341,0,0,1,.64,4.47c0,.91.1,2,.15,3.32s.15,2.62.3,3.95a23.86126,23.86126,0,0,0,.72,3.76,7.05017,7.05017,0,0,0,1.32,2.75h-5.65a6.44082,6.44082,0,0,1-.71-1.85,16.13853,16.13853,0,0,1-.38-2.26c-.08-.77-.14-1.54-.19-2.29s-.1-1.41-.15-2c-.1-1.9-.26-3.8-.49-5.68a15.35082,15.35082,0,0,0-1.43-5,9.00032,9.00032,0,0,0-3.16-3.58,9.56,9.56,0,0,0-5.68-1.2H677.47v23.86h-5.12V161.47ZM696.59,187a13.68019,13.68019,0,0,0,4.44-.71,11.29984,11.29984,0,0,0,3.69-2.07,10.32026,10.32026,0,0,0,2.52-3.28,9.92062,9.92062,0,0,0,.94-4.4,10.6198,10.6198,0,0,0-2.86-7.83c-1.91-1.9-4.82-2.86-8.73-2.86H677.47V187Z"/><line class="cls-1" x1="2.91" y1="134.09" x2="713.13" y2="134.09"/></svg>