<svg id="Layer_1" data-name="Layer 1" xmlns="http://www.w3.org/2000/svg" viewBox="0 0 360 360"><defs><style>.cls-1{fill:#43af5a;}.cls-2{fill:#fc0;}.cls-3{fill:#d2e4f4;}.cls-4{fill:#009ade;}.cls-5{fill:#003764;}</style></defs><title>lfedge-landscape-icon-color</title><path class="cls-1" d="M240.97139,293.08088H288.8521V251.27239c-16.96174-12.15129-33.76951-24.31481-50.41277-36.79857-5.07468-3.84977-8.92446-4.02475-13.99916.175-9.44943,7.87453-19.42385,15.0491-29.04829,22.74865-4.02477,3.14981-6.99959,3.14981-10.67437-.7-17.499-17.67395-35.52287-34.99791-52.84685-52.84686-4.37474-4.54972-7.52458-4.54972-12.24927-.7-17.69848,14.54688-35.4827,28.92576-53.28961,43.3099v66.622H209.272v43.65467h31.69936V293.0826Z"/><path class="cls-2" d="M220.76535,167.74985A35.349,35.349,0,1,0,185.06749,132.402,35.34894,35.34894,0,0,0,220.76535,167.74985Z"/><path class="cls-3" d="M66.33181,150.10566v76.35321c17.807-14.38413,35.59289-28.763,53.28957-43.30993,4.7247-3.84976,7.87452-3.84976,12.24925.7,17.324,17.84894,35.34789,35.1729,52.84686,52.84687,3.67473,3.84976,6.6496,3.84976,10.67437.7,9.62443-7.69955,19.59881-14.87412,29.04829-22.74865,5.07468-4.19975,8.92448-4.02477,13.99916-.175,16.64333,12.48374,33.451,24.649,50.41277,36.80032V70.69015H66.24258V118.3503H19.83184v31.75711h46.5ZM220.59036,97.05407A34.96291,34.96291,0,0,1,255.9406,131.6253v0q.00531.4758-.00235.95163a35.4355,35.4355,0,0,1-70.87076-.175h0a35.06791,35.06791,0,0,1,34.78382-35.3497h0Q220.22085,97.04927,220.59036,97.05407Z"/><path class="cls-4" d="M209.27205,293.08088H66.33181V150.10566h-46.5V336.73552H209.27205Z"/><path class="cls-5" d="M19.83184,36.49194v81.85661H66.24258V70.6919H288.852v222.389h-47.8807v43.65466h95.00708V23.26273H19.83184Z"/></svg>