<svg id="Layer_1" data-name="Layer 1" xmlns="http://www.w3.org/2000/svg" viewBox="0 0 791 93.4"><defs><style>.cls-1{fill:#10cfc9;}.cls-2{fill:#9164cc;}.cls-3{fill:#201747;}</style></defs><title>eve-horizontal-color</title><path class="cls-1" d="M128.1,93.3H49.9l-7-13h60.5L88.9,53.1H28.4l-7-13H82.1L67.2,13.2H7L0,.2,78.2.1Z"/><polygon class="cls-1" points="178.5 0 137.6 76.9 97 0 178.5 0"/><path class="cls-1" d="M147.2,93.3h78.3l7-13H172l14.5-27.1H247l7-13H193.4l14.6-27h60.3l7-13L197.1.1Z"/><path class="cls-2" d="M286.5,35.6a5.16,5.16,0,0,0,.2,1.1,2.38369,2.38369,0,0,0,.6,1.1,2.44468,2.44468,0,0,0,1.1.9,3.76779,3.76779,0,0,0,1.6.4h16.7V32.6H293.5V22.1h12.2V15.6H293.5V7.5h13.2V1H286.6V35.6Z"/><path class="cls-2" d="M335.4,1,315,1.3V39.1h5.7l.5-1.7,8.1,2.5a3.75133,3.75133,0,0,0,1,.1,4.61682,4.61682,0,0,0,2.3-.5l4.6-2.8a3.17908,3.17908,0,0,0,1.1-1.2,3.06436,3.06436,0,0,0,.4-1.7V4a3.67817,3.67817,0,0,0-.8-2.1A3.32762,3.32762,0,0,0,335.4,1Zm-3.6,31.7L329.7,34l-7.8-1.9V7.1h9.9Z"/><path class="cls-2" d="M358.4,21.7h5.3v8.5l-5.6,3.2-3.6-2.3V7.1h9.2v4.7h6.2L370.5,1H351.2a3.80783,3.80783,0,0,0-1.6.3,4.81154,4.81154,0,0,0-1.1.9,3.00428,3.00428,0,0,0-.6,1.1,5.16,5.16,0,0,0-.2,1.1V32a3.28692,3.28692,0,0,0,.4,1.7,3.17873,3.17873,0,0,0,1.1,1.2l7.3,4.8a3.40828,3.40828,0,0,0,1.6.4,2.822,2.822,0,0,0,1.5-.4l9.3-5.3a3.40323,3.40323,0,0,0,1.7-2.9V15.7H358.4v6Z"/><path class="cls-2" d="M380.5,37.8a2.44471,2.44471,0,0,0,1.1.9,3.76774,3.76774,0,0,0,1.6.4h16.7V32.6H386.7V22.1h12.2V15.6H386.7V7.5h13.2V1H379.8V35.6a5.15932,5.15932,0,0,0,.2,1.1A1.823,1.823,0,0,0,380.5,37.8Z"/><path class="cls-2" d="M429.6,39.6l9-5.1a5.26239,5.26239,0,0,0,1.4-1.2,2.21119,2.21119,0,0,0,.6-1.9V1h-6.9V30.2l-5.6,3.2-3.6-2.3V1h-6.9V32a3.28691,3.28691,0,0,0,.4,1.7,3.17884,3.17884,0,0,0,1.1,1.2l7.3,4.8a3.52982,3.52982,0,0,0,1.7.4A4.42374,4.42374,0,0,0,429.6,39.6Z"/><rect class="cls-2" x="450" y="1" width="6.89999" height="38.1"/><path class="cls-2" d="M487.5,2.3a2.44471,2.44471,0,0,0-1.1-.9,3.76774,3.76774,0,0,0-1.6-.4l-18.6.3V39.1h6.9v-14l2.8-.6,5.5,6.6.3,8.1h6.4l-.3-9.3a5.784,5.784,0,0,0-1.4-3.4L483,22.9l1.9-.4a4.40207,4.40207,0,0,0,2.6-1.5,3.03845,3.03845,0,0,0,.8-2V4.5a5.16,5.16,0,0,0-.2-1.1A2.3833,2.3833,0,0,0,487.5,2.3Zm-6,15-8.3,2V7.1h8.3Z"/><polygon class="cls-2" points="495.2 7.4 503 7.4 503 39.1 509.9 39.1 509.9 7.4 517.7 7.4 517.7 1 495.2 1 495.2 7.4"/><path class="cls-2" d="M540.7,29.3l-7.4,4.1-2-1.3V1h-6.9V33.1a3.28635,3.28635,0,0,0,.4,1.7,3.17874,3.17874,0,0,0,1.1,1.2l5.7,3.7a3.52994,3.52994,0,0,0,1.7.4,2.73455,2.73455,0,0,0,1.4-.4l6.4-4.1h.4l.2,3.5h5.8V1h-6.9V29.3Z"/><path class="cls-2" d="M578.8,5.2,571.5.4a3.40845,3.40845,0,0,0-1.6-.4,2.822,2.822,0,0,0-1.5.4l-9.6,5.1a5.26316,5.26316,0,0,0-1.4,1.2,2.211,2.211,0,0,0-.6,1.9V39h6.9V25.6h9.8V39.1h6.9V8a3.28635,3.28635,0,0,0-.4-1.7A5.998,5.998,0,0,0,578.8,5.2Zm-5.4,14h-9.8v-9l6.2-3.2,3.6,2.3Z"/><path class="cls-2" d="M596.4,1h-6.9V35.6a5.15807,5.15807,0,0,0,.2,1.1,2.38363,2.38363,0,0,0,.6,1.1,2.4446,2.4446,0,0,0,1.1.9,2.71434,2.71434,0,0,0,1.6.3h15.6V32.6h-12.2V1Z"/><rect class="cls-2" x="615.5" y="1" width="6.90002" height="38.1"/><polygon class="cls-2" points="651.9 5.1 651.9 1 630.7 1 630.7 7.4 643.8 7.4 630.2 34.9 630.2 39.1 652.5 39.1 652.5 32.6 638.4 32.6 651.9 5.1"/><path class="cls-2" d="M681.6,5.2,674.3.4a2.98188,2.98188,0,0,0-1.5-.4,2.822,2.822,0,0,0-1.5.4l-9.6,5.1a5.263,5.263,0,0,0-1.4,1.2,2.21108,2.21108,0,0,0-.6,1.9V39h6.9V25.6h9.8V39.1h6.9V8a3.28635,3.28635,0,0,0-.4-1.7A4.48789,4.48789,0,0,0,681.6,5.2Zm-5.4,14h-9.8v-9L672.6,7l3.6,2.3Z"/><polygon class="cls-2" points="689.8 7.4 697.6 7.4 697.6 39.1 704.5 39.1 704.5 7.4 712.3 7.4 712.3 1 689.8 1 689.8 7.4"/><rect class="cls-2" x="719.20001" y="1" width="6.90002" height="38.1"/><path class="cls-2" d="M758.1,2.3a2.44462,2.44462,0,0,0-1.1-.9,3.76784,3.76784,0,0,0-1.6-.4h-16.6a2.726,2.726,0,0,0-1.6.4,4.81025,4.81025,0,0,0-1.1.9,3.00374,3.00374,0,0,0-.6,1.1,4.25411,4.25411,0,0,0-.2,1.1V32a3.28644,3.28644,0,0,0,.4,1.7,3.17876,3.17876,0,0,0,1.1,1.2l7.3,4.8a3.40843,3.40843,0,0,0,1.6.4,2.822,2.822,0,0,0,1.5-.4l9.6-5.1a5.263,5.263,0,0,0,1.4-1.2,2.211,2.211,0,0,0,.6-1.9V4.5a5.15807,5.15807,0,0,0-.2-1.1A1.606,1.606,0,0,0,758.1,2.3ZM752,30.2l-6.2,3.2-3.6-2.3V7.1H752Z"/><path class="cls-2" d="M790.8,3.4a2.38363,2.38363,0,0,0-.6-1.1,2.4446,2.4446,0,0,0-1.1-.9,3.76788,3.76788,0,0,0-1.6-.4H783a6.36349,6.36349,0,0,0-3.8,1.2L775.1,5h-.2V1H768V39.1h6.9V11.4l6.9-4.3h2.2V39h6.9V4.5A2.16219,2.16219,0,0,0,790.8,3.4Z"/><path class="cls-3" d="M286.5,89a5.16,5.16,0,0,0,.2,1.1,2.38369,2.38369,0,0,0,.6,1.1,2.44474,2.44474,0,0,0,1.1.9,3.76779,3.76779,0,0,0,1.6.4h16.7V86H293.5V75.6h12.2V69.1H293.5V60.9h13.2V54.4H286.6V89Z"/><path class="cls-3" d="M337.2,55.7a2.44468,2.44468,0,0,0-1.1-.9,3.76779,3.76779,0,0,0-1.6-.4H330a6.36355,6.36355,0,0,0-3.8,1.2l-4.1,2.7h-.2v-4H315V92.4h6.9V64.8l6.9-4.3H331V92.4h6.9V57.9a5.15932,5.15932,0,0,0-.2-1.1A1.60572,1.60572,0,0,0,337.2,55.7Z"/><path class="cls-3" d="M358,75.1h5.3v8.5l-5.6,3.2-3.6-2.3v-24h9.2v4.7h6.2l.5-10.8H350.7a3.80783,3.80783,0,0,0-1.6.3,4.81154,4.81154,0,0,0-1.1.9,3.00428,3.00428,0,0,0-.6,1.1,5.16,5.16,0,0,0-.2,1.1V85.4a3.28692,3.28692,0,0,0,.4,1.7,3.17873,3.17873,0,0,0,1.1,1.2l7.3,4.8a3.40828,3.40828,0,0,0,1.6.4,2.822,2.822,0,0,0,1.5-.4l9.3-5.3a3.40323,3.40323,0,0,0,1.7-2.9V69.1H358Z"/><rect class="cls-3" x="379.29999" y="54.4" width="6.89999" height="38.1"/><path class="cls-3" d="M417.8,55.7a2.44471,2.44471,0,0,0-1.1-.9,3.76774,3.76774,0,0,0-1.6-.4h-4.5a6.36351,6.36351,0,0,0-3.8,1.2l-4.1,2.7h-.2v-4h-6.8V92.4h6.9V64.8l6.9-4.3h2.2V92.4h6.9V57.9a5.1594,5.1594,0,0,0-.2-1.1A2.38325,2.38325,0,0,0,417.8,55.7Z"/><path class="cls-3" d="M428,89a5.16,5.16,0,0,0,.2,1.1,2.38369,2.38369,0,0,0,.6,1.1,2.44474,2.44474,0,0,0,1.1.9,3.76779,3.76779,0,0,0,1.6.4h16.7V86H435V75.6h12.2V69.1H435V60.9h13.2V54.4H428Z"/></svg>