<svg id="Layer_1" data-name="Layer 1" xmlns="http://www.w3.org/2000/svg" viewBox="0 0 772 307.89999"><title>eve-stacked-black</title><path d="M371.4,142.7H251.8l-10.6-19.9h92.5l-22.2-41.5h-92.7L208.1,61.4H301L278.3,20.3H186.1L175.4.4,295,.3Z"/><polygon points="448.5 0 385.9 117.6 323.9 0 448.5 0"/><path d="M400.7,142.7h119.6l10.7-19.9h-92.5l22.2-41.5h92.6l10.6-19.9H471.1l22.6-41.1h92.2L596.6.5,477,.3Z"/><path d="M0,219.4A4.973,4.973,0,0,0,.3,221a5.5589,5.5589,0,0,0,.9,1.7,7.31212,7.31212,0,0,0,1.6,1.4,4.87129,4.87129,0,0,0,2.5.6H30.8v-9.9H10.5v-16H29.1v-9.9H10.5V176.3H30.8v-9.9H0Z"/><path d="M74.9,166.4l-31.2.4v57.9h8.7l.8-2.5L65.5,226a7.71837,7.71837,0,0,0,1.5.2,6.3276,6.3276,0,0,0,3.5-.7l7.1-4.3a4.23648,4.23648,0,0,0,1.7-1.8,5.42142,5.42142,0,0,0,.6-2.5V171.3a4.486,4.486,0,0,0-1.3-3.1A3.89831,3.89831,0,0,0,74.9,166.4Zm-5.5,48.5-3.2,2L54.3,214V175.9H69.4Z"/><path d="M110.1,198.1h8.2v13l-8.6,4.8-5.5-3.6V175.8h14.1V183h9.5l.8-16.6H99a4.03624,4.03624,0,0,0-2.5.5,4.3894,4.3894,0,0,0-1.6,1.4,5.076,5.076,0,0,0-.9,1.8,5.54689,5.54689,0,0,0-.3,1.7V214a5.13515,5.13515,0,0,0,.6,2.5,4.23664,4.23664,0,0,0,1.7,1.8l11.1,7.3a4.39763,4.39763,0,0,0,2.5.6,5.32517,5.32517,0,0,0,2.4-.6l14.3-8.2a5.08977,5.08977,0,0,0,2.6-4.5v-24H110.2v9.2Z"/><path d="M143.9,222.7a7.312,7.312,0,0,0,1.6,1.4,4.87129,4.87129,0,0,0,2.5.6h25.5v-9.9H153.2v-16h18.6v-9.9H153.2V176.3h20.3v-9.9H142.7v53a4.973,4.973,0,0,0,.3,1.6A5.55922,5.55922,0,0,0,143.9,222.7Z"/><path d="M219,225.5l13.7-7.8a7.70384,7.70384,0,0,0,2.2-1.9,4.27129,4.27129,0,0,0,1-2.9V166.4H225.4V211l-8.6,4.9-5.5-3.6V166.4H200.8v47.5a5.1351,5.1351,0,0,0,.6,2.5,4.23657,4.23657,0,0,0,1.7,1.8l11.1,7.3a4.32575,4.32575,0,0,0,2.6.6A4.8672,4.8672,0,0,0,219,225.5Z"/><rect x="250.2" y="166.39999" width="10.50002" height="58.3"/><path d="M307.7,168.4a7.31189,7.31189,0,0,0-1.6-1.4,4.87134,4.87134,0,0,0-2.5-.6l-28.4.4v57.9h10.5V203.3l4.3-1,8.4,10.1.4,12.3h9.7l-.4-14.3a7.69377,7.69377,0,0,0-2.2-5.2l-5.2-5.5,2.9-.7a5.98939,5.98939,0,0,0,4-2.4,5.76123,5.76123,0,0,0,1.3-3.1V171.7a4.97351,4.97351,0,0,0-.3-1.6A5.55883,5.55883,0,0,0,307.7,168.4Zm-9.3,23-12.7,3V175.8h12.7Z"/><polygon points="319.4 176.2 331.4 176.2 331.4 224.7 341.9 224.7 341.9 176.2 353.8 176.2 353.8 166.4 319.4 166.4 319.4 176.2"/><path d="M389,209.7l-11.3,6.2-3-2V166.4H364.2v49.1a5.13527,5.13527,0,0,0,.6,2.5,4.2365,4.2365,0,0,0,1.7,1.8l8.7,5.6a4.32579,4.32579,0,0,0,2.6.6,4.867,4.867,0,0,0,2.2-.6l9.8-6.2h.7l.2,5.4h8.9V166.3H389Z"/><path d="M447.3,172.8l-11.1-7.3a4.39761,4.39761,0,0,0-2.5-.6,5.32514,5.32514,0,0,0-2.4.6l-14.6,7.8a7.7043,7.7043,0,0,0-2.2,1.9,4.27124,4.27124,0,0,0-1,2.9v46.6H424V204h15v20.7h10.5V177.1a5.13521,5.13521,0,0,0-.6-2.5A4.03393,4.03393,0,0,0,447.3,172.8ZM439,194.3H424V180.5l9.5-4.9,5.5,3.6Z"/><path d="M474.3,166.4H463.8v53a6.09341,6.09341,0,0,0,.3,1.7,7.57248,7.57248,0,0,0,.9,1.8,7.312,7.312,0,0,0,1.6,1.4,4.86945,4.86945,0,0,0,2.5.5H493V215H474.4V166.4Z"/><rect x="503.39999" y="166.39999" width="10.50003" height="58.3"/><polygon points="559.1 172.6 559.1 166.4 526.7 166.4 526.7 176.2 546.7 176.2 526 218.3 526 224.7 560 224.7 560 214.8 538.4 214.8 559.1 172.6"/><path d="M604.6,172.8l-11.1-7.3a4.39763,4.39763,0,0,0-2.5-.6,5.32542,5.32542,0,0,0-2.4.6L574,173.3a7.7043,7.7043,0,0,0-2.2,1.9,4.27124,4.27124,0,0,0-1,2.9v46.6h10.5V204h15v20.7h10.5V177.1a5.13553,5.13553,0,0,0-.6-2.5A3.52908,3.52908,0,0,0,604.6,172.8Zm-8.2,21.5h-15V180.5l9.5-4.9,5.5,3.6Z"/><polygon points="617.2 176.2 629.2 176.2 629.2 224.7 639.7 224.7 639.7 176.2 651.6 176.2 651.6 166.4 617.2 166.4 617.2 176.2"/><rect x="662.09998" y="166.39999" width="10.5" height="58.3"/><path d="M721.7,168.4a7.3131,7.3131,0,0,0-1.6-1.4,4.87134,4.87134,0,0,0-2.5-.6H692.2a4.87111,4.87111,0,0,0-2.5.6,4.38878,4.38878,0,0,0-1.6,1.4,4.01108,4.01108,0,0,0-.9,1.7,4.97273,4.97273,0,0,0-.3,1.6v42.2a5.13564,5.13564,0,0,0,.6,2.5,4.23665,4.23665,0,0,0,1.7,1.8l11.1,7.3a4.39761,4.39761,0,0,0,2.5.6,5.32545,5.32545,0,0,0,2.4-.6l14.6-7.8a7.7043,7.7043,0,0,0,2.2-1.9,4.27124,4.27124,0,0,0,1-2.9V171.7a4.97262,4.97262,0,0,0-.3-1.6A9.49692,9.49692,0,0,0,721.7,168.4Zm-9.4,42.7-9.5,4.9-5.5-3.6V175.9h15Z"/><path d="M771.7,170.1a5.55874,5.55874,0,0,0-.9-1.7,7.31316,7.31316,0,0,0-1.6-1.4,4.87121,4.87121,0,0,0-2.5-.6h-6.9a9.88149,9.88149,0,0,0-5.9,1.9l-6.2,4.2h-.3v-6H736.9v58.3h10.5V182.5l10.6-6.5h3.4v48.9H772v-53A5.66212,5.66212,0,0,0,771.7,170.1Z"/><path d="M262.3,301.1a4.97317,4.97317,0,0,0,.3,1.6,5.55936,5.55936,0,0,0,.9,1.7,7.312,7.312,0,0,0,1.6,1.4,4.87131,4.87131,0,0,0,2.5.6h25.5v-9.9H272.8v-16h18.6v-9.9H272.8V258h20.3v-9.9H262.3Z"/><path d="M340,250.1a7.312,7.312,0,0,0-1.6-1.4,4.87131,4.87131,0,0,0-2.5-.6H329a9.88109,9.88109,0,0,0-5.9,1.9l-6.2,4.2h-.3v-6H306v58.3h10.5V264.2l10.6-6.5h3.4v48.9H341v-53a4.97354,4.97354,0,0,0-.3-1.6A3.15715,3.15715,0,0,0,340,250.1Z"/><path d="M371.8,279.9H380v13l-8.6,4.8-5.5-3.6V257.6H380v7.2h9.5l.8-16.6H360.7a4.03625,4.03625,0,0,0-2.5.5,4.38915,4.38915,0,0,0-1.6,1.4,5.07565,5.07565,0,0,0-.9,1.8,5.54651,5.54651,0,0,0-.3,1.7v42.2a5.1354,5.1354,0,0,0,.6,2.5,4.23647,4.23647,0,0,0,1.7,1.8l11.1,7.3a4.39752,4.39752,0,0,0,2.5.6,5.32527,5.32527,0,0,0,2.4-.6l14.3-8.2a5.08976,5.08976,0,0,0,2.6-4.5v-24H371.9v9.2Z"/><rect x="404.39999" y="248.2" width="10.5" height="58.3"/><path d="M463.3,250.1a7.31225,7.31225,0,0,0-1.6-1.4,4.87131,4.87131,0,0,0-2.5-.6h-6.9a9.88114,9.88114,0,0,0-5.9,1.9l-6.2,4.2h-.3v-6H429.4v58.3h10.5V264.2l10.6-6.5h3.4v48.9h10.5v-53a4.97351,4.97351,0,0,0-.3-1.6A4.0646,4.0646,0,0,0,463.3,250.1Z"/><path d="M478.9,301.1a4.97344,4.97344,0,0,0,.3,1.6,5.55917,5.55917,0,0,0,.9,1.7,7.31219,7.31219,0,0,0,1.6,1.4,4.87131,4.87131,0,0,0,2.5.6h25.5v-9.9H489.4v-16H508v-9.9H489.4V258h20.3v-9.9H478.9Z"/></svg>