<svg id="图层_1" data-name="图层 1" xmlns="http://www.w3.org/2000/svg" viewBox="0 0 1000 1000"><defs><style>.cls-1{font-size:137.54px;fill:#111126;font-family:Roboto-Medium, Roboto;font-weight:500;}.cls-2{fill:#1ec4ca;}</style></defs><text class="cls-1" transform="translate(404.93 553.31)">NanoMQ</text><path class="cls-2" d="M62.16,546.19a112.62,112.62,0,0,1-6.79-76.36,116.36,116.36,0,0,1,44.56-64.35c21.92-15.71,49.69-23.18,77-21.27a120,120,0,0,1,39.91,10.25,122.09,122.09,0,0,1,21.91,12.93,13.81,13.81,0,0,1,1.56,21.05h0a13.77,13.77,0,0,1-18.53.51,92.88,92.88,0,0,0-47.33-21.26,97.7,97.7,0,0,0-64.07,13.45,99.91,99.91,0,0,0-41.53,52.68,100.94,100.94,0,0,0,1.84,68.67Z"/><path class="cls-2" d="M84.75,572.8a4.85,4.85,0,0,1,6.59.2,103.65,103.65,0,0,0,26.46,18.46,101.15,101.15,0,0,0,35,9.52c24.17,1.84,48.53-5.08,67.38-19.39a96.73,96.73,0,0,0,23.75-25.72,94.77,94.77,0,0,0,12.71-32.13,62.61,62.61,0,0,0,1.27-8.51,53.49,53.49,0,0,0,.49-8.58,80.47,80.47,0,0,0-1.16-17.06A92.32,92.32,0,0,0,245.72,458l24.93-13.54A119.52,119.52,0,0,1,283,486.18a106.07,106.07,0,0,1,.17,21.67,74.48,74.48,0,0,1-1.29,10.73,85.66,85.66,0,0,1-2.25,10.55A116.08,116.08,0,0,1,231,597a115,115,0,0,1-38.5,16.31A117.11,117.11,0,0,1,151.19,615a112.1,112.1,0,0,1-66.85-35.37,4.79,4.79,0,0,1,.41-6.79Z"/><circle class="cls-2" cx="68.06" cy="545.86" r="15.09"/><circle class="cls-2" cx="126.78" cy="492.74" r="19.4"/><circle class="cls-2" cx="182.9" cy="529.94" r="23.99"/><circle class="cls-2" cx="264.36" cy="467.85" r="26.96"/><path class="cls-2" d="M65.53,557.25a7.93,7.93,0,0,1-5.61-13.54l59-59A7.94,7.94,0,0,1,130.13,496l-59,59A7.93,7.93,0,0,1,65.53,557.25Z"/><path class="cls-2" d="M182.9,550.42a7.92,7.92,0,0,1-5.49-2.21L123,496.07a7.94,7.94,0,0,1,11-11.47l54.41,52.15a7.94,7.94,0,0,1-5.49,13.67Z"/><path class="cls-2" d="M180.47,552.68a7.94,7.94,0,0,1-5.41-13.74l82.45-76.89a7.94,7.94,0,0,1,10.83,11.61l-82.45,76.89A8,8,0,0,1,180.47,552.68Z"/></svg>