<svg id="Layer_1" data-name="Layer 1" xmlns="http://www.w3.org/2000/svg" xmlns:xlink="http://www.w3.org/1999/xlink" viewBox="0 0 720 593"><defs><style>.cls-1{fill:#fff;}.cls-2{opacity:0.57;}.cls-3{fill:url(#linear-gradient);}.cls-4{fill:url(#linear-gradient-2);}.cls-5{fill:url(#linear-gradient-3);}.cls-6{fill:url(#linear-gradient-4);}.cls-7{fill:url(#linear-gradient-5);}.cls-8{fill:url(#linear-gradient-6);}.cls-9{fill:url(#linear-gradient-7);}.cls-10{fill:url(#linear-gradient-8);}.cls-11{fill:url(#linear-gradient-9);}.cls-12{fill:url(#linear-gradient-10);}.cls-13{fill:url(#linear-gradient-11);}</style><linearGradient id="linear-gradient" x1="54.19029" y1="122.62192" x2="54.19029" y2="27.52979" gradientTransform="matrix(1, 0, 0, -1, 0, 593)" gradientUnits="userSpaceOnUse"><stop offset="0.25335" stop-color="#f6f6f6" stop-opacity="0.84902"/><stop offset="0.30041" stop-color="#f7f7f7" stop-opacity="0.79479"/><stop offset="1" stop-color="#fff" stop-opacity="0"/></linearGradient><linearGradient id="linear-gradient-2" x1="116.30886" y1="122.62192" x2="116.30886" y2="27.52979" xlink:href="#linear-gradient"/><linearGradient id="linear-gradient-3" x1="173.76006" y1="122.62192" x2="173.76006" y2="27.52979" xlink:href="#linear-gradient"/><linearGradient id="linear-gradient-4" x1="232.09322" y1="122.62192" x2="232.09322" y2="27.52979" xlink:href="#linear-gradient"/><linearGradient id="linear-gradient-5" x1="314.68414" y1="122.62192" x2="314.68414" y2="27.52979" xlink:href="#linear-gradient"/><linearGradient id="linear-gradient-6" x1="378.94615" y1="122.62192" x2="378.94615" y2="27.52979" xlink:href="#linear-gradient"/><linearGradient id="linear-gradient-7" x1="441.06468" y1="122.62192" x2="441.06468" y2="27.52979" xlink:href="#linear-gradient"/><linearGradient id="linear-gradient-8" x1="487.60701" y1="122.62192" x2="487.60701" y2="27.52979" xlink:href="#linear-gradient"/><linearGradient id="linear-gradient-9" x1="531.29224" y1="122.62192" x2="531.29224" y2="27.52979" xlink:href="#linear-gradient"/><linearGradient id="linear-gradient-10" x1="589.94313" y1="122.62192" x2="589.94313" y2="27.52979" xlink:href="#linear-gradient"/><linearGradient id="linear-gradient-11" x1="652.94479" y1="122.62192" x2="652.94479" y2="27.52979" xlink:href="#linear-gradient"/></defs><title>openhorizon-stacked-white</title><g id="Layer_6" data-name="Layer 6"><path class="cls-1" d="M460.6333,349.20856l-.18722-.30033a11.19392,11.19392,0,0,1,2.86029-14.95309A136.70781,136.70781,0,0,0,503.57309,160.3015a11.19375,11.19375,0,0,1,4.01346-14.68575l.30865-.19244a11.21291,11.21291,0,0,1,15.45136,3.5657q.21533.34458.40533.70409A159.47777,159.47777,0,0,1,476.7507,352.35419a11.21292,11.21292,0,0,1-15.66363-2.47177Q460.84806,349.55383,460.6333,349.20856Z"/><path class="cls-1" d="M436.41806,310.36981l-.19266-.3089a11.18665,11.18665,0,0,1,2.54718-14.71548,91.145,91.145,0,0,0,25.77671-111.17436,11.1866,11.1866,0,0,1,4.19-14.33477l.309-.19256a11.2426,11.2426,0,0,1,16.07272,4.6998,113.93624,113.93624,0,0,1-32.202,138.88083,11.24261,11.24261,0,0,1-16.50095-2.85456Z"/><path class="cls-1" d="M412.03711,271.26529l-.19589-.31415a11.32351,11.32351,0,0,1,1.96331-14.22619,45.59186,45.59186,0,0,0,11.32667-48.86576,11.32328,11.32328,0,0,1,4.49859-13.63884l.31424-.19584a11.20166,11.20166,0,0,1,16.3974,5.45834,68.39425,68.39425,0,0,1-17.17789,74.09857,11.20142,11.20142,0,0,1-17.12643-2.31613Z"/></g><g id="Layer_5" data-name="Layer 5"><g class="cls-2"><path class="cls-3" d="M77.09166,562.264a6.936,6.936,0,0,1-.36348,2.07763,6.826,6.826,0,0,1-1.19474,2.182,7.43462,7.43462,0,0,1-2.07789,1.76575,6.11208,6.11208,0,0,1-3.11669.72747H38.029a6.11088,6.11088,0,0,1-3.1167-.72747,7.41183,7.41183,0,0,1-2.07788-1.76575,6.7526,6.7526,0,0,1-1.19474-2.182A6.88561,6.88561,0,0,1,31.276,562.264V508.65677a6.70668,6.70668,0,0,1,.77938-3.22077,5.88046,5.88046,0,0,1,2.12977-2.2857l14.12905-9.246a5.76938,5.76938,0,0,1,3.11669-.72748,7.12154,7.12154,0,0,1,3.01266.72748L73.04,503.77353a10.99742,10.99742,0,0,1,2.805,2.38946,5.13333,5.13333,0,0,1,1.24663,3.74015Zm-25.453-56.20432-6.96061,4.57086V557.0694H63.68983V512.2926Z"/><path class="cls-4" d="M108.25726,494.94308v18.80448l22.7522,4.8822a7.62834,7.62834,0,0,1,5.19458,2.80566,7.017,7.017,0,0,1,1.55821,3.9477V562.264a6.93567,6.93567,0,0,1-.36346,2.07763,6.82658,6.82658,0,0,1-1.19473,2.182,7.43834,7.43834,0,0,1-2.0779,1.76575,6.11209,6.11209,0,0,1-3.11668.72747l-36.154-.5194v-73.5543Zm16.10316,35.9459-16.10316-3.9477v30.12818h16.10317Z"/><path class="cls-5" d="M154.54047,499.61826a6.72617,6.72617,0,0,1,1.19473-2.18192,7.35508,7.35508,0,0,1,2.0779-1.76575,6.09472,6.09472,0,0,1,3.11669-.72747h32.41359v12.57055H167.57854V527.8764h23.68722v12.5705H167.57854v15.99939h25.76484v12.57056H154.17673v-67.321A6.87172,6.87172,0,0,1,154.54047,499.61826Z"/><path class="cls-6" d="M223.05481,569.01685h-13.298V494.94308h13.40182v53.8154l13.50586,8.311h4.36333V494.94308h13.40182v67.321a6.93579,6.93579,0,0,1-.36346,2.07764,6.81589,6.81589,0,0,1-1.19474,2.18194,7.43462,7.43462,0,0,1-2.07789,1.76575,6.11222,6.11222,0,0,1-3.11669.72748h-8.83068a12.81406,12.81406,0,0,1-7.48-2.38947l-7.89564-5.29834h-.41564Z"/><path class="cls-7" d="M324.55377,569.01685V541.48572H304.81451v27.53113H291.41269V494.94308h13.40182v33.66074h19.73926V494.94308H337.9556v74.07377Z"/><path class="cls-8" d="M401.84747,562.264a6.93508,6.93508,0,0,1-.36349,2.07763,6.82581,6.82581,0,0,1-1.19473,2.182,7.43448,7.43448,0,0,1-2.07789,1.76575,6.11208,6.11208,0,0,1-3.11669.72747H362.78485a6.11091,6.11091,0,0,1-3.1167-.72747,7.412,7.412,0,0,1-2.07788-1.76575,6.75239,6.75239,0,0,1-1.19473-2.182,6.88506,6.88506,0,0,1-.36374-2.07763V508.65677a6.70647,6.70647,0,0,1,.77939-3.22077,5.88051,5.88051,0,0,1,2.12976-2.2857l14.12906-9.246a5.76938,5.76938,0,0,1,3.1167-.72748,7.12154,7.12154,0,0,1,3.01266.72748l18.59641,9.86923a10.998,10.998,0,0,1,2.80511,2.38946,5.13325,5.13325,0,0,1,1.24664,3.74015Zm-25.453-56.20432-6.9606,4.57086V557.0694h19.01175V512.2926Z"/><path class="cls-9" d="M461.99866,494.94308l-.51941,18.18076a10.33308,10.33308,0,0,1-2.80512,6.649l-7.68783,8.10345-.51941-1.55878,5.29837,1.24744a8.53078,8.53078,0,0,1,5.14242,3.01209,6.89524,6.89524,0,0,1,1.61039,3.94824V562.264a6.93631,6.93631,0,0,1-.36347,2.07763,6.82581,6.82581,0,0,1-1.19473,2.182,7.43826,7.43826,0,0,1-2.07788,1.76575,6.11212,6.11212,0,0,1-3.1167.72747l-36.154-.5194v-73.5543h13.40182v30.85514l-2.49325-4.15521,10.18136,2.28515-4.05172,1.66254,12.46679-14.96.51941-15.68753Zm-12.88242,42.38743L433.01306,533.486v23.58344h16.10315Z"/><path class="cls-10" d="M480.9061,569.01685V494.94308h13.40182v74.07377Z"/><path class="cls-11" d="M551.75861,561.12091v7.89594h-41.2443v-12.363h25.453L509.683,503.04657v-8.10345h43.21839v12.57055H525.4743Z"/><path class="cls-12" d="M612.84454,562.264a6.935,6.935,0,0,1-.36346,2.07763,6.82647,6.82647,0,0,1-1.19476,2.182,7.43543,7.43543,0,0,1-2.07788,1.76575,6.11207,6.11207,0,0,1-3.1167.72747H573.78192a6.11084,6.11084,0,0,1-3.1167-.72747,7.41183,7.41183,0,0,1-2.07788-1.76575,6.753,6.753,0,0,1-1.19476-2.182,6.886,6.886,0,0,1-.36377-2.07763V508.65677a6.70644,6.70644,0,0,1,.77936-3.22077,5.88051,5.88051,0,0,1,2.12976-2.2857l14.129-9.246a5.76941,5.76941,0,0,1,3.11669-.72748,7.12167,7.12167,0,0,1,3.01264.72748l18.59643,9.86923a10.99841,10.99841,0,0,1,2.80512,2.38946,5.13325,5.13325,0,0,1,1.24664,3.74015Zm-25.453-56.20432-6.96063,4.57086V557.0694h19.01178V512.2926Z"/><path class="cls-13" d="M643.90637,569.01685h-13.298V494.94308h13.40179v53.8154l13.50586,8.311h4.36334V494.94308h13.4018v67.321a6.93549,6.93549,0,0,1-.36347,2.07764,6.81614,6.81614,0,0,1-1.19476,2.18194,7.43543,7.43543,0,0,1-2.07788,1.76575,6.11216,6.11216,0,0,1-3.1167.72748h-8.83069a12.814,12.814,0,0,1-7.48-2.38947L644.322,561.329h-.41565Z"/></g><path class="cls-1" d="M629.32935,240.21391a80.332,80.332,0,0,0-35.69062,8.31107,106.57763,106.57763,0,0,0-192.07882.63792c-.85-.02812-1.70231-.04741-2.55918-.04741a76.23251,76.23251,0,0,0-75.4443,65.34624,43.89937,43.89937,0,0,0-20.80411,12.17142,43.90549,43.90549,0,0,0-20.25067-12.01837A80.44652,80.44652,0,0,0,229.53558,244.938,101.26247,101.26247,0,0,0,44.05791,289.58392,58.42355,58.42355,0,0,0,67.41667,401.55518c.55842,0,1.11453-.00965,1.66918-.02527v.02527H634.893v-.19452a80.66938,80.66938,0,0,0-5.5636-161.14676Z"/><path class="cls-1" d="M77.09166,480.69669a5.13246,5.13246,0,0,1-1.24663,3.74014,10.98615,10.98615,0,0,1-2.80511,2.38946l-18.59639,9.86948a7.12128,7.12128,0,0,1-3.01266.72748,5.769,5.769,0,0,1-3.1167-.72748l-14.129-9.246a5.8785,5.8785,0,0,1-2.12977-2.28571,6.70656,6.70656,0,0,1-.77938-3.22046V428.336a6.89054,6.89054,0,0,1,.36375-2.07788,6.75785,6.75785,0,0,1,1.19474-2.18167,7.41771,7.41771,0,0,1,2.07789-1.766,6.11425,6.11425,0,0,1,3.11669-.72724H70.33886a6.11488,6.11488,0,0,1,3.11669.72724,7.44047,7.44047,0,0,1,2.07789,1.766,6.8309,6.8309,0,0,1,1.19474,2.18167,6.9403,6.9403,0,0,1,.36348,2.07788Zm-13.40183-2.3895V433.53061H44.67807v46.43887l6.96061,4.57114Z"/><path class="cls-1" d="M94.85544,495.657V422.10263l36.154-.51941a6.11545,6.11545,0,0,1,3.11668.72724,7.4442,7.4442,0,0,1,2.0779,1.766,6.83088,6.83088,0,0,1,1.19473,2.18167,6.9406,6.9406,0,0,1,.36347,2.07788v36.881a7.0198,7.0198,0,0,1-1.55822,3.948,7.628,7.628,0,0,1-5.19458,2.80511l-22.75218,4.88272V495.657Zm29.505-62.12637H108.25726v30.12814l16.10317-3.948Z"/><path class="cls-1" d="M154.17673,488.90417v-67.321h39.16665v12.57056H167.57854v15.99911h23.68722v12.57083H167.57854v20.36243h25.76484V495.657H160.92979a6.09746,6.09746,0,0,1-3.11669-.72723,7.36471,7.36471,0,0,1-2.0779-1.766,6.72312,6.72312,0,0,1-1.19473-2.18192A6.87143,6.87143,0,0,1,154.17673,488.90417Z"/><path class="cls-1" d="M223.05481,429.27106h.41563l7.89565-5.29837a12.81405,12.81405,0,0,1,7.48-2.38947h8.83069a6.11488,6.11488,0,0,1,3.11669.72724,7.44047,7.44047,0,0,1,2.07789,1.766,6.82,6.82,0,0,1,1.19474,2.18167,6.94059,6.94059,0,0,1,.36346,2.07788v67.321H241.02777V433.53061h-4.36333l-13.50586,8.31128V495.657H209.75676V421.58322h13.298Z"/><path class="cls-1" d="M337.9556,421.58322V495.657H324.55377V461.99649H304.81451V495.657H291.41269V421.58322h13.40182v27.53089h19.73926V421.58322Z"/><path class="cls-1" d="M401.84747,480.69669a5.13251,5.13251,0,0,1-1.24664,3.74014,10.98632,10.98632,0,0,1-2.80511,2.38946l-18.59641,9.86948a7.12124,7.12124,0,0,1-3.01266.72748,5.76891,5.76891,0,0,1-3.1167-.72748l-14.12906-9.246a5.87833,5.87833,0,0,1-2.12976-2.28571,6.70669,6.70669,0,0,1-.77939-3.22046V428.336a6.89053,6.89053,0,0,1,.36374-2.07788,6.75726,6.75726,0,0,1,1.19473-2.18167,7.418,7.418,0,0,1,2.07788-1.766,6.114,6.114,0,0,1,3.1167-.72724H395.0946a6.11484,6.11484,0,0,1,3.1167.72724,7.44029,7.44029,0,0,1,2.07788,1.766,6.83051,6.83051,0,0,1,1.19474,2.18167,6.94094,6.94094,0,0,1,.36349,2.07788Zm-13.40182-2.38947V433.53061H369.43387v46.43887l6.9606,4.57114Z"/><path class="cls-1" d="M449.63562,495.657l-.51941-15.68753-12.4668-14.96,4.05173,1.66226-10.18136,2.28543,2.49325-4.15548V495.657H419.61124V422.10263l36.154-.51941a6.11564,6.11564,0,0,1,3.1167.72724,7.44411,7.44411,0,0,1,2.07788,1.766,6.83107,6.83107,0,0,1,1.19473,2.18167,6.94092,6.94092,0,0,1,.36347,2.07788v27.73868a6.89309,6.89309,0,0,1-1.61039,3.948,8.52991,8.52991,0,0,1-5.14242,3.01267l-5.29837,1.24689.51941-1.55848,7.68783,8.10346a10.33315,10.33315,0,0,1,2.80512,6.649l.51941,18.18078Zm-.51941-62.12637H433.01306V457.1138l16.10315-3.84418Z"/><path class="cls-1" d="M494.30792,421.58322V495.657H480.9061V421.58322Z"/><path class="cls-1" d="M525.47437,483.08615h27.42712V495.657H509.683v-8.10345l26.28425-53.6073h-25.453v-12.363h41.24426v7.89566Z"/><path class="cls-1" d="M612.84454,480.69669a5.13238,5.13238,0,0,1-1.24664,3.74014,10.98632,10.98632,0,0,1-2.80511,2.38946l-18.59644,9.86948a7.12177,7.12177,0,0,1-3.01263.72748,5.76924,5.76924,0,0,1-3.1167-.72748l-14.129-9.246a5.87855,5.87855,0,0,1-2.12976-2.28571,6.706,6.706,0,0,1-.77936-3.22046V428.336a6.89,6.89,0,0,1,.36377-2.07788,6.75828,6.75828,0,0,1,1.19476-2.18167,7.41725,7.41725,0,0,1,2.07788-1.766,6.114,6.114,0,0,1,3.1167-.72724H606.0918a6.115,6.115,0,0,1,3.1167.72724,7.44043,7.44043,0,0,1,2.07788,1.766,6.83,6.83,0,0,1,1.19476,2.18167,6.94059,6.94059,0,0,1,.36346,2.07788Zm-13.40179-2.38947V433.53061H580.431v46.43887l6.96063,4.57114Z"/><path class="cls-1" d="M643.90637,429.27106h.41565l7.89563-5.29837a12.814,12.814,0,0,1,7.48-2.38947h8.83069a6.115,6.115,0,0,1,3.1167.72724,7.44043,7.44043,0,0,1,2.07788,1.766,6.8202,6.8202,0,0,1,1.19476,2.18167,6.94092,6.94092,0,0,1,.36347,2.07788v67.321h-13.4018V433.53061H657.516l-13.50586,8.31128V495.657H630.60834V421.58322h13.298Z"/></g><g id="Layer_11" data-name="Layer 11"><path class="cls-1" d="M474.24908,102.31161l-.27075.27072a12.11012,12.11012,0,0,1-16.45779.64037,147.89686,147.89686,0,0,0-192.85108.00743,12.10993,12.10993,0,0,1-16.45788-.64026l-.27825-.27826a12.13064,12.13064,0,0,1-.01873-17.1553q.3105-.31119.64294-.59927a172.53045,172.53045,0,0,1,225.06728,0,12.13066,12.13066,0,0,1,1.22351,17.11165Q474.56044,102.00091,474.24908,102.31161Z"/><path class="cls-1" d="M439.23642,137.32423l-.27844.27855a12.10223,12.10223,0,0,1-16.13086.91228,98.60487,98.60487,0,0,0-123.46411.00723,12.10219,12.10219,0,0,1-16.13117-.91208l-.27844-.27854a12.16272,12.16272,0,0,1,1.0246-18.08735,123.26151,123.26151,0,0,1,154.23373-.00763,12.16277,12.16277,0,0,1,1.02469,18.08754Z"/><path class="cls-1" d="M403.98422,172.57645l-.2832.2832a12.25031,12.25031,0,0,1-15.47253,1.408,49.3234,49.3234,0,0,0-54.26682.00664,12.25,12.25,0,0,1-15.47314-1.40742l-.28321-.2833A12.11842,12.11842,0,0,1,319.95,153.96866a73.99207,73.99207,0,0,1,82.28919-.00743,12.11824,12.11824,0,0,1,1.745,18.61522Z"/><path class="cls-1" d="M373.42566,208.70079a17.44192,17.44192,0,1,1-24.66663.01071l.00537-.00535a17.42913,17.42913,0,0,1,24.6485-.01812Z"/><path class="cls-1" d="M218.24194,143.65372l.28223.19862a10.91579,10.91579,0,0,1,3.11047,14.51643A133.31122,133.31122,0,0,0,251.42586,329.629a10.91565,10.91565,0,0,1,1.97322,14.71429l-.20413.29007a10.93432,10.93432,0,0,1-15.23188,2.66617q-.3243-.22769-.63148-.47842a155.51549,155.51549,0,0,1-34.76019-199.871,10.93432,10.93432,0,0,1,15.00706-3.72924Q217.91794,143.42521,218.24194,143.65372Z"/><path class="cls-1" d="M254.74237,169.33923l.29038.20426a10.90873,10.90873,0,0,1,3.30145,14.18411,88.88042,88.88042,0,0,0,19.07467,109.6412,10.90866,10.90866,0,0,1,1.68137,14.46613l-.20435.29031a10.96316,10.96316,0,0,1-16.22073,1.88358A111.10545,111.10545,0,0,1,238.838,173.04271a10.96327,10.96327,0,0,1,15.90437-3.70348Z"/><path class="cls-1" d="M291.49258,195.20047l.29523.20776a11.04221,11.04221,0,0,1,3.64,13.52291,44.45912,44.45912,0,0,0,8.38705,48.19059,11.042,11.042,0,0,1,1.13986,13.95832l-.20785.29526a10.92332,10.92332,0,0,1-16.80042,1.32562,66.695,66.695,0,0,1-12.71564-73.07578,10.92312,10.92312,0,0,1,16.26175-4.42468Z"/></g><g id="dots"><circle class="cls-1" cx="204.06403" cy="28.95595" r="19.19405"/><circle class="cls-1" cx="119.54121" cy="173.07037" r="19.19405"/><circle class="cls-1" cx="600.59479" cy="176.35776" r="19.19404"/><circle class="cls-1" cx="518.04943" cy="31.10164" r="19.19405" transform="translate(351.13353 522.50942) rotate(-74.67467)"/></g></svg>