<svg id="图层_1" data-name="图层 1" xmlns="http://www.w3.org/2000/svg" viewBox="0 0 400 400"><defs><style>.cls-1{fill:#00b173;}</style></defs><path class="cls-1" d="M295.73941,47.36846H105.11323a8.56192,8.56192,0,1,1-.83939-17.10325q.41943-.02058.83939,0H295.73941a8.56192,8.56192,0,1,1,.83939,17.10325Q296.15936,47.389,295.73941,47.36846Z"/><path class="cls-1" d="M243.6887,128.87131H58.76364a8.56191,8.56191,0,0,1,0-17.10324H243.6887a8.56191,8.56191,0,1,1,.83939,17.10324Q244.10865,128.89191,243.6887,128.87131Z"/><path class="cls-1" d="M343.221,128.87131H290.3676a8.56191,8.56191,0,1,1-.83939-17.10324q.41943-.02059.83939,0H343.221a8.56191,8.56191,0,0,1,0,17.10324Z"/><path class="cls-1" d="M343.221,291.83585H158.296a8.56192,8.56192,0,0,1,0-17.10325H343.221a8.56192,8.56192,0,0,1,0,17.10325Z"/><path class="cls-1" d="M111.6376,291.83585h-52.874a8.56192,8.56192,0,0,1,0-17.10325h52.874a8.56192,8.56192,0,0,1,0,17.10325Z"/><path class="cls-1" d="M295.73941,373.33872H105.11323a8.56193,8.56193,0,1,1,0-17.12385H295.73941a8.56192,8.56192,0,0,1,0,17.12385Z"/><path class="cls-1" d="M389.38537,210.35358H11.9818a8.56191,8.56191,0,1,1-.83939-17.10324q.41945-.02059.83939,0H389.38537a8.56191,8.56191,0,1,1,.83939,17.10324Q389.80532,210.37418,389.38537,210.35358Z"/></svg>