<svg id="Layer_1" data-name="Layer 1" xmlns="http://www.w3.org/2000/svg" viewBox="0 0 717.62 217.98"><title>lfedge-member-associate-horizontal-black</title><polygon points="25.37 86.05 25.37 43.93 2.9 43.93 2.9 107.11 70.2 107.11 70.2 86.05 25.37 86.05"/><polygon points="115.04 1.78 2.91 1.78 2.91 33.38 25.34 33.38 25.34 22.94 92.61 22.94 92.61 86.05 81.42 86.05 81.42 107.11 115.04 107.11 115.04 1.78"/><path d="M144.67,1.78h34.17V80.11h49.07v27H144.67Z"/><path d="M242.48,1.78h85.71v27H276.65V41.9h44.24V67H276.65v40.14H242.48Z"/><path d="M355.16,1.78h70.11v8.56H364.83V48.39h56.6V57h-56.6V98.56H426v8.56H355.16Z"/><path d="M439.5,1.78h35.13c30.72.73,46.65,17.84,46.65,52.67s-15.93,51.93-46.65,52.67H439.5Zm9.66,96.77h20.62c29.16,0,41.81-12.54,41.81-44.12s-12.66-44.11-41.81-44.11H449.16Z"/><path d="M623.67,105.39h-7L615.42,86.9h-.28c-6.83,14.51-20.48,20.61-35.13,20.61-32,0-47.93-25-47.93-52.9S548,1.72,580,1.72c21.32,0,38.53,11.51,42.38,33.69H612.7C611.58,23.75,599.21,10,580,10c-26.87,0-38.25,22.47-38.25,44.65S553.14,99.27,580,99.27c22.47,0,35.55-15.64,35.13-37.26H580.58V53.77h43.09v51.62Z"/><path d="M642.31,1.72h70.11v8.56H652V48.36h56.61v8.56H652V98.55h61.16v8.56H642.31Z"/><rect x="2.91016" y="133.33496" width="710.21973" height="1.50977"/><path d="M3.97168,214.49414l20.2251-51.45508h5.50293l19.72412,51.45508H44.42139l-5.93164-16.15137H15.04883L8.97461,214.49414Zm12.72119-20.2959H36.84619L26.76953,167.18359Z"/><path d="M58.35645,199.12891a15.22572,15.22572,0,0,0,1.53662,5.82421,11.50316,11.50316,0,0,0,3.21582,3.89551,12.74764,12.74764,0,0,0,4.53808,2.17969,21.473,21.473,0,0,0,5.50293.67871,18.35075,18.35075,0,0,0,5.93164-.85742,11.22419,11.22419,0,0,0,4.07373-2.32324,9.10739,9.10739,0,0,0,2.32276-3.39453,11.14048,11.14048,0,0,0,.75-4.07325,8.04883,8.04883,0,0,0-1.35742-4.85937,10.48964,10.48964,0,0,0-3.5376-3.03711,21.72415,21.72415,0,0,0-5.00293-1.89453q-2.82349-.71339-5.78858-1.39356-2.96631-.67821-5.78857-1.60742a18.18748,18.18748,0,0,1-5.00293-2.502,12.05866,12.05866,0,0,1-3.53711-4.03711,12.857,12.857,0,0,1-1.35791-6.25391,12.5793,12.5793,0,0,1,1.10742-5.14551,12.80145,12.80145,0,0,1,3.2876-4.43066,16.13384,16.13384,0,0,1,5.46729-3.07324,23.03107,23.03107,0,0,1,7.57519-1.14356,21.7248,21.7248,0,0,1,7.61084,1.21485,15.16042,15.16042,0,0,1,5.396,3.32324,13.6957,13.6957,0,0,1,3.21582,4.89551,16.37939,16.37939,0,0,1,1.07177,5.93164h-4.645a11.5651,11.5651,0,0,0-1.03613-5.07422,9.53553,9.53553,0,0,0-2.82324-3.501,12.058,12.058,0,0,0-4.07324-2.001,17.31205,17.31205,0,0,0-4.7168-.64356,16.59039,16.59039,0,0,0-6.25342,1.03613,11.00355,11.00355,0,0,0-4.0376,2.67969,9.05714,9.05714,0,0,0-2.07275,3.64551,8.75513,8.75513,0,0,0-.21435,4.00195,6.98109,6.98109,0,0,0,2.001,4.002,12.61118,12.61118,0,0,0,3.85938,2.46484,28.8934,28.8934,0,0,0,5.03808,1.57227q2.751.60938,5.61035,1.2871,2.85719.67969,5.53858,1.60743a17.061,17.061,0,0,1,4.75244,2.50195,11.52809,11.52809,0,0,1,3.32324,4.03711,13.61205,13.61205,0,0,1,1.25049,6.18164q0,7.14844-4.93115,11.07715-4.9314,3.93018-13.86426,3.93066a25.60546,25.60546,0,0,1-7.43262-1.03613,16.43637,16.43637,0,0,1-5.93164-3.14453,14.426,14.426,0,0,1-3.89453-5.2168,17.77812,17.77812,0,0,1-1.39355-7.32519Z"/><path d="M102.02148,199.12891a15.2259,15.2259,0,0,0,1.53663,5.82421,11.50316,11.50316,0,0,0,3.21582,3.89551,12.74756,12.74756,0,0,0,4.53808,2.17969,21.473,21.473,0,0,0,5.50293.67871,18.35075,18.35075,0,0,0,5.93164-.85742,11.22427,11.22427,0,0,0,4.07373-2.32324,9.10739,9.10739,0,0,0,2.32276-3.39453,11.14048,11.14048,0,0,0,.75-4.07325,8.04877,8.04877,0,0,0-1.35743-4.85937,10.48951,10.48951,0,0,0-3.53759-3.03711,21.72415,21.72415,0,0,0-5.00293-1.89453q-2.82349-.71339-5.78858-1.39356-2.96631-.67821-5.78857-1.60742a18.18748,18.18748,0,0,1-5.00293-2.502,12.05866,12.05866,0,0,1-3.53711-4.03711A12.857,12.857,0,0,1,98.52,175.47363a12.5793,12.5793,0,0,1,1.10742-5.14551,12.80145,12.80145,0,0,1,3.2876-4.43066,16.13389,16.13389,0,0,1,5.46728-3.07324,23.03118,23.03118,0,0,1,7.5752-1.14356,21.7248,21.7248,0,0,1,7.61084,1.21485,15.16042,15.16042,0,0,1,5.396,3.32324,13.69583,13.69583,0,0,1,3.21582,4.89551,16.37939,16.37939,0,0,1,1.07177,5.93164h-4.645a11.5651,11.5651,0,0,0-1.03613-5.07422,9.53563,9.53563,0,0,0-2.82324-3.501,12.058,12.058,0,0,0-4.07324-2.001,17.31205,17.31205,0,0,0-4.7168-.64356,16.59039,16.59039,0,0,0-6.25342,1.03613,11.00355,11.00355,0,0,0-4.0376,2.67969,9.05714,9.05714,0,0,0-2.07275,3.64551,8.755,8.755,0,0,0-.21436,4.00195,6.98116,6.98116,0,0,0,2.001,4.002,12.61118,12.61118,0,0,0,3.85938,2.46484,28.8934,28.8934,0,0,0,5.03808,1.57227q2.751.60938,5.61035,1.2871,2.85718.67969,5.53858,1.60743a17.061,17.061,0,0,1,4.75244,2.50195,11.52809,11.52809,0,0,1,3.32324,4.03711,13.61205,13.61205,0,0,1,1.25049,6.18164q0,7.14844-4.93115,11.07715-4.9314,3.93018-13.86426,3.93066a25.60541,25.60541,0,0,1-7.43262-1.03613,16.43637,16.43637,0,0,1-5.93164-3.14453,14.426,14.426,0,0,1-3.89453-5.2168,17.77812,17.77812,0,0,1-1.39355-7.32519Z"/><path d="M141.68457,188.83789a35.36266,35.36266,0,0,1,1.53662-10.57715,25.43476,25.43476,0,0,1,4.53809-8.61133,21.571,21.571,0,0,1,7.43213-5.82421,23.18689,23.18689,0,0,1,10.21972-2.14454,24.80254,24.80254,0,0,1,10.54151,2.1084,21.33091,21.33091,0,0,1,7.57519,5.78906,25.06415,25.06415,0,0,1,4.57373,8.64747,35.74031,35.74031,0,0,1,1.53662,10.6123,34.77889,34.77889,0,0,1-1.53662,10.46973,25.49335,25.49335,0,0,1-4.53808,8.57617,21.404,21.404,0,0,1-7.50391,5.82422,26.46657,26.46657,0,0,1-20.86816,0,21.40211,21.40211,0,0,1-7.50342-5.82422,24.98879,24.98879,0,0,1-4.50244-8.57617A35.533,35.533,0,0,1,141.68457,188.83789Zm24.0127,22.86914a18.30746,18.30746,0,0,0,8.61132-1.89355,17.16711,17.16711,0,0,0,5.93164-5.03907,21.46938,21.46938,0,0,0,3.43067-7.28906,33.37692,33.37692,0,0,0,1.10742-8.64746,32.34393,32.34393,0,0,0-1.32227-9.6123,20.88305,20.88305,0,0,0-3.82324-7.25391,16.41777,16.41777,0,0,0-6.0747-4.57324,19.67771,19.67771,0,0,0-8.00391-1.57227,17.86448,17.86448,0,0,0-8.54,1.92969,17.36084,17.36084,0,0,0-5.93164,5.10937,21.85423,21.85423,0,0,0-3.43066,7.3252,34.59428,34.59428,0,0,0,0,17.36621,21.44656,21.44656,0,0,0,3.43066,7.29,16.80726,16.80726,0,0,0,5.93164,5.002A18.7568,18.7568,0,0,0,165.69727,211.707Z"/><path d="M235.80469,177.97559q-1.50073-6.57423-5.57422-9.36231-4.07373-2.7876-10.64844-2.78711a15.64994,15.64994,0,0,0-13.543,6.86035,22.068,22.068,0,0,0-3.21582,7.25391,35.401,35.401,0,0,0-1.03613,8.68359,39.86448,39.86448,0,0,0,.89307,8.43262,22.3857,22.3857,0,0,0,2.96582,7.39648,15.72656,15.72656,0,0,0,5.5747,5.25293,17.51079,17.51079,0,0,0,8.79,2.001,16.21662,16.21662,0,0,0,6.00293-1.07226,14.98236,14.98236,0,0,0,4.75293-2.96582,17.2705,17.2705,0,0,0,3.43018-4.4668,22.494,22.494,0,0,0,2.1084-5.64551h5.07373a32.11335,32.11335,0,0,1-2.501,7.03906,20.07452,20.07452,0,0,1-4.32373,5.8252,19.75076,19.75076,0,0,1-6.50342,3.96582,25.01852,25.01852,0,0,1-8.96924,1.46484,21.8578,21.8578,0,0,1-10.14795-2.17968,19.25365,19.25365,0,0,1-6.89648-5.89551,24.72661,24.72661,0,0,1-3.89453-8.61133,42.98425,42.98425,0,0,1-1.21533-10.39844A37.66925,37.66925,0,0,1,198.75,176.25977a22.32887,22.32887,0,0,1,5.03809-8.39649,19.034,19.034,0,0,1,7.57519-4.7168,29.6724,29.6724,0,0,1,9.50488-1.46582,24.99507,24.99507,0,0,1,7.32569,1.03711,17.98786,17.98786,0,0,1,6.00293,3.1084,16.88553,16.88553,0,0,1,4.28808,5.10938,21.52178,21.52178,0,0,1,2.32227,7.04Z"/><path d="M252.59814,214.49414V163.03906H257.458v51.45508Z"/><path d="M266.0332,214.49414l20.2251-51.45508h5.50293l19.72412,51.45508h-5.00244l-5.93164-16.15137H277.11035l-6.07422,16.15137Zm12.72119-20.2959h20.15332l-10.07666-27.01465Z"/><path d="M313.772,163.03906h37.44776v4.14453h-16.294v47.31055h-4.85986V167.18359H313.772Z"/><path d="M358.15186,214.49414V163.03906h34.23193v4.14453H363.01172v18.58106h26.51367v4.14551H363.01172v20.43945h30.08691v4.14453Z"/><path d="M421.46973,214.49414V163.03906h7.43261l16.86621,45.38086h.14258l16.58008-45.38086h7.36035v51.45508h-4.85937V168.61328h-.14258L447.9834,214.49414h-4.57324l-16.9375-45.88086h-.14356v45.88086Z"/><path d="M481.21484,214.49414V163.03906h34.23145v4.14453H486.07422v18.58106h26.51367v4.14551H486.07422v20.43945h30.08691v4.14453Z"/><path d="M524.665,214.49414V163.03906h7.43262l16.86621,45.38086h.14258l16.58007-45.38086h7.36036v51.45508H568.1875V168.61328h-.14258l-16.86621,45.88086h-4.57324L529.668,168.61328h-.14356v45.88086Z"/><path d="M584.41016,214.49414V163.03906h18.58105a28.10233,28.10233,0,0,1,7.71777.92871,14.13973,14.13973,0,0,1,5.25293,2.64453,10.087,10.087,0,0,1,2.96582,4.10938,14.43185,14.43185,0,0,1,.92872,5.25293,13.71082,13.71082,0,0,1-.71485,4.68066,10.40181,10.40181,0,0,1-1.85742,3.28711,8.63884,8.63884,0,0,1-2.6084,2.07227,10.91337,10.91337,0,0,1-3.03711,1.03711v.14258q5.35986.78661,7.96778,4.21679a13.755,13.755,0,0,1,2.60839,8.5752,16.54216,16.54216,0,0,1-1.25,6.78906,11.56909,11.56909,0,0,1-3.46679,4.50293,13.90294,13.90294,0,0,1-5.32422,2.46582,28.75733,28.75733,0,0,1-6.75293.75Zm4.85937-28.72949h12.292a26.7024,26.7024,0,0,0,6.36036-.64258,10.78117,10.78117,0,0,0,4.1455-1.89453,6.99378,6.99378,0,0,0,2.251-3.07227,11.93955,11.93955,0,0,0,.67871-4.18066,9.66668,9.66668,0,0,0-.78613-4.10938,6.23421,6.23421,0,0,0-2.501-2.71582,12.78644,12.78644,0,0,0-4.4668-1.501,41.47022,41.47022,0,0,0-6.7539-.46485H589.26953Zm0,24.585h12.36328a59.09937,59.09937,0,0,0,6.96778-.35742,12.89419,12.89419,0,0,0,4.8955-1.46582,6.98262,6.98262,0,0,0,2.89453-3.14453,12.709,12.709,0,0,0,.96485-5.39551,10.80674,10.80674,0,0,0-1.07227-5.18067,7.40039,7.40039,0,0,0-3.07324-3.03711,14.3337,14.3337,0,0,0-4.78808-1.46582,44.97319,44.97319,0,0,0-6.2168-.39257H589.26953Z"/><path d="M632.07715,214.49414V163.03906h34.23144v4.14453H636.93652v18.58106H663.4502v4.14551H636.93652v20.43945h30.08692v4.14453Z"/><path d="M680.53027,191.125v23.36914l-4.86035-.07129V163.03906h20.15332q8.50488,0,13.00684,3.17969,4.50293,3.18164,4.50293,10.32715a13.41626,13.41626,0,0,1-1.96582,7.71875,14.99392,14.99392,0,0,1-6.39551,4.85937,8.016,8.016,0,0,1,3.57324,2.28711,10.13789,10.13789,0,0,1,1.92871,3.42969,17.37141,17.37141,0,0,1,.82227,4.07422q.17724,2.14307.25,4.14453.07031,2.93115.25,4.85938a29.65415,29.65415,0,0,0,.42871,3.14453,7.36764,7.36764,0,0,0,.60742,1.89453,2.89345,2.89345,0,0,0,.8584,1.03613v.42871l-5.36035.07129a9.41751,9.41751,0,0,1-1.10742-3.57324q-.32228-2.28663-.5-4.78809-.18018-2.50048-.28614-4.85937a28.11376,28.11376,0,0,0-.39355-3.85938,8.03728,8.03728,0,0,0-1.39356-3.32324,6.34017,6.34017,0,0,0-2.32226-1.89355,10.04448,10.04448,0,0,0-3.03711-.8584,27.4471,27.4471,0,0,0-3.4668-.21387Zm15.15039-4.14551a21.013,21.013,0,0,0,5.03809-.57129,11.39133,11.39133,0,0,0,4.03809-1.82226,9.00376,9.00376,0,0,0,2.71582-3.18067,9.97815,9.97815,0,0,0,1-4.64453,9.60945,9.60945,0,0,0-1.03614-4.71679,7.85376,7.85376,0,0,0-2.78711-2.93067,11.836,11.836,0,0,0-4.00195-1.501,25.0352,25.0352,0,0,0-4.68066-.42871H680.53027v19.7959Z"/></svg>