<svg id="Layer_1" data-name="Layer 1" xmlns="http://www.w3.org/2000/svg" viewBox="0 0 648 145.67"><title>glossary-horizontal-black</title><path d="M102.35,44.18a3.58547,3.58547,0,0,1-.87,2.62,7.59051,7.59051,0,0,1-1.96,1.67L86.5,55.38a4.97829,4.97829,0,0,1-2.11.51,4.01864,4.01864,0,0,1-2.18-.51l-9.9-6.48a4.10527,4.10527,0,0,1-1.49-1.6,4.75141,4.75141,0,0,1-.55-2.26V7.51a4.87506,4.87506,0,0,1,1.09-2.99,5.22,5.22,0,0,1,1.46-1.24A4.26269,4.26269,0,0,1,75,2.77H97.63a4.26269,4.26269,0,0,1,2.18.51,5.19628,5.19628,0,0,1,1.46,1.24,4.71906,4.71906,0,0,1,.84,1.53,4.812,4.812,0,0,1,.25,1.46V44.18Zm-9.38-1.67V11.15H79.65V43.67l4.88,3.2Z"/><path d="M114.79,54.66V3.14l25.32-.36a4.2626,4.2626,0,0,1,2.18.51,5.19618,5.19618,0,0,1,1.46,1.24,4.71906,4.71906,0,0,1,.84,1.53,4.812,4.812,0,0,1,.25,1.46V33.35a4.90075,4.90075,0,0,1-1.09,2.77,5.33311,5.33311,0,0,1-3.64,1.96L124.18,41.5V54.67h-9.39Zm20.67-43.51H124.18v21.1l11.28-2.77Z"/><path d="M156.34,49.93V2.78h27.43v8.8H165.73V22.79h16.59v8.8H165.73V45.85h18.04v8.8h-22.7a4.26265,4.26265,0,0,1-2.18-.51,5.19632,5.19632,0,0,1-1.46-1.24,4.619,4.619,0,0,1-.84-1.53A5.01437,5.01437,0,0,1,156.34,49.93Z"/><path d="M204.58,8.16h.29l5.53-3.71a8.94384,8.94384,0,0,1,5.24-1.67h6.19a4.2626,4.2626,0,0,1,2.18.51,5.19618,5.19618,0,0,1,1.46,1.24,4.71906,4.71906,0,0,1,.84,1.53,4.81171,4.81171,0,0,1,.25,1.46V54.67h-9.39V11.15h-3.06l-9.46,5.82V54.66h-9.39V2.78h9.31V8.16Z"/><path d="M252.31,45.13V7.51a5.14874,5.14874,0,0,1,.25-1.49,4.56,4.56,0,0,1,.84-1.56,5.21982,5.21982,0,0,1,1.46-1.24,3.89768,3.89768,0,0,1,2.18-.44h26.34l-.73,14.77h-8.44v-6.4H261.7V43.67l4.88,3.2,7.64-4.29V31.01h-7.28V22.79H283.6V44.18a4.62151,4.62151,0,0,1-2.33,4l-12.73,7.28a4.97828,4.97828,0,0,1-2.11.51,4.01858,4.01858,0,0,1-2.18-.51l-9.9-6.48a4.10522,4.10522,0,0,1-1.49-1.6A4.62644,4.62644,0,0,1,252.31,45.13Z"/><path d="M321.95,54.66H300.7a3.81472,3.81472,0,0,1-2.18-.44,5.19609,5.19609,0,0,1-1.46-1.24,4.65227,4.65227,0,0,1-.84-1.56,5.20227,5.20227,0,0,1-.25-1.49V2.78h9.39V45.93h16.59v8.73Z"/><path d="M363.2,44.18a3.5855,3.5855,0,0,1-.87,2.62,7.5908,7.5908,0,0,1-1.96,1.67l-13.02,6.91a4.97832,4.97832,0,0,1-2.11.51,4.01858,4.01858,0,0,1-2.18-.51l-9.9-6.48a4.10518,4.10518,0,0,1-1.49-1.6,4.75163,4.75163,0,0,1-.55-2.26V7.51a4.87506,4.87506,0,0,1,1.09-2.99,5.22029,5.22029,0,0,1,1.46-1.24,4.26266,4.26266,0,0,1,2.18-.51h22.63a4.2626,4.2626,0,0,1,2.18.51,5.19628,5.19628,0,0,1,1.46,1.24,4.71846,4.71846,0,0,1,.84,1.53,4.81109,4.81109,0,0,1,.25,1.46V44.18Zm-9.39-1.67V11.15H340.5V43.67l4.88,3.2Z"/><path d="M396.71,18.28V11.15H386.34v5.46a3.84987,3.84987,0,0,0,1.67,3.06l15.21,7.93a6.20619,6.20619,0,0,1,2.62,2.58,7.758,7.758,0,0,1,.95,3.82V44.26a3.58547,3.58547,0,0,1-.87,2.62,7.59064,7.59064,0,0,1-1.96,1.67l-12.22,6.91a4.97827,4.97827,0,0,1-2.11.51,4.01859,4.01859,0,0,1-2.18-.51l-9.9-6.48a4.105,4.105,0,0,1-1.49-1.6,4.75152,4.75152,0,0,1-.55-2.26V33.56h9.39V43.67l4.88,3.2,7.64-4.37V37.41a4.12522,4.12522,0,0,0-.62-2.22,6.04319,6.04319,0,0,0-1.64-1.71l-14.55-7.35a5.523,5.523,0,0,1-2.87-2.84,9.13771,9.13771,0,0,1-.76-3.57V7.51a4.875,4.875,0,0,1,1.09-2.99,5.36552,5.36552,0,0,1,1.46-1.24,4.276,4.276,0,0,1,2.19-.51h19.7a4.32715,4.32715,0,0,1,2.19.51,5.19637,5.19637,0,0,1,1.46,1.24,4.71868,4.71868,0,0,1,.84,1.53,4.8469,4.8469,0,0,1,.26,1.46V18.28Z"/><path d="M440.29,18.28V11.15H429.92v5.46a3.84988,3.84988,0,0,0,1.67,3.06L446.8,27.6a6.20617,6.20617,0,0,1,2.62,2.58,7.75791,7.75791,0,0,1,.95,3.82V44.26a3.58551,3.58551,0,0,1-.87,2.62,7.59064,7.59064,0,0,1-1.96,1.67l-12.22,6.91a4.97828,4.97828,0,0,1-2.11.51,4.01858,4.01858,0,0,1-2.18-.51l-9.9-6.48a4.105,4.105,0,0,1-1.49-1.6,4.75152,4.75152,0,0,1-.55-2.26V33.56h9.39V43.67l4.88,3.2,7.64-4.37V37.41a4.12522,4.12522,0,0,0-.62-2.22,6.04323,6.04323,0,0,0-1.64-1.71l-14.55-7.35a5.523,5.523,0,0,1-2.87-2.84,9.13771,9.13771,0,0,1-.76-3.57V7.51a4.875,4.875,0,0,1,1.09-2.99,5.36552,5.36552,0,0,1,1.46-1.24,4.27594,4.27594,0,0,1,2.19-.51h19.7a4.32708,4.32708,0,0,1,2.19.51,5.19628,5.19628,0,0,1,1.46,1.24,4.71846,4.71846,0,0,1,.84,1.53,4.84662,4.84662,0,0,1,.26,1.46V18.28Z"/><path d="M485.15,54.66V36.25H471.83V54.66h-9.39V13.18a3.58547,3.58547,0,0,1,.87-2.62,7.79228,7.79228,0,0,1,1.96-1.67l13.02-6.91a4.97827,4.97827,0,0,1,2.11-.51,4.01859,4.01859,0,0,1,2.18.51l9.9,6.48a4.10518,4.10518,0,0,1,1.49,1.6,4.74508,4.74508,0,0,1,.54,2.26V54.67H485.15Zm0-40.53-4.88-3.2-8.44,4.37V27.6h13.32Z"/><path d="M528.22,54.66l-.36-10.99-8.73-10.48,2.84,1.16-7.13,1.6,1.75-2.91V54.65H507.2V3.14l25.32-.36a4.2627,4.2627,0,0,1,2.18.51,5.19623,5.19623,0,0,1,1.46,1.24,4.71953,4.71953,0,0,1,.84,1.53,4.81232,4.81232,0,0,1,.25,1.46V26.95a4.79653,4.79653,0,0,1-1.13,2.76,5.9625,5.9625,0,0,1-3.6,2.11l-3.71.87.36-1.09,5.38,5.68a7.19851,7.19851,0,0,1,1.96,4.66l.36,12.73H528.22Zm-.36-43.51H516.58V27.67l11.28-2.69Z"/><path d="M560.02,54.58V38l-8.29-5.53a5.47,5.47,0,0,1-2.62-4.8V2.92h9.39V26.79l6.77,4.51,5.75-3.78V2.92h9.39V27.66a4.881,4.881,0,0,1-.73,2.73,7.57837,7.57837,0,0,1-2.11,2.07L569.41,38V54.59H560.02Z"/><path d="M36.54,131.49a3.58545,3.58545,0,0,1-.87,2.62,7.59054,7.59054,0,0,1-1.96,1.67l-13.02,6.91a4.97829,4.97829,0,0,1-2.11.51,4.01864,4.01864,0,0,1-2.18-.51l-9.9-6.48a4.10523,4.10523,0,0,1-1.49-1.6,4.75134,4.75134,0,0,1-.55-2.26V94.82a4.875,4.875,0,0,1,1.09-2.99,5.21991,5.21991,0,0,1,1.46-1.24,4.26279,4.26279,0,0,1,2.18-.51H31.82a4.26269,4.26269,0,0,1,2.18.51,5.19628,5.19628,0,0,1,1.46,1.24,4.71906,4.71906,0,0,1,.84,1.53,4.862,4.862,0,0,1,.25,1.46v36.67Zm-9.38-1.67V98.46H13.84v32.52l4.88,3.2Z"/><path d="M48.98,141.97V90.09H76.41v8.8H58.37V110.1H74.96v8.8H58.37v23.07Z"/><path d="M100.64,137.24V90.09h27.43v8.8H110.03V110.1h16.59v8.8H110.03v14.26h18.04v8.8h-22.7a4.26269,4.26269,0,0,1-2.18-.51,5.19612,5.19612,0,0,1-1.46-1.24,4.61936,4.61936,0,0,1-.84-1.53A4.95846,4.95846,0,0,1,100.64,137.24Z"/><path d="M139.57,141.97V90.46l27.8-.36a4.05818,4.05818,0,0,1,3.31,1.35,4.33485,4.33485,0,0,1,1.13,2.8v40.6a4.63808,4.63808,0,0,1-.55,2.26,4.10532,4.10532,0,0,1-1.49,1.6l-6.33,3.86a5.85729,5.85729,0,0,1-3.13.66,6.4995,6.4995,0,0,1-1.31-.15l-10.99-3.35-.73,2.26h-7.71Zm20.01-6.98,2.84-1.75V98.46H148.96v33.91Z"/><path d="M184.03,132.44V94.82a5.14874,5.14874,0,0,1,.25-1.49,4.56,4.56,0,0,1,.84-1.56,5.21943,5.21943,0,0,1,1.46-1.24,3.89763,3.89763,0,0,1,2.18-.44H215.1l-.73,14.77h-8.44v-6.4H193.42v32.52l4.88,3.2,7.64-4.29V118.32h-7.28V110.1h16.66v21.39a4.62146,4.62146,0,0,1-2.33,4l-12.73,7.28a4.97824,4.97824,0,0,1-2.11.51,4.0186,4.0186,0,0,1-2.18-.51l-9.9-6.48a4.10521,4.10521,0,0,1-1.49-1.6A4.57224,4.57224,0,0,1,184.03,132.44Z"/><path d="M227.68,137.24V90.09h27.43v8.8H237.07V110.1h16.59v8.8H237.07v14.26h18.04v8.8h-22.7a4.2626,4.2626,0,0,1-2.18-.51,5.196,5.196,0,0,1-1.46-1.24,4.61936,4.61936,0,0,1-.84-1.53A4.9591,4.9591,0,0,1,227.68,137.24Z"/><path d="M299.06,105.59V98.46H288.95v32.52l4.88,3.2,10.4-5.89,4.51,6.91-12.95,7.49a4.97828,4.97828,0,0,1-2.11.51,4.01858,4.01858,0,0,1-2.18-.51l-9.9-6.48a4.105,4.105,0,0,1-1.49-1.6,4.75145,4.75145,0,0,1-.55-2.26V94.82a4.87506,4.87506,0,0,1,1.09-2.99,5.22019,5.22019,0,0,1,1.46-1.24,4.2627,4.2627,0,0,1,2.18-.51h23.94l-.73,15.5h-8.44Z"/><path d="M351.81,131.49a3.58545,3.58545,0,0,1-.87,2.62,7.59083,7.59083,0,0,1-1.96,1.67l-13.02,6.91a4.97827,4.97827,0,0,1-2.11.51,4.01859,4.01859,0,0,1-2.18-.51l-9.9-6.48a4.10514,4.10514,0,0,1-1.49-1.6,4.75145,4.75145,0,0,1-.55-2.26V94.82a4.875,4.875,0,0,1,1.09-2.99,5.22,5.22,0,0,1,1.46-1.24,4.26275,4.26275,0,0,1,2.18-.51h22.63a4.26265,4.26265,0,0,1,2.18.51,5.19609,5.19609,0,0,1,1.46,1.24,4.7185,4.7185,0,0,1,.84,1.53,4.86168,4.86168,0,0,1,.25,1.46v36.67Zm-9.38-1.67V98.46H329.11v32.52l4.88,3.2Z"/><path d="M379.03,90.09a7.85985,7.85985,0,0,1,2.95.54,7.09311,7.09311,0,0,1,2.36,1.56l4.29,3.35h.36l4.22-3.35a6.98441,6.98441,0,0,1,2.37-1.56,7.85974,7.85974,0,0,1,2.95-.54h10.04a4.26255,4.26255,0,0,1,2.18.51,4.76242,4.76242,0,0,1,1.42,1.24,5.22114,5.22114,0,0,1,.8,1.53,4.86162,4.86162,0,0,1,.25,1.46v47.15h-9.39V98.46h-4.51l-5.89,3.86v39.66h-9.39V102.32l-6.55-3.86h-3.86v43.51h-9.39V94.82a4.875,4.875,0,0,1,1.09-2.99,5.22,5.22,0,0,1,1.46-1.24,4.26272,4.26272,0,0,1,2.18-.51H379.03Z"/><path d="M426.03,141.97V90.46l25.32-.36a4.26265,4.26265,0,0,1,2.18.51,5.19609,5.19609,0,0,1,1.46,1.24,4.71868,4.71868,0,0,1,.84,1.53,4.86163,4.86163,0,0,1,.25,1.46v25.83a4.849,4.849,0,0,1-1.09,2.76,5.37193,5.37193,0,0,1-3.64,1.96l-15.94,3.42v13.17h-9.38Zm20.66-43.51H435.41v21.1l11.28-2.76Z"/><path d="M498.94,90.09v51.88h-7.93l-.22-4.8h-.58l-8.73,5.53a4.71531,4.71531,0,0,1-1.96.51,4.14664,4.14664,0,0,1-2.33-.51l-7.71-5.02a4.10518,4.10518,0,0,1-1.49-1.6,4.75164,4.75164,0,0,1-.55-2.26V90.09h9.39v42.27l2.69,1.75,10.04-5.53V90.09Z"/><path d="M518.87,141.97V98.75H508.25V90.09h30.63v8.66H528.26v43.22Z"/><path d="M557.58,90.09v51.88h-9.39V90.09Z"/><path d="M579.7,95.48h.29l5.53-3.71a8.94368,8.94368,0,0,1,5.24-1.67h6.18a4.26264,4.26264,0,0,1,2.18.51,5.19634,5.19634,0,0,1,1.46,1.24,4.71954,4.71954,0,0,1,.84,1.53,4.86236,4.86236,0,0,1,.25,1.46v47.15h-9.39V98.46h-3.06l-9.46,5.82v37.69h-9.39V90.09h9.31v5.39Z"/><path d="M614.33,132.44V94.82a5.14908,5.14908,0,0,1,.25-1.49,4.55958,4.55958,0,0,1,.84-1.56,5.21971,5.21971,0,0,1,1.46-1.24,3.89763,3.89763,0,0,1,2.18-.44h26.34l-.73,14.77h-8.44v-6.4h-12.52v32.52l4.88,3.2,7.64-4.29V118.32h-7.28V110.1h16.66v21.39a4.62147,4.62147,0,0,1-2.33,4l-12.73,7.28a4.97816,4.97816,0,0,1-2.11.51,4.01858,4.01858,0,0,1-2.18-.51l-9.9-6.48a4.105,4.105,0,0,1-1.49-1.6A4.79315,4.79315,0,0,1,614.33,132.44Z"/></svg>