<svg id="Layer_1" data-name="Layer 1" xmlns="http://www.w3.org/2000/svg" viewBox="0 0 371.5 374.29999"><title>homeedge-icon-black</title><polygon points="200.2 208 200.2 241.3 371.5 145.3 371.5 112 200.2 208"/><polygon points="200.2 307.8 371.5 211.8 371.5 178.5 200.2 274.5 200.2 307.8"/><polygon points="200.2 374.3 371.5 278.3 371.5 245 200.2 341 200.2 374.3"/><polygon points="137 255.3 34.3 197.7 34.3 131.3 0 112 0 278.3 34.3 297.5 34.3 231 137 288.6 137 355.1 171.3 374.3 171.3 208 137 188.8 137 255.3"/><polygon points="353.7 93.9 199.2 7.6 185.7 0 174 6.6 174 6.6 17.7 94.2 52 113.4 185.8 38.4 319.5 113.1 353.7 93.9"/><polygon points="319.3 22.2 289.3 6 290.2 59.8 320.1 76.5 319.3 22.2"/></svg>