<?xml version="1.0" encoding="utf-8"?>
<!-- Generator: Adobe Illustrator 24.0.3, SVG Export Plug-In . SVG Version: 6.00 Build 0)  -->
<svg version="1.1" id="Layer_1" xmlns="http://www.w3.org/2000/svg" xmlns:xlink="http://www.w3.org/1999/xlink" x="0px" y="0px"
	 viewBox="0 0 400 110" style="enable-background:new 0 0 400 110;" xml:space="preserve">
<style type="text/css">
	.st0{fill:#FFFFFF;}
	.st1{fill:#231F20;}
	.st2{fill:#EAEDEF;}
	.st3{fill:#9163CC;}
	.st4{fill:#1ECECA;}
	.st5{fill:#D3D2D2;}
</style>
<g>
	<g id="XMLID_486_">
		<g id="XMLID_499_">
			<path id="XMLID_503_" class="st2" d="M102.1,76.9l-1.8,0c-0.2,0-0.4,0-0.6,0c-5.2,0-10.5,1.2-15.6,3l0,0c0,0,0,0,0,0
				c-1.7,0.6-3.4,1.3-5,2c-0.1-0.6-0.2-1.2-0.3-1.8c1.6-0.7,3.3-1.3,5-1.9l0,0c5.4-1.8,11.1-3.1,16.5-3V22.7c-1.5,0-3,0.1-4.5,0.2
				v44.3l-1.3,0.3c-4.7,1.1-9.6,3.7-14.2,6.9c0,0,0,0,0,0c-0.7,0.5-1.5,1-2.2,1.5c-0.1-0.6-0.3-1.2-0.5-1.8c1.4-1,2.9-2,4.4-2.9l0,0
				c4-2.5,8.1-4.4,12.2-5.4V13.4c-13.9,3.3-29.5,18.9-34.4,24.2c-0.1,0.1-0.2,0.2-0.3,0.3c-0.2,0.2-0.3,0.3-0.5,0.5
				c-0.2,0.2-0.4,0.4-0.5,0.6c-6.6-8.5-14.8-17.2-24.5-25.7c-3.5-3.1-7.1-6-10.7-8.7c2.3,2.1,4.5,4.2,6.7,6.4
				C67.2,48.7,78.5,87.7,64,101.1c-4.1,3.8-10,5.3-16.9,5c11.6,2.2,21.3,0.9,27-4.9c3.6-3.6,5.3-8.8,5.2-15.2
				c0.9-0.1,1.8-0.3,2.7-0.4c0.9-0.1,1.7-0.2,2.6-0.3c7.3-0.9,15.4-0.9,23.1,0.9V33.7c-1.9-0.4-3.7-0.8-5.6-1V76.9z"/>
			<path id="XMLID_502_" class="st2" d="M11.6,80.5c-0.2,0-0.4,0-0.7,0.1l-2,0.2V36.6c-2.1,0.4-4.2,0.9-6.3,1.6v52.4
				c18.2-5.5,38.2-3,48.7-1C42.6,85.5,26.4,79.2,11.6,80.5z"/>
			<path id="XMLID_501_" class="st2" d="M51.2,87.4C44.1,81,31.6,70.9,20.3,68.9l-1.4-0.3V24.3c-1.6-0.1-3.1-0.1-4.7,0v52.4
				C27.8,75.9,42.7,82.7,51.2,87.4z"/>
			<path id="XMLID_500_" class="st2" d="M58,79v-1.4C57.5,60.9,47.3,36.8,27.2,11c-0.4-0.2-0.9-0.4-1.3-0.5v52.4
				c12.1,4.3,25.4,20.5,30.2,26.6C57.3,86.5,57.9,83,58,79z"/>
		</g>
		<g id="XMLID_487_">
			<path id="XMLID_498_" class="st3" d="M102.1,31.1v44.2l-1.8,0c-0.2,0-0.4,0-0.6,0c-6.9,0-14.2,2.2-20.7,5
				c0.2,1.4,0.3,2.8,0.3,4.1c8.6-1.5,18.8-2.1,28.4,0.2V32C105.9,31.6,104,31.3,102.1,31.1z"/>
			<path id="XMLID_497_" class="st3" d="M100.4,73.5V21.1c-1.5,0-3,0.1-4.5,0.2v44.3l-1.3,0.3C89,67.2,83.3,70.5,78,74.3
				c0.3,1.4,0.6,2.8,0.8,4.1C85.5,75.6,93.1,73.4,100.4,73.5z"/>
			<path id="XMLID_496_" class="st3" d="M94.1,64.2V11.8c-15.4,3.7-32.8,22.4-35.7,25.6C68.2,50,74.6,62.1,77.5,72.5
				C82.8,68.8,88.6,65.5,94.1,64.2z"/>
			<path id="XMLID_495_" class="st4" d="M11.6,78.9c-0.2,0-0.4,0-0.7,0.1l-2,0.2V34.9c-2.1,0.4-4.2,0.9-6.3,1.6v52.4
				c18.2-5.5,38.2-3,48.7-1C42.6,83.9,26.4,77.6,11.6,78.9z"/>
			<path id="XMLID_494_" class="st4" d="M51.2,85.8c-7.1-6.4-19.6-16.4-30.9-18.5L18.9,67V22.7c-1.6-0.1-3.1-0.1-4.7,0v52.4
				C27.8,74.3,42.7,81.1,51.2,85.8z"/>
			<path id="XMLID_493_" class="st4" d="M58,77.4V76C57.5,59.3,47.3,35.2,27.2,9.3c-0.4-0.2-0.9-0.4-1.3-0.5v52.4
				c12.1,4.3,25.4,20.4,30.2,26.6C57.3,84.9,57.9,81.4,58,77.4z"/>
			<g id="XMLID_489_">
				<path id="XMLID_492_" class="st5" d="M84.2,78.4c0-0.1,0-0.1,0-0.2c-1.7,0.6-3.4,1.3-5,2c0.2,1.4,0.3,2.8,0.3,4.1
					c1.7-0.3,3.5-0.5,5.3-0.8c0-1.1-0.1-2.2-0.2-3.3C84.4,79.7,84.3,79,84.2,78.4z"/>
				<path id="XMLID_491_" class="st5" d="M78.8,78.4c1.6-0.7,3.3-1.3,5-1.9c-0.1-0.7-0.3-1.4-0.5-2.2c-0.1-0.6-0.3-1.2-0.5-1.8
					c-0.1-0.4-0.3-0.8-0.4-1.2c-1.5,0.9-3,2-4.5,3C78.3,75.7,78.6,77.1,78.8,78.4z"/>
				<path id="XMLID_490_" class="st5" d="M77.5,72.5c1.4-1,2.9-2,4.4-2.9c-3.2-9.7-9.3-20.8-18.2-32.2c-0.8-1-1.6-2.1-2.5-3.1
					c-1.4,1.4-2.4,2.5-2.9,3.1C68.2,50,74.6,62.1,77.5,72.5z"/>
			</g>
			<path id="XMLID_488_" class="st3" d="M78.8,78.4c-0.2-1.3-0.5-2.7-0.8-4.1c-0.1-0.6-0.3-1.2-0.5-1.8C74.6,62.1,68.2,50,58.4,37.4
				c-6.6-8.5-14.8-17.2-24.5-25.7c-3.5-3.1-7.1-6-10.7-8.7c2.3,2.1,4.5,4.2,6.7,6.4C67.2,47.1,78.5,86.1,64,99.4
				c-4.1,3.8-10,5.3-16.9,5c11.6,2.2,21.3,0.9,27-4.9c3.6-3.6,5.3-8.9,5.2-15.2c0-1.3-0.1-2.7-0.3-4.1C79,79.6,78.9,79,78.8,78.4z"
				/>
		</g>
	</g>
	<g>
		<g id="XMLID_456_">
			<path id="XMLID_483_" class="st4" d="M120.5,46.2c0-1.5,0.2-2.8,0.6-4.1c0.4-1.3,1-2.5,1.7-3.6c1.3-1.9,3-3.4,5-4.4
				c2-1,4.2-1.6,6.5-1.6c1.8,0,3.5,0.3,5.1,1c1.6,0.7,3.1,1.7,4.4,2.9c1.3,1.3,2.3,2.8,3,4.5c0.7,1.7,1,3.4,1,5.2
				c0,1.9-0.3,3.7-1,5.4c-0.7,1.7-1.6,3.2-2.9,4.4c-1.3,1.4-2.8,2.4-4.5,3.1c-1.7,0.7-3.5,1.1-5.3,1.1c-2,0-3.8-0.4-5.5-1.1
				c-1.7-0.7-3.2-1.8-4.4-3.1c-1.2-1.3-2.2-2.8-2.8-4.4C120.8,49.8,120.5,48.1,120.5,46.2z M126,46c0,1.1,0.2,2.2,0.6,3.2
				c0.4,1,0.9,1.9,1.7,2.7c0.8,0.9,1.7,1.6,2.8,2.1c1,0.5,2.1,0.7,3.2,0.7c2.3,0,4.3-0.8,5.9-2.5c1.6-1.7,2.4-3.7,2.4-6.2
				c0-2.3-0.8-4.2-2.4-5.8c-1.6-1.6-3.5-2.4-5.7-2.4c-2.3,0-4.3,0.8-5.9,2.4C126.8,41.8,126,43.7,126,46z"/>
			<path id="XMLID_480_" class="st4" d="M156.3,59.6h-5.2V33h6.6c1.7,0,3,0.1,4,0.3c1,0.2,1.8,0.5,2.3,0.9c1.1,0.7,2,1.7,2.6,2.9
				c0.6,1.2,0.9,2.5,0.9,3.9c0,2.5-0.8,4.6-2.5,6.1c-1.7,1.5-4,2.3-6.8,2.3h-1.9V59.6z M156.3,44.9h1.4c1.5,0,2.6-0.3,3.3-0.9
				c0.8-0.6,1.2-1.5,1.2-2.7c0-1.2-0.4-2.1-1.1-2.7c-0.7-0.6-1.9-0.9-3.4-0.9h-1.3V44.9z"/>
			<path id="XMLID_478_" class="st4" d="M184.8,59.6h-14.4V33h14.4v4.7h-9.2v6.1h9.2v4.6h-9.2v6.6h9.2V59.6z"/>
			<path id="XMLID_476_" class="st4" d="M194.2,59.6h-5.1V33h4.9l11,17V33h5.1v26.6h-4.8l-11.1-17.5V59.6z"/>
			<path id="XMLID_474_" class="st4" d="M251.7,45.4c0,0.1,0,0.2,0,0.4c0,0.2,0,0.4,0,0.4c0,1.1-0.1,2.2-0.3,3.2
				c-0.2,1-0.5,1.9-1,2.8c-1.3,2.5-3,4.4-5.1,5.8c-2.2,1.4-4.6,2-7.3,2c-2,0-3.9-0.4-5.6-1.2c-1.7-0.8-3.2-1.9-4.6-3.4
				c-1.1-1.3-2-2.7-2.6-4.3c-0.6-1.6-0.9-3.3-0.9-5.1c0-1.9,0.4-3.6,1.1-5.3c0.7-1.7,1.8-3.2,3.2-4.5c1.3-1.3,2.8-2.3,4.4-2.9
				c1.6-0.6,3.4-1,5.4-1c2.9,0,5.3,0.7,7.4,2.1c2.1,1.4,3.7,3.5,4.8,6.1h-6.3c-0.8-1-1.7-1.7-2.7-2.2c-1-0.5-2.2-0.7-3.5-0.7
				c-2.3,0-4.2,0.8-5.8,2.5c-1.6,1.6-2.4,3.6-2.4,6c0,2.4,0.8,4.4,2.4,6c1.6,1.6,3.6,2.5,5.9,2.5c1.6,0,3.1-0.4,4.4-1.3
				c1.3-0.9,2.3-2.1,2.9-3.5h-10.5v-4.5H251.7z"/>
			<path id="XMLID_472_" class="st4" d="M268.5,59.6H255V33h5.2v21.9h8.4V59.6z"/>
			<path id="XMLID_469_" class="st4" d="M269,46.2c0-1.5,0.2-2.8,0.6-4.1c0.4-1.3,1-2.5,1.7-3.6c1.3-1.9,3-3.4,5-4.4
				c2-1,4.2-1.6,6.5-1.6c1.8,0,3.5,0.3,5.1,1c1.6,0.7,3.1,1.7,4.4,2.9c1.3,1.3,2.3,2.8,3,4.5c0.7,1.7,1,3.4,1,5.2
				c0,1.9-0.3,3.7-1,5.4c-0.7,1.7-1.6,3.2-2.9,4.4c-1.3,1.4-2.8,2.4-4.5,3.1c-1.7,0.7-3.5,1.1-5.3,1.1c-2,0-3.8-0.4-5.5-1.1
				c-1.7-0.7-3.2-1.8-4.4-3.1c-1.2-1.3-2.2-2.8-2.8-4.4C269.3,49.8,269,48.1,269,46.2z M274.4,46c0,1.1,0.2,2.2,0.6,3.2
				c0.4,1,0.9,1.9,1.7,2.7c0.8,0.9,1.7,1.6,2.8,2.1c1,0.5,2.1,0.7,3.2,0.7c2.3,0,4.3-0.8,5.9-2.5c1.6-1.7,2.4-3.7,2.4-6.2
				c0-2.3-0.8-4.2-2.4-5.8c-1.6-1.6-3.5-2.4-5.7-2.4c-2.3,0-4.3,0.8-5.9,2.4C275.3,41.8,274.4,43.7,274.4,46z"/>
			<path id="XMLID_467_" class="st4" d="M298,51.3l4.8,0v0.4c0,1.1,0.3,2,0.9,2.7c0.6,0.7,1.4,1,2.3,1c1,0,1.9-0.3,2.5-0.9
				c0.6-0.6,0.9-1.5,0.9-2.6c0-1.7-1.2-2.9-3.7-3.7c-0.3-0.1-0.6-0.2-0.7-0.2c-2.1-0.6-3.6-1.6-4.6-2.8c-1-1.2-1.5-2.7-1.5-4.5
				c0-2.5,0.7-4.5,2.1-6c1.4-1.5,3.2-2.3,5.5-2.3c2.2,0,3.9,0.7,5.2,2c1.3,1.3,2,3.2,2.1,5.7H309v-0.2c0-0.9-0.3-1.5-0.8-2.1
				c-0.5-0.5-1.2-0.8-2-0.8c-0.9,0-1.5,0.3-2,0.8s-0.7,1.3-0.7,2.2c0,0.4,0.1,0.7,0.2,1c0.1,0.3,0.3,0.6,0.5,0.8
				c0.5,0.5,1.6,1.1,3.2,1.5c0.7,0.2,1.3,0.4,1.7,0.5c1.8,0.6,3.2,1.5,4.1,2.7s1.3,2.6,1.3,4.4c0,2.7-0.8,4.9-2.3,6.6
				c-1.5,1.7-3.5,2.5-6.1,2.5c-2.4,0-4.3-0.8-5.8-2.4C298.8,56.1,298.1,54,298,51.3z"/>
			<path id="XMLID_465_" class="st4" d="M316,51.3l4.8,0v0.4c0,1.1,0.3,2,0.9,2.7c0.6,0.7,1.4,1,2.3,1c1,0,1.9-0.3,2.5-0.9
				c0.6-0.6,0.9-1.5,0.9-2.6c0-1.7-1.2-2.9-3.7-3.7c-0.3-0.1-0.6-0.2-0.7-0.2c-2.1-0.6-3.6-1.6-4.6-2.8c-1-1.2-1.5-2.7-1.5-4.5
				c0-2.5,0.7-4.5,2.1-6c1.4-1.5,3.2-2.3,5.5-2.3c2.2,0,3.9,0.7,5.2,2c1.3,1.3,2,3.2,2.1,5.7H327v-0.2c0-0.9-0.3-1.5-0.8-2.1
				c-0.5-0.5-1.2-0.8-2-0.8c-0.9,0-1.5,0.3-2,0.8s-0.7,1.3-0.7,2.2c0,0.4,0.1,0.7,0.2,1c0.1,0.3,0.3,0.6,0.5,0.8
				c0.5,0.5,1.6,1.1,3.2,1.5c0.7,0.2,1.3,0.4,1.7,0.5c1.8,0.6,3.2,1.5,4.1,2.7s1.3,2.6,1.3,4.4c0,2.7-0.8,4.9-2.3,6.6
				c-1.5,1.7-3.5,2.5-6.1,2.5c-2.4,0-4.3-0.8-5.8-2.4C316.8,56.1,316,54,316,51.3z"/>
			<path id="XMLID_462_" class="st4" d="M340.1,54l-2.1,5.6h-5.4L342.9,33h4.5l10.2,26.6H352l-2.1-5.6H340.1z M348.2,49.1l-3.1-8.6
				l-3.2,8.6H348.2z"/>
			<path id="XMLID_459_" class="st4" d="M364,59.6h-5.2V33h6.3c2,0,3.5,0.1,4.5,0.2c1,0.1,1.8,0.4,2.5,0.7c1.5,0.7,2.7,1.7,3.5,3
				c0.8,1.3,1.2,2.8,1.2,4.5c0,2.1-0.6,3.8-1.7,5.2c-1.1,1.4-2.7,2.3-4.6,2.7l6.7,10.3h-6.2L364,47.2V59.6z M364,45.9h1.2
				c2.1,0,3.7-0.4,4.8-1.1c1.1-0.8,1.6-1.9,1.6-3.3c0-1.4-0.5-2.5-1.4-3.1c-0.9-0.7-2.3-1-4.3-1H364V45.9z"/>
			<path id="XMLID_457_" class="st4" d="M389.6,50v9.6h-5.2V50l-7.6-17h5.7l4.6,11.5l4.6-11.5h5.7L389.6,50z"/>
		</g>
		<g id="XMLID_1_">
			<g>
				<path id="XMLID_35_" class="st3" d="M132.1,79.1c0,0.3-0.1,0.6-0.3,0.8c-0.2,0.2-0.4,0.4-0.6,0.5l-4.2,2.2
					c-0.2,0.1-0.5,0.2-0.7,0.2c-0.3,0-0.5-0.1-0.7-0.2l-3.2-2.1c-0.2-0.1-0.4-0.3-0.5-0.5c-0.1-0.2-0.2-0.5-0.2-0.7v-12
					c0-0.1,0-0.3,0.1-0.5c0.1-0.2,0.1-0.3,0.3-0.5c0.1-0.2,0.3-0.3,0.5-0.4s0.4-0.2,0.7-0.2h7.2c0.3,0,0.5,0.1,0.7,0.2
					c0.2,0.1,0.3,0.2,0.5,0.4c0.1,0.2,0.2,0.3,0.3,0.5c0.1,0.2,0.1,0.3,0.1,0.5V79.1z M129.1,78.6v-10h-4.3v10.4l1.6,1L129.1,78.6z"
					/>
				<path id="XMLID_33_" class="st3" d="M136.1,82.5V65.9h8.8v2.8h-5.8v3.6h5.3v2.8h-5.3v7.4H136.1z"/>
				<path id="XMLID_31_" class="st3" d="M152.6,80.9V65.9h8.8v2.8h-5.8v3.6h5.3v2.8h-5.3v4.6h5.8v2.8h-7.3c-0.3,0-0.5-0.1-0.7-0.2
					c-0.2-0.1-0.3-0.2-0.5-0.4c-0.1-0.2-0.2-0.3-0.3-0.5C152.7,81.2,152.6,81.1,152.6,80.9z"/>
				<path id="XMLID_28_" class="st3" d="M165.1,82.5V66l8.9-0.1c0.5,0,0.8,0.1,1.1,0.4c0.2,0.3,0.4,0.6,0.4,0.9v13
					c0,0.3-0.1,0.5-0.2,0.7c-0.1,0.2-0.3,0.4-0.5,0.5l-2,1.2c-0.2,0.1-0.6,0.2-1,0.2c-0.1,0-0.3,0-0.4,0l-3.5-1.1l-0.2,0.7H165.1z
					 M171.5,80.2l0.9-0.6V68.5h-4.3v10.8L171.5,80.2z"/>
				<path id="XMLID_26_" class="st3" d="M179.3,79.4v-12c0-0.1,0-0.3,0.1-0.5c0.1-0.2,0.1-0.3,0.3-0.5c0.1-0.2,0.3-0.3,0.5-0.4
					c0.2-0.1,0.4-0.2,0.7-0.1h8.4l-0.2,4.7h-2.7v-2h-4v10.4l1.6,1l2.4-1.4v-3.7H184v-2.6h5.3v6.8c0,0.6-0.3,1-0.7,1.3l-4.1,2.3
					c-0.2,0.1-0.5,0.2-0.7,0.2c-0.3,0-0.5-0.1-0.7-0.2l-3.2-2.1c-0.2-0.1-0.4-0.3-0.5-0.5C179.3,79.9,179.3,79.7,179.3,79.4z"/>
				<path id="XMLID_24_" class="st3" d="M193.2,80.9V65.9h8.8v2.8h-5.8v3.6h5.3v2.8h-5.3v4.6h5.8v2.8h-7.3c-0.3,0-0.5-0.1-0.7-0.2
					c-0.2-0.1-0.3-0.2-0.5-0.4s-0.2-0.3-0.3-0.5C193.3,81.2,193.2,81.1,193.2,80.9z"/>
				<path id="XMLID_22_" class="st3" d="M216.1,70.8v-2.3h-3.2v10.4l1.6,1l3.3-1.9l1.4,2.2l-4.1,2.4c-0.2,0.1-0.5,0.2-0.7,0.2
					c-0.3,0-0.5-0.1-0.7-0.2l-3.2-2.1c-0.2-0.1-0.4-0.3-0.5-0.5c-0.1-0.2-0.2-0.5-0.2-0.7v-12c0-0.1,0-0.3,0.1-0.5
					c0.1-0.2,0.1-0.3,0.3-0.5c0.1-0.2,0.3-0.3,0.5-0.4c0.2-0.1,0.4-0.2,0.7-0.2h7.7l-0.2,5H216.1z"/>
				<path id="XMLID_19_" class="st3" d="M232.9,79.1c0,0.3-0.1,0.6-0.3,0.8c-0.2,0.2-0.4,0.4-0.6,0.5l-4.2,2.2
					c-0.2,0.1-0.5,0.2-0.7,0.2c-0.3,0-0.5-0.1-0.7-0.2l-3.2-2.1c-0.2-0.1-0.4-0.3-0.5-0.5c-0.1-0.2-0.2-0.5-0.2-0.7v-12
					c0-0.1,0-0.3,0.1-0.5c0.1-0.2,0.1-0.3,0.3-0.5c0.1-0.2,0.3-0.3,0.5-0.4c0.2-0.1,0.4-0.2,0.7-0.2h7.2c0.3,0,0.5,0.1,0.7,0.2
					c0.2,0.1,0.3,0.2,0.5,0.4c0.1,0.2,0.2,0.3,0.3,0.5c0.1,0.2,0.1,0.3,0.1,0.5V79.1z M229.9,78.6v-10h-4.3v10.4l1.6,1L229.9,78.6z"
					/>
				<path id="XMLID_17_" class="st3" d="M241.6,65.9c0.3,0,0.7,0.1,0.9,0.2c0.3,0.1,0.5,0.3,0.8,0.5l1.4,1.1h0.1l1.3-1.1
					c0.2-0.2,0.5-0.4,0.8-0.5c0.3-0.1,0.6-0.2,0.9-0.2h3.2c0.3,0,0.5,0.1,0.7,0.2c0.2,0.1,0.3,0.2,0.5,0.4c0.1,0.2,0.2,0.3,0.3,0.5
					c0.1,0.2,0.1,0.3,0.1,0.5v15.1h-3V68.5h-1.4l-1.9,1.2v12.7h-3V69.8l-2.1-1.2h-1.2v13.9h-3V67.4c0-0.1,0-0.3,0.1-0.5
					c0.1-0.2,0.1-0.3,0.3-0.5c0.1-0.2,0.3-0.3,0.5-0.4c0.2-0.1,0.4-0.2,0.7-0.2H241.6z"/>
				<path id="XMLID_14_" class="st3" d="M256.6,82.5V66l8.1-0.1c0.3,0,0.5,0.1,0.7,0.2s0.3,0.2,0.5,0.4c0.1,0.2,0.2,0.3,0.3,0.5
					c0.1,0.2,0.1,0.3,0.1,0.5v8.3c0,0.3-0.1,0.6-0.3,0.9c-0.2,0.3-0.6,0.5-1.2,0.6l-5.1,1.1v4.2H256.6z M263.2,68.5h-3.6v6.7
					l3.6-0.9V68.5z"/>
				<path id="XMLID_12_" class="st3" d="M279.9,65.9v16.6h-2.5l-0.1-1.5h-0.2l-2.8,1.8c-0.2,0.1-0.4,0.2-0.6,0.2
					c-0.3,0-0.6-0.1-0.7-0.2l-2.5-1.6c-0.2-0.1-0.4-0.3-0.5-0.5c-0.1-0.2-0.2-0.5-0.2-0.7v-14h3v13.5l0.9,0.6l3.2-1.8V65.9H279.9z"
					/>
				<path id="XMLID_10_" class="st3" d="M286.3,82.5V68.6h-3.4v-2.8h9.8v2.8h-3.4v13.8H286.3z"/>
				<path id="XMLID_8_" class="st3" d="M298.7,65.9v16.6h-3V65.9H298.7z"/>
				<path id="XMLID_6_" class="st3" d="M305.8,67.6L305.8,67.6l1.9-1.2c0.5-0.4,1.1-0.5,1.7-0.5h2c0.3,0,0.5,0.1,0.7,0.2
					c0.2,0.1,0.3,0.2,0.5,0.4c0.1,0.2,0.2,0.3,0.3,0.5c0.1,0.2,0.1,0.3,0.1,0.5v15.1h-3V68.5h-1l-3,1.9v12h-3V65.9h3V67.6z"/>
				<path id="XMLID_4_" class="st3" d="M316.8,79.4v-12c0-0.1,0-0.3,0.1-0.5c0.1-0.2,0.1-0.3,0.3-0.5c0.1-0.2,0.3-0.3,0.5-0.4
					c0.2-0.1,0.4-0.2,0.7-0.1h8.4l-0.2,4.7h-2.7v-2h-4v10.4l1.6,1l2.4-1.4v-3.7h-2.3v-2.6h5.3v6.8c0,0.6-0.3,1-0.7,1.3l-4.1,2.3
					c-0.2,0.1-0.5,0.2-0.7,0.2c-0.3,0-0.5-0.1-0.7-0.2l-3.2-2.1c-0.2-0.1-0.4-0.3-0.5-0.5C316.9,79.9,316.8,79.7,316.8,79.4z"/>
			</g>
		</g>
	</g>
</g>
</svg>
