<?xml version="1.0" encoding="utf-8"?>
<!-- Generator: Adobe Illustrator 24.0.3, SVG Export Plug-In . SVG Version: 6.00 Build 0)  -->
<svg version="1.1" id="Layer_1" xmlns="http://www.w3.org/2000/svg" xmlns:xlink="http://www.w3.org/1999/xlink" x="0px" y="0px"
	 viewBox="0 0 400 245" style="enable-background:new 0 0 400 245;" xml:space="preserve">
<style type="text/css">
	.st0{fill:#FFFFFF;}
	.st1{fill:#231F20;}
	.st2{fill:#EAEDEF;}
	.st3{fill:#9163CC;}
	.st4{fill:#1ECECA;}
	.st5{fill:#D3D2D2;}
</style>
<g id="XMLID_120_">
	<g id="XMLID_228_">
		<path id="XMLID_242_" class="st1" d="M267.5,49.3v63.6l-2.6-0.1c-0.3,0-0.6,0-0.8,0c-9.9,0-20.4,3.1-29.7,7.1c0.2,2,0.4,4,0.4,5.9
			c12.4-2.1,27-3,40.8,0.2V50.7C272.9,50.1,270.2,49.6,267.5,49.3z"/>
		<path id="XMLID_241_" class="st1" d="M265,110.3V35c-2.2,0-4.3,0.1-6.5,0.3v63.6l-1.9,0.5c-7.9,1.9-16.1,6.6-23.7,12.1
			c0.5,2,0.9,4,1.2,5.9C243.7,113.3,254.6,110.1,265,110.3z"/>
		<path id="XMLID_239_" class="st1" d="M255.9,96.9V21.6c-22.2,5.3-47.2,32.2-51.3,36.8c14.1,18.1,23.3,35.5,27.5,50.5
			C239.7,103.5,248,98.8,255.9,96.9z"/>
		<path id="XMLID_238_" class="st1" d="M137.4,118.1c-0.3,0-0.6,0.1-0.9,0.1l-2.9,0.3V54.8c-3,0.6-6.1,1.4-9.1,2.3v75.4
			c26.2-7.8,54.9-4.3,70-1.4C182,125.2,158.6,116.1,137.4,118.1z"/>
		<path id="XMLID_236_" class="st1" d="M194.3,127.9c-10.2-9.2-28.2-23.6-44.5-26.7l-2-0.4V37.3c-2.3-0.1-4.5-0.2-6.8,0v75.4
			C160.7,111.4,182.1,121.2,194.3,127.9z"/>
		<path id="XMLID_235_" class="st1" d="M204,115.9v-2.1c-0.6-24-15.3-58.6-44.2-95.8c-0.6-0.3-1.3-0.5-1.9-0.8v75.4
			c17.3,6.2,36.6,29.4,43.5,38.3C203.1,126.7,203.9,121.6,204,115.9z"/>
		<path id="XMLID_229_" class="st1" d="M234,117.4c-0.3-1.9-0.7-3.9-1.2-5.9c-0.2-0.9-0.4-1.7-0.7-2.6c-4.2-15-13.4-32.4-27.5-50.5
			c-9.5-12.2-21.3-24.7-35.3-37c-5.1-4.4-10.2-8.6-15.4-12.6c3.2,3,6.4,6,9.6,9.2c53.8,54.2,70,110.4,49.2,129.5
			c-5.9,5.4-14.3,7.6-24.3,7.2c16.7,3.2,30.7,1.3,38.8-7c5.1-5.2,7.6-12.7,7.5-21.9c0-1.9-0.1-3.8-0.4-5.9
			C234.3,119.1,234.1,118.3,234,117.4z"/>
	</g>
	<g id="XMLID_192_">
		<path id="XMLID_225_" class="st1" d="M0.9,183.4c0-2.1,0.3-4.1,0.8-6c0.6-1.9,1.4-3.6,2.5-5.2c1.9-2.8,4.3-4.9,7.1-6.4
			c2.9-1.5,6-2.2,9.4-2.2c2.5,0,5,0.5,7.3,1.5c2.4,1,4.5,2.4,6.3,4.2c1.9,1.9,3.4,4.1,4.4,6.4c1,2.4,1.5,4.9,1.5,7.5
			c0,2.7-0.5,5.3-1.4,7.7c-0.9,2.4-2.3,4.5-4.1,6.4c-1.8,1.9-4,3.4-6.4,4.5s-5,1.6-7.7,1.6c-2.9,0-5.5-0.5-7.9-1.5
			c-2.4-1-4.5-2.5-6.4-4.5c-1.8-1.9-3.1-4-4.1-6.4C1.4,188.6,0.9,186.1,0.9,183.4z M8.8,183.2c0,1.6,0.3,3.2,0.8,4.6
			s1.4,2.7,2.4,3.9c1.2,1.3,2.5,2.3,4,3c1.5,0.7,3,1,4.6,1c3.3,0,6.2-1.2,8.4-3.6c2.3-2.4,3.4-5.4,3.4-8.9c0-3.3-1.1-6-3.4-8.3
			c-2.3-2.3-5-3.5-8.2-3.5c-3.3,0-6.2,1.1-8.5,3.4S8.8,179.9,8.8,183.2z"/>
		<path id="XMLID_222_" class="st1" d="M52.5,202.6H45v-38.3h9.5c2.4,0,4.3,0.1,5.7,0.4c1.4,0.3,2.5,0.7,3.4,1.3
			c1.6,1.1,2.8,2.5,3.7,4.2c0.9,1.8,1.4,3.6,1.4,5.6c0,3.7-1.2,6.6-3.6,8.8c-2.4,2.2-5.7,3.3-9.8,3.3h-2.8V202.6z M52.5,181.5h2
			c2.1,0,3.7-0.5,4.8-1.4c1.1-0.9,1.7-2.2,1.7-3.9c0-1.7-0.5-3-1.6-3.9c-1.1-0.9-2.7-1.3-4.9-1.3h-1.9V181.5z"/>
		<path id="XMLID_220_" class="st1" d="M93.4,202.6H72.7v-38.3h20.7v6.7H80.1v8.7h13.3v6.6H80.1v9.5h13.3V202.6z"/>
		<path id="XMLID_218_" class="st1" d="M107,202.6h-7.4v-38.3h7.1l15.8,24.5v-24.5h7.3v38.3H123l-16-25.2V202.6z"/>
		<path id="XMLID_216_" class="st1" d="M189.7,182.3c0,0.1,0,0.4,0,0.6c0,0.3,0,0.5,0,0.6c0,1.6-0.1,3.2-0.4,4.6
			c-0.3,1.4-0.8,2.7-1.4,4c-1.8,3.6-4.3,6.4-7.4,8.3s-6.6,2.9-10.6,2.9c-2.9,0-5.6-0.6-8-1.7c-2.5-1.1-4.7-2.7-6.6-4.9
			c-1.6-1.8-2.9-3.9-3.7-6.2c-0.9-2.3-1.3-4.8-1.3-7.4c0-2.7,0.5-5.2,1.6-7.6c1-2.4,2.5-4.6,4.5-6.5c1.9-1.9,4-3.3,6.3-4.2
			c2.3-0.9,4.9-1.4,7.7-1.4c4.1,0,7.7,1,10.7,3c3,2,5.3,5,6.9,8.8H179c-1.1-1.4-2.4-2.4-3.9-3.1c-1.5-0.7-3.2-1-5-1
			c-3.3,0-6.1,1.2-8.3,3.5c-2.3,2.4-3.4,5.2-3.4,8.6c0,3.4,1.2,6.3,3.5,8.7c2.3,2.4,5.1,3.5,8.5,3.5c2.3,0,4.4-0.6,6.4-1.9
			c1.9-1.3,3.3-3,4.2-5.1h-15v-6.4H189.7z"/>
		<path id="XMLID_214_" class="st1" d="M213.8,202.6h-19.4v-38.3h7.4v31.6h12V202.6z"/>
		<path id="XMLID_211_" class="st1" d="M214.5,183.4c0-2.1,0.3-4.1,0.8-6c0.6-1.9,1.4-3.6,2.5-5.2c1.9-2.8,4.3-4.9,7.1-6.4
			c2.9-1.5,6-2.2,9.4-2.2c2.5,0,5,0.5,7.3,1.5c2.4,1,4.5,2.4,6.3,4.2c1.9,1.9,3.4,4.1,4.4,6.4c1,2.4,1.5,4.9,1.5,7.5
			c0,2.7-0.5,5.3-1.4,7.7c-0.9,2.4-2.3,4.5-4.1,6.4c-1.8,1.9-4,3.4-6.4,4.5c-2.4,1-5,1.6-7.7,1.6c-2.9,0-5.5-0.5-7.9-1.5
			c-2.4-1-4.5-2.5-6.4-4.5c-1.8-1.9-3.1-4-4.1-6.4C214.9,188.6,214.5,186.1,214.5,183.4z M222.3,183.2c0,1.6,0.3,3.2,0.8,4.6
			c0.5,1.4,1.3,2.7,2.4,3.9c1.2,1.3,2.5,2.3,4,3c1.5,0.7,3,1,4.6,1c3.3,0,6.2-1.2,8.4-3.6c2.3-2.4,3.4-5.4,3.4-8.9
			c0-3.3-1.1-6-3.4-8.3c-2.3-2.3-5-3.5-8.2-3.5c-3.3,0-6.2,1.1-8.5,3.4C223.5,177.1,222.3,179.9,222.3,183.2z"/>
		<path id="XMLID_209_" class="st1" d="M256.2,190.8l6.8,0v0.6c0,1.6,0.4,2.9,1.3,3.9c0.8,1,2,1.5,3.4,1.5c1.5,0,2.7-0.5,3.6-1.4
			c0.9-0.9,1.3-2.1,1.3-3.7c0-2.5-1.8-4.2-5.3-5.3c-0.5-0.1-0.8-0.3-1.1-0.3c-3-0.9-5.2-2.2-6.6-4c-1.4-1.7-2.2-3.9-2.2-6.5
			c0-3.6,1-6.5,3-8.6c2-2.2,4.6-3.3,8-3.3c3.1,0,5.6,1,7.4,2.9c1.8,1.9,2.9,4.7,3.1,8.1h-6.8v-0.3c0-1.2-0.4-2.2-1.1-3
			c-0.7-0.8-1.7-1.1-2.9-1.1c-1.2,0-2.2,0.4-2.9,1.2c-0.7,0.8-1.1,1.8-1.1,3.2c0,0.6,0.1,1.1,0.2,1.5c0.1,0.4,0.4,0.8,0.7,1.2
			c0.7,0.8,2.3,1.5,4.6,2.2c1.1,0.3,1.9,0.5,2.4,0.7c2.6,0.9,4.6,2.2,5.8,3.8c1.3,1.7,1.9,3.8,1.9,6.4c0,3.9-1.1,7.1-3.3,9.5
			c-2.2,2.4-5.1,3.6-8.7,3.6c-3.4,0-6.2-1.2-8.3-3.5C257.4,197.6,256.3,194.6,256.2,190.8z"/>
		<path id="XMLID_207_" class="st1" d="M282,190.8l6.8,0v0.6c0,1.6,0.4,2.9,1.3,3.9c0.8,1,2,1.5,3.4,1.5c1.5,0,2.7-0.5,3.6-1.4
			c0.9-0.9,1.3-2.1,1.3-3.7c0-2.5-1.8-4.2-5.3-5.3c-0.5-0.1-0.8-0.3-1.1-0.3c-3-0.9-5.2-2.2-6.6-4c-1.4-1.7-2.2-3.9-2.2-6.5
			c0-3.6,1-6.5,3-8.6c2-2.2,4.6-3.3,8-3.3c3.1,0,5.6,1,7.4,2.9c1.8,1.9,2.9,4.7,3.1,8.1h-6.8v-0.3c0-1.2-0.4-2.2-1.1-3
			c-0.7-0.8-1.7-1.1-2.9-1.1c-1.2,0-2.2,0.4-2.9,1.2c-0.7,0.8-1.1,1.8-1.1,3.2c0,0.6,0.1,1.1,0.2,1.5c0.1,0.4,0.4,0.8,0.7,1.2
			c0.7,0.8,2.3,1.5,4.6,2.2c1.1,0.3,1.9,0.5,2.4,0.7c2.6,0.9,4.6,2.2,5.8,3.8c1.3,1.7,1.9,3.8,1.9,6.4c0,3.9-1.1,7.1-3.3,9.5
			c-2.2,2.4-5.1,3.6-8.7,3.6c-3.4,0-6.2-1.2-8.3-3.5C283.1,197.6,282.1,194.6,282,190.8z"/>
		<path id="XMLID_204_" class="st1" d="M316.7,194.6l-3,8h-7.8l14.9-38.3h6.5l14.6,38.3h-8l-3-8H316.7z M328.4,187.5l-4.5-12.3
			l-4.6,12.3H328.4z"/>
		<path id="XMLID_201_" class="st1" d="M351,202.6h-7.5v-38.3h9.1c2.9,0,5,0.1,6.5,0.3c1.4,0.2,2.6,0.5,3.6,1c2.2,1,3.8,2.4,5,4.3
			c1.1,1.8,1.7,4,1.7,6.4c0,3-0.8,5.5-2.4,7.5c-1.6,2.1-3.8,3.4-6.7,3.9l9.6,14.9h-8.9l-9.9-17.8V202.6z M351,183h1.7
			c3,0,5.3-0.5,6.9-1.6c1.6-1.1,2.4-2.7,2.4-4.8c0-2-0.7-3.5-2-4.5c-1.3-1-3.4-1.4-6.2-1.4H351V183z"/>
		<path id="XMLID_193_" class="st1" d="M387.9,188.9v13.8h-7.5v-13.8l-11-24.5h8.2l6.6,16.5l6.6-16.5h8.2L387.9,188.9z"/>
	</g>
	<g id="XMLID_121_">
		<g>
			<path id="XMLID_154_" class="st1" d="M67.4,230.7c0,0.5-0.1,0.9-0.4,1.2c-0.3,0.3-0.6,0.6-0.9,0.8l-6,3.2c-0.3,0.2-0.7,0.2-1,0.2
				c-0.4,0-0.8-0.1-1-0.2l-4.5-3c-0.3-0.2-0.5-0.4-0.7-0.7c-0.2-0.3-0.3-0.7-0.3-1v-17.3c0-0.2,0-0.4,0.1-0.7
				c0.1-0.2,0.2-0.5,0.4-0.7c0.2-0.2,0.4-0.4,0.7-0.6c0.3-0.2,0.6-0.2,1-0.2h10.4c0.4,0,0.7,0.1,1,0.2c0.3,0.2,0.5,0.3,0.7,0.6
				c0.2,0.2,0.3,0.5,0.4,0.7c0.1,0.2,0.1,0.5,0.1,0.7V230.7z M63.1,229.9v-14.4H57v15l2.2,1.5L63.1,229.9z"/>
			<path id="XMLID_152_" class="st1" d="M73.1,235.5v-23.8h12.6v4h-8.3v5.2h7.6v4h-7.6v10.6H73.1z"/>
			<path id="XMLID_150_" class="st1" d="M96.9,233.4v-21.7h12.6v4h-8.3v5.2h7.6v4h-7.6v6.6h8.3v4H99c-0.4,0-0.7-0.1-1-0.2
				c-0.3-0.2-0.5-0.3-0.7-0.6s-0.3-0.5-0.4-0.7C96.9,233.8,96.9,233.6,96.9,233.4z"/>
			<path id="XMLID_147_" class="st1" d="M114.8,235.5v-23.7l12.8-0.2c0.7,0,1.2,0.2,1.5,0.6c0.3,0.4,0.5,0.8,0.5,1.3v18.7
				c0,0.4-0.1,0.7-0.3,1c-0.2,0.3-0.4,0.6-0.7,0.7l-2.9,1.8c-0.3,0.2-0.8,0.3-1.4,0.3c-0.2,0-0.4,0-0.6-0.1l-5.1-1.5l-0.3,1H114.8z
				 M123.9,232.3l1.3-0.8v-16h-6.2v15.6L123.9,232.3z"/>
			<path id="XMLID_145_" class="st1" d="M135.2,231.2v-17.3c0-0.2,0-0.4,0.1-0.7c0.1-0.3,0.2-0.5,0.4-0.7c0.2-0.2,0.4-0.4,0.7-0.6
				c0.3-0.2,0.6-0.2,1-0.2h12.1l-0.3,6.8h-3.9v-2.9h-5.8v15l2.2,1.5l3.5-2v-5.3h-3.3v-3.8h7.7v9.8c-0.1,0.9-0.4,1.5-1.1,1.8
				l-5.9,3.3c-0.3,0.2-0.7,0.2-1,0.2c-0.4,0-0.8-0.1-1-0.2l-4.5-3c-0.3-0.2-0.5-0.4-0.7-0.7C135.3,231.9,135.2,231.5,135.2,231.2z"
				/>
			<path id="XMLID_143_" class="st1" d="M155.3,233.4v-21.7h12.6v4h-8.3v5.2h7.6v4h-7.6v6.6h8.3v4h-10.4c-0.4,0-0.7-0.1-1-0.2
				c-0.3-0.2-0.5-0.3-0.7-0.6c-0.2-0.2-0.3-0.5-0.4-0.7C155.3,233.8,155.3,233.6,155.3,233.4z"/>
			<path id="XMLID_141_" class="st1" d="M188.1,218.8v-3.3h-4.6v15l2.2,1.5l4.8-2.7l2.1,3.2l-6,3.4c-0.3,0.2-0.7,0.2-1,0.2
				c-0.4,0-0.8-0.1-1-0.2l-4.5-3c-0.3-0.2-0.5-0.4-0.7-0.7c-0.2-0.3-0.3-0.7-0.3-1v-17.3c0-0.2,0-0.4,0.1-0.7
				c0.1-0.2,0.2-0.5,0.4-0.7c0.2-0.2,0.4-0.4,0.7-0.6c0.3-0.2,0.6-0.2,1-0.2h11l-0.3,7.1H188.1z"/>
			<path id="XMLID_138_" class="st1" d="M212.3,230.7c0,0.5-0.1,0.9-0.4,1.2c-0.3,0.3-0.6,0.6-0.9,0.8l-6,3.2
				c-0.3,0.2-0.7,0.2-1,0.2c-0.4,0-0.8-0.1-1-0.2l-4.5-3c-0.3-0.2-0.5-0.4-0.7-0.7c-0.2-0.3-0.3-0.7-0.3-1v-17.3
				c0-0.2,0-0.4,0.1-0.7c0.1-0.2,0.2-0.5,0.4-0.7c0.2-0.2,0.4-0.4,0.7-0.6c0.3-0.2,0.6-0.2,1-0.2h10.4c0.4,0,0.7,0.1,1,0.2
				c0.3,0.2,0.5,0.3,0.7,0.6c0.2,0.2,0.3,0.5,0.4,0.7c0.1,0.2,0.1,0.5,0.1,0.7V230.7z M208,229.9v-14.4h-6.1v15l2.2,1.5L208,229.9z"
				/>
			<path id="XMLID_136_" class="st1" d="M224.8,211.7c0.5,0,0.9,0.1,1.4,0.3c0.4,0.2,0.8,0.4,1.1,0.7l2,1.5h0.2l1.9-1.5
				c0.3-0.3,0.7-0.6,1.1-0.7c0.4-0.2,0.9-0.3,1.4-0.3h4.6c0.4,0,0.7,0.1,1,0.2c0.3,0.2,0.5,0.3,0.7,0.6c0.2,0.2,0.3,0.5,0.4,0.7
				s0.1,0.5,0.1,0.7v21.7h-4.3v-20h-2.1l-2.7,1.8v18.2h-4.3v-18.2l-3-1.8h-1.8v20H218v-21.7c0-0.2,0-0.4,0.1-0.7
				c0.1-0.2,0.2-0.5,0.4-0.7c0.2-0.2,0.4-0.4,0.7-0.6c0.3-0.2,0.6-0.2,1-0.2H224.8z"/>
			<path id="XMLID_133_" class="st1" d="M246.4,235.5v-23.7l11.6-0.2c0.4,0,0.7,0.1,1,0.2c0.3,0.2,0.5,0.3,0.7,0.6
				c0.2,0.2,0.3,0.5,0.4,0.7s0.1,0.5,0.1,0.7v11.9c0,0.4-0.2,0.8-0.5,1.3c-0.3,0.5-0.9,0.8-1.7,0.9l-7.3,1.6v6.1H246.4z
				 M255.9,215.5h-5.2v9.7l5.2-1.3V215.5z"/>
			<path id="XMLID_131_" class="st1" d="M279.9,211.7v23.8h-3.6l-0.1-2.2h-0.3l-4,2.5c-0.3,0.2-0.6,0.2-0.9,0.2
				c-0.5,0-0.8-0.1-1.1-0.2l-3.5-2.3c-0.3-0.2-0.5-0.4-0.7-0.7c-0.2-0.3-0.3-0.7-0.3-1v-20.1h4.3v19.4l1.2,0.8l4.6-2.5v-17.7H279.9z
				"/>
			<path id="XMLID_129_" class="st1" d="M289.1,235.5v-19.9h-4.9v-4h14.1v4h-4.9v19.9H289.1z"/>
			<path id="XMLID_127_" class="st1" d="M306.9,211.7v23.8h-4.3v-23.8H306.9z"/>
			<path id="XMLID_125_" class="st1" d="M317.1,214.2h0.1l2.5-1.7c0.7-0.5,1.5-0.8,2.4-0.8h2.8c0.4,0,0.7,0.1,1,0.2
				c0.3,0.2,0.5,0.3,0.7,0.6c0.2,0.2,0.3,0.5,0.4,0.7s0.1,0.5,0.1,0.7v21.7h-4.3v-20h-1.4l-4.3,2.7v17.3h-4.3v-23.8h4.3V214.2z"/>
			<path id="XMLID_123_" class="st1" d="M333,231.2v-17.3c0-0.2,0-0.4,0.1-0.7c0.1-0.3,0.2-0.5,0.4-0.7c0.2-0.2,0.4-0.4,0.7-0.6
				c0.3-0.2,0.6-0.2,1-0.2h12.1l-0.3,6.8H343v-2.9h-5.8v15l2.2,1.5l3.5-2v-5.3h-3.3v-3.8h7.7v9.8c-0.1,0.9-0.4,1.5-1.1,1.8l-5.9,3.3
				c-0.3,0.2-0.7,0.2-1,0.2c-0.4,0-0.8-0.1-1-0.2l-4.5-3c-0.3-0.2-0.5-0.4-0.7-0.7C333.1,231.9,333,231.5,333,231.2z"/>
		</g>
	</g>
</g>
</svg>
