<svg xmlns="http://www.w3.org/2000/svg" xmlns:xlink="http://www.w3.org/1999/xlink" viewBox="0 0 720 660"><defs><style>.cls-1{opacity:0.57;}.cls-2{fill:url(#linear-gradient);}.cls-3{fill:url(#linear-gradient-2);}.cls-4{fill:url(#linear-gradient-3);}.cls-5{fill:url(#linear-gradient-4);}.cls-6{fill:url(#linear-gradient-5);}.cls-7{fill:url(#linear-gradient-6);}.cls-8{fill:url(#linear-gradient-7);}.cls-9{fill:url(#linear-gradient-8);}.cls-10{fill:url(#linear-gradient-9);}.cls-11{fill:url(#linear-gradient-10);}.cls-12{fill:url(#linear-gradient-11);}.cls-13{fill:url(#linear-gradient-12);}.cls-14{fill:url(#linear-gradient-13);}.cls-15{fill:url(#linear-gradient-14);}.cls-16{fill:#fff;}</style><linearGradient id="linear-gradient" x1="52.09168" y1="618.30446" x2="52.09168" y2="505.48591" gradientUnits="userSpaceOnUse"><stop offset="0" stop-color="#fff"/><stop offset="1"/></linearGradient><linearGradient id="linear-gradient-2" x1="114.78626" y1="618.30446" x2="114.78626" y2="505.48591" xlink:href="#linear-gradient"/><linearGradient id="linear-gradient-3" x1="172.76753" y1="618.30446" x2="172.76753" y2="505.48591" xlink:href="#linear-gradient"/><linearGradient id="linear-gradient-4" x1="231.63887" y1="618.30446" x2="231.63887" y2="505.48591" xlink:href="#linear-gradient"/><linearGradient id="linear-gradient-5" x1="314.99186" y1="618.30446" x2="314.99186" y2="505.48591" xlink:href="#linear-gradient"/><linearGradient id="linear-gradient-6" x1="379.84382" y1="618.30446" x2="379.84382" y2="505.48591" xlink:href="#linear-gradient"/><linearGradient id="linear-gradient-7" x1="442.53841" y1="618.30446" x2="442.53841" y2="505.48591" xlink:href="#linear-gradient"/><linearGradient id="linear-gradient-8" x1="489.51019" y1="618.30446" x2="489.51019" y2="505.48591" xlink:href="#linear-gradient"/><linearGradient id="linear-gradient-9" x1="533.59847" y1="618.30446" x2="533.59847" y2="505.48591" xlink:href="#linear-gradient"/><linearGradient id="linear-gradient-10" x1="592.78764" y1="618.30446" x2="592.78764" y2="505.48591" xlink:href="#linear-gradient"/><linearGradient id="linear-gradient-11" x1="656.37338" y1="618.30446" x2="656.37338" y2="505.48591" xlink:href="#linear-gradient"/><linearGradient id="linear-gradient-12" x1="195.09293" y1="198.83741" x2="222.6708" y2="389.3754" gradientUnits="userSpaceOnUse"><stop offset="0.28449"/><stop offset="1" stop-color="#fff"/></linearGradient><linearGradient id="linear-gradient-13" x1="232.67178" y1="234.16456" x2="267.77089" y2="380.82867" gradientUnits="userSpaceOnUse"><stop offset="0.28449"/><stop offset="0.96976" stop-color="#f4f4f4"/><stop offset="1" stop-color="#fff" stop-opacity="0.6"/></linearGradient><linearGradient id="linear-gradient-14" x1="268.17227" y1="216.74466" x2="303.27137" y2="374.69063" xlink:href="#linear-gradient-12"/></defs><title>openhorizon-stacked-black</title><g id="Layer_6" data-name="Layer 6"><path d="M462.2876,415.16369l-.189-.3031a11.2972,11.2972,0,0,1,2.88668-15.091A137.96913,137.96913,0,0,0,505.62357,224.5137a11.297,11.297,0,0,1,4.05048-14.82123l.31151-.19422a11.31635,11.31635,0,0,1,16.003,4.30919,160.94917,160.94917,0,0,1-47.43484,204.5309A11.31637,11.31637,0,0,1,462.2876,415.16369Z"/><path d="M437.84893,375.96658l-.19445-.31175a11.28986,11.28986,0,0,1,2.57068-14.85125A91.98593,91.98593,0,0,0,466.2397,248.60347a11.2898,11.2898,0,0,1,4.22863-14.467l.31182-.19434a11.34631,11.34631,0,0,1,16.221,4.74316A114.98748,114.98748,0,0,1,454.502,378.8475,11.34633,11.34633,0,0,1,437.84893,375.96658Z"/><path d="M413.243,336.50128l-.19768-.31706a11.428,11.428,0,0,1,1.98142-14.35748,46.0125,46.0125,0,0,0,11.43116-49.3166,11.42775,11.42775,0,0,1,4.5401-13.76468l.31715-.19766a11.305,11.305,0,0,1,16.54868,5.50872,69.02528,69.02528,0,0,1-17.33639,74.78224A11.30478,11.30478,0,0,1,413.243,336.50128Z"/></g><g id="Layer_5" data-name="Layer 5"><g class="cls-1"><path class="cls-2" d="M75.20724,630.1849a6.99986,6.99986,0,0,1-.36683,2.09678,6.88938,6.88938,0,0,1-1.20576,2.20207,7.50411,7.50411,0,0,1-2.09706,1.78205A6.16833,6.16833,0,0,1,68.39214,637H35.78421a6.16762,6.16762,0,0,1-3.14545-.7342,7.48084,7.48084,0,0,1-2.09706-1.78205,6.81575,6.81575,0,0,1-1.20576-2.20207,6.94915,6.94915,0,0,1-.3671-2.09678V576.083a6.76854,6.76854,0,0,1,.78657-3.25046,5.93469,5.93469,0,0,1,2.14942-2.30679l14.2594-9.33136a5.82254,5.82254,0,0,1,3.14546-.7342,7.18734,7.18734,0,0,1,3.04045.7342l18.768,9.96028a11.0987,11.0987,0,0,1,2.831,2.41153,5.18061,5.18061,0,0,1,1.25813,3.77465ZM49.51942,573.462l-7.02483,4.613v46.86733H61.68176v-45.19Z"/><path class="cls-3" d="M106.66039,562.2428v18.978L129.6225,586.148a7.69877,7.69877,0,0,1,5.24251,2.83153,7.08168,7.08168,0,0,1,1.57259,3.98412V630.1849a6.99986,6.99986,0,0,1-.36683,2.09678,6.88938,6.88938,0,0,1-1.20576,2.20207,7.50793,7.50793,0,0,1-2.09706,1.78205A6.169,6.169,0,0,1,129.6225,637l-36.48758-.5242v-74.233Zm16.25173,36.27757-16.25173-3.98412v30.40614h16.25173Z"/><path class="cls-4" d="M153.37062,566.96111a6.78771,6.78771,0,0,1,1.20576-2.20206,7.42333,7.42333,0,0,1,2.09706-1.78205,6.151,6.151,0,0,1,3.14545-.7342h32.71266v12.68654H166.529v20.55058h23.90577v12.68654H166.529v16.147h26.00256V637h-39.528V569.0579A6.93519,6.93519,0,0,1,153.37062,566.96111Z"/><path class="cls-5" d="M222.51711,637H209.09637V562.2428h13.52547v54.3119l13.63048,8.38769h4.40358V562.2428h13.52547v67.9421a6.99982,6.99982,0,0,1-.36682,2.09678,6.87876,6.87876,0,0,1-1.20577,2.20207,7.50383,7.50383,0,0,1-2.09706,1.78205,6.16831,6.16831,0,0,1-3.14545.7342h-8.91216a12.93218,12.93218,0,0,1-7.549-2.41152l-7.9685-5.34724h-.41947Z"/><path class="cls-6" d="M324.95255,637V609.21485H305.03116V637H291.50569V562.2428h13.52547v33.97132h19.92139V562.2428H338.478V637Z"/><path class="cls-7" d="M402.95938,630.1849a6.99982,6.99982,0,0,1-.36682,2.09678,6.88957,6.88957,0,0,1-1.20576,2.20207,7.50411,7.50411,0,0,1-2.09706,1.78205,6.16835,6.16835,0,0,1-3.14546.7342H363.53636a6.16762,6.16762,0,0,1-3.14545-.7342,7.48084,7.48084,0,0,1-2.09706-1.78205,6.81556,6.81556,0,0,1-1.20576-2.20207,6.94915,6.94915,0,0,1-.3671-2.09678V576.083a6.76865,6.76865,0,0,1,.78656-3.25046,5.93479,5.93479,0,0,1,2.14943-2.30679l14.2594-9.33136a5.82253,5.82253,0,0,1,3.14545-.7342,7.18727,7.18727,0,0,1,3.04045.7342l18.768,9.96028a11.0987,11.0987,0,0,1,2.831,2.41153,5.18056,5.18056,0,0,1,1.25812,3.77465ZM377.27157,573.462l-7.02484,4.613v46.86733h19.18718v-45.19Z"/><path class="cls-8" d="M463.66555,562.2428l-.5242,18.34851a10.42851,10.42851,0,0,1-2.831,6.71038l-7.75876,8.17823-.5242-1.57314,5.34724,1.259a8.60959,8.60959,0,0,1,5.18988,3.0399,6.959,6.959,0,0,1,1.62522,3.98466V630.1849a6.99982,6.99982,0,0,1-.36682,2.09678,6.88957,6.88957,0,0,1-1.20576,2.20207,7.50793,7.50793,0,0,1-2.09706,1.78205,6.16906,6.16906,0,0,1-3.14546.7342l-36.48757-.5242v-74.233h13.52547v31.13978l-2.51625-4.19357,10.27529,2.30625-4.08912,1.67786,12.58181-15.09806.5242-15.83226Zm-13.00128,42.77848-16.25173-3.87993v23.801h16.25173Z"/><path class="cls-9" d="M482.74745,637V562.2428h13.52547V637Z"/><path class="cls-10" d="M554.25365,629.03123V637H512.62884V624.52292h25.68781L511.7899,570.421V562.2428H555.407v12.68654H527.7269Z"/><path class="cls-11" d="M615.9032,630.1849a6.99955,6.99955,0,0,1-.36683,2.09678,6.88918,6.88918,0,0,1-1.20576,2.20207,7.50383,7.50383,0,0,1-2.09706,1.78205A6.16831,6.16831,0,0,1,609.0881,637H576.48018a6.16762,6.16762,0,0,1-3.14545-.7342,7.4807,7.4807,0,0,1-2.09706-1.78205,6.81578,6.81578,0,0,1-1.20577-2.20207,6.94946,6.94946,0,0,1-.3671-2.09678V576.083a6.76866,6.76866,0,0,1,.78657-3.25046,5.93472,5.93472,0,0,1,2.14943-2.30679l14.2594-9.33136a5.82253,5.82253,0,0,1,3.14545-.7342,7.18731,7.18731,0,0,1,3.04045.7342l18.768,9.96028a11.09887,11.09887,0,0,1,2.831,2.41153,5.1806,5.1806,0,0,1,1.25812,3.77465ZM590.21538,573.462l-7.02483,4.613v46.86733h19.18718v-45.19Z"/><path class="cls-12" d="M647.25163,637H633.83088V562.2428h13.52548v54.3119l13.63047,8.38769h4.40358V562.2428h13.52547v67.9421a6.99982,6.99982,0,0,1-.36682,2.09678,6.87857,6.87857,0,0,1-1.20577,2.20207,7.50392,7.50392,0,0,1-2.09705,1.78205,6.16835,6.16835,0,0,1-3.14546.7342h-8.91216a12.9322,12.9322,0,0,1-7.549-2.41152l-7.9685-5.34724h-.41946Z"/></g><path d="M632.54013,305.1634a81.07305,81.07305,0,0,0-36.01989,8.38776,107.561,107.561,0,0,0-193.851.6438c-.85789-.02838-1.718-.04785-2.58277-.04785a76.93586,76.93586,0,0,0-76.14038,65.94916A44.30445,44.30445,0,0,0,302.95,392.38a44.31066,44.31066,0,0,0-20.43753-12.12924,81.18879,81.18879,0,0,0-53.4548-70.3197,102.19677,102.19677,0,0,0-187.189,45.05786A58.96258,58.96258,0,0,0,65.443,467.99327c.56358,0,1.12482-.00973,1.68459-.0255v.0255H638.15506v-.1963a81.41367,81.41367,0,0,0-5.61493-162.63357Z"/><path d="M75.20724,547.865a5.17984,5.17984,0,0,1-1.25813,3.77465,11.08779,11.08779,0,0,1-2.831,2.41152l-18.768,9.96055a7.18721,7.18721,0,0,1-3.04045.73421,5.82245,5.82245,0,0,1-3.14546-.73421l-14.2594-9.33135a5.93277,5.93277,0,0,1-2.14942-2.30679,6.76823,6.76823,0,0,1-.78657-3.25018V495.02119a6.95365,6.95365,0,0,1,.3671-2.09706,6.82018,6.82018,0,0,1,1.20576-2.20179A7.48593,7.48593,0,0,1,32.63876,488.94a6.17036,6.17036,0,0,1,3.14545-.73393H68.39214a6.17107,6.17107,0,0,1,3.14545.73393,7.50923,7.50923,0,0,1,2.09706,1.78232,6.89392,6.89392,0,0,1,1.20576,2.20179,7.00441,7.00441,0,0,1,.36683,2.09706Zm-13.52548-2.41153V500.2637H42.49459V547.131l7.02483,4.61331Z"/><path d="M93.13492,562.96329v-74.233l36.48758-.52419a6.17179,6.17179,0,0,1,3.14545.73393,7.51306,7.51306,0,0,1,2.09706,1.78232,6.89392,6.89392,0,0,1,1.20576,2.20179,7.00441,7.00441,0,0,1,.36683,2.09706v37.22123a7.08452,7.08452,0,0,1-1.57259,3.98439,7.69837,7.69837,0,0,1-5.24251,2.831l-22.96211,4.92777v18.97772Zm29.7772-62.69959H106.66039v30.40613l16.25173-3.98438Z"/><path d="M153.00352,556.14819v-67.9421h39.528v12.68654H166.529v16.14673h23.90577v12.68681H166.529v20.55031h26.00256v12.68681H159.81889a6.15372,6.15372,0,0,1-3.14545-.73393,7.433,7.433,0,0,1-2.09706-1.78232,6.78506,6.78506,0,0,1-1.20576-2.20206A6.93519,6.93519,0,0,1,153.00352,556.14819Z"/><path d="M222.51711,495.96485h.41947l7.9685-5.34724a12.93218,12.93218,0,0,1,7.549-2.41152h8.91216a6.171,6.171,0,0,1,3.14545.73393,7.509,7.509,0,0,1,2.09706,1.78232,6.88329,6.88329,0,0,1,1.20577,2.20179,7.00437,7.00437,0,0,1,.36682,2.09706v67.9421H240.6559V500.2637h-4.40358l-13.63048,8.388v54.31162H209.09637v-74.7572h13.42074Z"/><path d="M338.478,488.20609v74.7572H324.95255v-33.971H305.03116v33.971H291.50569v-74.7572h13.52547V515.991h19.92139V488.20609Z"/><path d="M402.95938,547.865a5.17979,5.17979,0,0,1-1.25812,3.77465,11.08779,11.08779,0,0,1-2.831,2.41152l-18.768,9.96055a7.18714,7.18714,0,0,1-3.04045.73421,5.82243,5.82243,0,0,1-3.14545-.73421l-14.2594-9.33135a5.93286,5.93286,0,0,1-2.14943-2.30679,6.76833,6.76833,0,0,1-.78656-3.25018V495.02119a6.95365,6.95365,0,0,1,.3671-2.09706,6.82,6.82,0,0,1,1.20576-2.20179,7.48593,7.48593,0,0,1,2.09706-1.78232,6.17036,6.17036,0,0,1,3.14545-.73393h32.60792a6.17109,6.17109,0,0,1,3.14546.73393,7.50923,7.50923,0,0,1,2.09706,1.78232,6.89411,6.89411,0,0,1,1.20576,2.20179,7.00437,7.00437,0,0,1,.36682,2.09706Zm-13.52547-2.41153V500.2637H370.24673V547.131l7.02484,4.61331Z"/><path d="M451.18847,562.96329l-.5242-15.83226L438.08246,532.033l4.08912,1.6776-10.27529,2.30651,2.51625-4.19384v31.14006H420.88707v-74.233l36.48757-.52419a6.1718,6.1718,0,0,1,3.14546.73393,7.51306,7.51306,0,0,1,2.09706,1.78232,6.89411,6.89411,0,0,1,1.20576,2.20179,7.00437,7.00437,0,0,1,.36682,2.09706V523.0158a6.95684,6.95684,0,0,1-1.62522,3.98438,8.60876,8.60876,0,0,1-5.18988,3.04045l-5.34724,1.2584.5242-1.57286,7.75876,8.17823a10.42851,10.42851,0,0,1,2.831,6.71037l.5242,18.34852Zm-.5242-62.69959H434.41254v23.80076l16.25173-3.87965Z"/><path d="M496.27292,488.20609v74.7572H482.74745v-74.7572Z"/><path d="M527.7269,550.27648H555.407v12.68681H511.7899v-8.17823l26.52675-54.10189H512.62884V488.20609h41.62481v7.9685Z"/><path d="M615.9032,547.865a5.17983,5.17983,0,0,1-1.25812,3.77465,11.088,11.088,0,0,1-2.831,2.41152l-18.768,9.96055a7.18718,7.18718,0,0,1-3.04045.73421,5.82243,5.82243,0,0,1-3.14545-.73421l-14.2594-9.33135a5.93279,5.93279,0,0,1-2.14943-2.30679,6.76834,6.76834,0,0,1-.78657-3.25018V495.02119a6.954,6.954,0,0,1,.3671-2.09706,6.82021,6.82021,0,0,1,1.20577-2.20179,7.48578,7.48578,0,0,1,2.09706-1.78232,6.17036,6.17036,0,0,1,3.14545-.73393H609.0881a6.171,6.171,0,0,1,3.14545.73393,7.509,7.509,0,0,1,2.09706,1.78232,6.89372,6.89372,0,0,1,1.20576,2.20179,7.00409,7.00409,0,0,1,.36683,2.09706Zm-13.52547-2.41153V500.2637H583.19055V547.131l7.02483,4.61331Z"/><path d="M647.25163,495.96485h.41946l7.9685-5.34724a12.9322,12.9322,0,0,1,7.549-2.41152h8.91216a6.17109,6.17109,0,0,1,3.14546.73393,7.509,7.509,0,0,1,2.09705,1.78232,6.88309,6.88309,0,0,1,1.20577,2.20179,7.00437,7.00437,0,0,1,.36682,2.09706v67.9421H665.39041V500.2637h-4.40358l-13.63047,8.388v54.31162H633.83088v-74.7572h13.42075Z"/></g><g id="Layer_11" data-name="Layer 11"><path d="M476.029,165.98874l-.27324.27322a12.22183,12.22183,0,0,1-16.60962.64628,149.26141,149.26141,0,0,0-194.6304.0075,12.22166,12.22166,0,0,1-16.60973-.64618l-.28082-.28082a12.24256,12.24256,0,0,1,.63-17.91839,174.12231,174.12231,0,0,1,227.14385,0A12.24258,12.24258,0,0,1,476.029,165.98874Z"/><path d="M440.69331,201.3244l-.281.28112a12.2139,12.2139,0,0,1-16.27968.9207,99.51464,99.51464,0,0,0-124.60326.0073,12.21385,12.21385,0,0,1-16.28-.92049l-.281-.28112a12.275,12.275,0,0,1,1.034-18.25424,124.39879,124.39879,0,0,1,155.65678-.0077A12.275,12.275,0,0,1,440.69331,201.3244Z"/><path d="M405.11585,236.90187l-.28583.28582a12.36333,12.36333,0,0,1-15.61527,1.421,49.77845,49.77845,0,0,0-54.7675.0067,12.363,12.363,0,0,1-15.61592-1.42041l-.28582-.28592a12.23025,12.23025,0,0,1,1.76075-18.78666,74.67475,74.67475,0,0,1,83.04843-.0075A12.23,12.23,0,0,1,405.11585,236.90187Z"/><path d="M374.27534,273.35952a17.60285,17.60285,0,1,1-24.8888.0054A17.58993,17.58993,0,0,1,374.27534,273.35952Z"/><path class="cls-13" d="M217.65983,207.7123l.28483.20045a11.01652,11.01652,0,0,1,3.13918,14.65037,134.54121,134.54121,0,0,0,30.06608,172.84036,11.01635,11.01635,0,0,1,1.99143,14.85006l-.206.29276a11.03519,11.03519,0,0,1-16.00972,2.20793,156.95031,156.95031,0,0,1-35.08091-201.71508A11.0352,11.0352,0,0,1,217.65983,207.7123Z"/><path class="cls-14" d="M254.497,233.63479l.293.20614a11.00936,11.00936,0,0,1,3.33191,14.315A89.70049,89.70049,0,0,0,277.37266,358.8087a11.0093,11.0093,0,0,1,1.69689,14.5996l-.20624.293a11.06441,11.06441,0,0,1-16.37037,1.901,112.13057,112.13057,0,0,1-24.047-138.22981A11.06442,11.06442,0,0,1,254.497,233.63479Z"/><path class="cls-15" d="M291.58631,259.73464l.298.20968a11.14407,11.14407,0,0,1,3.67361,13.64768,44.8693,44.8693,0,0,0,8.46444,48.63524,11.14382,11.14382,0,0,1,1.15038,14.08709l-.20977.298a11.02411,11.02411,0,0,1-16.95543,1.33784,67.31034,67.31034,0,0,1-12.833-73.75A11.0239,11.0239,0,0,1,291.58631,259.73464Z"/></g><g id="dots"><circle cx="362.18639" cy="35.37114" r="19.37114"/><circle cx="203.35111" cy="91.95628" r="19.37114"/><circle cx="118.04845" cy="237.40036" r="19.37114"/><circle class="cls-16" cx="138.04807" cy="368.43458" r="10.23097"/><circle class="cls-16" cx="582.18059" cy="368.43458" r="10.23097"/><circle cx="603.54044" cy="240.71807" r="19.37114"/><circle cx="520.2335" cy="94.12176" r="19.37114"/></g></svg>