<svg id="Layer_1" data-name="Layer 1" xmlns="http://www.w3.org/2000/svg" viewBox="0 0 248.87822 183.15753"><defs><style>.cls-1{fill:#009ade;}.cls-2{fill:#003764;}</style></defs><title>lfedge-stacked-color</title><polygon class="cls-1" points="21.91 65.397 21.91 37.447 7 37.447 7 79.367 51.66 79.367 51.66 65.397 21.91 65.397"/><polygon class="cls-2" points="81.41 9.477 7.01 9.477 7.01 30.447 21.89 30.447 21.89 23.517 66.53 23.517 66.53 65.397 59.1 65.397 59.1 79.367 81.41 79.367 81.41 9.477"/><path class="cls-2" d="M101.07,9.47746h22.67v51.98H156.3v17.91H101.07Z"/><path class="cls-2" d="M165.97,9.47746h56.87v17.91h-34.2v8.71H218v16.64H188.64v26.63H165.97Z"/><path class="cls-1" d="M5.67911,100.63593h46.52v5.68h-40.11v25.25h37.56v5.68h-37.56v27.61h40.58v5.68h-46.99v-69.9Z"/><path class="cls-1" d="M61.63911,100.63593h23.31c20.38.49,30.95,11.84,30.95,34.95,0,23.1-10.57,34.46-30.95,34.95h-23.31Zm6.41,64.21h13.68c19.35,0,27.74-8.32,27.74-29.27s-8.4-29.27-27.74-29.27h-13.68Z"/><path class="cls-1" d="M183.8391,169.38593h-4.62l-.85-12.27h-.19c-4.53,9.63-13.59,13.68-23.31,13.68-21.23,0-31.8-16.61-31.8-35.1,0-18.5,10.57-35.1,31.8-35.1,14.15,0,25.57,7.64,28.12,22.36h-6.42c-.75-7.74-8.96-16.89-21.7-16.89-17.83,0-25.38,14.91-25.38,29.63s7.55,29.63,25.38,29.63c14.91,0,23.59-10.38,23.31-24.72h-22.93v-5.47h28.59v34.25Z"/><path class="cls-1" d="M196.20909,100.59593h46.52v5.68h-40.11v25.27h37.56v5.68h-37.56v27.62h40.58v5.68h-46.99v-69.93Z"/></svg>