<?xml version="1.0" encoding="utf-8"?>
<!-- Generator: Adobe Illustrator 23.0.6, SVG Export Plug-In . SVG Version: 6.00 Build 0)  -->
<svg version="1.1" id="Layer_1" xmlns="http://www.w3.org/2000/svg" xmlns:xlink="http://www.w3.org/1999/xlink" x="0px" y="0px"
	 viewBox="0 0 202 200" style="enable-background:new 0 0 202 200;" xml:space="preserve">
<style type="text/css">
	.st0{fill:#FFFFFF;}
	.st1{fill:#231F20;}
	.st2{fill:#00D2CB;}
	.st3{fill:#9164CC;}
</style>
<g>
	<path class="st0" d="M179.1,71c-6.8,0-12.9,3.8-16,9.4l-29.7-19c-1.5-13.7-7.4-26.4-16.2-36.2h34.2c1.5,8.6,9.1,15,18,15
		c10.1,0,18.2-8.1,18.2-18.2s-8.1-18.2-18.2-18.2c-9.6,0-17.5,7.4-18.2,17h-38.8C101,9.9,85.8,3.6,69.3,3.6
		C33.6,3.6,4.7,33,4.7,69.2c0,35.7,28.1,64.6,63.1,65.6v25.1c-9.4,0.8-17,8.6-17,18.2c0,10.1,8.1,18.2,18.2,18.2s18.2-8.1,18.2-18.2
		c0-8.9-6.3-16.5-15-18v-25.3c15.7-0.8,29.7-7.4,40.6-17.5l15,30.2c-3.5,3.3-5.8,8.1-5.8,13.2c0,10.1,8.1,18.2,18.2,18.2
		s18.2-8.1,18.2-18.2s-8.1-18.2-18.2-18.2c-3,0-6.1,0.8-8.6,2.3l-15.2-30.9c10.6-11.7,17.2-27.4,17.2-44.6c0-0.5,0-1.3,0-1.8
		l27.6,17.5c-0.3,1.5-0.5,2.8-0.5,4.3c0,10.1,8.1,18.2,18.2,18.2s18.2-8.1,18.2-18.2C197.3,79.1,189.2,71,179.1,71z"/>
</g>
</svg>
