<svg xmlns="http://www.w3.org/2000/svg" viewBox="0 0 720 720"><defs><style>.cls-1{fill:#fff;}</style></defs><title>openhorizon-icon-white</title><g id="Layer_6" data-name="Layer 6"><path class="cls-1" d="M460.63329,503.20857l-.18723-.30032a11.19393,11.19393,0,0,1,2.86029-14.95308,136.70778,136.70778,0,0,0,40.26673-173.65364,11.19376,11.19376,0,0,1,4.01346-14.68574l.30866-.19244a11.2129,11.2129,0,0,1,15.85669,4.26979A159.47776,159.47776,0,0,1,476.7507,506.3542,11.21291,11.21291,0,0,1,460.63329,503.20857Z"/><path class="cls-1" d="M436.41805,464.36981l-.19267-.3089a11.18665,11.18665,0,0,1,2.54718-14.71548,91.145,91.145,0,0,0,25.77671-111.17436,11.1866,11.1866,0,0,1,4.19-14.33477l.309-.19256a11.2426,11.2426,0,0,1,16.07273,4.6998,113.93625,113.93625,0,0,1-32.202,138.88085A11.24259,11.24259,0,0,1,436.41805,464.36981Z"/><path class="cls-1" d="M412.0371,425.2653l-.19588-.31416a11.32352,11.32352,0,0,1,1.96331-14.22621,45.59185,45.59185,0,0,0,11.32665-48.86575,11.32327,11.32327,0,0,1,4.4986-13.63884l.31425-.19585a11.20162,11.20162,0,0,1,16.39739,5.45835,68.39426,68.39426,0,0,1-17.1779,74.09858A11.20142,11.20142,0,0,1,412.0371,425.2653Z"/></g><g id="Layer_5" data-name="Layer 5"><path class="cls-1" d="M629.32937,394.21392a80.332,80.332,0,0,0-35.6906,8.31107,106.57763,106.57763,0,0,0-192.07882.63792c-.85-.02812-1.70229-.04741-2.55916-.04741a76.23251,76.23251,0,0,0-75.4443,65.34625,43.8994,43.8994,0,0,0-20.80411,12.17143,43.90553,43.90553,0,0,0-20.25068-12.01836A80.44654,80.44654,0,0,0,229.53558,398.938,101.26247,101.26247,0,0,0,44.05791,443.58393,58.42355,58.42355,0,0,0,67.41667,555.55519c.55842,0,1.11453-.00965,1.66918-.02527v.02527H634.893v-.19451a80.66938,80.66938,0,0,0-5.56359-161.14676Z"/></g><g id="Layer_11" data-name="Layer 11"><path class="cls-1" d="M474.24907,256.31161l-.27075.27072a12.11012,12.11012,0,0,1-16.45778.64037,147.89683,147.89683,0,0,0-192.85107.00743,12.10993,12.10993,0,0,1-16.45788-.64027l-.27825-.27825a12.13064,12.13064,0,0,1,.62421-17.75458,172.53046,172.53046,0,0,1,225.06728,0A12.13066,12.13066,0,0,1,474.24907,256.31161Z"/><path class="cls-1" d="M439.23642,291.32423l-.27845.27855a12.10224,12.10224,0,0,1-16.13085.91227,98.60487,98.60487,0,0,0-123.46412.00724,12.10219,12.10219,0,0,1-16.13116-.91208l-.27845-.27855a12.16277,12.16277,0,0,1,1.02459-18.08735,123.26152,123.26152,0,0,1,154.23375-.00763A12.16275,12.16275,0,0,1,439.23642,291.32423Z"/><path class="cls-1" d="M403.98421,326.57644l-.28321.28321a12.25032,12.25032,0,0,1-15.47252,1.408,49.32338,49.32338,0,0,0-54.26681.00664,12.25,12.25,0,0,1-15.47315-1.40743l-.28321-.2833A12.11844,12.11844,0,0,1,319.95,307.96866a73.99209,73.99209,0,0,1,82.28919-.00743A12.11822,12.11822,0,0,1,403.98421,326.57644Z"/><path class="cls-1" d="M373.42565,362.70079a17.44193,17.44193,0,1,1-24.66126.00536A17.42912,17.42912,0,0,1,373.42565,362.70079Z"/><path class="cls-1" d="M218.24194,297.65372l.28223.19863a10.9158,10.9158,0,0,1,3.11047,14.51643A133.31124,133.31124,0,0,0,251.42586,483.629a10.91564,10.91564,0,0,1,1.97322,14.7143l-.20413.29008a10.93431,10.93431,0,0,1-15.86336,2.18775,155.51547,155.51547,0,0,1-34.76019-199.871A10.93433,10.93433,0,0,1,218.24194,297.65372Z"/><path class="cls-1" d="M254.74237,323.33923l.29037.20425a10.90872,10.90872,0,0,1,3.30146,14.18411,88.88044,88.88044,0,0,0,19.07467,109.6412,10.90867,10.90867,0,0,1,1.68138,14.46613l-.20436.2903a10.96327,10.96327,0,0,1-16.22072,1.88359A111.10547,111.10547,0,0,1,238.838,327.04271,10.96325,10.96325,0,0,1,254.74237,323.33923Z"/><path class="cls-1" d="M291.49258,349.20047l.29524.20777a11.04218,11.04218,0,0,1,3.64,13.52291,44.45911,44.45911,0,0,0,8.38706,48.19061,11.042,11.042,0,0,1,1.13987,13.95831l-.20785.29526a10.92333,10.92333,0,0,1-16.80043,1.32561,66.695,66.695,0,0,1-12.71564-73.07577A10.92313,10.92313,0,0,1,291.49258,349.20047Z"/></g><g id="dots"><circle class="cls-1" cx="204.06403" cy="182.95595" r="19.19405"/><circle class="cls-1" cx="119.54121" cy="327.07037" r="19.19405"/><circle class="cls-1" cx="600.59479" cy="330.35775" r="19.19405"/><circle class="cls-1" cx="518.04945" cy="185.10164" r="19.19405"/></g></svg>