<?xml version="1.0" encoding="utf-8"?>
<!-- Generator: Adobe Illustrator 23.0.6, SVG Export Plug-In . SVG Version: 6.00 Build 0)  -->
<svg version="1.1" id="Layer_1" xmlns="http://www.w3.org/2000/svg" xmlns:xlink="http://www.w3.org/1999/xlink" x="0px" y="0px"
	 viewBox="0 0 1000 340.9" style="enable-background:new 0 0 1000 340.9;" xml:space="preserve">
<style type="text/css">
	.st0{fill-rule:evenodd;clip-rule:evenodd;fill:#050505;}
	.st1{fill-rule:evenodd;clip-rule:evenodd;fill:#2B2B28;}
	.st2{fill-rule:evenodd;clip-rule:evenodd;fill:#FFCC04;}
	.st3{fill-rule:evenodd;clip-rule:evenodd;fill:#EF8B22;}
	.st4{fill-rule:evenodd;clip-rule:evenodd;fill:#FFFFFF;}
	.st5{fill-rule:evenodd;clip-rule:evenodd;fill:#3F3E3B;}
	.st6{fill-rule:evenodd;clip-rule:evenodd;fill:#8E764C;}
	.st7{fill-rule:evenodd;clip-rule:evenodd;fill:#917E56;}
	.st8{fill-rule:evenodd;clip-rule:evenodd;fill:#B99B60;}
	.st9{fill-rule:evenodd;clip-rule:evenodd;fill:#60605E;}
	.st10{fill:#B99B60;}
	.st11{fill:#050505;}
	.st12{fill:#2B2B28;}
	.st13{fill:#FFCC04;}
	.st14{fill:#EF8B22;}
	.st15{fill:#FFFFFF;}
	.st16{fill:#3F3E3B;}
	.st17{fill:#8E764C;}
	.st18{fill:#917E56;}
	.st19{fill:#60605E;}
	.st20{fill:#525252;}
	.st21{fill-rule:evenodd;clip-rule:evenodd;fill:#525252;}
</style>
<g>
	<polygon class="st11" points="248.9,253.7 248.9,253.8 279.7,253.8 279.7,177.9 334.3,177.9 334.3,148.9 279.7,148.9 279.7,112 
		339.1,112 339.1,83 248.9,83 	"/>
	<path class="st11" d="M406.6,83h-30.9v155.2c0,1.4,0.2,3.1,0.8,4.9c0.6,1.8,1.5,3.5,2.8,5.1c1.3,1.6,2.9,3,4.8,4.1
		c1.9,1.1,4.3,1.6,7.2,1.4h69.9h0v-28.8h-54.6V83z"/>
	<path class="st11" d="M491.8,238.1c0,1.4,0.3,3,0.7,4.9c0.6,1.7,1.5,3.4,2.8,5c1.3,1.6,2.9,3,4.8,4.1c1.9,1.1,4.3,1.7,7.2,1.7H582
		v-29h-59.4v-46.9h54.6v-29h-54.6V112H582V83h-90.2V238.1z"/>
	<path class="st11" d="M711.3,83l-91.4,1.2v169.5v0h25.4l2.4-7.4l36.1,11c1.6,0.3,3,0.5,4.3,0.5c4.6,0,8.1-0.8,10.3-2.2l20.8-12.7
		c2.1-1.3,3.7-3.1,4.9-5.3s1.8-4.7,1.8-7.4V96.6c0-3.2-1.2-6.2-3.7-9.2C719.7,84.5,716.1,83,711.3,83z M695,225l-9.3,5.7l-35-8.7
		V110.5H695V225z"/>
	<path class="st11" d="M814.2,175.9h23.9V214L813,228.1l-16-10.5v-107h41.2v21.1H866l2.4-48.6h-86.7c-2.9-0.2-5.3,0.3-7.2,1.4
		c-1.9,1.1-3.5,2.5-4.8,4.1s-2.2,3.3-2.8,5.1c-0.5,1.8-0.8,3.5-0.8,4.9v123.7c0,2.7,0.6,5.2,1.8,7.4c1.2,2.3,2.8,4,4.9,5.3
		l32.5,21.4c1.8,1.1,4.2,1.7,7.2,1.7c2.2,0,4.5-0.6,6.9-1.7l41.9-23.9c4.7-2.6,7.2-7,7.7-13.2v-70.4h-54.8V175.9z"/>
	<path class="st11" d="M1000,112V83h-90.2v155.1c0,1.4,0.2,3,0.7,4.9c0.6,1.7,1.5,3.4,2.8,5c1.3,1.6,2.9,3,4.8,4.1
		c1.9,1.1,4.3,1.7,7.2,1.7h74.7v-29h-59.4v-46.9h54.6v-29h-54.6V112H1000z"/>
	<path class="st11" d="M146.2,274.3c2.6-3,5.1-6.1,7.5-9.2c6.9-9,13.3-18.4,19-28.2c6.7-11.3,14.8-27.2,15.5-40.4
		c0.7-13.5-2.5-27.2-8.8-39.1c-3.7-6.8-8.7-13.7-14.8-18.6c0-3.5,0.3-7.1,0.9-10.5l0.5,0.1c2.8,1,6.1,2,9.1,1.9c0.7,0,1.3-0.4,1.6-1
		c0.3-0.6,0.2-1.3-0.2-1.9c-1.5-2-2.7-4.1-3.6-6.4c-0.6-1.5-1-3.2-1.7-4.6c-0.5-0.9-0.9-1.8-1.3-2.8c-0.5-2-0.9-4.1-1.3-6.2
		c-0.2-0.8-0.3-1.6-0.4-2.4c0-0.4-0.1-0.9-0.1-1.2c0.5-9.8-2.1-22.5-6.2-31.6c0-0.4,0.1-0.8,0.1-1.2c0-0.2,0-0.4,0-0.6
		c0-0.2,0-0.5,0-0.7c-0.2-4.9-1-10.1-2.2-14.9c-2.5-10-7-19.7-14.3-27.1c0.6-1.5,0.4-3.2-0.5-4.6c-2.1-3.2-6.3-5.9-9.8-7.3
		c-1.7-0.7-3.6-0.4-4.9,0.7c-1.1-0.6-2.2-1.2-3.3-1.7c0.4-1.1,0.5-2.3,0.2-3.4c-0.3-1.3-1.1-2.4-2.3-3.1
		c-19.2-11.2-40.2-11.2-59.5,0c-1.2,0.7-1.9,1.8-2.3,3.1c-0.3,1.2-0.3,2.3,0.2,3.4c-1.1,0.5-2.2,1.1-3.3,1.7c-1.3-1-3.1-1.4-4.8-0.7
		c-3.5,1.4-7.7,4.1-9.8,7.3c-0.9,1.4-1.1,3.1-0.5,4.6C37.5,35,33,44.8,30.6,54.8c-1.2,4.7-2.1,10-2.2,14.9c0,0.2,0,0.5,0,0.7
		c0,0.1,0,0.2,0,0.3c-1.8,3.5-3.3,7.3-4.6,11c-1.8,5.1-3.6,12.1-3.4,17.5c0.2,5.7-0.1,12.9-2.7,18v0.1c-0.1,0.3-0.2,0.6-0.4,0.9
		c-0.6,1-1.2,1.9-1.8,2.9c-0.6,0.9-2.7,3.9-3.6,4.4c-0.8,0.3-1.3,1.1-1.1,2c0.1,0.8,0.8,1.5,1.7,1.5c1.9,0.1,3.9,0,5.7-0.2
		c1.1-0.2,2.5-0.3,3.8-0.5c0.4,3.5,1,7,2,10.4c-6.1,4.9-11.3,11.9-14.9,18.7c-6.4,11.9-9.5,25.6-8.8,39.1
		c0.7,13.2,8.9,29.1,15.5,40.4c5.7,9.8,12.1,19.2,19,28.2c2.4,3.2,4.9,6.3,7.5,9.2c1.6,1.7,3.9,4.4,6.3,5c0.6,0.2,1.2,0.2,1.8,0.2
		c0.5-0.1,1-0.1,1.5-0.3c0,0.1,0.1,0.1,0.1,0.2c1.6,3.8,3.2,7.7,4,11.8c0.1,0.6,0.2,1.2,0.3,1.8c0.3,2.1,0.7,4.2,1,6.3
		c0,0.3,0.1,0.6,0.1,0.9c-0.1,0.4-0.1,0.9-0.2,1.3c-1.6,0.1-3.3,0.2-4.9,0.3c-4.7,0.3-9.4,0.7-14,1.3c-5,0.6-10.3,1.5-15.1,3.1
		c-4.4,1.5-9.3,4-10.6,8.9c-0.6,2-0.4,4.1,0.4,6c1.2,3.1,4.1,5.1,7.3,5.7c-0.4,2.1-0.1,4.2,1,6.1c2.9,5,9.4,5.9,14.3,3.2
		c0.4-0.3,0.8-0.5,1.1-0.8c0.3,0.8,0.7,1.6,1.3,2.4c2.3,2.9,6.2,3.7,9.7,2.8c1.1-0.3,2.1-0.8,3-1.5c1.4-1.1,2.1-2.3,2.9-3.8
		c0.5-0.9,0.9-1.9,1.6-2.6c0.3-0.3,0.5-0.7,0.8-1.1c0.4-0.6,0.8-1.2,1.2-1.8c1.2-1.6,2.3-3.1,3.5-4.7c0.4-0.5,0.8-1,1.2-1.5
		c1.6-2,3.4-3.9,5.4-5.7c0.6-0.6,1.2-1.1,1.8-1.6c0.4-0.3,1-0.7,1.2-1.2c0.9-1.8,0.9-5.3,0.9-7.3c0.1-0.9,0.1-1.8,0.1-2.7
		c0.4-0.5,0.8-1.1,1-1.7c0.8-2.4,2.1-4.6,3.8-6.4c0.5,0.4,0.9,0.8,1.4,1.2c4.5,3.9,9.3,7.5,14.4,10.6c3,1.9,8.4,5.3,12.1,4.4
		c2.4-0.6,3.8-2.1,4.6-4.1c2.8,1.2,5.6,2.4,8.4,3.3c0.1,1,0.3,2,0.7,2.8c0.3,0.5,0.8,0.9,1.2,1.2c0.6,0.5,1.2,1.1,1.8,1.6
		c1.9,1.7,3.7,3.7,5.4,5.7c0.4,0.5,0.8,1,1.2,1.5c1.2,1.5,2.4,3.1,3.5,4.7c0.4,0.6,0.8,1.2,1.2,1.8c0.2,0.4,0.5,0.8,0.8,1.1
		c0.7,0.8,1.1,1.7,1.6,2.6c0.8,1.5,1.6,2.8,2.9,3.8c0.9,0.7,1.9,1.2,3,1.5c3.5,0.9,7.4,0.2,9.7-2.8c0.6-0.8,1-1.6,1.3-2.4
		c0.3,0.3,0.7,0.6,1.1,0.8c4.9,2.7,11.4,1.9,14.3-3.2c1.1-1.9,1.4-4,1-6.1c3.1-0.6,6.1-2.7,7.3-5.7c0.7-1.9,0.9-4,0.4-6
		c-1.3-4.9-6.2-7.4-10.6-8.9c-4.1-1.4-8.5-2.2-12.9-2.8c0.1-0.1,0.1-0.3,0.2-0.4c0.5-1.5,0.5-3.2-0.2-4.6c-1.1-2.5-3.8-4.7-6.4-6.3
		c0.4-0.5,0.8-1,1.5-1.7c1.8-4.1-1.2-7.9-4.2-10.4c-0.5-0.4-1-0.9-1.5-1.3C143.2,277.7,144.9,275.7,146.2,274.3z M132.6,303.6
		c-0.7,0-1.4-0.1-2.2-0.1c-0.4,0-0.8-0.1-1.2-0.1c-0.1-0.4-0.1-0.8-0.2-1.1c-0.1-0.4-0.1-0.8-0.1-1.2
		C130.1,301.9,131.4,302.7,132.6,303.6z M181,185.4c-0.8,2.3-2,3.9-3.6,4.4c-2.7,0.8-5.1-5.7-6.3-9.4c-1.3,7.7-4.4,21.2-9.4,14.4
		c-1.2-1.6-2-3.8-2.5-6.3c-0.8-3.7-1.1-7.8-1.1-10.7c0-0.2,0-0.4,0-0.6l0.5,2.6c4.4,23.2,8.5,17.1,10.6,0.3c0.8-6.3,2.5-5.5,4.2-0.8
		c0.9,2.4,2.4,6.4,3.5,7.9c1.7-2.2,2.5-5.3,2.9-8.7c0.3-2.3,0.3-4.7,0.3-7c0.9,2.8,1.6,5.6,2.1,8.5C181.9,182,181.5,183.8,181,185.4
		z M157.2,219.4c-0.2,12,4.9,6.4,10.9-6.9c2.7-5.8,3.9-3.9,4.1,0.7c0.1,1.7,0.2,4.2,0.4,6.1c0.4,3.8,1.9,2.4,3.7-1
		c-0.7,1.8-1.4,3.7-2.2,5.5c-0.5,0.2-0.9,0.3-1.3,0.3c-2.7,0.1-3-6.8-3-10.6c-3.7,7.1-10.9,19.2-13.5,11.4c0-0.1-0.1-0.3-0.1-0.4
		C156.5,222.8,156.8,221.1,157.2,219.4z M159.8,241.8c2.6-4.3,3.2-1.6,2.8,1.8l-0.1,0.8c-0.8,1.2-1.6,2.4-2.5,3.5
		c0.1-1.5,0.3-3.2,0.5-4.4c-3.8,5.7-11.1,15.4-12.1,8.3c-0.2-1.5,0-3.4,0.4-5.4c1-2.4,2-4.8,2.9-7.2
		C146.3,259.3,151.8,255.1,159.8,241.8z M150.4,97.7c-1.5-6.8-3.1-13.9-9.5-13.9c-0.3,0-0.5,0-0.8,0c4.1,5.4,5.4,11,4.9,16
		c0.3-0.2,0.6-0.2,1-0.1c0.8,0.1,1.3,0.9,1.1,1.6c-2.5,8.7-8.5,19.4-19.3,16.4c-0.9-0.3-1.7-0.6-2.3-1c-1.9-0.5-3.7-1.4-4.8-2.9
		c0,0,0,0,0,0c-0.1,0-0.5-0.9-1-1.9h-0.5c0,0.8-0.1,1.6-0.1,2.5c-1.6-0.9-3.5-1.2-5.5-1.2c-0.6,0-2.5,0.1-3-0.1
		c-1.1-0.5-2.2-2.5-2.8-3.5c-1.3-2.3-2.5-4.8-3.9-7.1C102,99.3,99.1,95,95,95c-4.1,0-7,4.3-9,7.4c-1.9,3.1-6.2,9.6-9.4,11.7
		c-0.8,0.2-2.1,0.3-2.8,0.4c-0.9,0.1-1.9,0.3-2.9,0.6c0-1.5-0.1-3-0.2-4.6l0,0h-0.1c-0.6,1.3-1.5,3.3-1.6,3.3c0,0,0,0,0,0
		c-0.9,1.1-2.1,1.9-3.5,2.5c-0.9,0.6-1.9,1.1-3.2,1.5c-10.8,3-16.8-7.7-19.3-16.4c-0.2-0.7,0.3-1.5,1.1-1.6c0.2-0.1,0.5-0.1,0.7,0
		c0,0,0,0,0,0c-0.5-5.1,0.8-10.7,4.9-16.1c-0.3,0-0.6,0-0.9,0c-6.5,0-8,7.1-9.5,13.9c-1-5.7-1.7-10.5,2.6-15.1
		c2.4-2.5,5.3-3.5,8.4-3.5c5.2,0,10.7,2.9,14.2,6.8c3.7,4.1,6.3,9.9,7,15.8h0.1c0.6-5.6,9.4-15.5,22-15.3
		c10.7,0.2,24.4,2.7,24.8,13.3h0.1c1-5.1,3.4-10,6.6-13.6c3.4-3.9,9-6.8,14.2-6.8c3.1,0,6.1,1,8.4,3.5
		C152.1,87.2,151.4,92,150.4,97.7z M99.4,125.7c-1,0-1.7-1.5-4.4-5.3c-2.5,3.5-3.3,5.1-4.2,5.3c-4.6-4.2-8.5-5.9-14.9-6.6
		c-1.2-0.4-3.1-0.8-4.9-0.8c1.8-0.7,6.2-0.9,7-1.3c2.4-1.4,6.1-5.5,10.7-12.9c4.9-8,7.7-8,12.7,0c3,4.8,4.8,10.1,7.9,11.8
		c2.1,1.1,6.4-0.3,8.6,1.4c-0.8,0.1-1.7,0.3-2.5,0.6C109.4,118.9,104.1,122,99.4,125.7z M113.3,121.9c-0.4,0.1-0.8,0.2-1.2,0.3
		c-9.3,2.2-12.1,10-17,14.5c-4.7-4.9-10.3-14-18.9-14.8c0,0-0.1,0-0.1,0c-1.7-0.5-2.9-1.8-1-2.1c5.8,1.5,8.9,2.8,12.8,6.5
		c2.6,2.8,4.7,6,7.1,8.5c2.3-2.4,4.3-5.4,6.8-8.1c3.1-2.7,6-4.3,10.7-6.4c0.9-0.1,1.5-0.2,1.8,0
		C114.9,120.6,114.4,121.3,113.3,121.9z M129.2,21.8c-2.5,6.3-8.1,20-5.9,21.6l3-6.9c2-5.1,1.6-3.9,6.8-15.9c0.2-0.4,0.6-0.6,1-0.4
		c0.5,0.1,0.7,0.6,0.5,1c0,0,0,0,0,0c4.4,2.1,6.1,4.8,6.1,4.8c-3.4,7.2-7,14.2-10.8,21.3c1.9,1.1,8.4-10.1,11.7-16.3
		c8.4,8.3,12.1,19.5,13.9,28c0,0,0,0,0,0c0.2,1,0.4,2,0.5,3c0,0,0,0.1,0,0.1c0.1,0.4,0.1,0.8,0.2,1.2c0,0.1,0,0.1,0,0.2
		c0,0.3,0.1,0.7,0.1,1c0,0.1,0,0.1,0,0.2c0,0.3,0.1,0.6,0.1,0.9c0,0.1,0,0.1,0,0.2c0,0.4,0.1,0.7,0.1,1c-10.8-4.7-26.3-8.2-43.1-9.8
		c0.3-3.8,0.6-7.5,1-11.2c0.2-2,0.7-4.1,1.1-6.1c0.5-2.4,1.1-4.7,1.6-7.1c0.3-1.5,0.7-3.5,1.3-5.3c0.4-1.2,0.8-2.3,1.2-3.2
		c0,0,0,0,0,0c1-1.8,2.1-3.7,3.1-5.5C124.9,19.5,127.1,20.6,129.2,21.8z M148.1,66.7c-7,5-14.4,6.6-22.9,8.1
		c-7.4,1.3-24.2,3.2-31.4,3.1l-3.6-0.4C74.5,76.1,55,75.8,41.3,66.8c0.8-0.3,1.6-0.6,2.4-0.8c0.1-0.2,0.3-0.3,0.5-0.4
		c4.4-1.6,10.3-3,16.9-4.2C89.5,55.9,123,57.6,148.1,66.7z M120.3,11.8c0.6,0.3,1.2,0.7,1.8,1c0,0,0,0-5.4,9.6
		c-3.2,5.8-4.9,22.2-5.7,34.4c-0.7-0.1-1.4-0.1-2.1-0.2c0.7-5.7,1.1-11.4,1.6-17.1C112,24,110.9,24,120.3,11.8L120.3,11.8z
		 M72.4,10.2c0.9-1.8,7.6-3.1,8.8-3.5c3.1-0.8,6.3-1.3,9.5-1.5c7.2-0.6,14.5,0.4,21.7,3c1.3,0.4,2.6,0.9,3.8,1.4
		c0.2,0.1,0.3,0.2,0.4,0.4c0.3,0.1,0.7,0.3,1,0.4c-0.2,0.3-0.4,0.5-0.6,0.8c0,0.2-0.1,0.5-0.2,0.7c-0.2,0.4-0.5,0.6-0.8,0.8
		c-6.3,8.9-6.7,11.3-7.1,21.4c-0.1,1.6-0.1,3.4-0.3,5.5c0,1.8-0.1,3.5-0.2,5.3c0,1-0.1,2.1-0.1,3.1c0,1.5,0,2.9,0,4.3
		c0.1,1.5,0.1,3,0.2,4.5c-4.4-0.3-8.8-0.5-13.3-0.5c-0.1,0-0.1,0-0.2,0c-1.1,0-2.2,0-3.3,0c-0.1,0-0.2,0-0.4,0
		c-2.8,0.1-5.6,0.2-8.4,0.3c-0.8,0-1.6,0.1-2.4,0.2c0.3-5.8,0.1-11.6-0.2-17.3c-0.6-12.1-0.3-15.4-4.2-21.9
		c-0.8-1.1-1.6-2.4-2.3-3.5c-0.7-1-1.5-2.1-2.4-3.4C71.8,10.5,72.1,10.3,72.4,10.2z M68.9,12c9.3,12,8.1,12.1,9.6,27.6
		c0.5,5.7,0.9,11.5,1.6,17.2c-0.5,0-1,0.1-1.5,0.1c-0.8-12.2-2.5-28.6-5.7-34.5c-5.4-9.6-5.4-9.6-5.4-9.6C68,12.5,68.4,12.3,68.9,12
		z M34.4,59.2C34.4,59.2,34.4,59.2,34.4,59.2c1.8-8.5,5.6-20,14-28.3c3,5.1,8.6,13.7,11,15.5c-3.5-6.8-7-13.5-10.3-20.5
		c0,0,1.8-2.7,6.2-4.8c0-0.2,0.2-0.4,0.5-0.6c0.2-0.1,0.5-0.1,0.7,0.1c0,0,0.1,0,0.1-0.1l0.1,0.3c0,0,0.1,0.1,0.1,0.1
		c1,2.2,4.6,10.4,6.9,16.1l2.6,6.2L67,43c1.2-0.7-4.1-14.9-6.4-21.1c1.5-0.9,3.1-1.7,4.6-2.4c0,0,0,0,0,0c0.6-0.3,1.3-0.6,2-0.9
		c1,1.9,2.1,3.7,3.1,5.6c3.5,6.2,5.3,20.9,6.2,33c-14.4,1.3-27.9,4-38.3,7.8c-0.4-0.1-0.7,0-1,0.2c0,0,0,0.1-0.1,0.1
		c-1.4,0.5-2.7,1.1-4,1.6C33.5,64.8,33.8,62.2,34.4,59.2z M38.3,68C38.3,68,38.3,68,38.3,68c0-0.1,0.1-0.1,0.1-0.1
		c7.1,5,12.9,6.4,21.6,8c0.2,0,0.3,0.1,0.5,0.1c7.9,1.3,19.1,2.4,27.4,2.3c0.8,0,1.6,0,2.3-0.1l3.6-0.3c4.2,0.1,7.6,0.2,11.1,0.3
		c2.4,0,5,0,8-0.2c6.9-0.4,17.3-1.5,25.9-4c3.5-1,6.7-2.2,9.1-3.7l3.2-2.4c0.1,0.1,0.3,0.1,0.4,0.1c0,0,0,0,0,0
		c1.8,0.7,3.6,1.5,5.2,2.3c-6.1,15.9-117.6,15.9-123.7,0C34.8,69.5,36.6,68.8,38.3,68z M25,99.1C25,99.1,25,99.1,25,99.1
		C25,99.1,25,99.1,25,99.1C25,99.1,25,99.1,25,99.1z M8.3,171.5c0,2,0,4,0.2,6.1c0.3,3.8,1.2,7.3,3,9.6c1.1-1.5,2.6-5.5,3.5-7.9
		c1.7-4.7,3.4-5.5,4.2,0.8c2,16,5.8,22.3,10,2.8c0.2-1,0.4-2,0.6-3.1l0.5-2.6c0.1,3.4-0.2,8.9-1.6,13.3c-0.5,1.6-1.2,3.1-2,4.3
		c-5,6.8-8.1-6.7-9.4-14.4c-1.2,3.7-3.6,10.2-6.3,9.4c-1.8-0.5-3-2.5-3.8-5.1c-0.4-1.4-0.8-3-1-4.7C6.7,177.1,7.5,174.3,8.3,171.5z
		 M15.7,224.1c-0.6,0-1.1-0.2-1.7-0.4c0,0,0,0,0,0c-1.2-2.7-2.2-5.4-3.1-8.1c2.2,5.1,4.3,8.4,4.9,3.7c0.2-1.9,0.3-4.4,0.4-6.1
		c0.2-4.6,1.4-6.5,4.1-0.7c5.8,12.7,10.7,18.4,10.9,8.3c0.3,1.4,0.6,2.8,0.9,4.2c-2.6,7.5-9.8-4.5-13.4-11.5
		C18.7,217.3,18.4,224.2,15.7,224.1z M25.8,243.6c-0.4-3.4,0.2-6.1,2.8-1.8c7.7,12.7,13,17.1,8.8,0c0.8,2,1.6,3.9,2.4,5.9
		c0.3,1.5,0.4,2.9,0.2,4.1c-1,7.1-8.3-2.6-12.1-8.3c0.2,1.2,0.4,2.9,0.5,4.4c-0.9-1.1-1.7-2.3-2.5-3.5L25.8,243.6z M66.7,307.7
		c-0.2,1.5,0.3,3.1-1.2,5.3c-0.1,0.2-0.3,0.4-0.5,0.6c-0.3,0.4-0.8,0.9-1.3,1.4c-0.5,0.5-1.1,1-1.8,1.6c-0.6,0.5-1.2,1-1.8,1.6
		c-0.6,0.6-1.1,1.1-1.7,1.7c-0.8,0.9-1.5,1.8-2.2,2.7c-0.5,0.6-0.9,1.2-1.3,1.8c-0.6,0.9-1.2,1.7-1.7,2.5c-0.4,0.5-0.7,1-1,1.4
		c-0.3,0.4-0.6,0.8-0.9,1.1c-2.5,2.7-2.5,5.7-5,6.3c-0.2,0.1-0.5,0.1-0.7,0.1c-1.8,0.3-3.2-0.3-4-1.3c0,0,0,0,0,0
		c-0.1-0.1-0.1-0.2-0.2-0.3c0-0.1-0.1-0.2-0.1-0.3c0-0.1,0-0.1-0.1-0.2c-0.3-0.9-0.2-1.9,0.4-3.2c0,0,0,0.1,0,0.1
		c0.3-0.6,0.7-1.3,1.3-2c3.7-4.5,9.9-10.9,11.3-12.4c-1.6,0.9-12,7.2-18.7,11.5c-0.1,0.1-0.3,0.2-0.4,0.4c-0.8,1-1.2,2.6-1.9,3.3
		c-0.1,0.1-0.2,0.3-0.3,0.3c-4.2,2.3-8.4-0.1-8.1-3.6c0,0.1,0.1,0.1,0.1,0.2c0-1.7,1.1-3.7,3.8-5.6c6-4.1,16.9-9.1,18.2-9.6l0,0
		c-0.2,0-0.6,0.1-1.4,0.2c-2,0.4-6.2,1.2-13.5,3c-1.3,0.3-2.6,0.6-4,1c-1.1,0.3-1.8,2.5-3.4,3.8c-0.6,0.5-1.5,0.8-2.4,0.8
		c-1.9,0.1-4.1-1-4.9-2.8c-0.4-1-0.4-1.9-0.2-2.7c0,0,0,0.1,0.1,0.1c0.3-1.2,1.2-2.3,2.6-3.3c6.7-6.5,22.4-7,30.5-7.3
		c3.7-0.1,7.3-0.3,10.9,0.7c-0.7,0-1.3,0-1.8-0.1c1.2,0.1,2.1,0.2,2.8,0.4c-0.7-0.6-1.5-1.2-2.5-1.6c0.3-0.5,0.5-1.2,0.8-2.1
		c0.3,0.2,0.6,0.3,1,0.4l4.1,1.1l1.2,0.3c0,0,0.1,0,0.1,0c0,0,0,0,0,0C66.9,306,66.8,306.9,66.7,307.7z M120.4,301.9
		c-2.1-6-6.1-10.4-11-13.2c2.1,0.4,4.1,0.8,6.1,1.4c2.5,0.8,4.3,1.3,6.8,2.3c-2.6-2.4-3.1-2.2-6.4-3.6c-5.2-2.2-11.4-3.4-17.7-3.8
		c-2.4-0.3-4.8-0.3-7.2,0c-7.7,0.3-15.3,1.8-21.6,4.2c3.4-0.4,7-0.8,10.6-1.1c-5.6,2.8-10.2,7.5-12.4,13.8l-5.3-1.4
		c0,0,0-0.8-1.3-8.3c-1-5.9-2.3-9.8-9.9-26.9c-0.5-2.1-1.9-5.2-2.3-6.1c-8.6-22.9-13.7-56.8-9.5-78.7l0.8-4l-1.9,3.7
		c-5.1,12.6-4.1,34.4-0.6,53c-6-18.9-7.4-38.5-4.4-57.2c2.8-1.3,8.2-4.2,12.5-7.3c0.9,0.8,1.9,1.7,2.9,2.5c-1.9,1.5-3.4,2.9-3.4,3.5
		c0.2,0,2.2-1.2,4.5-2.5c2.9,2.4,5.9,4.4,7.1,4.5c-0.4-0.4-0.8-0.8-1.3-1.3c-0.1-0.1-0.2-0.2-0.2-0.2c-0.4-0.4-0.7-0.7-1.1-1.1
		c-0.9-0.9-1.8-1.9-2.7-2.9c0,0,0,0,0,0c1.1-0.7,2.2-1.3,3.1-1.8c0.8-0.5,1.5-0.9,1.7-1c0.5-0.3,0.7-1,0.3-1.5
		c-0.3-0.5-1-0.7-1.5-0.4c-0.3,0.2-0.9,0.6-1.7,1.2c-0.9,0.6-2,1.4-3.1,2.3c0,0,0,0,0,0c-0.7-0.7-1.4-1.5-2-2.3c0,0,0,0,0,0
		c0.6-0.2,1.3-0.4,2-0.6c0.6-0.2,0.9-0.8,0.7-1.3c-0.1-0.6-0.7-0.9-1.3-0.8c-0.9,0.3-1.9,0.6-2.9,1c0,0,0,0-0.1,0
		c-0.3-0.3-0.5-0.6-0.8-0.9c-4.1,3.3-11,5.4-11,5.4c0,0,0-0.1,0-0.1c0,0,0,0,0,0c0.2-5.1,1.9-14.2,1.9-21.4c0-1,0-2-0.1-2.9
		l-8.8,9.4c-0.3,0.3-0.4,0.2-0.4-0.1c-0.1-0.7,0.7-3,0.8-3.9c0.3-3.1,0.4-5.7,0.4-7.9c0-9.9-2.2-14-2.5-29.5c-0.7,3.2-1,5.8-1.2,8.3
		l-7.9,2.8c0,0,0.1-0.1,0.4-0.2l-0.4,0.1c0,0,5.7-2.8,7.4-15.3c-0.1,1.1-0.3,2.1-0.5,3l0.1,0.1c0.5-3.6,1-7,1.6-10
		c2.2-11.9,5-17.3,11.6-5.6c1.9,3.4,4.2,6.4,6.7,9c-3.5,24.3-2,62.2,13.2,51.2c7.9-5.7,11.9-18,13.2-31.4c0.1-0.6,0.1-1.1,0.1-1.7
		c1.6,0.4,3.5,0.5,5.2,0.7c7.1,0.7,12.4,9,16.9,13.8l2.1,2.2l2.3-2.1c5.3-5.1,7.5-11.9,15.5-13.8c1.9-0.4,4.7-1,6.7-2.2
		c0,0.5,0.1,1.1,0.1,1.6c1.1,14.1,5.1,27.1,13.3,33c14.6,10.5,16.6-23.7,13.7-48c1.8-1.6,3.5-3.4,4.9-5.4c4.3-6,8.1-5,10.8-1.5
		c0.2,0.3,0.5,0.6,0.7,1c0,0,0.1,0.1,0.1,0.1c0-0.6,0-1.3,0-1.9c0,0.7,0,1.4,0,2.1c-0.4,7.4,4.6,16.3,7.2,20.4
		c0.4,0.4,0.6,0.7,0.6,0.7l-0.2-0.1c0.1,0.1,0.1,0.2,0.2,0.3c0,0.1-7.4-2.6-8.1-2.9c0,0,0,0,0-0.1c0,0-0.1,0-0.1,0
		c0.1-2.8-0.1-5.5-0.5-8.1c-0.9,4.1-3.4,19-2.4,27.7c0.1,7.6,0.8,13.6,0.8,13.6l-0.1-0.1c0,0,0,0,0,0l-9.4-11.7
		c-0.3,0.8,2.4,24.5,2.5,26.9c0,0-7.9-2.4-11.8-6.1c-0.4,0.4-0.8,0.8-1.2,1.2c-0.1,0-0.1,0-0.2-0.1c-0.6-0.2-1.1-0.4-1.6-0.6
		c-0.6-0.1-1.2,0.2-1.3,0.8c-0.2,0.5,0.1,1.1,0.7,1.3c0.2,0.1,0.3,0.1,0.5,0.1c0.1,0,0.1,0,0.2,0c-0.6,0.6-1.3,1.2-1.9,1.7
		c0,0-0.1-0.1-0.1-0.1c-0.7-0.5-1.4-1-1.9-1.4c-0.7-0.5-1.2-0.9-1.5-1c-0.5-0.3-1.2-0.1-1.5,0.4c-0.4,0.5-0.2,1.2,0.3,1.5
		c0.2,0.1,0.8,0.4,1.5,0.9c0.5,0.3,1,0.6,1.6,1c0,0,0.1,0.1,0.1,0.1c-5.3,4.5-10.3,7.8-14,10c5-1.4,14.3-6.6,16.6-8.5
		c2.5,1.5,4.9,2.9,5.1,2.9c0-0.6-1.8-2.3-4-3.9c0.8-0.8,1.7-1.6,2.5-2.5c3.4,2.4,7.7,4.1,10.8,5.1c0.3,0.1,0.6,0.1,0.9,0.1
		c0.3,0.2,0.7,0.4,1,0.6c3.3,19,2.2,38.9-3.8,58.1c0-0.2,0.1-0.4,0.1-0.6c-0.1,0.2-0.1,0.5-0.2,0.7c3.4-18.3,4.3-39.6-0.8-52
		l-1.7-3.3l0.7,3.5c4.2,21.9-0.9,55.9-9.5,78.7c-0.4,0.7-1.5,3.4-2.1,5.5c-7.8,17.6-9.2,21.6-10.2,27.5c-1.3,7.5-1.3,8.3-1.3,8.3
		L120.4,301.9z M167.8,313.2c1.4,1,2.4,2.2,2.7,3.4c0,0,0-0.1,0.1-0.1c0.2,0.8,0.2,1.7-0.2,2.7c-0.8,1.8-2.9,2.8-4.9,2.8
		c-0.9,0-1.8-0.3-2.4-0.8c-1.6-1.3-2.3-3.5-3.4-3.8c-1.4-0.4-2.8-0.7-4-1c-7.3-1.8-11.5-2.7-13.5-3c-0.8-0.1-1.2-0.2-1.4-0.2l0,0
		c1.3,0.6,12.2,5.5,18.2,9.6c2.6,1.8,3.7,3.7,3.8,5.4c0,0,0,0,0,0c0.3,3.5-3.9,5.9-8.1,3.6c-0.9-0.5-1.4-3.1-2.6-4
		c-6.4-4.2-16.4-10.2-18.5-11.4c1.6,1.7,7.6,7.9,11.2,12.3c0.6,0.7,1,1.4,1.3,2c0,0,0-0.1,0-0.1c0.6,1.2,0.7,2.3,0.4,3.2
		c0,0.1,0,0.1-0.1,0.2c0,0.1-0.1,0.2-0.1,0.3c0,0.1-0.1,0.2-0.2,0.3c0,0,0,0,0,0c-0.7,1.1-2.2,1.6-4,1.3c-0.2,0-0.5-0.1-0.7-0.1
		c-2.5-0.6-2.5-3.6-5-6.3c-0.3-0.3-0.5-0.7-0.9-1.1c-0.3-0.4-0.6-0.9-1-1.4c-0.5-0.8-1.1-1.6-1.7-2.5c-0.4-0.6-0.9-1.2-1.3-1.8
		c-0.7-0.9-1.4-1.8-2.2-2.7c-0.5-0.6-1.1-1.2-1.7-1.7c-0.6-0.6-1.2-1.1-1.8-1.6c-0.7-0.5-1.3-1.1-1.8-1.6s-0.9-0.9-1.3-1.4
		c-0.2-0.2-0.3-0.4-0.5-0.6c-1.5-2.3-1-3.8-1.2-5.3c-0.1-0.8-0.2-1.6-0.3-2.6c0,0,0,0,0,0c0.1,0,0.2,0,0.3,0l1-0.3l4.3-1.1
		c0.3-0.1,0.5-0.2,0.8-0.4c0.3,0.8,0.5,1.5,0.7,2c-1,0.4-1.8,1-2.5,1.6c0.4-0.1,0.8-0.1,1.2-0.2c-0.1,0-0.1,0-0.1,0
		c3.6-1,7.2-0.8,10.9-0.7C145.5,306.3,161,306.8,167.8,313.2z"/>
	<path class="st11" d="M50.4,80.7c-2.9,0-5.3,1-7.1,2.9c-0.2,0.2-0.4,0.5-0.6,0.7c1.5-1.6,3.5-2.5,6.2-2.5c0.4,0,0.7,0,1.1,0.1
		l3.2,0.3l-2,2.6c-4.2,5.5-5.6,11.9-4,17.9c1.4,5.3,5.2,9.9,9.5,11.7c1.3,0.5,2.8,0.8,4.4,0.8c2.9,0,5.3-0.9,6.5-2.5l0.1-0.1
		c0.3-0.6,1.1-2.3,1.7-3.8c1.6-7-1-16-6.2-21.8C60,83.2,54.8,80.7,50.4,80.7z M66.7,95.9c1.3,2.9,1.2,5.8-0.2,6.4
		c-1.4,0.6-3.6-1.2-4.9-4.1c-1.3-2.9-1.2-5.7,0.2-6.4C63.2,91.2,65.4,93,66.7,95.9z"/>
	<path class="st11" d="M140.9,82c2.7,0,4.7,1,6.2,2.5c-0.2-0.2-0.4-0.5-0.6-0.7c-1.8-1.9-4.2-2.9-7.1-2.9c-4.4,0-9.5,2.5-12.8,6.2
		c-5.2,5.8-7.8,14.8-6.2,21.8c0.5,1.2,1.1,2.5,1.5,3.3c0.5,0.6,1,1.2,1.5,1.7c1.3,0.9,3.2,1.4,5.4,1.4c1.6,0,3.1-0.3,4.4-0.8
		c4.4-1.8,8.1-6.4,9.5-11.8c1.6-6,0.2-12.4-4-17.8l-2-2.6l3.3-0.3C140.2,82,140.6,82,140.9,82z M128,98.2c-1.3,2.9-3.5,4.7-4.9,4.1
		c-1.4-0.6-1.5-3.5-0.2-6.4c1.3-2.9,3.5-4.7,4.9-4.1C129.2,92.5,129.3,95.3,128,98.2z"/>
	<path class="st11" d="M58.5,212.1c1.6-1.9,3.9-5.2,3.2-9.2c-0.2-1.2-0.6-1.7-1.1-1.9c-0.1,2.5-1.4,4.8-3,6.6c-0.2,0.2-0.7,0.8-1,1
		c-0.4-0.2-1.2-0.9-1.4-1.1c-1.9-1.7-3.9-3.9-4.8-6.4c-1.1-0.4-1.8-0.1-1.7,1.8c0.3,4,3.6,7.4,5.6,9.2
		C56.6,214.1,56.8,214,58.5,212.1z"/>
	<path class="st11" d="M86.5,205.4c-0.2,1.1-0.6,2.1-1.1,3.1c-0.7,1.3-1.7,2.5-2.7,3.5c-0.2,0.2-0.9,0.9-1.2,1.1
		c-0.3-0.2-1-0.9-1.2-1.1c-1.8-1.8-3.6-4.1-4.1-6.6c-0.8-0.1-1.3,0.3-1.4,1.9c-0.1,4,2.8,7.4,4.7,9.2c1.9,2,2.2,2,4.1,0
		c1.8-1.9,4.5-5.2,4.2-9.2C87.7,205.8,87.2,205.3,86.5,205.4z"/>
	<path class="st11" d="M108.9,216.5c2-1.8,5.1-5.2,5.2-9.2c0.1-1.8-0.6-2.2-1.5-1.8c-0.7,2.5-2.7,4.8-4.5,6.5
		c-0.2,0.2-1,0.9-1.4,1.1c-0.3-0.2-0.9-0.8-1-1c-1.7-1.8-3.2-4.2-3.4-6.7c-0.6,0.1-1,0.6-1.2,1.9c-0.5,4,2,7.4,3.7,9.2
		C106.5,218.5,106.8,218.5,108.9,216.5z"/>
	<path class="st11" d="M134,212.1c2.2-1.9,5.6-5.2,6.2-9.2c0.3-2.1-0.6-2.2-1.9-1.6c-1.1,2.4-3.2,4.6-5.1,6.2
		c-0.2,0.2-1.1,1-1.5,1.1c-0.2-0.2-0.7-0.8-0.8-0.9c-1.5-1.9-2.7-4.2-2.6-6.6c-0.4,0.2-0.7,0.8-1,1.8c-1,4,1.1,7.4,2.6,9.2
		C131.4,214.1,131.7,214,134,212.1z"/>
	<path class="st11" d="M61.6,222.8c0.2,4.2,3.1,7.8,5,9.7c2.1,2,2.3,2,3.9,0c1.6-1.9,3.9-5.5,3.3-9.7c-0.2-1.4-0.6-2-1.2-2
		c-0.1,2.7-1.5,5.2-3.1,7.3c-0.1,0.2-0.6,0.8-0.9,1c-0.3-0.2-0.9-0.9-1.1-1.1c-1.9-1.9-3.7-4.4-4.4-7.1
		C62.2,220.5,61.5,220.9,61.6,222.8z"/>
	<path class="st11" d="M94,229.1c-0.3-0.2-0.8-0.8-0.9-1c-1-1.1-1.8-2.4-2.5-3.7c-0.5-1.1-0.9-2.3-1-3.6c-0.6-0.1-1.1,0.5-1.2,2
		c-0.3,4.2,2.2,7.8,3.9,9.7c1.6,2,1.8,2,3.7,0c1.8-1.9,4.5-5.5,4.5-9.7c0-1.8-0.6-2.2-1.4-2c-0.5,2.7-2.2,5.2-4,7.2
		C94.9,228.2,94.4,228.8,94,229.1z"/>
	<path class="st11" d="M119.3,229c-0.2-0.2-0.6-0.8-0.7-0.9c-1.6-2.1-2.7-4.7-2.6-7.3c-0.4,0.2-0.8,0.8-1.1,2
		c-0.8,4.2,1.3,7.8,2.7,9.7c1.5,2,1.8,2,3.9,0c2-1.9,5.2-5.5,5.6-9.7c0.2-2.1-0.6-2.4-1.7-1.8c-0.9,2.6-2.9,5-4.8,6.9
		C120.4,228.1,119.7,228.8,119.3,229z"/>
	<path class="st11" d="M64.2,239.1c0,2.6-1,5.2-2.5,7.4c-0.1,0.2-0.4,0.6-0.6,0.9c-0.3-0.3-0.8-0.8-1-1c-1.8-1.9-3.6-4.3-4.4-6.9
		c-1.1-0.7-1.9-0.5-1.6,1.7c0.4,4.2,3.3,7.8,5.1,9.7c1.9,2,2.1,1.9,3.5-0.1c1.3-1.9,3.2-5.5,2.6-9.7
		C65.1,239.8,64.7,239.2,64.2,239.1z"/>
	<path class="st11" d="M86.3,239.1c-0.1,1.2-0.5,2.4-1,3.5c-0.6,1.3-1.4,2.6-2.3,3.7c-0.1,0.2-0.5,0.7-0.8,0.9
		c-0.3-0.3-0.7-0.8-0.8-0.9c-1.7-2.1-3.2-4.6-3.7-7.2c-0.8-0.3-1.3,0.1-1.4,2c0,4.2,2.4,7.8,4.1,9.7c1.8,2.1,2,2,3.6,0
		c1.5-1.9,3.8-5.5,3.6-9.7C87.5,239.4,87,238.9,86.3,239.1z"/>
	<path class="st11" d="M108.8,239.3c-0.7,2.6-2.3,5.1-4.1,7c-0.2,0.2-0.6,0.7-0.9,1c-0.2-0.3-0.5-0.7-0.7-0.9
		c-1.6-2.2-2.7-4.7-2.8-7.4c-0.5,0-1,0.6-1.2,2c-0.5,4.2,1.6,7.8,3,9.7c1.4,2.2,1.7,2.1,3.5,0.1c1.8-2,4.5-5.5,4.7-9.7
		C110.4,239.1,109.7,238.8,108.8,239.3z"/>
	<path class="st11" d="M132.6,241.1c0.4-2.4-0.6-2.4-1.9-1.5c-1,2.5-2.9,4.8-4.7,6.7c-0.2,0.2-0.7,0.7-1.1,1
		c-0.2-0.3-0.4-0.6-0.5-0.8c-1.4-2.2-2.2-4.8-2-7.3c-0.4,0.2-0.7,0.8-1,1.9c-1,4.2,0.7,7.8,1.9,9.7c1.4,2.1,1.6,2,3.6,0
		C128.9,248.8,131.9,245.3,132.6,241.1z"/>
	<path class="st11" d="M74.6,255.5c-0.1,2.6-1.1,5.1-2.6,7.3c-0.1,0.2-0.3,0.5-0.5,0.8c-0.3-0.3-0.6-0.7-0.7-0.8
		c-1.7-2-3.1-4.4-3.8-6.9c-0.9-0.6-1.6-0.4-1.5,1.7c0.2,4.2,2.7,7.7,4.4,9.6c1.7,1.9,1.8,1.9,3.2-0.1c1.3-1.9,3.2-5.4,2.7-9.6
		C75.6,255.9,75.2,255.4,74.6,255.5z"/>
	<path class="st11" d="M97,255.6c-0.5,2.6-1.8,5-3.4,7.1c-0.1,0.2-0.4,0.6-0.7,0.8c-0.2-0.3-0.5-0.6-0.6-0.8c-1.5-2.1-2.7-4.6-3-7.3
		c-0.6-0.2-1.1,0.3-1.2,2c-0.3,4.2,1.8,7.7,3.2,9.6c1.4,2.1,1.6,2.1,3.2,0.1c1.5-1.9,3.8-5.4,3.9-9.6
		C98.4,255.5,97.8,255.2,97,255.6z"/>
	<path class="st11" d="M119.1,256c-0.8,2.5-2.4,4.7-4.1,6.6c-0.2,0.2-0.5,0.6-0.8,0.9c-0.2-0.2-0.3-0.5-0.4-0.7
		c-1.4-2.2-2.2-4.8-2.1-7.4c-0.4,0.1-0.8,0.7-1,2c-0.8,4.2,0.9,7.7,2.1,9.6c1,2.1,1.2,2.1,3.1,0.1c1.7-1.9,4.5-5.4,5-9.6
		C121.2,255.1,120.3,255.1,119.1,256z"/>
	<path class="st11" d="M91.9,106.3c-1.3,2.4-4,5-2.4,6.2C91.1,113.6,93.6,104.6,91.9,106.3z"/>
	<path class="st11" d="M100.5,112.5c1.6-1.2-1.1-3.8-2.4-6.2C96.3,104.6,98.9,113.6,100.5,112.5z"/>
	<path class="st11" d="M69.9,168.6c1.7,2,1.8,2,3.2,0c1.3-1.9,3.2-5.4,2.7-9.6c-0.2-1.6-0.6-2.1-1.2-2c-0.2,2.5-1.2,4.8-2.5,6.9
		c-0.1,0.2-0.3,0.5-0.5,0.8c-0.2-0.2-0.6-0.6-0.7-0.8c-1.6-1.9-3-4.1-3.7-6.5c-1-0.8-1.9-0.7-1.7,1.6
		C65.7,163.2,68.2,166.7,69.9,168.6z"/>
	<path class="st11" d="M94.5,175.5c1.5-1.9,3.8-5.4,3.9-9.6c0-2.1-0.7-2.3-1.6-1.7c-0.5,2.4-1.8,4.6-3.3,6.5
		c-0.1,0.1-0.4,0.5-0.7,0.8c-0.2-0.3-0.5-0.7-0.6-0.8c-1.4-2-2.6-4.3-2.9-6.8c-0.6-0.1-1.1,0.4-1.2,2c-0.3,4.2,1.8,7.7,3.2,9.6
		C92.7,177.5,92.9,177.5,94.5,175.5z"/>
	<path class="st11" d="M115.9,168.6c1.7-1.9,4.5-5.4,5-9.6c0.3-2.6-0.8-2.3-2.1-1.2c-0.9,2.2-2.4,4.3-3.9,6
		c-0.1,0.2-0.5,0.6-0.8,0.9c-0.1-0.3-0.3-0.6-0.4-0.7c-1.3-2.2-2.1-4.5-2.1-7c-0.4,0.1-0.8,0.7-1,2c-0.8,4.2,0.9,7.7,2.1,9.6
		C113.8,170.7,114,170.6,115.9,168.6z"/>
</g>
</svg>
