<?xml version="1.0" encoding="utf-8"?>
<!-- Generator: Adobe Illustrator 23.0.6, SVG Export Plug-In . SVG Version: 6.00 Build 0)  -->
<svg version="1.1" id="Layer_1" xmlns="http://www.w3.org/2000/svg" xmlns:xlink="http://www.w3.org/1999/xlink" x="0px" y="0px"
	 viewBox="0 0 1000 340.9" style="enable-background:new 0 0 1000 340.9;" xml:space="preserve">
<style type="text/css">
	.st0{fill-rule:evenodd;clip-rule:evenodd;fill:#050505;}
	.st1{fill-rule:evenodd;clip-rule:evenodd;fill:#2B2B28;}
	.st2{fill-rule:evenodd;clip-rule:evenodd;fill:#FFCC04;}
	.st3{fill-rule:evenodd;clip-rule:evenodd;fill:#EF8B22;}
	.st4{fill-rule:evenodd;clip-rule:evenodd;fill:#FFFFFF;}
	.st5{fill-rule:evenodd;clip-rule:evenodd;fill:#3F3E3B;}
	.st6{fill-rule:evenodd;clip-rule:evenodd;fill:#8E764C;}
	.st7{fill-rule:evenodd;clip-rule:evenodd;fill:#917E56;}
	.st8{fill-rule:evenodd;clip-rule:evenodd;fill:#B99B60;}
	.st9{fill-rule:evenodd;clip-rule:evenodd;fill:#60605E;}
	.st10{fill:#B99B60;}
	.st11{fill:#050505;}
	.st12{fill:#2B2B28;}
	.st13{fill:#FFCC04;}
	.st14{fill:#EF8B22;}
	.st15{fill:#FFFFFF;}
	.st16{fill:#3F3E3B;}
	.st17{fill:#8E764C;}
	.st18{fill:#917E56;}
	.st19{fill:#60605E;}
	.st20{fill:#525252;}
	.st21{fill-rule:evenodd;clip-rule:evenodd;fill:#525252;}
</style>
<polygon class="st15" points="248.9,253.7 248.9,253.8 279.7,253.8 279.7,177.9 334.3,177.9 334.3,148.9 279.7,148.9 279.7,112 
	339.1,112 339.1,83 248.9,83 "/>
<path class="st15" d="M406.6,83h-30.9v155.2c0,1.4,0.2,3.1,0.8,4.9c0.6,1.8,1.5,3.5,2.8,5.1c1.3,1.6,2.9,3,4.8,4.1
	c1.9,1.1,4.3,1.6,7.2,1.4h69.9v-28.8h-54.6V83z"/>
<path class="st15" d="M491.8,238.1c0,1.4,0.3,3,0.7,4.9c0.6,1.7,1.5,3.4,2.8,5c1.3,1.6,2.9,3,4.8,4.1c1.9,1.1,4.3,1.7,7.2,1.7H582
	v-29h-59.4v-46.9h54.6v-29h-54.6V112H582V83h-90.2V238.1z"/>
<path class="st15" d="M711.3,83l-91.4,1.2v169.5v0h25.4l2.4-7.4l36.1,11c1.6,0.3,3,0.5,4.3,0.5c4.6,0,8.1-0.8,10.3-2.2l20.8-12.7
	c2.1-1.3,3.7-3.1,4.9-5.3c1.2-2.2,1.8-4.7,1.8-7.4V96.6c0-3.2-1.2-6.2-3.7-9.2C719.7,84.5,716.1,83,711.3,83z M695,225l-9.3,5.7
	l-35-8.7V110.5H695V225z"/>
<path class="st15" d="M814.2,175.9h23.9V214L813,228.1l-16-10.5v-107h41.2v21.1H866l2.4-48.6h-86.7c-2.9-0.2-5.3,0.3-7.2,1.4
	c-1.9,1.1-3.5,2.5-4.8,4.1c-1.3,1.6-2.2,3.3-2.8,5.1c-0.5,1.8-0.8,3.5-0.8,4.9v123.7c0,2.7,0.6,5.2,1.8,7.4c1.2,2.3,2.8,4,4.9,5.3
	l32.5,21.4c1.8,1.1,4.2,1.7,7.2,1.7c2.2,0,4.5-0.6,6.9-1.7l41.9-23.9c4.7-2.6,7.2-7,7.7-13.2v-70.4h-54.8V175.9z"/>
<path class="st15" d="M1000,112V83h-90.2v155.1c0,1.4,0.2,3,0.7,4.9c0.6,1.7,1.5,3.4,2.8,5c1.3,1.6,2.9,3,4.8,4.1
	c1.9,1.1,4.3,1.7,7.2,1.7h74.7v-29h-59.4v-46.9h54.6v-29h-54.6V112H1000z"/>
<path class="st15" d="M164.6,138.8c0-3.5,0.3-7.1,0.9-10.5l0.5,0.1c2.8,1,6.1,2,9.1,1.9c0.7,0,1.3-0.4,1.6-1
	c0.3-0.6,0.2-1.3-0.2-1.9c-1.5-2-2.7-4.1-3.6-6.4c-0.6-1.5-1-3.2-1.7-4.6c-0.5-0.9-0.9-1.8-1.3-2.8c-0.5-2-0.9-4.1-1.3-6.2
	c-0.2-0.8-0.3-1.6-0.4-2.4c0-0.4-0.1-0.9-0.1-1.2c0.5-9.8-2.1-22.5-6.2-31.6c0-0.4,0.1-0.8,0.1-1.2c0-0.2,0-0.4,0-0.6
	c0-0.2,0-0.5,0-0.7c-0.2-4.9-1-10.1-2.2-14.9c-2.5-10-7-19.7-14.3-27.1c0.6-1.5,0.4-3.2-0.5-4.6c-2.1-3.2-6.3-5.9-9.8-7.3
	c-1.7-0.7-3.6-0.4-4.9,0.7c-1.1-0.6-2.2-1.2-3.3-1.7c0.4-1.1,0.5-2.3,0.2-3.4c-0.3-1.3-1.1-2.4-2.3-3.1c-19.2-11.2-40.2-11.2-59.5,0
	c-1.2,0.7-1.9,1.8-2.3,3.1c-0.3,1.2-0.3,2.3,0.2,3.4c-1.1,0.5-2.2,1.1-3.3,1.7c-1.3-1-3.1-1.4-4.8-0.7c-3.5,1.4-7.7,4.1-9.8,7.3
	c-0.9,1.4-1.1,3.1-0.5,4.6C37.5,35,33,44.8,30.6,54.8c-1.2,4.7-2.1,10-2.2,14.9c0,0.2,0,0.5,0,0.7c0,0.1,0,0.2,0,0.3
	c-1.8,3.5-3.3,7.3-4.6,11c-1.8,5.1-3.6,12.1-3.4,17.5c0.2,5.7-0.1,12.9-2.7,18v0.1c-0.1,0.3-0.2,0.6-0.4,0.9c-0.6,1-1.2,1.9-1.8,2.9
	c-0.6,0.9-2.7,3.9-3.6,4.4c-0.8,0.3-1.3,1.1-1.1,2c0.1,0.8,0.8,1.5,1.7,1.5c1.9,0.1,3.9,0,5.7-0.2c1.1-0.2,2.5-0.3,3.8-0.5
	c0.4,3.5,1,7,2,10.4c-6.1,4.9-11.3,11.9-14.9,18.7c-6.4,11.9-9.5,25.6-8.8,39.1c0.7,13.2,8.9,29.1,15.5,40.4
	c5.7,9.8,12.1,19.2,19,28.2c2.4,3.2,4.9,6.3,7.5,9.2c1.6,1.7,3.9,4.4,6.3,5c0.6,0.2,1.2,0.2,1.8,0.2c0.5-0.1,1-0.1,1.5-0.3
	c0,0.1,0.1,0.1,0.1,0.2c1.6,3.8,3.2,7.7,4,11.8c0.1,0.6,0.2,1.2,0.3,1.8c0.3,2.1,0.7,4.2,1,6.3c0,0.3,0.1,0.6,0.1,0.9
	c-0.1,0.4-0.1,0.9-0.2,1.3c-1.6,0.1-3.3,0.2-4.9,0.3c-4.7,0.3-9.4,0.7-14,1.3c-5,0.6-10.3,1.5-15.1,3.1c-4.4,1.5-9.3,4-10.6,8.9
	c-0.6,2-0.4,4.1,0.4,6c1.2,3.1,4.1,5.1,7.3,5.7c-0.4,2.1-0.1,4.2,1,6.1c2.9,5,9.4,5.9,14.3,3.2c0.4-0.3,0.8-0.5,1.1-0.8
	c0.3,0.8,0.7,1.6,1.3,2.4c2.3,2.9,6.2,3.7,9.7,2.8c1.1-0.3,2.1-0.8,3-1.5c1.4-1.1,2.1-2.3,2.9-3.8c0.5-0.9,0.9-1.9,1.6-2.6
	c0.3-0.3,0.5-0.7,0.8-1.1c0.4-0.6,0.8-1.2,1.2-1.8c1.2-1.6,2.3-3.1,3.5-4.7c0.4-0.5,0.8-1,1.2-1.5c1.6-2,3.4-3.9,5.4-5.7
	c0.6-0.6,1.2-1.1,1.8-1.6c0.4-0.3,1-0.7,1.2-1.2c0.9-1.8,0.9-5.3,0.9-7.3c0.1-0.9,0.1-1.8,0.1-2.7c0.4-0.5,0.8-1.1,1-1.7
	c0.8-2.4,2.1-4.6,3.8-6.4c0.5,0.4,0.9,0.8,1.4,1.2c4.5,3.9,9.3,7.5,14.4,10.6c3,1.9,8.4,5.3,12.1,4.4c2.4-0.6,3.8-2.1,4.6-4.1
	c2.8,1.2,5.6,2.4,8.4,3.3c0.1,1,0.3,2,0.7,2.8c0.3,0.5,0.8,0.9,1.2,1.2c0.6,0.5,1.2,1.1,1.8,1.6c1.9,1.7,3.7,3.7,5.4,5.7
	c0.4,0.5,0.8,1,1.2,1.5c1.2,1.5,2.4,3.1,3.5,4.7c0.4,0.6,0.8,1.2,1.2,1.8c0.2,0.4,0.5,0.8,0.8,1.1c0.7,0.8,1.1,1.7,1.6,2.6
	c0.8,1.5,1.6,2.8,2.9,3.8c0.9,0.7,1.9,1.2,3,1.5c3.5,0.9,7.4,0.2,9.7-2.8c0.6-0.8,1-1.6,1.3-2.4c0.3,0.3,0.7,0.6,1.1,0.8
	c4.9,2.7,11.4,1.9,14.3-3.2c1.1-1.9,1.4-4,1-6.1c3.1-0.6,6.1-2.7,7.3-5.7c0.7-1.9,0.9-4,0.4-6c-1.3-4.9-6.2-7.4-10.6-8.9
	c-4.1-1.4-8.5-2.2-12.9-2.8c0.1-0.1,0.1-0.3,0.2-0.4c0.5-1.5,0.5-3.2-0.2-4.6c-1.1-2.5-3.8-4.7-6.4-6.3c0.4-0.5,0.8-1,1.5-1.7
	c1.8-4.1-1.2-7.9-4.2-10.4c-0.5-0.4-1-0.9-1.5-1.3c1.9-1.1,3.6-3.1,4.9-4.5c2.6-3,5.1-6.1,7.5-9.2c6.9-9,13.3-18.4,19-28.2
	c6.7-11.3,14.8-27.2,15.5-40.4c0.7-13.5-2.5-27.2-8.8-39.1C175.7,150.6,170.7,143.7,164.6,138.8z M186.3,196.3
	c-0.7,12.8-8.8,28.7-15.2,39.6c-5.7,9.7-12.1,19.1-18.9,28c-2.4,3.1-4.8,6.2-7.4,9.1c-0.9,1.1-2.5,2.9-4.1,3.9
	c-0.6,0.4-1.1,0.7-1.6,0.8c-0.4,0.1-0.8,0.1-1.2,0.1c-0.1,0-0.2,0-0.2,0c0.6,0.6,1.3,1.2,1.9,1.7c0.7,0.6,1.4,1.2,2.1,1.8
	c2.3,2,5.1,5,3.7,8.3c-1.1,1.4-2.1,2.3-3.2,2.8c2.9,1.6,6.8,4.1,8,6.8c0.4,1,0.5,2.1,0.1,3.1c-0.1,0.3-0.3,0.5-0.4,0.8
	c0,0,0,0.1-0.1,0.1c-0.6,0.8-1.4,1.2-2.3,1.5c0.6,0.1,1.3,0.1,1.9,0.2c4.9,0.6,10.1,1.5,14.7,3c3.3,1.2,7.3,2.9,8.9,6.2
	c0.3,0.5,0.5,1,0.6,1.6c0.4,1.6,0.2,3.3-0.4,4.8c-1.2,3.1-4.8,4.9-8.1,4.7c0.1,0.2,0.2,0.5,0.3,0.7c0.8,2,0.7,4.2-0.4,6.1
	c-2.4,4.2-7.8,4.7-11.8,2.5c-1.2-0.6-1.7-1.6-2.2-2.7c-0.2-0.3-0.3-0.6-0.5-0.9c-0.1-0.1-0.2-0.4-0.3-0.6c0,0,0,0,0,0
	c-0.4-0.3-0.9-0.6-1.3-0.9c1.1,2.4,1.3,5-0.4,7.2c-1.9,2.4-5,2.9-7.8,2.2c-0.8-0.2-1.6-0.6-2.3-1.1c-2.1-1.7-2.5-4.2-4.2-6.1
	c-0.1-0.1-0.3-0.4-0.5-0.8c-0.8-1.1-2.4-3.5-4.2-5.9c-0.6-0.8-1.2-1.6-1.9-2.3c-4.1-5.1-8.1-7.9-8.2-8.2c0,0,0-0.1-0.1-0.2
	c0,0,0,0,0,0c-0.3-0.7-0.5-1.9-0.6-3.2c-3.9-1.2-7.7-2.7-11.3-4.4c-0.3,2-1.1,3.7-2.9,4.5c-0.3,0.2-0.6,0.3-1,0.4
	c-2.9,0.8-8.3-2.6-10.7-4.1c-4.9-3.1-9.8-6.6-14.2-10.4c-0.8-0.7-1.6-1.4-2.4-2.1c-2.4,2.2-4.4,5-5.5,8.3c-0.2,0.6-0.6,1.1-1.1,1.5
	c-0.1,3.4,0,8.1-0.8,9.6c0,0,0,0,0,0.1c0,0,0,0.1-0.1,0.1c-0.1,0.3-4.1,3.1-8.2,8.2c-3.1,3.7-6.1,8.4-6.6,9
	c-1.7,1.9-2.1,4.4-4.2,6.1c-0.7,0.5-1.5,0.9-2.3,1.1c-2.8,0.7-5.9,0.2-7.8-2.2c-1.8-2.2-1.6-4.8-0.5-7.2c-0.4,0.3-0.8,0.5-1.1,0.8
	c-0.1,0.2-0.2,0.4-0.3,0.5c-0.5,1.1-1,2.2-1.8,3c-0.3,0.3-0.6,0.6-1.1,0.8c-4,2.2-9.4,1.7-11.8-2.5c-1.1-1.9-1.2-4.1-0.4-6.1
	c0.1-0.2,0.2-0.5,0.3-0.7c-3.3,0.2-6.9-1.6-8.1-4.7c-0.6-1.5-0.8-3.2-0.4-4.8c0.4-1.4,1.1-2.6,2.1-3.5c2-2.1,4.9-3.4,7.5-4.3
	c4.7-1.6,9.9-2.4,14.7-3c4.6-0.6,9.2-1,13.9-1.3c1.7-0.1,3.4-0.2,5.2-0.3c0.3,0,0.7-0.1,1-0.1c0.1-0.3,0.1-0.7,0.2-0.9
	c0.1-0.8,0.2-1.7,0.3-2.5c0-0.2-0.1-0.4-0.1-0.6c-0.3-2.1-0.7-4.2-1-6.3c-0.1-0.6-0.2-1.2-0.3-1.8c-0.9-4.2-2.4-8.2-4.1-12.1
	c-0.3-0.8-0.6-1.5-0.9-2.3c-0.7,0.6-1.5,0.9-2.5,1c-0.4,0-0.8,0-1.2-0.1c-1.8-0.4-4.2-3.1-5.4-4.5c-2.6-2.9-5.1-6-7.4-9.1
	c-6.8-8.9-13.3-18.3-18.9-28C11,225.1,2.8,209.2,2.2,196.4c-0.7-13.2,2.4-26.5,8.6-38.1c2.7-5,6.4-10.4,10.7-14.8
	c0.1-0.1,0.2-0.2,0.3-0.3c0.6-0.6,1.2-1.1,1.7-1.6c0.3-0.3,0.7-0.6,1.1-0.9c0.3-0.3,0.6-0.5,1-0.8c0.1-0.1,0.2-0.2,0.3-0.3
	c0,0,0-0.1,0-0.1c-1.4-4.1-2.1-8.4-2.6-13.3c-0.1,0-0.2,0-0.3,0c-2.6,0.6-8,1-10.3,0.9c0.1,0,0.1-0.1,0.2-0.1c-0.3,0-0.5,0-0.8,0
	c1.6-0.6,5.2-6,6.8-9.2c2.7-5.5,3.1-12.9,2.9-18.9c-0.3-7.3,3.8-20.2,8.2-28.1c0-0.4,0-0.7,0.1-1.1c0.2-4.7,1.1-10,2.1-14.4
	c2.4-10.3,7.2-20,14.8-27.2c-0.2-0.3-0.3-0.5-0.4-0.7c-0.5-1.1-0.4-2.3,0.2-3.3c0.5-0.7,1.1-1.5,1.8-2.1c2.1-2,5-3.7,7.4-4.7
	c1.4-0.6,3,0,3.8,1.3c1.9-1.1,3.9-2.1,5.8-2.9c-0.2-0.4-0.4-0.8-0.6-1.2c-0.4-0.8-0.5-1.6-0.3-2.5c0.2-0.7,0.5-1.2,1-1.6
	c0.2-0.2,0.5-0.5,0.8-0.7c18.7-10.9,39-10.9,57.7,0c0.8,0.4,1.3,1.1,1.5,2c0.2,0.9,0.1,1.7-0.3,2.5l-0.7,1.3c2,0.9,4.1,1.9,6,3
	c0.3-0.4,0.7-0.7,1.2-0.9c0.8-0.5,1.9-0.7,2.8-0.3c3.1,1.2,7.1,3.7,9,6.6c0.7,1,0.7,2.2,0.2,3.3c-0.1,0.2-0.2,0.4-0.4,0.7
	c7.6,7.2,12.2,16.9,14.7,27.2c1.1,4.4,2,9.9,2.1,14.6c0,0.2,0,0.4,0,0.5c0,0.2,0,0.4,0,0.7c0,0.5-0.1,0.9-0.3,1.3
	c4.5,9.5,6.8,22.5,6.4,31.4c-0.1,1.2,0.8,5.8,1.8,10.4c0.4,1.1,0.9,2.1,1.4,3.1c1.2,2.2,1.3,5.8,5.5,11.3c-0.2,0-0.3,0-0.5,0
	c0.1,0.1,0.2,0.3,0.3,0.4c-3.5,0.1-7.7-1.5-10.2-2.4l-0.7,0c-0.9,4.4-1.3,8.9-1.3,13.3c6.3,4.9,11.5,12,15,18.6
	C183.9,169.8,186.9,183.2,186.3,196.3z"/>
<path class="st15" d="M65.5,313c1.5-2.3,1-3.8,1.2-5.3c0.1-0.8,0.2-1.7,0.3-2.6c0,0-0.1,0-0.1,0l-5.3-1.4c-0.4-0.1-0.7-0.2-1-0.4
	c-0.3,0.9-0.5,1.6-0.8,2.1c1,0.4,1.8,1,2.5,1.6c-0.7-0.2-1.7-0.3-2.8-0.4c0.5,0,1.1,0,1.8,0.1c-3.6-1-7.2-0.8-10.9-0.7
	c-8.1,0.3-23.8,0.8-30.5,7.3c-1.4,1-2.3,2.1-2.6,3.3c0,0,0-0.1-0.1-0.1c-0.2,0.8-0.2,1.7,0.2,2.7c0.8,1.8,2.9,2.8,4.9,2.8
	c0.9,0,1.8-0.3,2.4-0.8c1.6-1.3,2.3-3.5,3.4-3.8c1.4-0.4,2.8-0.7,4-1c7.3-1.8,11.5-2.7,13.5-3c0.8-0.1,1.2-0.2,1.4-0.2l0,0
	c-1.3,0.6-12.2,5.5-18.2,9.6c-2.7,1.9-3.8,3.9-3.8,5.6c0-0.1-0.1-0.1-0.1-0.2c-0.3,3.5,3.9,5.9,8.1,3.6c0.1-0.1,0.2-0.2,0.3-0.3
	c0.6-0.7,1.1-2.3,1.9-3.3c0.1-0.1,0.3-0.3,0.4-0.4c6.7-4.3,17.1-10.6,18.7-11.5c-1.4,1.5-7.6,7.9-11.3,12.4c-0.6,0.7-1,1.4-1.3,2
	c0,0,0-0.1,0-0.1c-0.6,1.2-0.7,2.3-0.4,3.2c0,0.1,0,0.1,0.1,0.2c0,0.1,0.1,0.2,0.1,0.3c0,0.1,0.1,0.2,0.2,0.3c0,0,0,0,0,0
	c0.7,1.1,2.2,1.6,4,1.3c0.2,0,0.5-0.1,0.7-0.1c2.5-0.6,2.5-3.6,5-6.3c0.3-0.3,0.5-0.7,0.9-1.1c0.3-0.4,0.6-0.9,1-1.4
	c0.5-0.8,1.1-1.6,1.7-2.5c0.4-0.6,0.9-1.2,1.3-1.8c0.7-0.9,1.4-1.8,2.2-2.7c0.5-0.6,1.1-1.2,1.7-1.7c0.6-0.6,1.2-1.1,1.8-1.6
	c1.4-1.1,2.4-2.1,3.1-2.9C65.2,313.4,65.4,313.2,65.5,313z"/>
<path class="st15" d="M167.8,313.2c-6.8-6.3-22.3-6.8-30.3-7.2c-3.7-0.1-7.3-0.3-10.9,0.7c0.1,0,0.1,0,0.1,0
	c-0.5,0.1-0.9,0.1-1.2,0.2c0.7-0.6,1.5-1.2,2.5-1.6c-0.2-0.5-0.5-1.1-0.7-2c-0.2,0.1-0.5,0.3-0.8,0.4l-5.3,1.4c-0.1,0-0.2,0-0.3,0
	c0.1,0.9,0.2,1.8,0.3,2.6c0.2,1.5-0.3,3.1,1.2,5.3c0.1,0.2,0.3,0.4,0.5,0.6c0.7,0.9,1.7,1.8,3.1,2.9c0.6,0.5,1.2,1,1.8,1.6
	c0.6,0.6,1.1,1.1,1.7,1.7c0.8,0.9,1.5,1.8,2.2,2.7c0.5,0.6,0.9,1.2,1.3,1.8c0.6,0.9,1.2,1.7,1.7,2.5c0.4,0.5,0.7,1,1,1.4
	c0.3,0.4,0.6,0.8,0.9,1.1c2.5,2.7,2.5,5.7,5,6.3c0.2,0.1,0.5,0.1,0.7,0.1c1.8,0.3,3.2-0.3,4-1.3c0,0,0,0,0,0
	c0.1-0.1,0.1-0.2,0.2-0.3c0-0.1,0.1-0.2,0.1-0.3c0-0.1,0-0.1,0.1-0.2c0.3-0.9,0.2-1.9-0.4-3.2c0,0,0,0.1,0,0.1
	c-0.3-0.6-0.7-1.3-1.3-2c-3.6-4.4-9.6-10.6-11.2-12.3c2.1,1.2,12.1,7.2,18.5,11.4c1.2,0.9,1.7,3.5,2.6,4c4.2,2.3,8.4-0.1,8.1-3.6
	c0,0,0,0,0,0c-0.1-1.7-1.2-3.6-3.8-5.4c-6-4.1-16.9-9.1-18.2-9.6l0,0c0.2,0,0.6,0.1,1.4,0.2c2,0.4,6.2,1.2,13.5,3
	c1.3,0.3,2.6,0.6,4,1c1.1,0.3,1.8,2.5,3.4,3.8c0.6,0.5,1.5,0.8,2.4,0.8c1.9,0.1,4.1-1,4.9-2.8c0.4-1,0.4-1.9,0.2-2.7
	c0,0,0,0.1-0.1,0.1C170.2,315.3,169.3,314.2,167.8,313.2z"/>
<path class="st15" d="M172.6,219.3c-0.2-1.9-0.3-4.4-0.4-6.1c-0.2-4.6-1.4-6.5-4.1-0.7c-6.1,13.3-11.2,18.9-10.9,6.9
	c-0.3,1.7-0.7,3.4-1.1,5.1c0,0.1,0.1,0.3,0.1,0.4c2.6,7.8,9.8-4.3,13.5-11.4c0,3.8,0.3,10.7,3,10.6c0.5,0,0.9-0.1,1.3-0.3
	c0.8-1.8,1.5-3.7,2.2-5.5C174.5,221.7,173,223.1,172.6,219.3z"/>
<path class="st15" d="M182.9,200.3c0,0.1-0.1,0.5-0.3,1.1c-0.1,0.7-0.2,1.5-0.3,2.2C182.5,202.4,182.7,201.4,182.9,200.3z"/>
<path class="st15" d="M162.5,244.4l0.1-0.8c0.4-3.4-0.2-6.1-2.8-1.8c-8.1,13.3-13.5,17.5-8.1-2.5c-0.9,2.4-1.8,4.8-2.9,7.2
	c-0.4,2-0.7,3.8-0.4,5.4c1,7.1,8.3-2.6,12.1-8.3c-0.2,1.2-0.4,2.9-0.5,4.4C160.9,246.8,161.7,245.6,162.5,244.4z"/>
<path class="st15" d="M20.3,212.5c-2.7-5.8-3.9-3.9-4.1,0.7c-0.1,1.7-0.2,4.2-0.4,6.1c-0.5,4.7-2.7,1.4-4.9-3.7
	c0.9,2.7,1.9,5.4,3.1,8.1c0,0,0,0,0,0c0.6,0.2,1.1,0.4,1.7,0.4c2.7,0.1,3-6.8,3-10.6c3.7,7.1,10.8,19,13.4,11.5
	c-0.3-1.4-0.6-2.8-0.9-4.2C31,230.9,26.1,225.2,20.3,212.5z"/>
<path class="st15" d="M28.6,241.8c-2.6-4.3-3.2-1.6-2.8,1.8l0.1,0.8c0.8,1.2,1.6,2.4,2.5,3.5c-0.1-1.5-0.3-3.2-0.5-4.4
	c3.8,5.7,11.1,15.4,12.1,8.3c0.2-1.2,0.1-2.6-0.2-4.1c-0.9-1.9-1.7-3.9-2.4-5.9C41.6,258.9,36.3,254.5,28.6,241.8z"/>
<path class="st15" d="M80,288.1c-3.6,0.3-7.2,0.7-10.6,1.1c6.3-2.4,13.9-3.9,21.6-4.2c2.4-0.2,4.8-0.2,7.2,0
	c6.4,0.4,12.5,1.6,17.7,3.8c3.3,1.4,3.8,1.2,6.4,3.6c-2.5-1-4.3-1.5-6.8-2.3c-2-0.6-4-1.1-6.1-1.4c4.9,2.8,8.9,7.2,11,13.2l5.3-1.4
	c0,0,0-0.8,1.3-8.3c1-5.9,2.4-9.9,10.2-27.5c0.6-2.1,1.7-4.8,2.1-5.5c8.6-22.8,13.7-56.8,9.5-78.7l-0.7-3.5l1.7,3.3
	c5.1,12.4,4.2,33.7,0.8,52c0.1-0.2,0.1-0.5,0.2-0.7c0,0.2-0.1,0.4-0.1,0.6c5.9-19.2,7-39.1,3.8-58.1c-0.3-0.2-0.7-0.4-1-0.6
	c-0.3,0-0.6,0-0.9-0.1c-3.1-1-7.4-2.7-10.8-5.1c-0.8,0.9-1.7,1.8-2.5,2.5c2.1,1.7,4,3.3,4,3.9c-0.2,0-2.6-1.4-5.1-2.9
	c-2.4,1.9-11.6,7.1-16.6,8.5c3.7-2.2,8.7-5.6,14-10c-1.6-0.9-2.9-1.7-3.3-1.9c-0.5-0.3-0.7-1-0.3-1.5c0.3-0.5,1-0.7,1.5-0.4
	c0.5,0.3,1.9,1.3,3.5,2.5c0.6-0.6,1.3-1.1,1.9-1.7c-0.2-0.1-0.4-0.1-0.6-0.2c-0.6-0.2-0.9-0.8-0.7-1.3c0.1-0.6,0.7-0.9,1.3-0.8
	c0.6,0.2,1.2,0.4,1.8,0.6c0.4-0.4,0.8-0.8,1.2-1.2c3.9,3.7,11.8,6.1,11.8,6.1c-0.1-2.4-2.8-26.1-2.5-26.9l9.4,11.7c0,0,0,0,0,0
	l0.1,0.1c0,0-0.7-6-0.8-13.6c-1-8.7,1.6-23.6,2.4-27.7c0.4,2.7,0.6,5.4,0.5,8.1c0,0,0.1,0,0.1,0c0,0,0,0,0,0.1
	c0.7,0.3,8.1,3,8.1,2.9c-0.1-0.1-0.1-0.2-0.2-0.3l0.2,0.1c0,0-0.2-0.3-0.6-0.7c-2.6-4.1-7.6-13-7.2-20.4c0-0.7,0-1.4,0-2.1
	c0,0.7,0,1.3,0,1.9c-2.7-4.4-6.9-6.2-11.6,0.4c-1.4,2-3.1,3.8-4.9,5.4c2.9,24.3,0.9,58.5-13.7,48c-8.5-6.1-12.5-19.9-13.4-34.5
	c-2,1.2-4.8,1.8-6.7,2.2c-8,1.9-10.2,8.7-15.5,13.8l-2.3,2.1l-2.1-2.2c-4.5-4.8-9.8-13.1-16.9-13.8c-1.7-0.2-3.5-0.4-5.2-0.7
	c-1,14.1-5.1,27.2-13.3,33.1c-15.2,11-16.7-26.9-13.2-51.2c-2.4-2.5-4.7-5.5-6.7-9c-8.3-14.7-10.6-2.6-13.2,15.6l-0.1-0.1
	c0.2-0.9,0.4-2,0.5-3c-1.7,12.5-7.4,15.3-7.4,15.3l0.4-0.1c-0.2,0.2-0.4,0.2-0.4,0.2l7.9-2.8c0.2-2.5,0.5-5.1,1.2-8.3
	c0.3,15.4,2.5,19.6,2.5,29.5c0,2.3-0.1,4.9-0.4,7.9c-0.1,0.9-0.8,3.2-0.8,3.9c0,0.3,0.1,0.4,0.4,0.1l8.8-9.4
	c0.1,0.9,0.1,1.9,0.1,2.9c0,7.2-1.7,16.3-1.9,21.4c0,0,0,0,0,0c0,0,0,0.1,0,0.1c0,0,6.9-2.1,11-5.4c0.3,0.3,0.5,0.6,0.8,0.9
	c1-0.4,2-0.7,2.9-1c0.6-0.1,1.2,0.2,1.3,0.8c0.2,0.5-0.1,1.1-0.7,1.3c-0.7,0.2-1.4,0.4-2,0.6c0.7,0.8,1.4,1.5,2,2.3
	c2.1-1.6,4.2-3.1,4.8-3.5c0.5-0.3,1.2-0.1,1.5,0.4c0.4,0.5,0.2,1.2-0.3,1.5c-0.5,0.3-2.6,1.5-4.8,2.8c0.9,1,1.8,2,2.7,2.9
	c0.4,0.4,0.8,0.8,1.1,1.2c0.1,0.1,0.1,0.1,0.2,0.2c0.4,0.4,0.9,0.9,1.3,1.3c-1.2-0.1-4.2-2.1-7.1-4.5c-2.3,1.3-4.3,2.5-4.5,2.5
	c0-0.5,1.5-2,3.4-3.5c-1-0.9-2-1.7-2.9-2.5c-4.3,3.1-9.7,6-12.5,7.3c-2.9,18.7-1.6,38.4,4.4,57.2c-3.5-18.6-4.5-40.4,0.6-53l1.9-3.7
	l-0.8,4c-4.2,21.9,0.9,55.8,9.5,78.7c0.4,0.9,1.8,4,2.3,6.1c7.6,17.1,8.9,21,9.9,26.9c1.3,7.5,1.3,8.3,1.3,8.3l5.3,1.4
	C69.8,295.6,74.4,291,80,288.1z M88.1,165.9c0.1-1.6,0.6-2.1,1.2-2c0.3,2.5,1.5,4.8,2.9,6.8c0.1,0.1,0.4,0.5,0.6,0.8
	c0.3-0.3,0.6-0.7,0.7-0.8c1.5-1.9,2.8-4.2,3.3-6.5c0.9-0.6,1.6-0.4,1.6,1.7c-0.1,4.2-2.4,7.7-3.9,9.6c-1.6,2-1.8,2-3.2,0
	C89.9,173.6,87.8,170.1,88.1,165.9z M131.7,208.6c0.4-0.1,1.3-0.9,1.5-1.1c1.9-1.6,4-3.8,5.1-6.2c1.3-0.6,2.2-0.5,1.9,1.6
	c-0.6,4-4,7.3-6.2,9.2c-2.3,1.9-2.6,2-4.1,0c-1.5-1.8-3.6-5.2-2.6-9.2c0.3-1,0.6-1.6,1-1.8c-0.1,2.4,1.1,4.7,2.6,6.6
	C131,207.8,131.5,208.4,131.7,208.6z M91.3,267c-1.4-1.9-3.5-5.4-3.2-9.6c0.1-1.7,0.6-2.2,1.2-2c0.3,2.7,1.5,5.2,3,7.3
	c0.1,0.2,0.4,0.5,0.6,0.8c0.3-0.2,0.6-0.6,0.7-0.8c1.6-2.1,2.9-4.5,3.4-7.1c0.8-0.4,1.4-0.1,1.4,1.9c-0.1,4.2-2.4,7.7-3.9,9.6
	C92.9,269.1,92.7,269.1,91.3,267z M69.9,267.2c-1.7-1.9-4.2-5.4-4.4-9.6c-0.1-2.1,0.6-2.3,1.5-1.7c0.7,2.5,2.1,4.9,3.8,6.9
	c0.1,0.1,0.4,0.5,0.7,0.8c0.2-0.3,0.4-0.6,0.5-0.8c1.5-2.2,2.5-4.7,2.6-7.3c0.6-0.1,1,0.4,1.2,2c0.5,4.2-1.4,7.7-2.7,9.6
	C71.7,269.1,71.6,269.1,69.9,267.2z M58.5,212.1c-1.7,1.9-1.9,2-4.2,0c-2-1.8-5.3-5.2-5.6-9.2c-0.1-1.9,0.6-2.2,1.7-1.8
	c0.9,2.5,2.9,4.7,4.8,6.4c0.2,0.2,1,0.9,1.4,1.1c0.3-0.2,0.8-0.8,1-1c1.6-1.8,2.9-4.1,3-6.6c0.5,0.2,0.9,0.7,1.1,1.9
	C62.4,206.9,60.1,210.2,58.5,212.1z M130.7,239.6c1.3-0.9,2.3-0.9,1.9,1.5c-0.7,4.2-3.7,7.7-5.7,9.7c-2,2-2.2,2.1-3.6,0
	c-1.2-1.9-2.9-5.5-1.9-9.7c0.3-1.1,0.6-1.7,1-1.9c-0.2,2.5,0.6,5.1,2,7.3c0.1,0.2,0.3,0.5,0.5,0.8c0.4-0.3,0.9-0.8,1.1-1
	C127.8,244.4,129.7,242.1,130.7,239.6z M127.1,222.8c-0.4,4.2-3.6,7.8-5.6,9.7c-2.1,2-2.4,2-3.9,0c-1.4-1.9-3.5-5.5-2.7-9.7
	c0.3-1.2,0.7-1.8,1.1-2c-0.1,2.6,1,5.2,2.6,7.3c0.1,0.1,0.5,0.7,0.7,0.9c0.4-0.2,1.1-0.9,1.3-1.1c1.9-1.9,3.9-4.3,4.8-6.9
	C126.5,220.4,127.3,220.7,127.1,222.8z M114.1,207.3c-0.1,4-3.2,7.4-5.2,9.2c-2.1,2-2.4,2-4.1,0c-1.7-1.8-4.2-5.2-3.7-9.2
	c0.2-1.3,0.6-1.8,1.2-1.9c0.2,2.5,1.7,4.9,3.4,6.7c0.1,0.2,0.7,0.8,1,1c0.4-0.2,1.2-0.9,1.4-1.1c1.8-1.7,3.8-4,4.5-6.5
	C113.5,205.1,114.2,205.5,114.1,207.3z M103.1,246.4c0.2,0.2,0.5,0.6,0.7,0.9c0.3-0.3,0.7-0.8,0.9-1c1.8-1.9,3.4-4.4,4.1-7
	c0.9-0.5,1.6-0.2,1.5,1.8c-0.2,4.2-2.9,7.7-4.7,9.7c-1.8,2-2.1,2.1-3.5-0.1c-1.4-1.9-3.5-5.5-3-9.7c0.2-1.4,0.7-2,1.2-2
	C100.4,241.7,101.5,244.2,103.1,246.4z M96,232.5c-1.9,2-2.1,2-3.7,0c-1.7-1.9-4.2-5.5-3.9-9.7c0.1-1.5,0.6-2.1,1.2-2
	c0.1,1.3,0.5,2.5,1,3.6c0.7,1.3,1.5,2.6,2.5,3.7c0.1,0.2,0.6,0.8,0.9,1c0.4-0.3,0.9-0.9,1.1-1.1c1.8-2,3.5-4.5,4-7.2
	c0.8-0.2,1.4,0.2,1.4,2C100.5,227,97.8,230.6,96,232.5z M76.3,241.1c0.1-1.9,0.6-2.3,1.4-2c0.5,2.6,2,5.1,3.7,7.2
	c0.1,0.1,0.5,0.6,0.8,0.9c0.3-0.2,0.7-0.7,0.8-0.9c0.9-1.1,1.7-2.4,2.3-3.7c0.5-1.1,0.9-2.3,1-3.5c0.7-0.2,1.2,0.3,1.3,2
	c0.2,4.2-2.1,7.8-3.6,9.7c-1.6,2-1.8,2.1-3.6,0C78.7,248.9,76.3,245.3,76.3,241.1z M83.6,216.5c-1.9,2-2.2,2-4.1,0
	c-1.9-1.8-4.8-5.2-4.7-9.2c0.1-1.6,0.6-2,1.4-1.9c0.5,2.5,2.3,4.8,4.1,6.6c0.2,0.2,0.9,0.9,1.2,1.1c0.3-0.2,1-0.9,1.2-1.1
	c1-1,2-2.2,2.7-3.5c0.5-1,0.9-2,1.1-3.1c0.7-0.1,1.2,0.4,1.3,1.9C88.1,211.3,85.4,214.6,83.6,216.5z M63.1,220.9
	c0.7,2.7,2.5,5.2,4.4,7.1c0.2,0.2,0.8,0.9,1.1,1.1c0.3-0.2,0.8-0.8,0.9-1c1.6-2.1,3-4.6,3.1-7.3c0.6,0,1,0.6,1.2,2
	c0.6,4.2-1.7,7.8-3.3,9.7c-1.6,2-1.8,2-3.9,0c-1.9-1.9-4.8-5.5-5-9.7C61.5,220.9,62.2,220.5,63.1,220.9z M112.8,267
	c-1.2-1.9-2.9-5.4-2.1-9.6c0.2-1.3,0.6-1.9,1-2c-0.1,2.6,0.7,5.2,2.1,7.4c0.1,0.2,0.2,0.5,0.4,0.7c0.3-0.3,0.6-0.7,0.8-0.9
	c1.7-1.9,3.3-4.1,4.1-6.6c1.2-0.9,2.1-0.9,1.8,1.5c-0.5,4.2-3.3,7.7-5,9.6C114,269.1,113.8,269.1,112.8,267z M59.2,250.9
	c-1.8-1.9-4.7-5.5-5.1-9.7c-0.3-2.2,0.5-2.4,1.6-1.7c0.8,2.6,2.6,5,4.4,6.9c0.2,0.2,0.7,0.7,1,1c0.2-0.3,0.5-0.7,0.6-0.9
	c1.5-2.2,2.5-4.8,2.5-7.4c0.5,0.1,0.9,0.7,1.1,2c0.6,4.2-1.3,7.8-2.6,9.7C61.3,252.8,61.1,252.9,59.2,250.9z M120.9,159
	c-0.5,4.2-3.3,7.7-5,9.6c-1.9,2-2.1,2.1-3.2,0c-1.2-1.9-2.9-5.4-2.1-9.6c0.2-1.3,0.6-1.9,1-2c0,2.5,0.8,4.8,2.1,7
	c0.1,0.1,0.3,0.4,0.4,0.7c0.3-0.3,0.7-0.7,0.8-0.9c1.5-1.8,3-3.8,3.9-6C120.1,156.7,121.2,156.4,120.9,159z M67.2,157.4
	c0.7,2.4,2.1,4.6,3.7,6.5c0.1,0.2,0.5,0.6,0.7,0.8c0.2-0.3,0.4-0.6,0.5-0.8c1.4-2.1,2.4-4.4,2.5-6.9c0.5-0.1,1,0.4,1.2,2
	c0.5,4.2-1.4,7.7-2.7,9.6c-1.4,2-1.5,2-3.2,0c-1.7-1.9-4.2-5.4-4.4-9.6C65.4,156.7,66.2,156.7,67.2,157.4z"/>
<path class="st15" d="M176.9,187.2c-1.1-1.5-2.6-5.5-3.5-7.9c-1.7-4.7-3.4-5.5-4.2,0.8c-2.1,16.8-6.2,22.9-10.6-0.3l-0.5-2.6
	c-0.1,4.7,0.5,13.4,3.6,17.6c5,6.8,8.1-6.7,9.4-14.4c1.2,3.7,3.6,10.2,6.3,9.4s4.1-4.9,4.8-9.8c-0.5-2.9-1.2-5.7-2.1-8.5
	C180.2,177.2,179.7,183.6,176.9,187.2z"/>
<path class="st15" d="M6.2,180c0.7,4.9,2.1,9,4.8,9.8c2.7,0.8,5.1-5.7,6.3-9.4c1.3,7.7,4.4,21.2,9.4,14.4c3.1-4.2,3.7-12.9,3.6-17.6
	l-0.5,2.6c-4.4,23.2-8.5,17.1-10.6,0.3c-0.8-6.3-2.5-5.5-4.2-0.8c-0.9,2.4-2.4,6.4-3.5,7.9c-2.8-3.6-3.3-10-3.2-15.7
	C7.5,174.3,6.7,177.1,6.2,180z"/>
<path class="st15" d="M114.9,99.5h3.6c-0.4-10.6-14.1-13.1-24.8-13.3c-12.6-0.2-21.4,9.7-22,15.3h2.7v8.9h-3.6l0,0
	c0.1,1.5,0.1,3,0.2,4.6c1-0.3,2-0.4,2.9-0.6c0.7-0.1,2-0.2,2.8-0.4c3.2-2.1,7.5-8.6,9.4-11.7c2-3.1,4.9-7.4,9-7.4
	c4.1,0,7,4.3,8.9,7.5c1.4,2.3,2.6,4.8,3.9,7.1c0.6,1,1.7,3,2.8,3.5c0.5,0.2,2.4,0.1,3,0.1c2,0,3.9,0.2,5.5,1.2c0-0.8,0-1.6,0.1-2.5
	h-4.3V99.5z"/>
<path class="st15" d="M25,99.1C25,99.1,25,99.1,25,99.1C25,99.1,25,99.1,25,99.1C25,99.1,25,99.1,25,99.1z"/>
<path class="st15" d="M66.5,102.3c1.4-0.6,1.5-3.5,0.2-6.4c-1.3-2.9-3.5-4.7-4.9-4.1c-1.4,0.7-1.5,3.5-0.2,6.4
	C62.9,101.1,65.1,102.9,66.5,102.3z"/>
<path class="st15" d="M123.1,102.3c1.4,0.6,3.6-1.2,4.9-4.1c1.3-2.9,1.2-5.7-0.2-6.4c-1.4-0.6-3.6,1.2-4.9,4.1
	C121.6,98.8,121.7,101.7,123.1,102.3z"/>
<path class="st15" d="M122.7,18.6c-1,1.8-2.1,3.7-3.1,5.5c-1.2,2.2-2,6-2.5,8.5c-0.8,4.3-2.2,8.8-2.7,13.2c-0.4,3.7-0.7,7.5-1,11.2
	c16.8,1.5,32.3,5,43.1,9.8c0-0.3-0.1-0.7-0.1-1c0-0.1,0-0.1,0-0.2c0-0.3-0.1-0.6-0.1-0.9c0-0.1,0-0.1,0-0.2c0-0.3-0.1-0.7-0.1-1
	c0-0.1,0-0.1,0-0.2c-0.1-0.4-0.1-0.8-0.2-1.2c0,0,0-0.1,0-0.1c-0.2-0.9-0.3-1.9-0.5-3c0,0,0,0,0,0c-1.7-8.5-5.5-19.7-13.9-28
	c-3.3,6.2-9.8,17.4-11.7,16.3c3.8-7.1,7.4-14.1,10.8-21.3c0,0-1.7-2.6-6.1-4.8c0,0,0,0,0,0c0.2-0.4,0-0.9-0.5-1
	c-0.4-0.2-0.8,0-1,0.4c-5.2,12-4.7,10.8-6.8,15.9l-3,6.9c-2.2-1.6,3.4-15.3,5.9-21.6C127.1,20.6,124.9,19.5,122.7,18.6z"/>
<path class="st15" d="M34.4,59.2c-0.6,3-0.9,5.6-1.1,7.6c1.3-0.6,2.6-1.1,4-1.6c0,0,0-0.1,0.1-0.1c0.2-0.2,0.6-0.3,1-0.2
	c10.4-3.8,23.9-6.5,38.3-7.8c-0.9-12-2.8-26.8-6.2-33c-1-1.9-2.1-3.7-3.1-5.6c-0.7,0.3-1.3,0.6-2,0.9c0,0,0,0,0,0
	c-1.6,0.7-3.1,1.6-4.6,2.4c2.3,6.3,7.7,20.4,6.4,21.1l-0.6,0.3l-2.6-6.2c-2.3-5.7-5.9-14-6.9-16.1c0,0,0-0.1-0.1-0.1l-0.1-0.3
	c0,0-0.1,0-0.1,0.1c-0.2-0.1-0.4-0.2-0.7-0.1c-0.2,0.1-0.4,0.3-0.5,0.6C51,23.3,49.2,26,49.2,26c3.2,6.9,6.7,13.6,10.3,20.5
	c-2.4-1.9-8-10.4-11-15.5C40,39.2,36.2,50.7,34.4,59.2C34.4,59.2,34.4,59.2,34.4,59.2z"/>
<path class="st15" d="M90.7,5.2c-3.2,0.2-6.4,0.7-9.5,1.5c-1.3,0.4-8,1.7-8.8,3.5c-0.3,0.1-0.6,0.3-0.9,0.4c0.9,1.2,1.7,2.4,2.4,3.4
	c0.7,1.1,1.5,2.4,2.3,3.5c3.9,6.5,3.6,9.8,4.2,21.9c0.3,5.8,0.5,11.6,0.2,17.3c0.8-0.1,1.6-0.1,2.4-0.2c2.8-0.2,5.6-0.3,8.4-0.3
	c0.1,0,0.2,0,0.4,0c1.1,0,2.2,0,3.3,0c0.1,0,0.1,0,0.2,0c4.5,0,8.9,0.2,13.3,0.5c-0.1-1.5-0.1-3-0.2-4.5c0-1.4,0-2.8,0-4.3
	c0-1,0.1-2.1,0.1-3.1c0.1-1.8,0.2-3.5,0.2-5.3c0.1-2.1,0.2-3.9,0.3-5.5c0.5-10,0.8-12.5,7.1-21.4c0.3-0.2,0.6-0.4,0.8-0.8
	c0.1-0.2,0.2-0.5,0.2-0.7c0.2-0.3,0.4-0.5,0.6-0.8c-0.3-0.2-0.7-0.3-1-0.4c-0.1-0.1-0.3-0.3-0.4-0.4c-1.2-0.5-2.5-1-3.8-1.4
	C105.3,5.6,98,4.6,90.7,5.2z"/>
<path class="st15" d="M120.2,11.9C110.9,24,112,24,110.5,39.6c-0.5,5.7-0.9,11.4-1.6,17.1c0.7,0,1.4,0.1,2.1,0.2
	c0.8-12.2,2.5-28.6,5.7-34.4c5.4-9.6,5.4-9.6,5.4-9.6C121.5,12.5,120.9,12.1,120.2,11.9L120.2,11.9z"/>
<path class="st15" d="M72.9,22.4c3.3,5.8,4.9,22.3,5.7,34.5c0.5,0,1-0.1,1.5-0.1c-0.7-5.7-1.1-11.5-1.6-17.2
	C77,24.1,78.2,24,68.9,12c-0.5,0.3-0.9,0.5-1.4,0.8C67.5,12.8,67.5,12.8,72.9,22.4z"/>
<path class="st15" d="M61.2,116.9c-1.8,0-3.6-0.3-5.1-0.9c-5.6-2.3-10.5-8.7-11.2-16.3c-0.2-0.1-0.5-0.1-0.7,0
	c-0.8,0.1-1.3,0.9-1.1,1.6c2.5,8.7,8.5,19.4,19.3,16.4c1.3-0.4,2.3-0.9,3.2-1.5C64.2,116.7,62.7,116.9,61.2,116.9z"/>
<path class="st15" d="M156.8,70.3c-1.7-0.8-3.5-1.5-5.2-2.3c0,0,0,0,0,0c-0.1-0.1-0.3-0.1-0.4-0.1l-3.2,2.4
	c-8.5,5.2-25.2,7.1-35,7.7c-7.4,0.4-12,0-19.1-0.1l-3.6,0.3c-8.6,0.4-21.6-0.8-30.2-2.3c-8.7-1.5-14.5-3-21.6-8
	c-0.1,0-0.1,0-0.2,0.1c0,0,0,0,0,0c-1.8,0.7-3.6,1.5-5.2,2.3C39.2,86.2,150.7,86.2,156.8,70.3z"/>
<path class="st15" d="M61.1,61.4c-6.6,1.2-12.5,2.6-16.9,4.2c-0.2,0.1-0.3,0.2-0.5,0.4c-0.8,0.3-1.6,0.6-2.4,0.8
	c13.7,9,33.2,9.2,48.9,10.6l3.6,0.4c7.2,0.1,24-1.8,31.4-3.1c8.6-1.5,16-3.1,22.9-8.1C123,57.6,89.5,55.9,61.1,61.4z"/>
<path class="st15" d="M147.1,101.3c0.2-0.7-0.3-1.5-1.1-1.6c-0.4-0.1-0.7,0-1,0.1c-0.7,7.6-5.6,14-11.2,16.3
	c-1.5,0.6-3.3,0.9-5.1,0.9c-1.1,0-2.2-0.1-3.3-0.4c0.7,0.4,1.5,0.7,2.4,1C138.6,120.7,144.6,110,147.1,101.3z"/>
<path class="st15" d="M121.8,112.2c0.1,0.1,0.1,0.2,0.1,0.3l0.2,0.3c0.3,0.4,0.7,0.8,1.2,1.2C122.9,113.4,122.4,112.8,121.8,112.2z"
	/>
<path class="st15" d="M95.1,136.7c4.9-4.5,7.7-12.3,17-14.5c0.4-0.1,0.8-0.2,1.2-0.3c1.1-0.6,1.6-1.3,1-1.7c-0.2-0.2-0.9-0.1-1.8,0
	c-4.8,2.1-7.6,3.7-10.7,6.4c-2.5,2.7-4.6,5.7-6.8,8.1c-2.4-2.5-4.5-5.7-7.1-8.5c-4-3.8-7-5-12.8-6.5c-1.9,0.2-0.7,1.5,1,2.1
	c0,0,0.1,0,0.1,0C84.8,122.7,90.4,131.8,95.1,136.7z"/>
<path class="st15" d="M109.3,115.9c-3.1-1.7-4.9-7-7.9-11.8c-5-8-7.8-8-12.7,0c-4.6,7.4-8.3,11.5-10.7,12.9c-0.8,0.4-5.2,0.6-7,1.3
	c1.8,0,3.7,0.4,4.9,0.8c6.4,0.7,10.3,2.4,14.9,6.6c0.9-0.2,1.7-1.8,4.2-5.3c2.7,3.8,3.4,5.3,4.4,5.3c4.7-3.8,10-6.8,15.9-7.9
	c0.9-0.3,1.8-0.5,2.5-0.6C115.7,115.6,111.4,117,109.3,115.9z M89.5,112.5c-1.6-1.2,1.1-3.8,2.4-6.2
	C93.6,104.6,91.1,113.6,89.5,112.5z M100.5,112.5c-1.6,1.1-4.2-7.9-2.4-6.2C99.4,108.7,102.1,111.3,100.5,112.5z"/>
<path class="st15" d="M133.8,116.2c5.6-2.3,10.4-8.7,11.2-16.3c0.5-5-0.8-10.7-4.9-16c0.3,0,0.6,0,0.8,0c6.5,0,8,7.1,9.5,13.9
	c1-5.7,1.7-10.5-2.6-15.1c-2.4-2.5-5.3-3.5-8.4-3.5c-5.2,0-10.7,2.9-14.2,6.8c-3.2,3.6-5.6,8.5-6.6,13.6h-0.1h-3.6v12.4h4.3h0.5
	c0.5,1,0.9,1.9,1,1.9c0,0,0,0,0,0c1.1,1.5,2.8,2.5,4.7,2.9c1.1,0.3,2.2,0.4,3.3,0.4C130.5,117.1,132.3,116.8,133.8,116.2z
	 M126.5,87.1c3.3-3.7,8.4-6.2,12.8-6.2c2.9,0,5.3,1,7.1,2.9c0.2,0.2,0.4,0.5,0.6,0.7c-1.5-1.5-3.5-2.5-6.2-2.5c-0.3,0-0.7,0-1,0
	l-3.3,0.3l2,2.6c4.2,5.5,5.6,11.8,4,17.8c-1.4,5.3-5.2,9.9-9.5,11.8c-1.3,0.5-2.8,0.8-4.4,0.8c-2.2,0-4.1-0.5-5.4-1.4
	c-0.5-0.3-0.9-0.7-1.2-1.2l-0.2-0.3c0-0.1-0.1-0.2-0.1-0.3c-0.4-0.8-1-2.1-1.5-3.3C118.8,101.9,121.3,92.9,126.5,87.1z"/>
<path class="st15" d="M74.4,101.5h-2.7h-0.1c-0.7-5.9-3.3-11.7-7-15.8c-3.4-3.9-9-6.8-14.2-6.8c-3.1,0-6.1,1-8.4,3.5
	c-2.4,2.6-3.3,5.2-3.3,8.1c-0.1,2.2,0.3,4.5,0.7,7c1.5-6.8,3.1-13.9,9.5-13.9c0.3,0,0.6,0,0.9,0c-4.1,5.4-5.4,11-4.9,16.1
	c0.7,7.6,5.6,14,11.2,16.3c1.5,0.6,3.3,0.9,5.1,0.9c1.5,0,3-0.2,4.4-0.7c1.4-0.5,2.7-1.3,3.5-2.5c0,0,0,0,0,0c0.1,0,1-2,1.6-3.3h0.1
	h3.6V101.5z M67.7,112.6L67.7,112.6c-1.3,1.6-3.7,2.6-6.6,2.6c-1.6,0-3.1-0.3-4.4-0.8c-4.4-1.8-8.1-6.4-9.5-11.7
	c-1.6-6-0.2-12.4,4-17.9l2-2.6L50,81.9c-0.4,0-0.7-0.1-1.1-0.1c-2.7,0-4.7,1-6.2,2.5c0.2-0.2,0.4-0.5,0.6-0.7
	c1.9-1.9,4.3-2.9,7.1-2.9c4.4,0,9.5,2.5,12.8,6.2c5.2,5.8,7.8,14.8,6.2,21.8C68.8,110.2,68,112,67.7,112.6z"/>
</svg>
