<svg xmlns="http://www.w3.org/2000/svg" xmlns:xlink="http://www.w3.org/1999/xlink" viewBox="0 0 720 720"><defs><style>.cls-1{fill:url(#linear-gradient);}.cls-2{fill:url(#linear-gradient-2);}.cls-3{fill:url(#linear-gradient-3);}.cls-4{fill:#fff;}</style><linearGradient id="linear-gradient" x1="195.09293" y1="294.83741" x2="222.6708" y2="485.3754" gradientUnits="userSpaceOnUse"><stop offset="0.28449"/><stop offset="1" stop-color="#fff"/></linearGradient><linearGradient id="linear-gradient-2" x1="232.67178" y1="330.16456" x2="267.77089" y2="476.82867" gradientUnits="userSpaceOnUse"><stop offset="0.28449"/><stop offset="0.96976" stop-color="#f4f4f4"/><stop offset="1" stop-color="#fff" stop-opacity="0.6"/></linearGradient><linearGradient id="linear-gradient-3" x1="268.17227" y1="312.74466" x2="303.27137" y2="470.69063" xlink:href="#linear-gradient"/></defs><title>openhorizon-icon-black</title><g id="Layer_6" data-name="Layer 6"><path d="M462.2876,511.16369l-.189-.3031a11.2972,11.2972,0,0,1,2.88668-15.091A137.96913,137.96913,0,0,0,505.62357,320.5137a11.297,11.297,0,0,1,4.05048-14.82123l.31151-.19422a11.31635,11.31635,0,0,1,16.003,4.30919,160.94917,160.94917,0,0,1-47.43484,204.5309A11.31637,11.31637,0,0,1,462.2876,511.16369Z"/><path d="M437.84893,471.96658l-.19445-.31175a11.28986,11.28986,0,0,1,2.57068-14.85125A91.98593,91.98593,0,0,0,466.2397,344.60347a11.2898,11.2898,0,0,1,4.22863-14.467l.31182-.19434a11.34631,11.34631,0,0,1,16.221,4.74316A114.98748,114.98748,0,0,1,454.502,474.8475,11.34633,11.34633,0,0,1,437.84893,471.96658Z"/><path d="M413.243,432.50128l-.19768-.31706a11.428,11.428,0,0,1,1.98142-14.35748,46.0125,46.0125,0,0,0,11.43116-49.3166,11.42775,11.42775,0,0,1,4.5401-13.76468l.31715-.19766a11.305,11.305,0,0,1,16.54868,5.50872,69.02528,69.02528,0,0,1-17.33639,74.78224A11.30478,11.30478,0,0,1,413.243,432.50128Z"/></g><g id="Layer_5" data-name="Layer 5"><path d="M632.54013,401.1634a81.07305,81.07305,0,0,0-36.01989,8.38776,107.561,107.561,0,0,0-193.851.6438c-.85789-.02838-1.718-.04785-2.58277-.04785a76.93586,76.93586,0,0,0-76.14038,65.94916A44.30445,44.30445,0,0,0,302.95,488.38a44.31066,44.31066,0,0,0-20.43753-12.12924,81.18879,81.18879,0,0,0-53.4548-70.3197,102.19677,102.19677,0,0,0-187.189,45.05786A58.96258,58.96258,0,0,0,65.443,563.99327c.56358,0,1.12482-.00973,1.68459-.0255v.0255H638.15506v-.1963a81.41367,81.41367,0,0,0-5.61493-162.63357Z"/></g><g id="Layer_11" data-name="Layer 11"><path d="M476.029,261.98874l-.27324.27322a12.22183,12.22183,0,0,1-16.60962.64628,149.26141,149.26141,0,0,0-194.6304.0075,12.22166,12.22166,0,0,1-16.60973-.64618l-.28082-.28082a12.24256,12.24256,0,0,1,.63-17.91839,174.12231,174.12231,0,0,1,227.14385,0A12.24258,12.24258,0,0,1,476.029,261.98874Z"/><path d="M440.69331,297.3244l-.281.28112a12.2139,12.2139,0,0,1-16.27968.9207,99.51464,99.51464,0,0,0-124.60326.0073,12.21385,12.21385,0,0,1-16.28-.92049l-.281-.28112a12.275,12.275,0,0,1,1.034-18.25424,124.39879,124.39879,0,0,1,155.65678-.0077A12.275,12.275,0,0,1,440.69331,297.3244Z"/><path d="M405.11585,332.90187l-.28583.28582a12.36333,12.36333,0,0,1-15.61527,1.421,49.77845,49.77845,0,0,0-54.7675.0067,12.363,12.363,0,0,1-15.61592-1.42041l-.28582-.28592a12.23025,12.23025,0,0,1,1.76075-18.78666,74.67475,74.67475,0,0,1,83.04843-.0075A12.23,12.23,0,0,1,405.11585,332.90187Z"/><path d="M374.27534,369.35952a17.60285,17.60285,0,1,1-24.8888.0054A17.58993,17.58993,0,0,1,374.27534,369.35952Z"/><path class="cls-1" d="M217.65983,303.7123l.28483.20045a11.01652,11.01652,0,0,1,3.13918,14.65037,134.54121,134.54121,0,0,0,30.06608,172.84036,11.01635,11.01635,0,0,1,1.99143,14.85006l-.206.29276a11.03519,11.03519,0,0,1-16.00972,2.20793,156.95031,156.95031,0,0,1-35.08091-201.71508A11.0352,11.0352,0,0,1,217.65983,303.7123Z"/><path class="cls-2" d="M254.497,329.63479l.293.20614a11.00936,11.00936,0,0,1,3.33191,14.315A89.70049,89.70049,0,0,0,277.37266,454.8087a11.0093,11.0093,0,0,1,1.69689,14.5996l-.20624.293a11.06441,11.06441,0,0,1-16.37037,1.901,112.13057,112.13057,0,0,1-24.047-138.22981A11.06442,11.06442,0,0,1,254.497,329.63479Z"/><path class="cls-3" d="M291.58631,355.73464l.298.20968a11.14407,11.14407,0,0,1,3.67361,13.64768,44.8693,44.8693,0,0,0,8.46444,48.63524,11.14382,11.14382,0,0,1,1.15038,14.08709l-.20977.298a11.02411,11.02411,0,0,1-16.95543,1.33784,67.31034,67.31034,0,0,1-12.833-73.75A11.0239,11.0239,0,0,1,291.58631,355.73464Z"/></g><g id="dots"><circle cx="362.18639" cy="131.37114" r="19.37114"/><circle cx="203.35111" cy="187.95628" r="19.37114"/><circle cx="118.04845" cy="333.40036" r="19.37114"/><circle class="cls-4" cx="138.04807" cy="464.43458" r="10.23097"/><circle class="cls-4" cx="582.18059" cy="464.43458" r="10.23097"/><circle cx="603.54044" cy="336.71807" r="19.37114"/><circle cx="520.2335" cy="190.12176" r="19.37114"/></g></svg>