<svg xmlns="http://www.w3.org/2000/svg" xmlns:xlink="http://www.w3.org/1999/xlink" viewBox="0 0 720 720"><defs><style>.cls-1{fill:#2ad6ff;}.cls-2{fill:url(#linear-gradient);}.cls-3{fill:url(#linear-gradient-2);}.cls-4{fill:url(#linear-gradient-3);}.cls-5{fill:url(#linear-gradient-4);}.cls-6{fill:url(#linear-gradient-5);}.cls-7{fill:url(#linear-gradient-6);}.cls-8{fill:url(#linear-gradient-7);}.cls-9{fill:url(#linear-gradient-8);}.cls-10{fill:url(#linear-gradient-9);}.cls-11{fill:url(#linear-gradient-10);}.cls-12{fill:url(#linear-gradient-11);}.cls-13{fill:url(#linear-gradient-12);}.cls-14{fill:#0071bc;}.cls-15{fill:#fff;}</style><linearGradient id="linear-gradient" x1="353.63979" y1="327.2949" x2="353.63979" y2="537.06851" gradientUnits="userSpaceOnUse"><stop offset="0" stop-color="#7fd6ff"/><stop offset="0.06612" stop-color="#77c3f4"/><stop offset="0.32037" stop-color="#597ecb"/><stop offset="0.5499" stop-color="#4148aa"/><stop offset="0.74676" stop-color="#302193"/><stop offset="0.90317" stop-color="#260984"/><stop offset="0.99965" stop-color="#22007f"/></linearGradient><linearGradient id="linear-gradient-2" x1="150.54957" y1="327.2949" x2="150.54957" y2="537.06851" xlink:href="#linear-gradient"/><linearGradient id="linear-gradient-3" x1="496.48428" y1="327.2949" x2="496.48428" y2="537.06851" xlink:href="#linear-gradient"/><linearGradient id="linear-gradient-4" x1="74.76561" y1="327.2949" x2="74.76561" y2="537.06851" xlink:href="#linear-gradient"/><linearGradient id="linear-gradient-5" x1="625.42605" y1="327.2949" x2="625.42605" y2="537.06851" xlink:href="#linear-gradient"/><linearGradient id="linear-gradient-6" x1="399.70979" y1="327.2949" x2="399.70979" y2="537.06851" xlink:href="#linear-gradient"/><linearGradient id="linear-gradient-7" x1="206.97864" y1="327.2949" x2="206.97864" y2="537.06851" xlink:href="#linear-gradient"/><linearGradient id="linear-gradient-8" x1="274.31187" y1="327.2949" x2="274.31187" y2="537.06851" xlink:href="#linear-gradient"/><linearGradient id="linear-gradient-9" x1="336.46562" y1="327.2949" x2="336.46562" y2="537.06851" xlink:href="#linear-gradient"/><linearGradient id="linear-gradient-10" x1="200.6578" y1="291.53806" x2="227.43635" y2="476.55351" gradientUnits="userSpaceOnUse"><stop offset="0.64873" stop-color="#2ad6ff"/><stop offset="0.69226" stop-color="#2ad3fd" stop-opacity="0.98412"/><stop offset="0.73628" stop-color="#2accf8" stop-opacity="0.93649"/><stop offset="0.78057" stop-color="#2bbeef" stop-opacity="0.85693"/><stop offset="0.82505" stop-color="#2bace3" stop-opacity="0.74529"/><stop offset="0.86967" stop-color="#2c94d4" stop-opacity="0.60146"/><stop offset="0.91444" stop-color="#2c77c0" stop-opacity="0.42528"/><stop offset="0.95844" stop-color="#2d55aa" stop-opacity="0.22107"/><stop offset="1" stop-color="#2e3192" stop-opacity="0"/></linearGradient><linearGradient id="linear-gradient-11" x1="237.07951" y1="328.72894" x2="277.24734" y2="484.53143" gradientUnits="userSpaceOnUse"><stop offset="0.04869" stop-color="#2ad6ff"/><stop offset="0.54454" stop-color="#7fd6ff" stop-opacity="0.8"/><stop offset="0.85488" stop-color="#4763b3" stop-opacity="0.24202"/><stop offset="1" stop-color="#2e3192" stop-opacity="0"/></linearGradient><linearGradient id="linear-gradient-12" x1="271.619" y1="308.92629" x2="305.7008" y2="462.29436" gradientUnits="userSpaceOnUse"><stop offset="0.30215" stop-color="#2ad6ff"/><stop offset="0.34888" stop-color="#3cdaff" stop-opacity="0.91449"/><stop offset="0.53402" stop-color="#80e7ff" stop-opacity="0.594"/><stop offset="0.69821" stop-color="#b7f1ff" stop-opacity="0.33921"/><stop offset="0.83531" stop-color="#def9ff" stop-opacity="0.15532"/><stop offset="0.94003" stop-color="#f6fdff" stop-opacity="0.0422"/><stop offset="1" stop-color="#fff" stop-opacity="0"/></linearGradient></defs><title>openhorizon-icon-color</title><g id="Layer_6" data-name="Layer 6"><path class="cls-1" d="M460.10811,501.59435l-.18348-.29431a10.96976,10.96976,0,0,1,2.803-14.65364A133.97024,133.97024,0,0,0,502.188,316.47015a10.9696,10.9696,0,0,1,3.93309-14.39165l.30248-.18859a10.98836,10.98836,0,0,1,15.53916,4.18429,156.28424,156.28424,0,0,1-46.06,198.60279A10.98838,10.98838,0,0,1,460.10811,501.59435Z"/><path class="cls-1" d="M436.37777,463.53334l-.18881-.30272a10.96264,10.96264,0,0,1,2.49617-14.42081,89.3198,89.3198,0,0,0,25.26053-108.9481,10.9626,10.9626,0,0,1,4.10608-14.04772l.30278-.1887a11.01746,11.01746,0,0,1,15.75087,4.60569A111.65468,111.65468,0,0,1,452.5482,466.33075,11.01745,11.01745,0,0,1,436.37777,463.53334Z"/><path class="cls-1" d="M412.48505,425.21189l-.192-.30787a11.09675,11.09675,0,0,1,1.924-13.94134,44.67887,44.67887,0,0,0,11.09983-47.88722,11.09652,11.09652,0,0,1,4.40852-13.36572l.308-.19193a10.97732,10.97732,0,0,1,16.069,5.34906,67.02466,67.02466,0,0,1-16.83392,72.61475A10.97711,10.97711,0,0,1,412.48505,425.21189Z"/></g><g id="Layer_5" data-name="Layer 5"><rect class="cls-2" x="76.40135" y="503.82402" width="554.47689" height="49.06871"/><circle class="cls-3" cx="150.54957" cy="453.66481" r="99.22792"/><circle class="cls-4" cx="496.48428" cy="448.48533" r="104.4074"/><circle class="cls-5" cx="74.76561" cy="495.64585" r="57.24688"/><circle class="cls-6" cx="625.42605" cy="473.83752" r="79.05521"/><circle class="cls-7" cx="399.70979" cy="478.19918" r="74.69355"/><circle class="cls-8" cx="206.97864" cy="473.56491" r="78.78261"/><circle class="cls-9" cx="274.31187" cy="509.27606" r="43.07146"/><circle class="cls-10" cx="336.46562" cy="509.27606" r="43.07146"/></g><g id="Layer_11" data-name="Layer 11"><path class="cls-1" d="M473.45123,259.64148l-.26533.2653a11.86761,11.86761,0,0,1-16.12821.62754,144.93521,144.93521,0,0,0-188.98924.00729,11.86744,11.86744,0,0,1-16.12831-.62745l-.27269-.27268a11.88772,11.88772,0,0,1,.61172-17.399,169.07552,169.07552,0,0,1,220.56032,0A11.88774,11.88774,0,0,1,473.45123,259.64148Z"/><path class="cls-1" d="M439.13971,293.953l-.27288.273a11.85988,11.85988,0,0,1-15.80783.894,96.63032,96.63032,0,0,0-120.99177.0071,11.85984,11.85984,0,0,1-15.80812-.89382l-.27288-.273a11.91919,11.91919,0,0,1,1.00408-17.72515,120.79321,120.79321,0,0,1,151.14523-.00748A11.91918,11.91918,0,0,1,439.13971,293.953Z"/><path class="cls-1" d="M404.59342,328.49926l-.27754.27754a12.005,12.005,0,0,1-15.16268,1.37982,48.33569,48.33569,0,0,0-53.18012.00651,12.00472,12.00472,0,0,1-15.16331-1.37924l-.27754-.27763a11.87577,11.87577,0,0,1,1.70972-18.24215,72.5104,72.5104,0,0,1,80.64136-.00729A11.87556,11.87556,0,0,1,404.59342,328.49926Z"/><path class="cls-1" d="M374.64679,363.90023a17.09265,17.09265,0,1,1-24.16742.00525A17.0801,17.0801,0,0,1,374.64679,363.90023Z"/><path class="cls-11" d="M222.57062,300.15572l.27658.19465a10.69722,10.69722,0,0,1,3.04819,14.22574A130.64166,130.64166,0,0,0,255.09,482.40687a10.69706,10.69706,0,0,1,1.93371,14.41966l-.2.28426a10.71534,10.71534,0,0,1-15.54569,2.14394,152.40128,152.40128,0,0,1-34.06413-195.86859A10.71537,10.71537,0,0,1,222.57062,300.15572Z"/><path class="cls-12" d="M258.34013,325.32687l.28456.20017A10.69028,10.69028,0,0,1,261.86,339.42711a87.10062,87.10062,0,0,0,18.69269,107.44564,10.69022,10.69022,0,0,1,1.64772,14.17645l-.20027.28449a10.74373,10.74373,0,0,1-15.8959,1.84587,108.88058,108.88058,0,0,1-23.35005-134.22337A10.74372,10.74372,0,0,1,258.34013,325.32687Z"/><path class="cls-13" d="M294.35442,350.67025l.28933.2036a10.82107,10.82107,0,0,1,3.56713,13.25212,43.56882,43.56882,0,0,0,8.21911,47.2256,10.82082,10.82082,0,0,1,1.117,13.67879l-.20369.28935a10.70457,10.70457,0,0,1-16.464,1.29906,65.3594,65.3594,0,0,1-12.461-71.61243A10.70439,10.70439,0,0,1,294.35442,350.67025Z"/></g><g id="dots"><circle class="cls-14" cx="362.90823" cy="132.80969" r="18.80969"/><circle class="cls-14" cx="208.67662" cy="187.75477" r="18.80969"/><circle class="cls-14" cx="125.84637" cy="328.9833" r="18.80969"/><circle class="cls-15" cx="145.26632" cy="456.21964" r="9.93444"/><circle class="cls-15" cx="576.52613" cy="456.21964" r="9.93444"/><circle class="cls-14" cx="597.26689" cy="332.20486" r="18.80969"/><circle class="cls-14" cx="516.37451" cy="189.85748" r="18.80969"/></g></svg>