<?xml version="1.0" encoding="utf-8"?>
<!-- Generator: Adobe Illustrator 23.0.6, SVG Export Plug-In . SVG Version: 6.00 Build 0)  -->
<svg version="1.1" id="Layer_1" xmlns="http://www.w3.org/2000/svg" xmlns:xlink="http://www.w3.org/1999/xlink" x="0px" y="0px"
	 viewBox="0 0 192.8 340.9" style="enable-background:new 0 0 192.8 340.9;" xml:space="preserve">
<style type="text/css">
	.st0{fill-rule:evenodd;clip-rule:evenodd;fill:#050505;}
	.st1{fill-rule:evenodd;clip-rule:evenodd;fill:#2B2B28;}
	.st2{fill-rule:evenodd;clip-rule:evenodd;fill:#FFCC04;}
	.st3{fill-rule:evenodd;clip-rule:evenodd;fill:#EF8B22;}
	.st4{fill-rule:evenodd;clip-rule:evenodd;fill:#FFFFFF;}
	.st5{fill-rule:evenodd;clip-rule:evenodd;fill:#3F3E3B;}
	.st6{fill-rule:evenodd;clip-rule:evenodd;fill:#8E764C;}
	.st7{fill-rule:evenodd;clip-rule:evenodd;fill:#917E56;}
	.st8{fill-rule:evenodd;clip-rule:evenodd;fill:#B99B60;}
	.st9{fill-rule:evenodd;clip-rule:evenodd;fill:#60605E;}
	.st10{fill:#050505;}
	.st11{fill:#2B2B28;}
	.st12{fill:#FFCC04;}
	.st13{fill:#EF8B22;}
	.st14{fill:#FFFFFF;}
	.st15{fill:#3F3E3B;}
	.st16{fill:#8E764C;}
	.st17{fill:#917E56;}
	.st18{fill:#B99B60;}
	.st19{fill:#60605E;}
	.st20{fill:#525252;}
	.st21{fill-rule:evenodd;clip-rule:evenodd;fill:#525252;}
</style>
<g>
	<path class="st14" d="M166.7,138.8c0-3.5,0.3-7.1,0.9-10.5l0.5,0.1c2.8,1,6.1,2,9.1,1.9c0.7,0,1.3-0.4,1.6-1
		c0.3-0.6,0.2-1.3-0.2-1.9c-1.5-2-2.7-4.1-3.6-6.4c-0.6-1.5-1-3.2-1.7-4.6c-0.5-0.9-0.9-1.8-1.3-2.8c-0.5-2-0.9-4.1-1.3-6.2
		c-0.2-0.8-0.3-1.6-0.4-2.4c0-0.4-0.1-0.9-0.1-1.2c0.5-9.8-2.1-22.5-6.2-31.6c0-0.4,0.1-0.8,0.1-1.2c0-0.2,0-0.4,0-0.6
		c0-0.2,0-0.5,0-0.7c-0.2-4.9-1-10.1-2.2-14.9c-2.5-10-7-19.7-14.3-27.1c0.6-1.5,0.4-3.2-0.5-4.6c-2.1-3.2-6.3-5.9-9.8-7.3
		c-1.7-0.7-3.6-0.4-4.9,0.7c-1.1-0.6-2.2-1.2-3.3-1.7c0.4-1.1,0.5-2.3,0.2-3.4c-0.3-1.3-1.1-2.4-2.3-3.1
		c-19.2-11.2-40.2-11.2-59.5,0c-1.2,0.7-1.9,1.8-2.3,3.1c-0.3,1.2-0.3,2.3,0.2,3.4c-1.1,0.5-2.2,1.1-3.3,1.7c-1.3-1-3.1-1.4-4.8-0.7
		c-3.5,1.4-7.7,4.1-9.8,7.3c-0.9,1.4-1.1,3.1-0.5,4.6C39.6,35,35.1,44.8,32.7,54.8c-1.2,4.7-2.1,10-2.2,14.9c0,0.2,0,0.5,0,0.7
		c0,0.1,0,0.2,0,0.3c-1.8,3.5-3.3,7.3-4.6,11c-1.8,5.1-3.6,12.1-3.4,17.5c0.2,5.7-0.1,12.9-2.7,18v0.1c-0.1,0.3-0.2,0.6-0.4,0.9
		c-0.6,1-1.2,1.9-1.8,2.9c-0.6,0.9-2.7,3.9-3.6,4.4c-0.8,0.3-1.3,1.1-1.1,2c0.1,0.8,0.8,1.5,1.7,1.5c1.9,0.1,3.9,0,5.7-0.2
		c1.1-0.2,2.5-0.3,3.8-0.5c0.4,3.5,1,7,2,10.4c-6.1,4.9-11.3,11.9-14.9,18.7c-6.4,11.9-9.5,25.6-8.8,39.1
		c0.7,13.2,8.9,29.1,15.5,40.4c5.7,9.8,12.1,19.2,19,28.2c2.4,3.2,4.9,6.3,7.5,9.2c1.6,1.7,3.9,4.4,6.3,5c0.6,0.2,1.2,0.2,1.8,0.2
		c0.5-0.1,1-0.1,1.5-0.3c0,0.1,0.1,0.1,0.1,0.2c1.6,3.8,3.2,7.7,4,11.8c0.1,0.6,0.2,1.2,0.3,1.8c0.3,2.1,0.7,4.2,1,6.3
		c0,0.3,0.1,0.6,0.1,0.9c-0.1,0.4-0.1,0.9-0.2,1.3c-1.6,0.1-3.3,0.2-4.9,0.3c-4.7,0.3-9.4,0.7-14,1.3c-5,0.6-10.3,1.5-15.1,3.1
		c-4.4,1.5-9.3,4-10.6,8.9c-0.6,2-0.4,4.1,0.4,6c1.2,3.1,4.1,5.1,7.3,5.7c-0.4,2.1-0.1,4.2,1,6.1c2.9,5,9.4,5.9,14.3,3.2
		c0.4-0.3,0.8-0.5,1.1-0.8c0.3,0.8,0.7,1.6,1.3,2.4c2.3,2.9,6.2,3.7,9.7,2.8c1.1-0.3,2.1-0.8,3-1.5c1.4-1.1,2.1-2.3,2.9-3.8
		c0.5-0.9,0.9-1.9,1.6-2.6c0.3-0.3,0.5-0.7,0.8-1.1c0.4-0.6,0.8-1.2,1.2-1.8c1.2-1.6,2.3-3.1,3.5-4.7c0.4-0.5,0.8-1,1.2-1.5
		c1.6-2,3.4-3.9,5.4-5.7c0.6-0.6,1.2-1.1,1.8-1.6c0.4-0.3,1-0.7,1.2-1.2c0.9-1.8,0.9-5.3,0.9-7.3c0.1-0.9,0.1-1.8,0.1-2.7
		c0.4-0.5,0.8-1.1,1-1.7c0.8-2.4,2.1-4.6,3.8-6.4c0.5,0.4,0.9,0.8,1.4,1.2c4.5,3.9,9.3,7.5,14.4,10.6c3,1.9,8.4,5.3,12.1,4.4
		c2.4-0.6,3.8-2.1,4.6-4.1c2.8,1.2,5.6,2.4,8.4,3.3c0.1,1,0.3,2,0.7,2.8c0.3,0.5,0.8,0.9,1.2,1.2c0.6,0.5,1.2,1.1,1.8,1.6
		c1.9,1.7,3.7,3.7,5.4,5.7c0.4,0.5,0.8,1,1.2,1.5c1.2,1.5,2.4,3.1,3.5,4.7c0.4,0.6,0.8,1.2,1.2,1.8c0.2,0.4,0.5,0.8,0.8,1.1
		c0.7,0.8,1.1,1.7,1.6,2.6c0.8,1.5,1.6,2.8,2.9,3.8c0.9,0.7,1.9,1.2,3,1.5c3.5,0.9,7.4,0.2,9.7-2.8c0.6-0.8,1-1.6,1.3-2.4
		c0.3,0.3,0.7,0.6,1.1,0.8c4.9,2.7,11.4,1.9,14.3-3.2c1.1-1.9,1.4-4,1-6.1c3.1-0.6,6.1-2.7,7.3-5.7c0.7-1.9,0.9-4,0.4-6
		c-1.3-4.9-6.2-7.4-10.6-8.9c-4.1-1.4-8.5-2.2-12.9-2.8c0.1-0.1,0.1-0.3,0.2-0.4c0.5-1.5,0.5-3.2-0.2-4.6c-1.1-2.5-3.8-4.7-6.4-6.3
		c0.4-0.5,0.8-1,1.5-1.7c1.8-4.1-1.2-7.9-4.2-10.4c-0.5-0.4-1-0.9-1.5-1.3c1.9-1.1,3.6-3.1,4.9-4.5c2.6-3,5.1-6.1,7.5-9.2
		c6.9-9,13.3-18.4,19-28.2c6.7-11.3,14.8-27.2,15.5-40.4c0.7-13.5-2.5-27.2-8.8-39.1C177.8,150.6,172.8,143.7,166.7,138.8z
		 M188.4,196.3c-0.7,12.8-8.8,28.7-15.2,39.6c-5.7,9.7-12.1,19.1-18.9,28c-2.4,3.1-4.8,6.2-7.4,9.1c-0.9,1.1-2.5,2.9-4.1,3.9
		c-0.6,0.4-1.1,0.7-1.6,0.8c-0.4,0.1-0.8,0.1-1.2,0.1c-0.1,0-0.2,0-0.2,0c0.6,0.6,1.3,1.2,1.9,1.7c0.7,0.6,1.4,1.2,2.1,1.8
		c2.3,2,5.1,5,3.7,8.3c-1.1,1.4-2.1,2.3-3.2,2.8c2.9,1.6,6.8,4.1,8,6.8c0.4,1,0.5,2.1,0.1,3.1c-0.1,0.3-0.3,0.5-0.4,0.8
		c0,0,0,0.1-0.1,0.1c-0.6,0.8-1.4,1.2-2.3,1.5c0.6,0.1,1.3,0.1,1.9,0.2c4.9,0.6,10.1,1.5,14.7,3c3.3,1.2,7.3,2.9,8.9,6.2
		c0.3,0.5,0.5,1,0.6,1.6c0.4,1.6,0.2,3.3-0.4,4.8c-1.2,3.1-4.8,4.9-8.1,4.7c0.1,0.2,0.2,0.5,0.3,0.7c0.8,2,0.7,4.2-0.4,6.1
		c-2.4,4.2-7.8,4.7-11.8,2.5c-1.2-0.6-1.7-1.6-2.2-2.7c-0.2-0.3-0.3-0.6-0.5-0.9c-0.1-0.1-0.2-0.4-0.3-0.6c0,0,0,0,0,0
		c-0.4-0.3-0.9-0.6-1.3-0.9c1.1,2.4,1.3,5-0.4,7.2c-1.9,2.4-5,2.9-7.8,2.2c-0.8-0.2-1.6-0.6-2.3-1.1c-2.1-1.7-2.5-4.2-4.2-6.1
		c-0.1-0.1-0.3-0.4-0.5-0.8c-0.8-1.1-2.4-3.5-4.2-5.9c-0.6-0.8-1.2-1.6-1.9-2.3c-4.1-5.1-8.1-7.9-8.2-8.2c0,0,0-0.1-0.1-0.2
		c0,0,0,0,0,0c-0.3-0.7-0.5-1.9-0.6-3.2c-3.9-1.2-7.7-2.7-11.3-4.4c-0.3,2-1.1,3.7-2.9,4.5c-0.3,0.2-0.6,0.3-1,0.4
		c-2.9,0.8-8.3-2.6-10.7-4.1c-4.9-3.1-9.8-6.6-14.2-10.4c-0.8-0.7-1.6-1.4-2.4-2.1c-2.4,2.2-4.4,5-5.5,8.3c-0.2,0.6-0.6,1.1-1.1,1.5
		c-0.1,3.4,0,8.1-0.8,9.6c0,0,0,0,0,0.1c0,0,0,0.1-0.1,0.1c-0.1,0.3-4.1,3.1-8.2,8.2c-3.1,3.7-6.1,8.4-6.6,9
		c-1.7,1.9-2.1,4.4-4.2,6.1c-0.7,0.5-1.5,0.9-2.3,1.1c-2.8,0.7-5.9,0.2-7.8-2.2c-1.8-2.2-1.6-4.8-0.5-7.2c-0.4,0.3-0.8,0.5-1.1,0.8
		c-0.1,0.2-0.2,0.4-0.3,0.5c-0.5,1.1-1,2.2-1.8,3c-0.3,0.3-0.6,0.6-1.1,0.8c-4,2.2-9.4,1.7-11.8-2.5c-1.1-1.9-1.2-4.1-0.4-6.1
		c0.1-0.2,0.2-0.5,0.3-0.7c-3.3,0.2-6.9-1.6-8.1-4.7c-0.6-1.5-0.8-3.2-0.4-4.8c0.4-1.4,1.1-2.6,2.1-3.5c2-2.1,4.9-3.4,7.5-4.3
		c4.7-1.6,9.9-2.4,14.7-3c4.6-0.6,9.2-1,13.9-1.3c1.7-0.1,3.4-0.2,5.2-0.3c0.3,0,0.7-0.1,1-0.1c0.1-0.3,0.1-0.7,0.2-0.9
		c0.1-0.8,0.2-1.7,0.3-2.5c0-0.2-0.1-0.4-0.1-0.6c-0.3-2.1-0.7-4.2-1-6.3c-0.1-0.6-0.2-1.2-0.3-1.8c-0.9-4.2-2.4-8.2-4.1-12.1
		c-0.3-0.8-0.6-1.5-0.9-2.3c-0.7,0.6-1.5,0.9-2.5,1c-0.4,0-0.8,0-1.2-0.1c-1.8-0.4-4.2-3.1-5.4-4.5c-2.6-2.9-5.1-6-7.4-9.1
		c-6.8-8.9-13.3-18.3-18.9-28c-6.4-10.9-14.6-26.8-15.2-39.6c-0.7-13.2,2.4-26.5,8.6-38.1c2.7-5,6.4-10.4,10.7-14.8
		c0.1-0.1,0.2-0.2,0.3-0.3c0.6-0.6,1.2-1.1,1.7-1.6c0.3-0.3,0.7-0.6,1.1-0.9c0.3-0.3,0.6-0.5,1-0.8c0.1-0.1,0.2-0.2,0.3-0.3
		c0,0,0-0.1,0-0.1c-1.4-4.1-2.1-8.4-2.6-13.3c-0.1,0-0.2,0-0.3,0c-2.6,0.6-8,1-10.3,0.9c0.1,0,0.1-0.1,0.2-0.1c-0.3,0-0.5,0-0.8,0
		c1.6-0.6,5.2-6,6.8-9.2c2.7-5.5,3.1-12.9,2.9-18.9c-0.3-7.3,3.8-20.2,8.2-28.1c0-0.4,0-0.7,0.1-1.1c0.2-4.7,1.1-10,2.1-14.4
		c2.4-10.3,7.2-20,14.8-27.2c-0.2-0.3-0.3-0.5-0.4-0.7c-0.5-1.1-0.4-2.3,0.2-3.3c0.5-0.7,1.1-1.5,1.8-2.1c2.1-2,5-3.7,7.4-4.7
		c1.4-0.6,3,0,3.8,1.3c1.9-1.1,3.9-2.1,5.8-2.9c-0.2-0.4-0.4-0.8-0.6-1.2c-0.4-0.8-0.5-1.6-0.3-2.5c0.2-0.7,0.5-1.2,1-1.6
		c0.2-0.2,0.5-0.5,0.8-0.7c18.7-10.9,39-10.9,57.7,0c0.8,0.4,1.3,1.1,1.5,2c0.2,0.9,0.1,1.7-0.3,2.5l-0.7,1.3c2,0.9,4.1,1.9,6,3
		c0.3-0.4,0.7-0.7,1.2-0.9c0.8-0.5,1.9-0.7,2.8-0.3c3.1,1.2,7.1,3.7,9,6.6c0.7,1,0.7,2.2,0.2,3.3c-0.1,0.2-0.2,0.4-0.4,0.7
		c7.6,7.2,12.2,16.9,14.7,27.2c1.1,4.4,2,9.9,2.1,14.6c0,0.2,0,0.4,0,0.5c0,0.2,0,0.4,0,0.7c0,0.5-0.1,0.9-0.3,1.3
		c4.5,9.5,6.8,22.5,6.4,31.4c-0.1,1.2,0.8,5.8,1.8,10.4c0.4,1.1,0.9,2.1,1.4,3.1c1.2,2.2,1.3,5.8,5.5,11.3c-0.2,0-0.3,0-0.5,0
		c0.1,0.1,0.2,0.3,0.3,0.4c-3.5,0.1-7.7-1.5-10.2-2.4l-0.7,0c-0.9,4.4-1.3,8.9-1.3,13.3c6.3,4.9,11.5,12,15,18.6
		C186,169.8,189,183.2,188.4,196.3z"/>
	<path class="st14" d="M67.6,313c1.5-2.3,1-3.8,1.2-5.3c0.1-0.8,0.2-1.7,0.3-2.6c0,0-0.1,0-0.1,0l-5.3-1.4c-0.4-0.1-0.7-0.2-1-0.4
		c-0.3,0.9-0.5,1.6-0.8,2.1c1,0.4,1.8,1,2.5,1.6c-0.7-0.2-1.7-0.3-2.8-0.4c0.5,0,1.1,0,1.8,0.1c-3.6-1-7.2-0.8-10.9-0.7
		c-8.1,0.3-23.8,0.8-30.5,7.3c-1.4,1-2.3,2.1-2.6,3.3c0,0,0-0.1-0.1-0.1c-0.2,0.8-0.2,1.7,0.2,2.7c0.8,1.8,2.9,2.8,4.9,2.8
		c0.9,0,1.8-0.3,2.4-0.8c1.6-1.3,2.3-3.5,3.4-3.8c1.4-0.4,2.8-0.7,4-1c7.3-1.8,11.5-2.7,13.5-3c0.8-0.1,1.2-0.2,1.4-0.2l0,0
		c-1.3,0.6-12.2,5.5-18.2,9.6c-2.7,1.9-3.8,3.9-3.8,5.6c0-0.1-0.1-0.1-0.1-0.2c-0.3,3.5,3.9,5.9,8.1,3.6c0.1-0.1,0.2-0.2,0.3-0.3
		c0.6-0.7,1.1-2.3,1.9-3.3c0.1-0.1,0.3-0.3,0.4-0.4c6.7-4.3,17.1-10.6,18.7-11.5c-1.4,1.5-7.6,7.9-11.3,12.4c-0.6,0.7-1,1.4-1.3,2
		c0,0,0-0.1,0-0.1c-0.6,1.2-0.7,2.3-0.4,3.2c0,0.1,0,0.1,0.1,0.2c0,0.1,0.1,0.2,0.1,0.3c0,0.1,0.1,0.2,0.2,0.3c0,0,0,0,0,0
		c0.7,1.1,2.2,1.6,4,1.3c0.2,0,0.5-0.1,0.7-0.1c2.5-0.6,2.5-3.6,5-6.3c0.3-0.3,0.5-0.7,0.9-1.1c0.3-0.4,0.6-0.9,1-1.4
		c0.5-0.8,1.1-1.6,1.7-2.5c0.4-0.6,0.9-1.2,1.3-1.8c0.7-0.9,1.4-1.8,2.2-2.7c0.5-0.6,1.1-1.2,1.7-1.7c0.6-0.6,1.2-1.1,1.8-1.6
		c1.4-1.1,2.4-2.1,3.1-2.9C67.4,313.4,67.5,313.2,67.6,313z"/>
	<path class="st14" d="M170,313.2c-6.8-6.3-22.3-6.8-30.3-7.2c-3.7-0.1-7.3-0.3-10.9,0.7c0.1,0,0.1,0,0.1,0
		c-0.5,0.1-0.9,0.1-1.2,0.2c0.7-0.6,1.5-1.2,2.5-1.6c-0.2-0.5-0.5-1.1-0.7-2c-0.2,0.1-0.5,0.3-0.8,0.4l-5.3,1.4c-0.1,0-0.2,0-0.3,0
		c0.1,0.9,0.2,1.8,0.3,2.6c0.2,1.5-0.3,3.1,1.2,5.3c0.1,0.2,0.3,0.4,0.5,0.6c0.7,0.9,1.7,1.8,3.1,2.9c0.6,0.5,1.2,1,1.8,1.6
		c0.6,0.6,1.1,1.1,1.7,1.7c0.8,0.9,1.5,1.8,2.2,2.7c0.5,0.6,0.9,1.2,1.3,1.8c0.6,0.9,1.2,1.7,1.7,2.5c0.4,0.5,0.7,1,1,1.4
		c0.3,0.4,0.6,0.8,0.9,1.1c2.5,2.7,2.5,5.7,5,6.3c0.2,0.1,0.5,0.1,0.7,0.1c1.8,0.3,3.2-0.3,4-1.3c0,0,0,0,0,0
		c0.1-0.1,0.1-0.2,0.2-0.3c0-0.1,0.1-0.2,0.1-0.3c0-0.1,0-0.1,0.1-0.2c0.3-0.9,0.2-1.9-0.4-3.2c0,0,0,0.1,0,0.1
		c-0.3-0.6-0.7-1.3-1.3-2c-3.6-4.4-9.6-10.6-11.2-12.3c2.1,1.2,12.1,7.2,18.5,11.4c1.2,0.9,1.7,3.5,2.6,4c4.2,2.3,8.4-0.1,8.1-3.6
		c0,0,0,0,0,0c-0.1-1.7-1.2-3.6-3.8-5.4c-6-4.1-16.9-9.1-18.2-9.6l0,0c0.2,0,0.6,0.1,1.4,0.2c2,0.4,6.2,1.2,13.5,3
		c1.3,0.3,2.6,0.6,4,1c1.1,0.3,1.8,2.5,3.4,3.8c0.6,0.5,1.5,0.8,2.4,0.8c1.9,0.1,4.1-1,4.9-2.8c0.4-1,0.4-1.9,0.2-2.7
		c0,0,0,0.1-0.1,0.1C172.4,315.3,171.4,314.2,170,313.2z"/>
	<path class="st14" d="M174.7,219.3c-0.2-1.9-0.3-4.4-0.4-6.1c-0.2-4.6-1.4-6.5-4.1-0.7c-6.1,13.3-11.2,18.9-10.9,6.9
		c-0.3,1.7-0.7,3.4-1.1,5.1c0,0.1,0.1,0.3,0.1,0.4c2.6,7.8,9.8-4.3,13.5-11.4c0,3.8,0.3,10.7,3,10.6c0.5,0,0.9-0.1,1.3-0.3
		c0.8-1.8,1.5-3.7,2.2-5.5C176.7,221.7,175.2,223.1,174.7,219.3z"/>
	<path class="st14" d="M185,200.3c0,0.1-0.1,0.5-0.3,1.1c-0.1,0.7-0.2,1.5-0.3,2.2C184.6,202.4,184.9,201.4,185,200.3z"/>
	<path class="st14" d="M164.6,244.4l0.1-0.8c0.4-3.4-0.2-6.1-2.8-1.8c-8.1,13.3-13.5,17.5-8.1-2.5c-0.9,2.4-1.8,4.8-2.9,7.2
		c-0.4,2-0.7,3.8-0.4,5.4c1,7.1,8.3-2.6,12.1-8.3c-0.2,1.2-0.4,2.9-0.5,4.4C163,246.8,163.8,245.6,164.6,244.4z"/>
	<path class="st14" d="M22.4,212.5c-2.7-5.8-3.9-3.9-4.1,0.7c-0.1,1.7-0.2,4.2-0.4,6.1c-0.5,4.7-2.7,1.4-4.9-3.7
		c0.9,2.7,1.9,5.4,3.1,8.1c0,0,0,0,0,0c0.6,0.2,1.1,0.4,1.7,0.4c2.7,0.1,3-6.8,3-10.6c3.7,7.1,10.8,19,13.4,11.5
		c-0.3-1.4-0.6-2.8-0.9-4.2C33.2,230.9,28.2,225.2,22.4,212.5z"/>
	<path class="st14" d="M30.7,241.8c-2.6-4.3-3.2-1.6-2.8,1.8l0.1,0.8c0.8,1.2,1.6,2.4,2.5,3.5c-0.1-1.5-0.3-3.2-0.5-4.4
		c3.8,5.7,11.1,15.4,12.1,8.3c0.2-1.2,0.1-2.6-0.2-4.1c-0.9-1.9-1.7-3.9-2.4-5.9C43.8,258.9,38.4,254.5,30.7,241.8z"/>
	<path class="st14" d="M82.1,288.1c-3.6,0.3-7.2,0.7-10.6,1.1c6.3-2.4,13.9-3.9,21.6-4.2c2.4-0.2,4.8-0.2,7.2,0
		c6.4,0.4,12.5,1.6,17.7,3.8c3.3,1.4,3.8,1.2,6.4,3.6c-2.5-1-4.3-1.5-6.8-2.3c-2-0.6-4-1.1-6.1-1.4c4.9,2.8,8.9,7.2,11,13.2l5.3-1.4
		c0,0,0-0.8,1.3-8.3c1-5.9,2.4-9.9,10.2-27.5c0.6-2.1,1.7-4.8,2.1-5.5c8.6-22.8,13.7-56.8,9.5-78.7l-0.7-3.5l1.7,3.3
		c5.1,12.4,4.2,33.7,0.8,52c0.1-0.2,0.1-0.5,0.2-0.7c0,0.2-0.1,0.4-0.1,0.6c5.9-19.2,7-39.1,3.8-58.1c-0.3-0.2-0.7-0.4-1-0.6
		c-0.3,0-0.6,0-0.9-0.1c-3.1-1-7.4-2.7-10.8-5.1c-0.8,0.9-1.7,1.8-2.5,2.5c2.1,1.7,4,3.3,4,3.9c-0.2,0-2.6-1.4-5.1-2.9
		c-2.4,1.9-11.6,7.1-16.6,8.5c3.7-2.2,8.7-5.6,14-10c-1.6-0.9-2.9-1.7-3.3-1.9c-0.5-0.3-0.7-1-0.3-1.5c0.3-0.5,1-0.7,1.5-0.4
		c0.5,0.3,1.9,1.3,3.5,2.5c0.6-0.6,1.3-1.1,1.9-1.7c-0.2-0.1-0.4-0.1-0.6-0.2c-0.6-0.2-0.9-0.8-0.7-1.3c0.1-0.6,0.7-0.9,1.3-0.8
		c0.6,0.2,1.2,0.4,1.8,0.6c0.4-0.4,0.8-0.8,1.2-1.2c3.9,3.7,11.8,6.1,11.8,6.1c-0.1-2.4-2.8-26.1-2.5-26.9l9.4,11.7c0,0,0,0,0,0
		l0.1,0.1c0,0-0.7-6-0.8-13.6c-1-8.7,1.6-23.6,2.4-27.7c0.4,2.7,0.6,5.4,0.5,8.1c0,0,0.1,0,0.1,0c0,0,0,0,0,0.1
		c0.7,0.3,8.1,3,8.1,2.9c-0.1-0.1-0.1-0.2-0.2-0.3l0.2,0.1c0,0-0.2-0.3-0.6-0.7c-2.6-4.1-7.6-13-7.2-20.4c0-0.7,0-1.4,0-2.1
		c0,0.7,0,1.3,0,1.9c-2.7-4.4-6.9-6.2-11.6,0.4c-1.4,2-3.1,3.8-4.9,5.4c2.9,24.3,0.9,58.5-13.7,48c-8.5-6.1-12.5-19.9-13.4-34.5
		c-2,1.2-4.8,1.8-6.7,2.2c-8,1.9-10.2,8.7-15.5,13.8l-2.3,2.1l-2.1-2.2C90.3,134,85,125.7,77.9,125c-1.7-0.2-3.5-0.4-5.2-0.7
		c-1,14.1-5.1,27.2-13.3,33.1c-15.2,11-16.7-26.9-13.2-51.2c-2.4-2.5-4.7-5.5-6.7-9c-8.3-14.7-10.6-2.6-13.2,15.6l-0.1-0.1
		c0.2-0.9,0.4-2,0.5-3C25,122.2,19.3,125,19.3,125l0.4-0.1c-0.2,0.2-0.4,0.2-0.4,0.2l7.9-2.8c0.2-2.5,0.5-5.1,1.2-8.3
		c0.3,15.4,2.5,19.6,2.5,29.5c0,2.3-0.1,4.9-0.4,7.9c-0.1,0.9-0.8,3.2-0.8,3.9c0,0.3,0.1,0.4,0.4,0.1l8.8-9.4
		c0.1,0.9,0.1,1.9,0.1,2.9c0,7.2-1.7,16.3-1.9,21.4c0,0,0,0,0,0c0,0,0,0.1,0,0.1c0,0,6.9-2.1,11-5.4c0.3,0.3,0.5,0.6,0.8,0.9
		c1-0.4,2-0.7,2.9-1c0.6-0.1,1.2,0.2,1.3,0.8c0.2,0.5-0.1,1.1-0.7,1.3c-0.7,0.2-1.4,0.4-2,0.6c0.7,0.8,1.4,1.5,2,2.3
		c2.1-1.6,4.2-3.1,4.8-3.5c0.5-0.3,1.2-0.1,1.5,0.4c0.4,0.5,0.2,1.2-0.3,1.5c-0.5,0.3-2.6,1.5-4.8,2.8c0.9,1,1.8,2,2.7,2.9
		c0.4,0.4,0.8,0.8,1.1,1.2c0.1,0.1,0.1,0.1,0.2,0.2c0.4,0.4,0.9,0.9,1.3,1.3c-1.2-0.1-4.2-2.1-7.1-4.5c-2.3,1.3-4.3,2.5-4.5,2.5
		c0-0.5,1.5-2,3.4-3.5c-1-0.9-2-1.7-2.9-2.5c-4.3,3.1-9.7,6-12.5,7.3c-2.9,18.7-1.6,38.4,4.4,57.2c-3.5-18.6-4.5-40.4,0.6-53
		l1.9-3.7l-0.8,4c-4.2,21.9,0.9,55.8,9.5,78.7c0.4,0.9,1.8,4,2.3,6.1c7.6,17.1,8.9,21,9.9,26.9c1.3,7.5,1.3,8.3,1.3,8.3l5.3,1.4
		C71.9,295.6,76.5,291,82.1,288.1z M90.2,165.9c0.1-1.6,0.6-2.1,1.2-2c0.3,2.5,1.5,4.8,2.9,6.8c0.1,0.1,0.4,0.5,0.6,0.8
		c0.3-0.3,0.6-0.7,0.7-0.8c1.5-1.9,2.8-4.2,3.3-6.5c0.9-0.6,1.6-0.4,1.6,1.7c-0.1,4.2-2.4,7.7-3.9,9.6c-1.6,2-1.8,2-3.2,0
		C92,173.6,89.9,170.1,90.2,165.9z M133.8,208.6c0.4-0.1,1.3-0.9,1.5-1.1c1.9-1.6,4-3.8,5.1-6.2c1.3-0.6,2.2-0.5,1.9,1.6
		c-0.6,4-4,7.3-6.2,9.2c-2.3,1.9-2.6,2-4.1,0c-1.5-1.8-3.6-5.2-2.6-9.2c0.3-1,0.6-1.6,1-1.8c-0.1,2.4,1.1,4.7,2.6,6.6
		C133.1,207.8,133.6,208.4,133.8,208.6z M93.4,267c-1.4-1.9-3.5-5.4-3.2-9.6c0.1-1.7,0.6-2.2,1.2-2c0.3,2.7,1.5,5.2,3,7.3
		c0.1,0.2,0.4,0.5,0.6,0.8c0.3-0.2,0.6-0.6,0.7-0.8c1.6-2.1,2.9-4.5,3.4-7.1c0.8-0.4,1.4-0.1,1.4,1.9c-0.1,4.2-2.4,7.7-3.9,9.6
		C95,269.1,94.8,269.1,93.4,267z M72,267.2c-1.7-1.9-4.2-5.4-4.4-9.6c-0.1-2.1,0.6-2.3,1.5-1.7c0.7,2.5,2.1,4.9,3.8,6.9
		c0.1,0.1,0.4,0.5,0.7,0.8c0.2-0.3,0.4-0.6,0.5-0.8c1.5-2.2,2.5-4.7,2.6-7.3c0.6-0.1,1,0.4,1.2,2c0.5,4.2-1.4,7.7-2.7,9.6
		C73.8,269.1,73.7,269.1,72,267.2z M60.6,212.1c-1.7,1.9-1.9,2-4.2,0c-2-1.8-5.3-5.2-5.6-9.2c-0.1-1.9,0.6-2.2,1.7-1.8
		c0.9,2.5,2.9,4.7,4.8,6.4c0.2,0.2,1,0.9,1.4,1.1c0.3-0.2,0.8-0.8,1-1c1.6-1.8,2.9-4.1,3-6.6c0.5,0.2,0.9,0.7,1.1,1.9
		C64.5,206.9,62.2,210.2,60.6,212.1z M132.8,239.6c1.3-0.9,2.3-0.9,1.9,1.5c-0.7,4.2-3.7,7.7-5.7,9.7c-2,2-2.2,2.1-3.6,0
		c-1.2-1.9-2.9-5.5-1.9-9.7c0.3-1.1,0.6-1.7,1-1.9c-0.2,2.5,0.6,5.1,2,7.3c0.1,0.2,0.3,0.5,0.5,0.8c0.4-0.3,0.9-0.8,1.1-1
		C129.9,244.4,131.8,242.1,132.8,239.6z M129.2,222.8c-0.4,4.2-3.6,7.8-5.6,9.7c-2.1,2-2.4,2-3.9,0c-1.4-1.9-3.5-5.5-2.7-9.7
		c0.3-1.2,0.7-1.8,1.1-2c-0.1,2.6,1,5.2,2.6,7.3c0.1,0.1,0.5,0.7,0.7,0.9c0.4-0.2,1.1-0.9,1.3-1.1c1.9-1.9,3.9-4.3,4.8-6.9
		C128.6,220.4,129.4,220.7,129.2,222.8z M116.2,207.3c-0.1,4-3.2,7.4-5.2,9.2c-2.1,2-2.4,2-4.1,0c-1.7-1.8-4.2-5.2-3.7-9.2
		c0.2-1.3,0.6-1.8,1.2-1.9c0.2,2.5,1.7,4.9,3.4,6.7c0.1,0.2,0.7,0.8,1,1c0.4-0.2,1.2-0.9,1.4-1.1c1.8-1.7,3.8-4,4.5-6.5
		C115.6,205.1,116.3,205.5,116.2,207.3z M105.2,246.4c0.2,0.2,0.5,0.6,0.7,0.9c0.3-0.3,0.7-0.8,0.9-1c1.8-1.9,3.4-4.4,4.1-7
		c0.9-0.5,1.6-0.2,1.5,1.8c-0.2,4.2-2.9,7.7-4.7,9.7c-1.8,2-2.1,2.1-3.5-0.1c-1.4-1.9-3.5-5.5-3-9.7c0.2-1.4,0.7-2,1.2-2
		C102.5,241.7,103.6,244.2,105.2,246.4z M98.1,232.5c-1.9,2-2.1,2-3.7,0c-1.7-1.9-4.2-5.5-3.9-9.7c0.1-1.5,0.6-2.1,1.2-2
		c0.1,1.3,0.5,2.5,1,3.6c0.7,1.3,1.5,2.6,2.5,3.7c0.1,0.2,0.6,0.8,0.9,1c0.4-0.3,0.9-0.9,1.1-1.1c1.8-2,3.5-4.5,4-7.2
		c0.8-0.2,1.4,0.2,1.4,2C102.6,227,99.9,230.6,98.1,232.5z M78.4,241.1c0.1-1.9,0.6-2.3,1.4-2c0.5,2.6,2,5.1,3.7,7.2
		c0.1,0.1,0.5,0.6,0.8,0.9c0.3-0.2,0.7-0.7,0.8-0.9c0.9-1.1,1.7-2.4,2.3-3.7c0.5-1.1,0.9-2.3,1-3.5c0.7-0.2,1.2,0.3,1.3,2
		c0.2,4.2-2.1,7.8-3.6,9.7c-1.6,2-1.8,2.1-3.6,0C80.8,248.9,78.4,245.3,78.4,241.1z M85.7,216.5c-1.9,2-2.2,2-4.1,0
		c-1.9-1.8-4.8-5.2-4.7-9.2c0.1-1.6,0.6-2,1.4-1.9c0.5,2.5,2.3,4.8,4.1,6.6c0.2,0.2,0.9,0.9,1.2,1.1c0.3-0.2,1-0.9,1.2-1.1
		c1-1,2-2.2,2.7-3.5c0.5-1,0.9-2,1.1-3.1c0.7-0.1,1.2,0.4,1.3,1.9C90.2,211.3,87.5,214.6,85.7,216.5z M65.2,220.9
		c0.7,2.7,2.5,5.2,4.4,7.1c0.2,0.2,0.8,0.9,1.1,1.1c0.3-0.2,0.8-0.8,0.9-1c1.6-2.1,3-4.6,3.1-7.3c0.6,0,1,0.6,1.2,2
		c0.6,4.2-1.7,7.8-3.3,9.7c-1.6,2-1.8,2-3.9,0c-1.9-1.9-4.8-5.5-5-9.7C63.6,220.9,64.3,220.5,65.2,220.9z M114.9,267
		c-1.2-1.9-2.9-5.4-2.1-9.6c0.2-1.3,0.6-1.9,1-2c-0.1,2.6,0.7,5.2,2.1,7.4c0.1,0.2,0.2,0.5,0.4,0.7c0.3-0.3,0.6-0.7,0.8-0.9
		c1.7-1.9,3.3-4.1,4.1-6.6c1.2-0.9,2.1-0.9,1.8,1.5c-0.5,4.2-3.3,7.7-5,9.6C116.1,269.1,115.9,269.1,114.9,267z M61.3,250.9
		c-1.8-1.9-4.7-5.5-5.1-9.7c-0.3-2.2,0.5-2.4,1.6-1.7c0.8,2.6,2.6,5,4.4,6.9c0.2,0.2,0.7,0.7,1,1c0.2-0.3,0.5-0.7,0.6-0.9
		c1.5-2.2,2.5-4.8,2.5-7.4c0.5,0.1,0.9,0.7,1.1,2c0.6,4.2-1.3,7.8-2.6,9.7C63.4,252.8,63.2,252.9,61.3,250.9z M123,159
		c-0.5,4.2-3.3,7.7-5,9.6c-1.9,2-2.1,2.1-3.2,0c-1.2-1.9-2.9-5.4-2.1-9.6c0.2-1.3,0.6-1.9,1-2c0,2.5,0.8,4.8,2.1,7
		c0.1,0.1,0.3,0.4,0.4,0.7c0.3-0.3,0.7-0.7,0.8-0.9c1.5-1.8,3-3.8,3.9-6C122.3,156.7,123.4,156.4,123,159z M69.4,157.4
		c0.7,2.4,2.1,4.6,3.7,6.5c0.1,0.2,0.5,0.6,0.7,0.8c0.2-0.3,0.4-0.6,0.5-0.8c1.4-2.1,2.4-4.4,2.5-6.9c0.5-0.1,1,0.4,1.2,2
		c0.5,4.2-1.4,7.7-2.7,9.6c-1.4,2-1.5,2-3.2,0c-1.7-1.9-4.2-5.4-4.4-9.6C67.5,156.7,68.3,156.7,69.4,157.4z"/>
	<path class="st14" d="M179,187.2c-1.1-1.5-2.6-5.5-3.5-7.9c-1.7-4.7-3.4-5.5-4.2,0.8c-2.1,16.8-6.2,22.9-10.6-0.3l-0.5-2.6
		c-0.1,4.7,0.5,13.4,3.6,17.6c5,6.8,8.1-6.7,9.4-14.4c1.2,3.7,3.6,10.2,6.3,9.4s4.1-4.9,4.8-9.8c-0.5-2.9-1.2-5.7-2.1-8.5
		C182.3,177.2,181.8,183.6,179,187.2z"/>
	<path class="st14" d="M8.3,180c0.7,4.9,2.1,9,4.8,9.8c2.7,0.8,5.1-5.7,6.3-9.4c1.3,7.7,4.4,21.2,9.4,14.4
		c3.1-4.2,3.7-12.9,3.6-17.6l-0.5,2.6c-4.4,23.2-8.5,17.1-10.6,0.3c-0.8-6.3-2.5-5.5-4.2-0.8c-0.9,2.4-2.4,6.4-3.5,7.9
		c-2.8-3.6-3.3-10-3.2-15.7C9.6,174.3,8.8,177.1,8.3,180z"/>
	<path class="st14" d="M117,99.5h3.6c-0.4-10.6-14.1-13.1-24.8-13.3c-12.6-0.2-21.4,9.7-22,15.3h2.7v8.9h-3.6l0,0
		c0.1,1.5,0.1,3,0.2,4.6c1-0.3,2-0.4,2.9-0.6c0.7-0.1,2-0.2,2.8-0.4c3.2-2.1,7.5-8.6,9.4-11.7c2-3.1,4.9-7.4,9-7.4
		c4.1,0,7,4.3,8.9,7.5c1.4,2.3,2.6,4.8,3.9,7.1c0.6,1,1.7,3,2.8,3.5c0.5,0.2,2.4,0.1,3,0.1c2,0,3.9,0.2,5.5,1.2c0-0.8,0-1.6,0.1-2.5
		H117V99.5z"/>
	<path class="st14" d="M27.1,99.1C27.1,99.1,27.1,99.1,27.1,99.1C27.1,99.1,27.1,99.1,27.1,99.1C27.1,99.1,27.1,99.1,27.1,99.1z"/>
	<path class="st14" d="M68.6,102.3c1.4-0.6,1.5-3.5,0.2-6.4c-1.3-2.9-3.5-4.7-4.9-4.1c-1.4,0.7-1.5,3.5-0.2,6.4
		C65,101.1,67.2,102.9,68.6,102.3z"/>
	<path class="st14" d="M125.2,102.3c1.4,0.6,3.6-1.2,4.9-4.1c1.3-2.9,1.2-5.7-0.2-6.4c-1.4-0.6-3.6,1.2-4.9,4.1
		C123.7,98.8,123.8,101.7,125.2,102.3z"/>
	<path class="st14" d="M124.8,18.6c-1,1.8-2.1,3.7-3.1,5.5c-1.2,2.2-2,6-2.5,8.5c-0.8,4.3-2.2,8.8-2.7,13.2c-0.4,3.7-0.7,7.5-1,11.2
		c16.8,1.5,32.3,5,43.1,9.8c0-0.3-0.1-0.7-0.1-1c0-0.1,0-0.1,0-0.2c0-0.3-0.1-0.6-0.1-0.9c0-0.1,0-0.1,0-0.2c0-0.3-0.1-0.7-0.1-1
		c0-0.1,0-0.1,0-0.2c-0.1-0.4-0.1-0.8-0.2-1.2c0,0,0-0.1,0-0.1c-0.2-0.9-0.3-1.9-0.5-3c0,0,0,0,0,0c-1.7-8.5-5.5-19.7-13.9-28
		c-3.3,6.2-9.8,17.4-11.7,16.3c3.8-7.1,7.4-14.1,10.8-21.3c0,0-1.7-2.6-6.1-4.8c0,0,0,0,0,0c0.2-0.4,0-0.9-0.5-1
		c-0.4-0.2-0.8,0-1,0.4c-5.2,12-4.7,10.8-6.8,15.9l-3,6.9c-2.2-1.6,3.4-15.3,5.9-21.6C129.2,20.6,127,19.5,124.8,18.6z"/>
	<path class="st14" d="M36.5,59.2c-0.6,3-0.9,5.6-1.1,7.6c1.3-0.6,2.6-1.1,4-1.6c0,0,0-0.1,0.1-0.1c0.2-0.2,0.6-0.3,1-0.2
		c10.4-3.8,23.9-6.5,38.3-7.8c-0.9-12-2.8-26.8-6.2-33c-1-1.9-2.1-3.7-3.1-5.6c-0.7,0.3-1.3,0.6-2,0.9c0,0,0,0,0,0
		c-1.6,0.7-3.1,1.6-4.6,2.4c2.3,6.3,7.7,20.4,6.4,21.1l-0.6,0.3l-2.6-6.2C63.6,31.4,60,23.2,59,21c0,0,0-0.1-0.1-0.1l-0.1-0.3
		c0,0-0.1,0-0.1,0.1c-0.2-0.1-0.4-0.2-0.7-0.1c-0.2,0.1-0.4,0.3-0.5,0.6c-4.5,2.1-6.2,4.8-6.2,4.8c3.2,6.9,6.7,13.6,10.3,20.5
		c-2.4-1.9-8-10.4-11-15.5C42.1,39.2,38.3,50.7,36.5,59.2C36.6,59.2,36.5,59.2,36.5,59.2z"/>
	<path class="st14" d="M92.9,5.2c-3.2,0.2-6.4,0.7-9.5,1.5c-1.3,0.4-8,1.7-8.8,3.5c-0.3,0.1-0.6,0.3-0.9,0.4
		c0.9,1.2,1.7,2.4,2.4,3.4c0.7,1.1,1.5,2.4,2.3,3.5c3.9,6.5,3.6,9.8,4.2,21.9c0.3,5.8,0.5,11.6,0.2,17.3c0.8-0.1,1.6-0.1,2.4-0.2
		c2.8-0.2,5.6-0.3,8.4-0.3c0.1,0,0.2,0,0.4,0c1.1,0,2.2,0,3.3,0c0.1,0,0.1,0,0.2,0c4.5,0,8.9,0.2,13.3,0.5c-0.1-1.5-0.1-3-0.2-4.5
		c0-1.4,0-2.8,0-4.3c0-1,0.1-2.1,0.1-3.1c0.1-1.8,0.2-3.5,0.2-5.3c0.1-2.1,0.2-3.9,0.3-5.5c0.5-10,0.8-12.5,7.1-21.4
		c0.3-0.2,0.6-0.4,0.8-0.8c0.1-0.2,0.2-0.5,0.2-0.7c0.2-0.3,0.4-0.5,0.6-0.8c-0.3-0.2-0.7-0.3-1-0.4c-0.1-0.1-0.3-0.3-0.4-0.4
		c-1.2-0.5-2.5-1-3.8-1.4C107.4,5.6,100.1,4.6,92.9,5.2z"/>
	<path class="st14" d="M122.3,11.9C113,24,114.1,24,112.6,39.6c-0.5,5.7-0.9,11.4-1.6,17.1c0.7,0,1.4,0.1,2.1,0.2
		c0.8-12.2,2.5-28.6,5.7-34.4c5.4-9.6,5.4-9.6,5.4-9.6C123.6,12.5,123,12.1,122.3,11.9L122.3,11.9z"/>
	<path class="st14" d="M75,22.4c3.3,5.8,4.9,22.3,5.7,34.5c0.5,0,1-0.1,1.5-0.1c-0.7-5.7-1.1-11.5-1.6-17.2C79.1,24.1,80.3,24,71,12
		c-0.5,0.3-0.9,0.5-1.4,0.8C69.6,12.8,69.6,12.8,75,22.4z"/>
	<path class="st14" d="M63.3,116.9c-1.8,0-3.6-0.3-5.1-0.9c-5.6-2.3-10.5-8.7-11.2-16.3c-0.2-0.1-0.5-0.1-0.7,0
		c-0.8,0.1-1.3,0.9-1.1,1.6c2.5,8.7,8.5,19.4,19.3,16.4c1.3-0.4,2.3-0.9,3.2-1.5C66.3,116.7,64.8,116.9,63.3,116.9z"/>
	<path class="st14" d="M158.9,70.3c-1.7-0.8-3.5-1.5-5.2-2.3c0,0,0,0,0,0c-0.1-0.1-0.3-0.1-0.4-0.1l-3.2,2.4
		c-8.5,5.2-25.2,7.1-35,7.7c-7.4,0.4-12,0-19.1-0.1l-3.6,0.3c-8.6,0.4-21.6-0.8-30.2-2.3c-8.7-1.5-14.5-3-21.6-8
		c-0.1,0-0.1,0-0.2,0.1c0,0,0,0,0,0c-1.8,0.7-3.6,1.5-5.2,2.3C41.3,86.2,152.8,86.2,158.9,70.3z"/>
	<path class="st14" d="M63.2,61.4c-6.6,1.2-12.5,2.6-16.9,4.2c-0.2,0.1-0.3,0.2-0.5,0.4c-0.8,0.3-1.6,0.6-2.4,0.8
		c13.7,9,33.2,9.2,48.9,10.6l3.6,0.4c7.2,0.1,24-1.8,31.4-3.1c8.6-1.5,16-3.1,22.9-8.1C125.1,57.6,91.6,55.9,63.2,61.4z"/>
	<path class="st14" d="M149.2,101.3c0.2-0.7-0.3-1.5-1.1-1.6c-0.4-0.1-0.7,0-1,0.1c-0.7,7.6-5.6,14-11.2,16.3
		c-1.5,0.6-3.3,0.9-5.1,0.9c-1.1,0-2.2-0.1-3.3-0.4c0.7,0.4,1.5,0.7,2.4,1C140.7,120.7,146.7,110,149.2,101.3z"/>
	<path class="st14" d="M124,112.2c0.1,0.1,0.1,0.2,0.1,0.3l0.2,0.3c0.3,0.4,0.7,0.8,1.2,1.2C125,113.4,124.5,112.8,124,112.2z"/>
	<path class="st14" d="M97.2,136.7c4.9-4.5,7.7-12.3,17-14.5c0.4-0.1,0.8-0.2,1.2-0.3c1.1-0.6,1.6-1.3,1-1.7c-0.2-0.2-0.9-0.1-1.8,0
		c-4.8,2.1-7.6,3.7-10.7,6.4c-2.5,2.7-4.6,5.7-6.8,8.1c-2.4-2.5-4.5-5.7-7.1-8.5c-4-3.8-7-5-12.8-6.5c-1.9,0.2-0.7,1.5,1,2.1
		c0,0,0.1,0,0.1,0C86.9,122.7,92.5,131.8,97.2,136.7z"/>
	<path class="st14" d="M111.4,115.9c-3.1-1.7-4.9-7-7.9-11.8c-5-8-7.8-8-12.7,0c-4.6,7.4-8.3,11.5-10.7,12.9c-0.8,0.4-5.2,0.6-7,1.3
		c1.8,0,3.7,0.4,4.9,0.8c6.4,0.7,10.3,2.4,14.9,6.6c0.9-0.2,1.7-1.8,4.2-5.3c2.7,3.8,3.4,5.3,4.4,5.3c4.7-3.8,10-6.8,15.9-7.9
		c0.9-0.3,1.8-0.5,2.5-0.6C117.8,115.6,113.5,117,111.4,115.9z M91.6,112.5c-1.6-1.2,1.1-3.8,2.4-6.2
		C95.7,104.6,93.2,113.6,91.6,112.5z M102.6,112.5c-1.6,1.1-4.2-7.9-2.4-6.2C101.5,108.7,104.2,111.3,102.6,112.5z"/>
	<path class="st14" d="M135.9,116.2c5.6-2.3,10.4-8.7,11.2-16.3c0.5-5-0.8-10.7-4.9-16c0.3,0,0.6,0,0.8,0c6.5,0,8,7.1,9.5,13.9
		c1-5.7,1.7-10.5-2.6-15.1c-2.4-2.5-5.3-3.5-8.4-3.5c-5.2,0-10.7,2.9-14.2,6.8c-3.2,3.6-5.6,8.5-6.6,13.6h-0.1H117v12.4h4.3h0.5
		c0.5,1,0.9,1.9,1,1.9c0,0,0,0,0,0c1.1,1.5,2.8,2.5,4.7,2.9c1.1,0.3,2.2,0.4,3.3,0.4C132.7,117.1,134.4,116.8,135.9,116.2z
		 M128.7,87.1c3.3-3.7,8.4-6.2,12.8-6.2c2.9,0,5.3,1,7.1,2.9c0.2,0.2,0.4,0.5,0.6,0.7c-1.5-1.5-3.5-2.5-6.2-2.5c-0.3,0-0.7,0-1,0
		l-3.3,0.3l2,2.6c4.2,5.5,5.6,11.8,4,17.8c-1.4,5.3-5.2,9.9-9.5,11.8c-1.3,0.5-2.8,0.8-4.4,0.8c-2.2,0-4.1-0.5-5.4-1.4
		c-0.5-0.3-0.9-0.7-1.2-1.2l-0.2-0.3c0-0.1-0.1-0.2-0.1-0.3c-0.4-0.8-1-2.1-1.5-3.3C120.9,101.9,123.4,92.9,128.7,87.1z"/>
	<path class="st14" d="M76.5,101.5h-2.7h-0.1c-0.7-5.9-3.3-11.7-7-15.8c-3.4-3.9-9-6.8-14.2-6.8c-3.1,0-6.1,1-8.4,3.5
		c-2.4,2.6-3.3,5.2-3.3,8.1c-0.1,2.2,0.3,4.5,0.7,7c1.5-6.8,3.1-13.9,9.5-13.9c0.3,0,0.6,0,0.9,0c-4.1,5.4-5.4,11-4.9,16.1
		c0.7,7.6,5.6,14,11.2,16.3c1.5,0.6,3.3,0.9,5.1,0.9c1.5,0,3-0.2,4.4-0.7c1.4-0.5,2.7-1.3,3.5-2.5c0,0,0,0,0,0c0.1,0,1-2,1.6-3.3
		h0.1h3.6V101.5z M69.9,112.6L69.9,112.6c-1.3,1.6-3.7,2.6-6.6,2.6c-1.6,0-3.1-0.3-4.4-0.8c-4.4-1.8-8.1-6.4-9.5-11.7
		c-1.6-6-0.2-12.4,4-17.9l2-2.6l-3.2-0.3c-0.4,0-0.7-0.1-1.1-0.1c-2.7,0-4.7,1-6.2,2.5c0.2-0.2,0.4-0.5,0.6-0.7
		c1.9-1.9,4.3-2.9,7.1-2.9c4.4,0,9.5,2.5,12.8,6.2c5.2,5.8,7.8,14.8,6.2,21.8C71,110.2,70.2,112,69.9,112.6z"/>
</g>
</svg>
