<?xml version="1.0" encoding="utf-8"?>
<!-- Generator: Adobe Illustrator 23.0.6, SVG Export Plug-In . SVG Version: 6.00 Build 0)  -->
<svg version="1.1" id="Layer_1" xmlns="http://www.w3.org/2000/svg" xmlns:xlink="http://www.w3.org/1999/xlink" x="0px" y="0px"
	 viewBox="0 0 192.8 340.9" style="enable-background:new 0 0 192.8 340.9;" xml:space="preserve">
<style type="text/css">
	.st0{fill-rule:evenodd;clip-rule:evenodd;fill:#050505;}
	.st1{fill-rule:evenodd;clip-rule:evenodd;fill:#2B2B28;}
	.st2{fill-rule:evenodd;clip-rule:evenodd;fill:#FFCC04;}
	.st3{fill-rule:evenodd;clip-rule:evenodd;fill:#EF8B22;}
	.st4{fill-rule:evenodd;clip-rule:evenodd;fill:#FFFFFF;}
	.st5{fill-rule:evenodd;clip-rule:evenodd;fill:#3F3E3B;}
	.st6{fill-rule:evenodd;clip-rule:evenodd;fill:#8E764C;}
	.st7{fill-rule:evenodd;clip-rule:evenodd;fill:#917E56;}
	.st8{fill-rule:evenodd;clip-rule:evenodd;fill:#B99B60;}
	.st9{fill-rule:evenodd;clip-rule:evenodd;fill:#60605E;}
	.st10{fill:#050505;}
	.st11{fill:#2B2B28;}
	.st12{fill:#FFCC04;}
	.st13{fill:#EF8B22;}
	.st14{fill:#FFFFFF;}
	.st15{fill:#3F3E3B;}
	.st16{fill:#8E764C;}
	.st17{fill:#917E56;}
	.st18{fill:#B99B60;}
	.st19{fill:#60605E;}
	.st20{fill:#525252;}
	.st21{fill-rule:evenodd;clip-rule:evenodd;fill:#525252;}
</style>
<g>
	<g>
		<path class="st0" d="M147.6,292.2c2.6,1.6,5.3,3.8,6.4,6.3c0.7,1.4,0.7,3.1,0.2,4.6c-0.1,0.1-0.1,0.3-0.2,0.4
			c4.4,0.6,8.8,1.4,12.9,2.8c4.4,1.5,9.3,4,10.6,8.9c0.5,2,0.3,4.1-0.4,6c-1.2,3-4.2,5.1-7.3,5.7c0.4,2.1,0.1,4.2-1,6.1
			c-2.9,5.1-9.4,5.9-14.3,3.2c-0.4-0.2-0.8-0.5-1.1-0.8c-0.3,0.8-0.7,1.6-1.3,2.4c-2.3,3-6.2,3.7-9.7,2.8c-1.1-0.3-2.1-0.8-3-1.5
			c-1.3-1-2.1-2.3-2.9-3.8c-0.5-0.9-0.9-1.8-1.6-2.6c-0.3-0.3-0.6-0.7-0.8-1.1c-0.4-0.6-0.8-1.2-1.2-1.8c-1.1-1.6-2.3-3.2-3.5-4.7
			c-0.4-0.5-0.8-1-1.2-1.5c-1.7-2-3.5-4-5.4-5.7c-0.6-0.5-1.2-1.1-1.8-1.6c-0.4-0.3-0.9-0.7-1.2-1.2c-0.4-0.8-0.6-1.8-0.7-2.8
			c-2.8-0.9-5.6-2.1-8.4-3.3c-0.8,2-2.2,3.5-4.6,4.1c-3.7,0.9-9.1-2.5-12.1-4.4c-5.1-3.1-9.9-6.7-14.4-10.6
			c-0.5-0.4-0.9-0.8-1.4-1.2c-1.7,1.8-3,4-3.8,6.4c-0.2,0.6-0.6,1.2-1,1.7c0,0.9,0,1.8-0.1,2.7c0,2,0,5.5-0.9,7.3
			c-0.2,0.5-0.8,0.9-1.2,1.2c-0.6,0.5-1.2,1-1.8,1.6c-2,1.8-3.8,3.7-5.4,5.7c-0.4,0.5-0.8,1-1.2,1.5c-1.2,1.6-2.3,3.1-3.5,4.7
			c-0.4,0.6-0.8,1.2-1.2,1.8c-0.3,0.4-0.5,0.8-0.8,1.1c-0.7,0.7-1.1,1.7-1.6,2.6c-0.8,1.5-1.5,2.7-2.9,3.8c-0.9,0.7-1.9,1.2-3,1.5
			c-3.5,0.9-7.4,0.1-9.7-2.8c-0.6-0.8-1-1.6-1.3-2.4c-0.3,0.3-0.7,0.5-1.1,0.8c-4.9,2.7-11.4,1.8-14.3-3.2c-1.1-1.9-1.4-4-1-6.1
			c-3.2-0.6-6.1-2.6-7.3-5.7c-0.8-1.9-1-4-0.4-6c1.3-4.9,6.2-7.4,10.6-8.9c4.8-1.6,10.1-2.5,15.1-3.1c4.6-0.6,9.3-1,14-1.3
			c1.6-0.1,3.3-0.2,4.9-0.3c0.1-0.4,0.1-0.9,0.2-1.3c0-0.3-0.1-0.6-0.1-0.9c-0.3-2.1-0.7-4.2-1-6.3c-0.1-0.6-0.2-1.2-0.3-1.8
			c-0.8-4.1-2.4-8-4-11.8c0-0.1-0.1-0.1-0.1-0.2c-0.5,0.2-1,0.2-1.5,0.3c-0.6,0-1.2,0-1.8-0.2c-2.4-0.6-4.7-3.3-6.3-5
			c-2.6-2.9-5.1-6-7.5-9.2c-6.9-9-13.3-18.4-19-28.2c-6.6-11.3-14.8-27.2-15.5-40.4c-0.7-13.5,2.4-27.2,8.8-39.1
			c3.6-6.8,8.8-13.8,14.9-18.7c-1-3.4-1.6-6.9-2-10.4c-1.3,0.2-2.7,0.3-3.8,0.5c-1.8,0.2-3.8,0.3-5.7,0.2c-0.9,0-1.6-0.7-1.7-1.5
			c-0.2-0.9,0.3-1.7,1.1-2c0.9-0.5,3-3.5,3.6-4.4c0.6-1,1.2-1.9,1.8-2.9c0.2-0.3,0.3-0.6,0.4-0.9v-0.1c2.6-5.1,2.9-12.3,2.7-18
			c-0.2-5.4,1.6-12.4,3.4-17.5c1.3-3.7,2.8-7.5,4.6-11c0-0.1,0-0.2,0-0.3c0-0.2,0-0.5,0-0.7c0.1-4.9,1-10.2,2.2-14.9
			c2.4-10,6.9-19.8,14.3-27.1c-0.6-1.5-0.4-3.2,0.5-4.6c2.1-3.2,6.3-5.9,9.8-7.3c1.7-0.7,3.5-0.3,4.8,0.7c1.1-0.6,2.2-1.2,3.3-1.7
			c-0.5-1.1-0.5-2.2-0.2-3.4c0.4-1.3,1.1-2.4,2.3-3.1c19.3-11.2,40.3-11.2,59.5,0c1.2,0.7,2,1.8,2.3,3.1c0.3,1.1,0.2,2.3-0.2,3.4
			c1.1,0.5,2.2,1.1,3.3,1.7c1.3-1.1,3.2-1.4,4.9-0.7c3.5,1.4,7.7,4.1,9.8,7.3c0.9,1.4,1.1,3.1,0.5,4.6c7.3,7.4,11.8,17.1,14.3,27.1
			c1.2,4.8,2,10,2.2,14.9c0,0.2,0,0.5,0,0.7s0,0.4,0,0.6c0,0.4-0.1,0.8-0.1,1.2c4.1,9.1,6.7,21.8,6.2,31.6c0,0.3,0.1,0.8,0.1,1.2
			c0.1,0.8,0.2,1.6,0.4,2.4c0.4,2.1,0.8,4.2,1.3,6.2c0.4,1,0.8,1.9,1.3,2.8c0.7,1.4,1.1,3.1,1.7,4.6c0.9,2.3,2.1,4.4,3.6,6.4
			c0.4,0.6,0.5,1.3,0.2,1.9s-0.9,1-1.6,1c-3,0.1-6.3-0.9-9.1-1.9l-0.5-0.1c-0.6,3.4-0.9,7-0.9,10.5c6.1,4.9,11.1,11.8,14.8,18.6
			c6.3,11.9,9.5,25.6,8.8,39.1c-0.7,13.2-8.8,29.1-15.5,40.4c-5.7,9.8-12.1,19.2-19,28.2c-2.4,3.1-4.9,6.2-7.5,9.2
			c-1.3,1.4-3,3.4-4.9,4.5c0.5,0.4,1,0.9,1.5,1.3c3,2.5,6,6.3,4.2,10.4C148.4,291.2,148,291.7,147.6,292.2z"/>
		<path class="st0" d="M144.3,292.4c2.9,1.6,6.8,4.1,8,6.8c0.4,1,0.5,2.1,0.1,3.1c-0.5,1.3-1.6,2-2.8,2.4c0.6,0.1,1.3,0.1,1.9,0.2
			c4.9,0.6,10.1,1.5,14.7,3c3.7,1.3,8.3,3.4,9.4,7.6c0.4,1.6,0.3,3.3-0.4,4.8c-1.3,3.1-4.8,4.9-8.1,4.7c0.1,0.2,0.2,0.5,0.3,0.7
			c0.8,2,0.7,4.2-0.4,6.1c-2.4,4.2-7.8,4.7-11.8,2.5c-1.5-0.8-2-2.2-2.7-3.6c-0.1-0.2-0.2-0.4-0.3-0.6c-0.4-0.3-0.9-0.6-1.3-0.9
			c1.1,2.3,1.3,5-0.4,7.2c-1.8,2.4-5,2.9-7.8,2.2c-0.9-0.2-1.6-0.6-2.3-1.1c-2.1-1.7-2.5-4.2-4.2-6.1c-0.6-0.6-3.6-5.3-6.6-9
			c-4.2-5.1-8.1-8-8.2-8.2c-0.3-0.7-0.5-1.9-0.6-3.3c-3.9-1.2-7.7-2.8-11.3-4.5c-0.3,2.3-1.3,4.3-3.8,4.9c-2.9,0.8-8.3-2.6-10.7-4.1
			c-4.9-3.1-9.8-6.6-14.2-10.4c-0.9-0.7-1.7-1.5-2.6-2.3c-2.4,2.2-4.3,5-5.5,8.3c-0.2,0.6-0.6,1.1-1.1,1.5c-0.1,3.4,0,8.3-0.8,9.9
			c-0.1,0.3-4.1,3.1-8.2,8.2c-3.1,3.7-6.1,8.4-6.6,9c-1.7,1.9-2.1,4.4-4.2,6.1c-0.7,0.5-1.5,0.9-2.3,1.1c-2.8,0.7-5.9,0.2-7.8-2.2
			c-1.7-2.2-1.5-4.9-0.4-7.2c-0.4,0.3-0.9,0.6-1.3,0.9c-0.1,0.2-0.2,0.5-0.3,0.6c-0.7,1.4-1.2,2.8-2.7,3.6c-4,2.2-9.4,1.7-11.8-2.5
			c-1.1-1.9-1.2-4.1-0.4-6.1c0.1-0.2,0.2-0.5,0.3-0.7c-3.3,0.2-6.9-1.6-8.1-4.7c-0.6-1.5-0.8-3.2-0.4-4.8c1.1-4.2,5.7-6.3,9.4-7.6
			c4.7-1.6,9.9-2.4,14.7-3c4.6-0.6,9.2-1,13.9-1.3c1.7-0.1,3.4-0.2,5.2-0.3c0.4,0,0.8-0.1,1.2-0.1c0.1-0.4,0.1-0.8,0.2-1.1
			c0.1-0.7,0.2-1.3,0.3-2c0-0.4-0.1-0.8-0.2-1.2c-0.3-2.1-0.7-4.2-1-6.3c-0.1-0.6-0.2-1.2-0.3-1.8c-0.9-4.2-2.4-8.2-4.1-12.1
			c-0.3-0.7-0.6-1.4-0.9-2.1c-0.7,0.6-1.5,1-2.5,1c-0.4,0-0.8,0-1.2-0.1c-1.8-0.4-4.2-3.1-5.4-4.5c-2.6-2.9-5.1-6-7.4-9.1
			c-6.8-8.9-13.3-18.3-18.9-28C13.2,225,5,209.1,4.4,196.3c-0.7-13.2,2.4-26.5,8.6-38.1c3.6-6.7,8.9-14,15.4-18.9
			c-1.3-4.1-2.1-8.4-2.6-13.3l0,0c-2.2,0.7-8.5,1.2-11,1.1c1.5-0.6,4.5-5,6.2-8.2c0.2-0.4,0.4-0.7,0.5-0.9v-0.1
			c2.7-5.5,3.1-12.9,2.9-18.9c-0.3-7.2,3.7-19.9,8-28v-0.1c0-0.2,0-0.4,0-0.7c0-0.2,0-0.4,0-0.5c0.1-4.8,1-10.2,2.1-14.6
			c2.5-10.2,7.1-20,14.7-27.2c-0.2-0.3-0.3-0.5-0.4-0.7c-0.5-1.1-0.4-2.3,0.2-3.3c1.9-2.9,5.9-5.4,9-6.6c1.4-0.6,3,0,3.8,1.3
			c2-1.2,4.1-2.2,6.2-3.1l-0.7-1.3c-0.4-0.8-0.5-1.6-0.3-2.5s0.7-1.5,1.5-2c18.7-10.9,39-10.9,57.7,0c0.8,0.4,1.3,1.1,1.5,2
			s0.1,1.7-0.3,2.5l-0.7,1.3c2.1,0.9,4.2,2,6.2,3.1c0.7-1.3,2.4-1.9,3.8-1.3c3.1,1.2,7.1,3.7,9,6.6c0.7,1,0.7,2.2,0.2,3.3
			c-0.1,0.2-0.2,0.4-0.4,0.7c7.6,7.2,12.2,16.9,14.7,27.2c1.1,4.4,2,9.9,2.1,14.6c0,0.2,0,0.4,0,0.5c0,0.2,0,0.4,0,0.7
			c0,0.5-0.1,0.9-0.3,1.3c4.5,9.5,6.8,22.5,6.4,31.4c-0.1,1.2,0.8,5.8,1.8,10.4c0.4,1.1,0.9,2.1,1.4,3.1c1.2,2.2,1.3,5.8,5.5,11.3
			c-2.9,0.1-6.2-1-8.6-1.9l-2.4-0.3c-0.9,4.4-1.3,9-1.3,13.4c6.3,4.9,11.5,12,15,18.6c6.2,11.6,9.2,25,8.6,38.1
			c-0.7,12.8-8.8,28.7-15.2,39.6c-5.7,9.7-12.1,19.1-18.9,28c-2.4,3.1-4.8,6.2-7.4,9.1c-1.2,1.4-3.5,4-5.4,4.5
			c-0.4,0.1-0.8,0.1-1.2,0.1c-0.3,0-0.6-0.1-0.9-0.2c0.7,0.7,1.5,1.5,2.3,2.1c0.7,0.6,1.4,1.2,2.1,1.8c2.3,2,5.1,5,3.7,8.3
			C146.4,291,145.4,291.9,144.3,292.4z"/>
		<path class="st0" d="M144.3,292.4c2.9,1.6,6.8,4.1,8,6.8c0.4,1,0.5,2.1,0.1,3.1c-1.1,2.7-4.4,2.9-6.9,2.8c-1.6-0.1-3.3-0.3-5-0.5
			c1.1,1.4,2,3.1,1.4,4.9c-1.2,4.4-7.9,3.8-11.4,3.5c-7.2-0.7-14.5-3.4-21.2-6.5c-0.3,2.3-1.3,4.3-3.8,4.9
			c-2.9,0.8-8.3-2.6-10.7-4.1c-4.9-3.1-9.8-6.6-14.2-10.4c-5-4.3-11.1-10.1-14.3-15.9c-0.2-0.4-0.4-0.9-0.4-1.4
			c-0.1-4,0.9-7.8,3.1-11.2c5.1-7.6,15.4-10.9,24.1-12.3c6.4-1,13.3-1.3,19.8-0.8c2.3,0.2,4.7,0.4,7,1c2,0.5,4.4,1.2,5,3.4
			c0.2,0.7,1,2,1.4,2.7c1.1,1.7,2.3,3.4,3.5,5.1c3.3,4.4,7.1,8.6,11.2,12.3c0.7,0.6,1.4,1.2,2.1,1.8c2.3,2,5.1,5,3.7,8.3
			C146.4,291,145.4,291.9,144.3,292.4z"/>
		<path class="st1" d="M69.2,279.5c6.7,12.6,32.4,29.7,35.6,28.9c1.3-0.3,1.6-2.1,1.5-4.1c-3.8-3.1-7.8-7-8.5-10.6
			c5.3,4.5,9.9,7.5,15.8,11.3c0,0,0,0,0.1,0c5.9,2.5,11.6,4.4,17.1,4.9c20.3,1.9-4-11.2-4-11.2s24.5,6,22.6,1.7
			c-1.9-4.2-17.1-10.3-17.1-10.3s18.9,2.1,8.9-6.3c-10.1-8.5-18.3-20.2-19.2-23.4C121.2,257.3,68.6,253.3,69.2,279.5z"/>
		<path class="st0" d="M158.5,136.1c9,4.2,16.4,13.7,21,22.3c6.2,11.6,9.2,25,8.6,38.1c-0.7,12.8-8.8,28.7-15.2,39.6
			c-5.7,9.7-12.1,19.1-18.9,28c-2.4,3.1-4.8,6.2-7.4,9.1c-1.2,1.4-3.5,4-5.4,4.5c-0.4,0.1-0.8,0.1-1.2,0.1c-3.6-0.2-5-4.6-5.8-7.5
			c-1.3-4.9-2-10.5-2.5-15.6c-0.8-7.3-1.3-14.6-1.6-21.9c-0.4-8.4-0.6-16.8-0.7-25.2c-0.1-8.2-0.1-16.5,0.1-24.7
			c0.2-7.2,0.4-14.5,1-21.7c0.4-5.1,0.8-10.6,1.9-15.7c0.6-3,1.7-8.2,5.5-8.4l19.4-1.2C157.6,135.8,158,135.9,158.5,136.1
			L158.5,136.1z M35.1,135.8l19.4,1.2c3.8,0.2,4.9,5.4,5.5,8.4c1,5.1,1.5,10.5,1.9,15.7c0.5,7.2,0.8,14.4,1,21.7
			c0.2,8.2,0.2,16.5,0.1,24.7c-0.1,8.4-0.3,16.8-0.7,25.2c-0.4,7.3-0.8,14.7-1.6,21.9c-0.5,5.1-1.2,10.7-2.5,15.6
			c-0.8,2.9-2.2,7.3-5.8,7.5c-0.4,0-0.8,0-1.2-0.1c-1.8-0.4-4.2-3.1-5.4-4.5c-2.6-2.9-5.1-6-7.4-9.1c-6.8-8.9-13.3-18.3-18.9-28
			c-6.4-10.9-14.6-26.8-15.2-39.6c-0.7-13.2,2.4-26.5,8.6-38.1c4.6-8.6,12-18.1,21-22.3C34.1,135.9,34.5,135.8,35.1,135.8z"/>
		<path class="st0" d="M41.1,329.4c-0.4,0.3-0.9,0.6-1.3,0.9c-0.1,0.2-0.2,0.5-0.3,0.6c-0.7,1.4-1.2,2.8-2.7,3.6
			c-4,2.2-9.4,1.7-11.8-2.5c-1.1-1.9-1.2-4.1-0.4-6.1c0.1-0.2,0.2-0.5,0.3-0.7c-3.3,0.2-6.9-1.6-8.1-4.7c-0.6-1.5-0.8-3.2-0.4-4.8
			c1.1-4.2,5.7-6.3,9.4-7.6c4.7-1.6,9.9-2.4,14.7-3c4.6-0.6,9.2-1,13.9-1.3c1.7-0.1,3.4-0.2,5.2-0.3c0.4,0,0.8-0.1,1.2-0.1
			c0.1-0.4,0.1-0.8,0.2-1.1c0.2-1.4,0.3-2.8,0.5-4.1c0.2-2.2,0.5-4.9,1.1-7.1c0.7-2.3,2.1-4.6,4.8-4.5c1.5,0,2.2,0.6,3.2,1.3h0.1
			c2.4,1,2.6,4,2.7,6.3c0.1,2.4-1.4,5.1-1.6,7.5c-0.7,2.5,0,10.5-1.1,12.7c-0.1,0.3-4.1,3.1-8.2,8.2c-3.1,3.7-6.1,8.4-6.6,9
			c-1.7,1.9-2.1,4.4-4.2,6.1c-0.7,0.5-1.5,0.9-2.3,1.1c-2.8,0.7-5.9,0.2-7.8-2.2C39.8,334.4,40,331.8,41.1,329.4z"/>
		<path class="st2" d="M69.5,290.7c1.4,0.6,0,11.2-0.7,17c-0.3,2.2,0.9,4.5-4.7,8.9c-4.9,3.9-8.5,10.4-10.6,12.8
			c-2.5,2.7-2.5,5.7-5,6.3c-4.4,1.1-7.2-2.3-3.3-7c4.1-5,11.4-12.5,11.6-12.7c0,0-11.7,7-18.9,11.7c-1.2,0.8-1.7,3.5-2.6,4
			c-6.1,3.4-12.3-3.4-4.3-8.9c6.4-4.4,18.3-9.7,18.3-9.7s-5.1,0.7-19,4.3c-1.1,0.3-1.8,2.5-3.4,3.8c-2,1.6-6.2,0.6-7.2-2
			c-4.6-11.2,36.4-14,44.7-12.2c-0.7-0.6-1.5-1.2-2.5-1.6c1.2-2.3,2.7-10.4,3.6-13.5C66.8,287.7,68.7,290.6,69.5,290.7z"/>
		<path class="st3" d="M69.6,300.8c-0.3,2.5-0.6,5-0.8,6.9c-0.3,2.2,0.9,4.5-4.7,8.9c-4.9,3.9-8.5,10.4-10.6,12.8
			c-2.5,2.7-2.5,5.7-5,6.3c-3.7,0.9-6.4-1.4-4.6-5.1c0,0.1,0,0.3,0,0.4c0,2.9,4.5,2.8,7.5-2.5s12.1-13.6,15-16
			c3-2.4,0.7-12.2,0.7-12.2S68.1,300.5,69.6,300.8L69.6,300.8z M56.7,316.2c0.7-0.5,1.2-0.9,1-1.1c-0.4-0.5-21.7,11.7-21.7,11.7
			s0,2.1-4.5,3.4c-2.1,0.6-3.6-0.5-4.4-2c-0.3,3.5,3.9,5.9,8.1,3.6c0.9-0.5,1.4-3.1,2.6-4C45.1,323.1,56.8,316.1,56.7,316.2
			C56.8,316.1,56.8,316.1,56.7,316.2L56.7,316.2z M49.1,313.3c1.9-0.7,5.3-1.9,3.1-1.8c-3,0.1-23.3,3.5-23.3,3.5s-0.9,1.2-2.9,3.1
			c-1.8,1.8-5,1.5-6.6-1.6c-0.2,0.8-0.2,1.7,0.2,2.7c1.1,2.6,5.2,3.6,7.2,2c1.6-1.2,2.3-3.5,3.4-3.8c13.9-3.5,19-4.3,19-4.3
			L49.1,313.3z"/>
		<path class="st4" d="M19.4,317.2C23.1,307,43,306.4,52.5,306c3.7-0.1,7.3-0.3,10.9,0.7c-2.6-0.1-3.4-0.1-6.7,0
			c-8.5,0.4-32.2,1.9-35.2,10.9c-0.1,0.6-0.7,0.9-1.3,0.8C19.6,318.4,19.2,317.8,19.4,317.2z"/>
		<path class="st0" d="M151,329.4c0.4,0.3,0.9,0.6,1.3,0.9c0.1,0.2,0.2,0.5,0.3,0.6c0.7,1.4,1.2,2.8,2.7,3.6c4,2.2,9.4,1.7,11.8-2.5
			c1.1-1.9,1.2-4.1,0.4-6.1c-0.1-0.2-0.2-0.5-0.3-0.7c3.3,0.2,6.9-1.6,8.1-4.7c0.6-1.5,0.8-3.2,0.4-4.8c-1.1-4.2-5.7-6.3-9.4-7.6
			c-4.7-1.6-9.9-2.4-14.7-3c-4.6-0.6-9.2-1-13.9-1.3c-1.7-0.1-3.4-0.2-5.2-0.3c-0.4,0-0.8-0.1-1.2-0.1c-0.1-0.4-0.1-0.8-0.2-1.1
			c-0.2-1.4-0.3-2.8-0.5-4.1c-0.2-2.2-0.5-4.9-1.1-7.1c-0.7-2.3-2.1-4.6-4.8-4.5c-1.5,0-2.2,0.6-3.2,1.3h-0.1c-2.4,1-2.6,4-2.6,6.3
			c-0.1,2.4,1.4,5.1,1.6,7.5c0.7,2.5,0,10.5,1.1,12.7c0.1,0.3,4.1,3.1,8.2,8.2c3.1,3.7,6.1,8.4,6.6,9c1.7,1.9,2.1,4.4,4.2,6.1
			c0.7,0.5,1.5,0.9,2.3,1.1c2.8,0.7,5.9,0.2,7.8-2.2C152.3,334.4,152.1,331.8,151,329.4z"/>
		<path class="st2" d="M122.6,290.7c-1.4,0.6,0,11.2,0.7,17c0.3,2.2-0.9,4.5,4.7,8.9c4.9,3.9,8.5,10.4,10.6,12.8
			c2.5,2.7,2.5,5.7,5,6.3c4.4,1.1,7.2-2.3,3.3-7c-4.1-5-11.4-12.5-11.6-12.7c0,0,11.7,7,18.9,11.7c1.2,0.8,1.7,3.5,2.6,4
			c6.1,3.4,12.3-3.4,4.3-8.9c-6.4-4.4-18.3-9.7-18.3-9.7s5.1,0.7,19,4.3c1.1,0.3,1.8,2.5,3.4,3.8c2,1.6,6.2,0.6,7.2-2
			c4.6-11.3-36.5-14.1-44.8-12.3c0.7-0.6,1.5-1.2,2.5-1.6c-1.2-2.3-2.7-10.4-3.6-13.5C125.3,287.7,123.4,290.6,122.6,290.7z"/>
		<path class="st3" d="M122.5,300.8c0.3,2.5,0.6,5,0.8,6.9c0.3,2.2-0.9,4.5,4.7,8.9c4.9,3.9,8.5,10.4,10.6,12.8
			c2.5,2.7,2.5,5.7,5,6.3c3.7,0.9,6.4-1.4,4.6-5.1c0,0.1,0,0.3,0,0.4c0,2.9-4.5,2.8-7.5-2.5s-12.1-13.6-15-16
			c-3-2.4-0.7-12.2-0.7-12.2S124,300.5,122.5,300.8L122.5,300.8z M135.3,316.2c-0.7-0.5-1.2-0.9-1-1.1c0.4-0.5,21.7,11.7,21.7,11.7
			s0,2.1,4.5,3.4c2.1,0.6,3.6-0.5,4.4-2c0.3,3.5-3.9,5.9-8.1,3.6c-0.9-0.5-1.4-3.1-2.6-4C147,323.1,135.3,316.1,135.3,316.2
			C135.3,316.1,135.3,316.1,135.3,316.2L135.3,316.2z M143,313.3c-1.9-0.7-5.3-1.9-3.1-1.8c3,0.1,23.3,3.5,23.3,3.5s0.9,1.2,2.9,3.1
			c1.8,1.8,5,1.5,6.6-1.6c0.2,0.8,0.2,1.7-0.2,2.7c-1.1,2.6-5.2,3.6-7.2,2c-1.6-1.2-2.3-3.5-3.4-3.8c-13.9-3.5-19-4.3-19-4.3
			L143,313.3z"/>
		<path class="st4" d="M172.7,317.2c-3.7-10.2-23.6-10.8-33.1-11.2c-3.7-0.1-7.3-0.3-10.9,0.7c2.6-0.1,3.4-0.1,6.7,0
			c8.5,0.4,32.2,1.9,35.2,10.9c0.1,0.6,0.7,0.9,1.3,0.8C172.5,318.4,172.9,317.8,172.7,317.2z"/>
		<path class="st1" d="M157.8,138.9c13.7,6.5,29.2,30.2,27.8,57.5c-1.4,27.2-41.2,77.4-44.6,78.2c-9.8,2.4-10.9-133.9-2.6-134.4
			L157.8,138.9z"/>
		<path class="st5" d="M157.8,138.9c13.7,6.5,29.2,30.2,27.8,57.5c0,0.5-0.1,1.1-0.1,1.6c-7.7,9.5-20.4,6.8-25.2-8.9
			c-6.5-21.3-11.4-33.2-11.4-33.2s-5.8-10.1-2-16.3L157.8,138.9z"/>
		<path class="st6" d="M185,200.3c-0.2,1-9.1,29.4-10.3,19c-0.2-1.9-0.3-4.4-0.4-6.1c-0.2-4.6-1.4-6.5-4.1-0.7
			c-7.3,16-13.2,20.9-10.1-2.7l0.3-2.6c-1.5,4.5-3.7,12.9-2.1,17.7c2.6,7.8,9.8-4.3,13.5-11.4c0,3.8,0.3,10.7,3,10.6
			c0.6,0,1.1-0.2,1.7-0.4C180.7,215.4,183.9,207.3,185,200.3z"/>
		<path class="st6" d="M164.6,244.4l0.1-0.8c0.4-3.4-0.2-6.1-2.8-1.8c-8.1,13.4-13.6,17.6-8-2.9l0.6-2.3c-1.8,3.7-4.6,10.9-4,15.2
			c1,7.1,8.3-2.6,12.1-8.3c-0.2,1.2-0.4,2.9-0.5,4.4C163,246.8,163.8,245.6,164.6,244.4z"/>
		<path class="st1" d="M34.9,138.9c-13.7,6.5-29.2,30.2-27.8,57.5c1.4,27.2,41.2,77.4,44.6,78.2c9.8,2.4,10.9-133.9,2.6-134.4
			L34.9,138.9z"/>
		<path class="st5" d="M34.9,138.9c-13.7,6.5-29.2,30.2-27.8,57.5c0,0.5,0.1,1,0.1,1.5c7.7,9.6,20.4,6.8,25.2-8.8
			c6.5-21.3,11.4-33.2,11.4-33.2s5.8-10.1,2-16.3L34.9,138.9z"/>
		<path class="st6" d="M7.6,200.3c0.2,1,9.1,29.4,10.3,19c0.2-1.9,0.3-4.4,0.4-6.1c0.2-4.6,1.4-6.5,4.1-0.7
			c7.3,16,13.2,20.9,10.1-2.7l-0.3-2.6c1.5,4.5,3.7,12.9,2.1,17.7c-2.6,7.8-9.8-4.3-13.5-11.4c0,3.8-0.3,10.7-3,10.6
			c-0.6,0-1.1-0.2-1.7-0.4C11.9,215.4,8.7,207.3,7.6,200.3z"/>
		<path class="st6" d="M28,244.4l-0.1-0.8c-0.4-3.4,0.2-6.1,2.8-1.8c8.1,13.4,13.6,17.6,8-2.9l-0.6-2.3c1.8,3.7,4.6,10.9,4,15.2
			c-1,7.1-8.3-2.6-12.1-8.3c0.2,1.2,0.4,2.9,0.5,4.4C29.6,246.8,28.8,245.6,28,244.4z"/>
		<path class="st0" d="M37.3,154.6c-8.3-8.7-10.7-17.1-11.9-28.4c-2.4-0.2-9.2,0.9-9.4,0.5c0.9-0.7,4.5-7.2,5.1-8.5
			c2.7-5.5,3.1-12.9,2.9-18.9c-0.4-8.6,5.4-25.1,10.6-32c13.5-18.3,37.7-23,59.2-23.1c22-0.1,49.1,3,63.8,21.5
			c7.1,9,11,26.9,10.5,38.3c-0.2,4.7,1.1,9.3,3.3,13.5c1.2,2.2,1.3,5.8,5.5,11.3c-4.3,0.1-9.6-2.3-11.5-2.9
			c-1.2,11.4-2.2,20.2-10.6,28.9c4.9,14.6,7.1,30.1,6.6,45.6c-0.6,16.7-4.5,33-11.4,48.2c-2.8,6.2-5.6,12.4-8.4,18.6
			c-1.7,3.9-3.5,7.8-5.1,11.8c-1.6,3.9-3.2,7.9-4.1,12.1c-0.1,0.6-0.2,1.2-0.3,1.8c-0.4,2.1-0.7,4.2-1,6.3c-0.1,0.5-0.2,1.1-0.2,1.6
			c-0.1,1.4-1,2.5-2.3,2.9l-5.3,1.4c-1.6,0.4-3.2-0.5-3.7-2c-1.7-4.9-4.9-8.8-9.3-11.4c-12.5-7.4-32.5-3.2-37.6,11.4
			c-0.5,1.5-2.1,2.4-3.7,2l-5.3-1.4c-1.4-0.3-2.3-1.5-2.3-2.9c0-0.5-0.1-1.1-0.2-1.6c-0.3-2.1-0.7-4.2-1-6.3
			c-0.1-0.6-0.2-1.2-0.3-1.8c-0.9-4.2-2.4-8.2-4.1-12.1c-1.6-4-3.4-7.9-5.1-11.8c-2.8-6.2-5.6-12.4-8.4-18.6
			c-6.9-15.2-10.8-31.6-11.4-48.3C30.1,184.7,32.4,169.2,37.3,154.6z"/>
		<path class="st7" d="M40.9,153.7c-8.9,25-9.7,53-1.2,79.5c-3.5-18.6-4.5-40.4,0.6-53l1.9-3.7l-0.8,4c-4.2,21.9,0.9,55.8,9.5,78.7
			c0.4,0.9,1.8,4,2.3,6.1c7.6,17.1,8.9,21,9.9,26.9c1.3,7.5,1.3,8.3,1.3,8.3l5.3,1.4c7.6-22,44.6-23.6,52.8,0l5.3-1.4
			c0,0,0-0.8,1.3-8.3c1-5.9,2.4-9.9,10.2-27.5c0.6-2.1,1.7-4.8,2.1-5.5c8.6-22.8,13.7-56.8,9.5-78.7l-0.8-4l1.9,3.7
			c5.1,12.4,4.2,33.7,0.8,52c8.1-26.2,7.2-53.8-1.5-78.5c9.8-9.6,11.6-18.4,12.7-31.9l8.8,3.1c0,0-8.3-9.1-7.8-21.3
			c0.4-10.5-3.2-27.8-9.9-36.2C141.8,50.7,117.2,47,93.8,47.1c-23.9,0.1-45,6-56.7,21.8c-5.4,7.3-10.3,23.3-10,30.1
			c0.9,21.6-7.8,25.9-7.8,25.9l8.8-3.1C29.3,135.4,31,144.2,40.9,153.7z"/>
		<path class="st8" d="M42.8,185.9c-7,43.3,7.5,86.6,47.5,94.9c2.1,0.4,4,0.5,5.8,0.3c1.7,0.2,3.6,0.2,5.8-0.3
			c39.9-8.3,54.5-51.6,47.5-94.9c1-22.3-48-15.9-53.2-15.1C90.9,170.1,41.8,163.6,42.8,185.9z"/>
		<path class="st7" d="M40.9,153.7c-8.9,25-9.7,53-1.2,79.5c-3.5-18.6-4.5-40.4,0.6-53l1.9-3.7l-0.8,4c-4.2,21.9,0.9,55.8,9.5,78.7
			c0.4,0.9,1.8,4,2.3,6.1c0.7,1.6,1.4,3.1,2,4.4c-0.3-2.4-1.1-5.5-2.7-9.8c-10.9-28.5-11.7-68.5-3.1-85.8c0,0,42.3-68.5,1.8-75.7
			c-15.9-2.9-23.9,8.8-27.8,25.1l4.8-1.7C29.3,135.4,31,144.2,40.9,153.7L40.9,153.7z M137,269.8c0.7-1.5,1.4-3.2,2.2-5
			c0.6-2.1,1.7-4.8,2.1-5.5c8.6-22.8,13.7-56.8,9.5-78.7l-0.8-4l1.9,3.7c5.1,12.4,4.2,33.7,0.8,52c8.1-26.2,7.2-53.8-1.5-78.5
			c9.8-9.6,11.6-18.4,12.7-31.9l4.8,1.7c-3.9-16.3-11.9-27.9-27.8-25.1c-40.5,7.3,1.8,75.7,1.8,75.7c8.6,17.4,7.8,57.3-3.1,85.8
			C138,264.2,137.2,267.4,137,269.8z"/>
		<path class="st7" d="M40.9,153.7c-1.2,3.3-2.2,6.7-3.1,10.1c2.3,3.3,4.8,6.5,7.2,9.5c38.3,46.4,81.3,36,108.8-11.5
			c-0.8-2.7-1.6-5.4-2.5-8.1c9.8-9.6,11.6-18.4,12.7-31.9l6.5,2.3c-0.2-1.1-0.5-2.2-0.7-3.4c-2.3-3.8-5.1-9.9-4.8-17.1
			c0.3-7.3-1.4-18-4.7-26.6c-0.9-1.5-1.8-2.9-2.7-4.2c-14.7-18.5-41.8-21.6-63.8-21.5c-21.5,0.3-45.7,4.9-59.2,23.2
			c-0.9,1.2-1.8,2.8-2.7,4.5C29,86.3,27,94.6,27.2,99c0.5,12.5-2.2,19.2-4.5,22.7c-0.2,0.8-0.5,1.6-0.8,2.4l6.4-2.3
			C29.3,135.4,31,144.2,40.9,153.7z"/>
		<path class="st0" d="M71.5,289.2c13.5-5.2,33.1-6.1,46.5-0.4c3.3,1.4,3.8,1.2,6.4,3.6c-2.5-1-4.3-1.5-6.8-2.3
			C103.4,285.8,86.2,287.6,71.5,289.2z"/>
		<g>
			<path class="st5" d="M60.6,212.1c1.6-1.9,3.9-5.2,3.2-9.2c-0.2-1.2-0.6-1.7-1.1-1.9c-0.1,2.5-1.4,4.8-3,6.6c-0.2,0.2-0.7,0.8-1,1
				c-0.4-0.2-1.2-0.9-1.4-1.1c-1.9-1.7-3.9-3.9-4.8-6.4c-1.1-0.4-1.8-0.1-1.7,1.8c0.3,4,3.6,7.4,5.6,9.2
				C58.7,214.1,58.9,214,60.6,212.1z"/>
			<path class="st5" d="M85.7,216.5c1.8-1.9,4.5-5.2,4.2-9.2c-0.1-1.5-0.6-2-1.3-1.9c-0.2,1.1-0.6,2.1-1.1,3.1
				c-0.7,1.3-1.7,2.5-2.7,3.5c-0.2,0.2-0.9,0.9-1.2,1.1c-0.3-0.2-1-0.9-1.2-1.1c-1.8-1.8-3.6-4.1-4.1-6.6c-0.8-0.1-1.3,0.3-1.4,1.9
				c-0.1,4,2.8,7.4,4.7,9.2C83.5,218.5,83.8,218.5,85.7,216.5z"/>
			<path class="st5" d="M111,216.5c2-1.8,5.1-5.2,5.2-9.2c0.1-1.8-0.6-2.2-1.5-1.8c-0.7,2.5-2.7,4.8-4.5,6.5c-0.2,0.2-1,0.9-1.4,1.1
				c-0.3-0.2-0.9-0.8-1-1c-1.7-1.8-3.2-4.2-3.4-6.7c-0.6,0.1-1,0.6-1.2,1.9c-0.5,4,2,7.4,3.7,9.2C108.6,218.5,108.9,218.5,111,216.5
				z"/>
			<path class="st5" d="M136.1,212.1c2.2-1.9,5.6-5.2,6.2-9.2c0.3-2.1-0.6-2.2-1.9-1.6c-1.1,2.4-3.2,4.6-5.1,6.2
				c-0.2,0.2-1.1,1-1.5,1.1c-0.2-0.2-0.7-0.8-0.8-0.9c-1.5-1.9-2.7-4.2-2.6-6.6c-0.4,0.2-0.7,0.8-1,1.8c-1,4,1.1,7.4,2.6,9.2
				C133.5,214.1,133.8,214,136.1,212.1z"/>
			<path class="st5" d="M72.6,232.5c1.6-1.9,3.9-5.5,3.3-9.7c-0.2-1.4-0.6-2-1.2-2c-0.1,2.7-1.5,5.2-3.1,7.3c-0.1,0.2-0.6,0.8-0.9,1
				c-0.3-0.2-0.9-0.9-1.1-1.1c-1.9-1.9-3.7-4.4-4.4-7.1c-0.9-0.4-1.6,0-1.5,1.9c0.2,4.2,3.1,7.8,5,9.7
				C70.8,234.5,71,234.5,72.6,232.5z"/>
			<path class="st5" d="M98.1,232.5c1.8-1.9,4.5-5.5,4.5-9.7c0-1.8-0.6-2.2-1.4-2c-0.5,2.7-2.2,5.2-4,7.2c-0.2,0.2-0.7,0.8-1.1,1.1
				c-0.3-0.2-0.8-0.8-0.9-1c-1-1.1-1.8-2.4-2.5-3.7c-0.5-1.1-0.9-2.3-1-3.6c-0.6-0.1-1.1,0.5-1.2,2c-0.3,4.2,2.2,7.8,3.9,9.7
				C96,234.5,96.2,234.5,98.1,232.5z"/>
			<path class="st5" d="M123.6,232.5c2-1.9,5.2-5.5,5.6-9.7c0.2-2.1-0.6-2.4-1.7-1.8c-0.9,2.6-2.9,5-4.8,6.9
				c-0.2,0.2-0.9,0.9-1.3,1.1c-0.2-0.2-0.6-0.8-0.7-0.9c-1.6-2.1-2.7-4.7-2.6-7.3c-0.4,0.2-0.8,0.8-1.1,2c-0.8,4.2,1.3,7.8,2.7,9.7
				C121.2,234.5,121.5,234.5,123.6,232.5z"/>
			<path class="st5" d="M64.8,250.8c1.3-1.9,3.2-5.5,2.6-9.7c-0.2-1.3-0.6-1.9-1.1-2c0,2.6-1,5.2-2.5,7.4c-0.1,0.2-0.4,0.6-0.6,0.9
				c-0.3-0.3-0.8-0.8-1-1c-1.8-1.9-3.6-4.3-4.4-6.9c-1.1-0.7-1.9-0.5-1.6,1.7c0.4,4.2,3.3,7.8,5.1,9.7
				C63.2,252.9,63.4,252.8,64.8,250.8z"/>
			<path class="st5" d="M86.1,250.8c1.5-1.9,3.8-5.5,3.6-9.7c-0.1-1.7-0.6-2.2-1.3-2c-0.1,1.2-0.5,2.4-1,3.5
				c-0.6,1.3-1.4,2.6-2.3,3.7c-0.1,0.2-0.5,0.7-0.8,0.9c-0.3-0.3-0.7-0.8-0.8-0.9c-1.7-2.1-3.2-4.6-3.7-7.2c-0.8-0.3-1.3,0.1-1.4,2
				c0,4.2,2.4,7.8,4.1,9.7C84.3,252.9,84.5,252.8,86.1,250.8z"/>
			<path class="st5" d="M107.7,250.8c1.8-2,4.5-5.5,4.7-9.7c0.1-2-0.6-2.3-1.5-1.8c-0.7,2.6-2.3,5.1-4.1,7c-0.2,0.2-0.6,0.7-0.9,1
				c-0.2-0.3-0.5-0.7-0.7-0.9c-1.6-2.2-2.7-4.7-2.8-7.4c-0.5,0-1,0.6-1.2,2c-0.5,4.2,1.6,7.8,3,9.7
				C105.6,252.9,105.9,252.8,107.7,250.8z"/>
			<path class="st5" d="M129,250.8c2-2,5-5.5,5.7-9.7c0.4-2.4-0.6-2.4-1.9-1.5c-1,2.5-2.9,4.8-4.7,6.7c-0.2,0.2-0.7,0.7-1.1,1
				c-0.2-0.3-0.4-0.6-0.5-0.8c-1.4-2.2-2.2-4.8-2-7.3c-0.4,0.2-0.7,0.8-1,1.9c-1,4.2,0.7,7.8,1.9,9.7
				C126.8,252.9,127,252.8,129,250.8z"/>
			<path class="st5" d="M75.2,267.1c1.3-1.9,3.2-5.4,2.7-9.6c-0.2-1.6-0.6-2.1-1.2-2c-0.1,2.6-1.1,5.1-2.6,7.3
				c-0.1,0.2-0.3,0.5-0.5,0.8c-0.3-0.3-0.6-0.7-0.7-0.8c-1.7-2-3.1-4.4-3.8-6.9c-0.9-0.6-1.6-0.4-1.5,1.7c0.2,4.2,2.7,7.7,4.4,9.6
				C73.7,269.1,73.8,269.1,75.2,267.1z"/>
			<path class="st5" d="M96.6,267.1c1.5-1.9,3.8-5.4,3.9-9.6c0-2-0.6-2.3-1.4-1.9c-0.5,2.6-1.8,5-3.4,7.1c-0.1,0.2-0.4,0.6-0.7,0.8
				c-0.2-0.3-0.5-0.6-0.6-0.8c-1.5-2.1-2.7-4.6-3-7.3c-0.6-0.2-1.1,0.3-1.2,2c-0.3,4.2,1.8,7.7,3.2,9.6
				C94.8,269.1,95,269.1,96.6,267.1z"/>
			<path class="st5" d="M118,267.1c1.7-1.9,4.5-5.4,5-9.6c0.3-2.4-0.6-2.4-1.8-1.5c-0.8,2.5-2.4,4.7-4.1,6.6
				c-0.2,0.2-0.5,0.6-0.8,0.9c-0.2-0.2-0.3-0.5-0.4-0.7c-1.4-2.2-2.2-4.8-2.1-7.4c-0.4,0.1-0.8,0.7-1,2c-0.8,4.2,0.9,7.7,2.1,9.6
				C115.9,269.1,116.1,269.1,118,267.1z"/>
		</g>
		<path class="st9" d="M28,146.6c-0.1,0.2-5,5.8-5.1,6c-19.7,25.5-16.8,53-2.5,80.1l1.7,3.2c-11.7-15.2-16.9-34.4-15-53.4
			c1.2-12.2,10.3-32.9,20.5-39.3c0.9-0.1,1.8,0.6,1.9,1.5C29.6,145.6,28.9,146.5,28,146.6z"/>
		<path class="st9" d="M164.3,146.6c0.1,0.2,5,5.8,5.1,6c19.7,25.5,16.8,53,2.5,80.1l-1.7,3.2c11.6-15.1,16.8-34.3,15-53.3
			c-1.2-12.2-10.3-32.9-20.5-39.3c-0.9-0.1-1.8,0.6-1.9,1.5C162.7,145.6,163.4,146.5,164.3,146.6z"/>
		<path class="st6" d="M182.2,171.5c0.1,5.7-0.4,12.1-3.2,15.7c-1.1-1.5-2.6-5.5-3.5-7.9c-1.7-4.7-3.4-5.5-4.2,0.8
			c-2.1,16.8-6.2,22.9-10.6-0.3l-0.5-2.6c-0.1,4.7,0.5,13.4,3.6,17.6c5,6.8,8.1-6.7,9.4-14.4c1.2,3.7,3.6,10.2,6.3,9.4
			s4.1-4.9,4.8-9.8C183.8,177.1,183.1,174.3,182.2,171.5z"/>
		<path class="st6" d="M10.4,171.5c-0.1,5.7,0.4,12.1,3.2,15.7c1.1-1.5,2.6-5.5,3.5-7.9c1.7-4.7,3.4-5.5,4.2,0.8
			c2.1,16.8,6.2,22.9,10.6-0.3l0.5-2.6c0.1,4.7-0.5,13.4-3.6,17.6c-5,6.8-8.1-6.7-9.4-14.4c-1.2,3.7-3.6,10.2-6.3,9.4
			S9,184.9,8.3,180C8.8,177.1,9.6,174.3,10.4,171.5z"/>
		<path class="st0" d="M157.9,155.1l0.7,15.1c0,1-0.4,2-1.2,2.6s-1.8,0.8-2.8,0.5c-5.2-1.6-13.9-5.4-15.8-10.8
			c-1-2.9,1.2-7.3,2.5-9.8c2.1-4.1,4.6-8.1,7.1-11.9c3.9-6,8-11.9,12.2-17.6c0.9-1.2,2.4-1.6,3.8-1c1.3,0.6,2.1,2,1.8,3.5
			c-3.8,16.5,1,35.7,0.1,36.2C164.7,162.4,159.3,156.5,157.9,155.1z"/>
		<path class="st0" d="M34.6,155.1c-1.4,1.4-6.6,7-8,6.3c-1.3-0.6,3.9-15.7-0.1-35.9c-0.3-1.4,0.4-2.9,1.8-3.5
			c1.3-0.6,2.9-0.2,3.8,1c4.2,5.7,8.3,11.7,12.2,17.6c2.5,3.8,5,7.9,7.1,11.9c1.3,2.6,3.5,6.9,2.5,9.8c-2,5.8-20.3,14.7-20.5,14.5
			C32.9,176.8,34.5,157,34.6,155.1z"/>
		<path class="st0" d="M162.9,126.1c0.2,14.8-11.5,35.8-22.6,45.5c-2.4,2.1-17.4,10.4-19.8,8.8c-2.1-1.5,8.4-12.8,5.8-11.3
			c-3.3,2-5.1,2.6-8.4,4.1c-6,2.8-1.1-1.5-1.8-4.1c-1.3,1.1-9,8.4-10.4,7.6c-0.2-0.1,1.1-2.1,0.9-2.2c-0.9,1.1-10.3,12.9-10.3,12.9
			c-0.3,0-8.6-11.3-9.4-12.4c-0.4,0.4,1.6,3.1,0.5,2.9c-3.6-1.5-10.3-5.5-13.2-7.7c-0.2,1.6,0.3,6.9,0.2,6.9
			c-1.9,1.9-11.8-7.1-13.2-8.4c-3.3-3.1,1.3,7.5-2.1,8C57,177,46.6,168,44.8,165.8c-4.4-5.3-8.9-11.4-11.9-17.6
			c-3.2-6.7-6.2-14.6-7.5-22.3c-2.1,0.7-8.6,1.2-11.2,1.1c1.6-0.6,5.2-6,6.8-9.2c2.7-5.5,3.1-12.9,2.9-18.9
			c-0.4-8.6,5.4-25.1,10.6-32c13.5-18.3,37.7-23,59.2-23.1c22-0.1,49.1,3,63.8,21.5c7.1,9,11,26.9,10.5,38.3
			c-0.1,2.7,4.3,21.3,4.3,21.4c-0.7,1.4-2.3,2-3.8,1.5L162.9,126.1z"/>
		<path class="st8" d="M69.9,185.7l1-8.7c7.7,8.7,12.8,9.5,12.8,9.5l-1.9-9.4l13.6,19.5l14-18.3l-1.5,7.5c0,0,7.5-6.1,13.9-12.5
			l-4.3,10.2c0,0,13.7-6.4,26.2-19.2c3.9,3.7,11.8,6.1,11.8,6.1c-0.1-2.4-2.8-26.4-2.5-26.9l9.5,11.8c0,0-0.7-6-0.8-13.6
			c-1-8.9,1.7-24.3,2.5-28c0.4,2.8,0.6,5.6,0.5,8.5c0.7,0.3,8.1,3,8.1,2.9c-2.4-3.6-8.2-13.3-7.8-21.3c0.4-10.5-3.2-27.8-9.9-36.2
			c-13.3-16.7-37.9-20.4-61.3-20.3c-23.9,0.1-45,6-56.7,21.8c-5.4,7.3-10.3,23.3-10,30.1c0.9,21.6-7.8,25.9-7.8,25.9l7.9-2.8
			c0.2-2.5,0.5-5.1,1.2-8.3c0.4,19,3.6,20.9,2.1,37.5c-0.1,1.2-1.4,4.9-0.4,3.9l8.8-9.4c0.6,7.5-1.6,18.6-1.8,24.4
			c0,0,6.9-2.1,11-5.4C58.2,176.9,69.8,187.2,69.9,185.7z"/>
		<path class="st7" d="M78.7,115.9c3.2-2.1,7.5-8.6,9.4-11.7s4.8-7.5,8.9-7.5s7,4.3,8.9,7.5c1.4,2.3,2.6,4.8,3.9,7.1
			c0.6,1,1.7,3,2.8,3.5c0.5,0.2,2.4,0.1,3,0.1c3,0,6,0.5,7.6,3.3c0.5,0.9,0.8,1.9,0.6,3c-0.6,3.8-6.1,4.9-9.2,5.6
			c-8,1.9-10.2,8.7-15.5,13.8l-2.3,2.1l-2.1-2.2c-4.5-4.8-9.8-13.1-16.9-13.8c-1.8-0.2-3.8-0.4-5.5-0.8c-1.8-0.5-3.4-1.4-3.8-3.4
			c-0.3-1.7,0.5-2.9,1.5-4.1c1.3-1.6,3.9-1.9,5.8-2.2C76.6,116.2,77.9,116.1,78.7,115.9z"/>
		<path class="st7" d="M132,174.3c3.7-2.8,7.7-6.1,11.6-10.1c3.9,3.7,11.8,6.1,11.8,6.1c-0.1-2.4-2.8-26.4-2.5-26.9l9.5,11.8
			c0,0-0.7-6-0.8-13.6c-1-8.9,1.7-24.3,2.5-28c0.4,2.8,0.6,5.6,0.5,8.5c0.7,0.3,8.1,3,8.1,2.9c-2.4-3.6-8.2-13.3-7.8-21.3
			c0.1-1.7,0-3.5-0.1-5.5c-0.7,9.7-5.7,18.2-6.4,29.8c-0.8,13-0.3,17.1-0.3,17.1l-8.3-10.5l0.4,29.6l-8.7-4.1
			C141.6,160.1,137.2,167,132,174.3L132,174.3z M27.2,96.8c-0.1,0.8-0.1,1.6-0.1,2.3c0.9,21.6-7.8,25.9-7.8,25.9l7.9-2.8
			c0.2-2.5,0.5-5.1,1.2-8.3c0.4,19,3.6,20.9,2.1,37.5c-0.1,1.2-1.4,4.9-0.4,3.9l8.8-9.4c0.6,7.5-1.6,18.6-1.8,24.4
			c0,0,6.9-2.1,11-5.4c8.9,10.7,19.1,19.9,21.4,20.9c-8.3-8.7-18.9-25.7-18.9-25.7l-8.7,4.1l0.4-29.6L34,145.1c0,0,0.5-4.1-0.3-17.1
			C33,115.8,27.4,107.1,27.2,96.8z"/>
		<path class="st5" d="M165,103.6c0.4-10.5-3.2-27.7-9.9-36c-13.3-16.7-37.9-20.4-61.3-20.3c-23.9,0.1-45,6-56.7,21.8
			c-5.4,7.3-10.3,23.3-10,30.1c0.2,5.6-0.2,10-0.9,13.5l0.1,0.1c2.6-18.2,4.9-30.3,13.2-15.6c8.3,14.8,23.3,21.5,27,16.1
			c3.6-5.4,8-5.2,7.3-10.6c-0.7-5.2,8.4-16.7,22-16.5c11.9,0.2,27.6,3.3,24.4,17.3c-2.6,11.4,10.9,16.1,10.9,16.1s15-5.4,22.3-15.6
			C158.1,97.4,162.3,99.2,165,103.6z"/>
		<path class="st5" d="M72.4,104.9c2.1,20-1,43.9-13,52.5c-19,13.7-16.6-48.7-9.9-65.9C56.3,74.4,72.4,104.9,72.4,104.9z"/>
		<path class="st5" d="M121.8,104.9c-2.1,20,1,43.9,13,52.5c19,13.7,16.6-48.7,9.9-65.9C137.9,74.4,121.8,104.9,121.8,104.9z"/>
		<path class="st0" d="M41.5,97.5c-1-5.7-1.7-10.5,2.6-15.1c6.3-6.6,17.1-2.9,22.6,3.3c5.3,5.9,8.5,15.4,6.6,23.6l-2.1,5.5
			c0-3.1,0-7.6-0.5-10.7c-1.5-8.8-7.9-17.2-15.8-19.8C45.1,81.1,43.3,89.5,41.5,97.5z"/>
		<path class="st0" d="M54.7,80.5c-14.2,14.2-6.6,31.3,3.5,35.5c4.6,1.9,12.1,1.1,13.9-3.9C74.9,104.4,66.6,82.3,54.7,80.5z"/>
		<path class="st0" d="M152.5,97.5c1-5.7,1.7-10.5-2.6-15.1c-6.3-6.6-17.1-2.9-22.6,3.3c-5.3,5.9-8.5,15.4-6.6,23.6l2.1,5.5
			c0-3.1,0-7.6,0.5-10.7c1.5-8.8,7.9-17.2,15.8-19.8C148.9,81.1,150.7,89.5,152.5,97.5z"/>
		<path class="st0" d="M139.4,80.5c14.2,14.2,6.5,31.3-3.5,35.5c-4.6,1.9-12.1,1.1-13.9-3.9C119.1,104.4,127.4,82.3,139.4,80.5z"/>
		<path class="st4" d="M63.9,91.8c1.4-0.6,3.6,1.2,4.9,4.1c1.3,2.9,1.2,5.8-0.2,6.4c-1.4,0.6-3.6-1.2-4.9-4.1S62.5,92.5,63.9,91.8z"
			/>
		<path class="st4" d="M129.9,91.8c-1.4-0.6-3.6,1.2-4.9,4.1s-1.2,5.8,0.2,6.4c1.4,0.6,3.6-1.2,4.9-4.1S131.3,92.5,129.9,91.8z"/>
		<path class="st0" d="M49.5,27.6c26.4-24,68.7-24,95.1,0c7.9,7.2,12.7,17.2,15.3,27.7c1.2,4.8,2.1,10.8,2.1,15.8
			c0,1.8-1.4,3.2-3.1,3.2H35.2c-1.7,0-3.1-1.5-3.1-3.2c0-5,1-11,2.1-15.8C36.7,44.8,41.6,34.8,49.5,27.6z"/>
		<path class="st2" d="M51.5,30C35.2,44.9,35.2,71.1,35.2,71.1h123.7c0,0,0-26.2-16.3-41.1C117.3,7.1,76.7,7.1,51.5,30z"/>
		<path class="st3" d="M36.5,59.2c-1.4,6.9-1.4,11.9-1.4,11.9h60.2c0.2-0.2,0.3-0.4,0.3-0.4s0.1,0.1,0.3,0.4h63c0,0,0-5.1-1.4-12.1
			c-11,1.3-35.1-3-38.5-9.6c-3.6-7-0.2-20.9,5.5-31c-18.1-7.8-39.3-7.5-57.2,1c5.4,10,8.4,23.2,5,30C69.1,55.5,48.4,59.7,36.5,59.2z
			"/>
		<path class="st0" d="M111.7,74.4H82.5c-1.7,0-3.1-1.4-3.1-3.2c-0.3-10.1-1.9-38-7-47.1c-1.8-3.2-3.6-6.4-5.4-9.6
			c-0.4-0.8-0.5-1.6-0.3-2.5s0.7-1.5,1.5-2c18.7-10.9,39-10.9,57.7,0c0.8,0.4,1.3,1.1,1.5,2s0.1,1.7-0.3,2.5
			c-1.8,3.2-3.6,6.4-5.4,9.6c-1.2,2.2-2,6-2.5,8.5c-0.8,4.3-2.2,8.8-2.7,13.2c-0.9,8.4-1.4,17-1.6,25.5
			C114.8,73,113.4,74.4,111.7,74.4z"/>
		<path class="st2" d="M97,71.1H81.4c0,0-1-39-6.4-48.7c-5.4-9.6-5.4-9.6-5.4-9.6c0.5-0.3,0.9-0.5,1.4-0.8c9.3,12,8.1,12.1,9.6,27.6
			c0.6,6.5,1,13.1,1.9,19.6c0.6-6.6,0.3-13.2,0-19.8c-0.8-15.7,0-16.6-8.9-28.8c15.1-7.4,31-7.4,46.1-0.2c-9,12.4-8.2,13.2-9,29
			c-0.3,6.6-0.6,13.2,0,19.8c0.9-6.5,1.3-13.1,1.9-19.6c1.5-15.6,0.4-15.6,9.7-27.7l0.1-0.1c0.6,0.3,1.2,0.7,1.8,1c0,0,0,0-5.4,9.6
			s-6.4,48.7-6.4,48.7H97z"/>
		<path class="st0" d="M61.7,19.2c0.9,2.6,8.9,22.9,7.4,23.8l-6.6,3.8c-1.8,1-12.6-16.5-13.9-19.4c-0.5-1.1-0.4-2.3,0.2-3.3
			c1.9-2.9,5.9-5.4,9-6.6C59.3,16.9,61,17.7,61.7,19.2z"/>
		<path class="st2" d="M58.8,20.6c-5.4,2.2-7.5,5.4-7.5,5.4c3.5,7.5,7.3,14.7,11.1,22.1l6.5-3.9L58.8,20.6z"/>
		<path class="st0" d="M136.3,17.5c3.1,1.2,7.1,3.7,9,6.6c0.7,1,0.7,2.2,0.2,3.3c-1.1,2.4-11.2,21.4-13.6,19.9l-6.5-3.9
			c-2.7-1.7,5.7-20.9,6.9-24.2C132.9,17.6,134.8,16.9,136.3,17.5z"/>
		<path class="st2" d="M135.2,20.6c5.4,2.2,7.5,5.4,7.5,5.4c-3.5,7.5-7.3,14.7-11.2,22.1l-6.5-3.9L135.2,20.6z"/>
		<path class="st8" d="M48,100.7c1.9,7.8,6.5,17.5,16.2,15.6c3.2-0.6,4.6-2.1,6.5-4.4c-1.1,3.1-2.9,4.8-6.2,5.8
			c-10.8,3-16.8-7.7-19.3-16.4c-0.2-0.7,0.3-1.5,1.1-1.6C47.1,99.5,47.8,100,48,100.7z"/>
		<path class="st0" d="M33.9,67.5C48.6,60.6,73,56.2,97.4,56.2c24.1,0,48.3,4.5,62.8,11.3c1.5,0.7,2.2,2.4,1.6,3.9
			c-2.7,7-17,9.8-23.4,10.9s-13,1.8-19.5,2.3c-7.3,0.5-14.6,0.8-21.9,0.8s-14.6-0.2-21.9-0.8c-6.5-0.5-13.1-1.2-19.5-2.3
			c-6.5-1.1-20.7-3.8-23.4-10.9C31.7,69.9,32.4,68.2,33.9,67.5z"/>
		<path class="st3" d="M35.2,70.3c6.1,15.9,117.6,15.9,123.7,0C124.8,54.3,69.3,54.3,35.2,70.3z"/>
		<path class="st2" d="M153.7,68c-32.5-13-80.8-13-113.3,0C51.9,81.8,142.1,81.8,153.7,68z"/>
		<path class="st8" d="M146.4,100.7c-1.9,7.8-6.5,17.5-16.2,15.6c-3.2-0.6-4.6-2.1-6.5-4.4c1.1,3.1,2.9,4.8,6.2,5.8
			c10.8,3,16.8-7.7,19.3-16.4c0.2-0.7-0.3-1.5-1.1-1.6C147.3,99.5,146.6,100,146.4,100.7z"/>
		<path class="st0" d="M41.2,65.3C55,75.8,75.7,76,92.3,77.5l3.6,0.4c7.2,0.1,24-1.8,31.4-3.1c9.2-1.6,17.1-3.3,24.5-9.3
			c0.5-0.6,1.4-0.6,2-0.1s0.6,1.4,0.1,2l-3.8,2.9c-8.5,5.2-25.2,7.1-35,7.7c-7.4,0.4-12,0-19.1-0.1l-3.6,0.3
			c-8.6,0.4-21.6-0.8-30.2-2.3c-9.2-1.6-15.1-3.1-22.8-8.8c-0.5-0.5-0.5-1.4,0-2C39.8,64.7,40.7,64.7,41.2,65.3z"/>
		<path class="st4" d="M46.3,65.6c14.4-5.2,45.9-8.8,61-6.5c-17.9,0.3-43.5,2.2-60.1,8.5c-0.6,0.2-1.2,0-1.4-0.6
			C45.5,66.4,45.8,65.8,46.3,65.6z"/>
		<path class="st4" d="M59,21c1.4,3.2,8.5,19.4,8.9,21.7c-1.4-1.8-8.8-17.9-10.3-21.1c-0.2-0.4,0-0.8,0.4-1
			C58.4,20.4,58.8,20.6,59,21z"/>
		<path class="st4" d="M136.6,21.2c-7.7,16.2-3.8,8.2-11.9,24.2l0,0c6.8-16.6,3.3-8.4,10.4-24.8c0.2-0.4,0.6-0.6,1-0.4
			C136.6,20.3,136.8,20.8,136.6,21.2z"/>
		<path class="st0" d="M78.7,114.1c3.2-2.1,7.5-8.6,9.4-11.7c2-3.1,4.9-7.4,9-7.4s7,4.3,8.9,7.5c1.4,2.3,2.6,4.8,3.9,7.1
			c0.6,1,1.7,3,2.8,3.5c0.5,0.2,2.4,0.1,3,0.1c3,0,6,0.5,7.6,3.3c0.5,0.9,0.8,1.9,0.6,3c-0.6,3.8-6.1,4.9-9.2,5.6
			c-8,1.9-10.2,8.7-15.5,13.8l-2.3,2.1l-2.1-2.2C90.3,134,85,125.7,77.9,125c-1.8-0.2-3.8-0.4-5.5-0.8c-1.8-0.5-3.4-1.4-3.8-3.4
			c-0.3-1.7,0.5-2.9,1.5-4.1c1.3-1.6,3.9-1.9,5.8-2.2C76.6,114.4,77.9,114.3,78.7,114.1z"/>
		<path class="st2" d="M90.8,104.1c-4.6,7.4-8.3,11.5-10.7,12.9c-0.9,0.5-6.7,0.6-7.6,1.7c-1.4,1.8-1.9,2.5,5.8,3.2
			c8.6,0.8,14.2,9.9,18.9,14.8c4.9-4.5,7.7-12.3,17-14.5c4.8-1.1,7.7-2.2,6.6-4c-1.8-3-7-1-9.4-2.3c-3.1-1.7-4.9-7-7.9-11.8
			C98.5,96.1,95.7,96.1,90.8,104.1z"/>
		<path class="st0" d="M81.4,120.6c7.7,2.4,11.2,9.5,15.7,14.2c4.4-4.7,8-11.7,15.7-14.2l-0.2-0.2c-13.8,5.1-9.2,8.9-15.5,0
			c-6.3,8.9-1.7,5.1-15.5,0L81.4,120.6z"/>
		<path class="st0" d="M94,106.3c-1.3,2.4-4,5-2.4,6.2C93.2,113.6,95.7,104.6,94,106.3z"/>
		<path class="st0" d="M100.2,106.3c1.3,2.4,4,5,2.4,6.2C101,113.6,98.4,104.6,100.2,106.3z"/>
		<path class="st0" d="M73.2,118.8c11.6,0.4,15.9,2.5,23.8,11c6.4-6.3,14.3-11.8,23.6-12.3l0,0c-1.6,1-0.9,0.6-3.3,1.6
			c-9.6,4-12.2,5.7-19.4,13.7c-3.5-0.9-1.8,0.1-3.9-2.2C86.6,122.1,83.9,121.5,73.2,118.8z"/>
		<path class="st0" d="M78.6,122c-2.3-0.5-4.1-2.5,0-2.2c2.5,0.2-3.3-2-7.1-1.4c-0.9,0.2-1.2,1.5-1.7,1.6c-0.4,0.1,0.7,0.7,0.7,0.7
			S72.4,122.8,78.6,122z"/>
		<path class="st0" d="M112.9,122.7c2.6-0.4,4.4-1.8,3.5-2.5c-0.4-0.3-2.3,0.2-4.1,0.3c-2.6,0.1,5.2-3.2,8.7-3.3
			C125.1,117,119.9,123.5,112.9,122.7z"/>
		<path class="st4" d="M84.8,114c3.3-5.1,6.3-10.5,10.4-14.9c-2.7,5.4-5.7,10.7-8.6,16c-0.3,0.5-1,0.7-1.5,0.4
			C84.6,115.1,84.5,114.5,84.8,114z"/>
		<g>
			<path class="st5" d="M75.2,168.6c1.3-1.9,3.2-5.4,2.7-9.6c-0.6-5.5-4.5,1.9-4.9,2.7c-0.5-0.8-5.7-8.2-5.4-2.7
				c0.2,4.2,2.7,7.7,4.4,9.6C73.7,170.6,73.8,170.6,75.2,168.6z"/>
			<path class="st5" d="M96.6,175.5c1.5-1.9,3.8-5.4,3.9-9.6c0-5.5-4.7,1.9-5.2,2.7c-0.4-0.8-4.7-8.2-5.1-2.7
				c-0.3,4.2,1.8,7.7,3.2,9.6C94.8,177.5,95,177.5,96.6,175.5z"/>
			<path class="st5" d="M118,168.6c1.7-1.9,4.5-5.4,5-9.6c0.7-5.5-5,1.9-5.6,2.7c-0.3-0.8-3.7-8.2-4.7-2.7c-0.8,4.2,0.9,7.7,2.1,9.6
				C115.9,170.7,116.1,170.6,118,168.6z"/>
		</g>
		<g>
			<g>
				<path class="st8" d="M121.8,154.6c-0.5,0.4-1,1-1.3,1.2c-0.7,0.8-1.5,1.7-2.1,2.5c-0.3,0.4-0.7,0.5-1.1,0.5
					c-0.5-0.1-0.8-0.3-1-0.7c-0.3-0.8-0.8-1.7-1.3-2.4c-0.2-0.3-0.6-0.9-0.9-1.3c-0.1,0.3-0.2,0.6-0.2,0.8c-0.6,3.1,0.3,6.1,1.9,8.8
					c0.1,0.1,0.3,0.4,0.4,0.7c0.3-0.3,0.7-0.7,0.8-0.9c2.2-2.5,4.3-5.6,4.7-8.9C121.7,154.7,121.8,154.7,121.8,154.6z"/>
			</g>
			<g>
				<path class="st8" d="M91.4,161.3c0,0.2-0.1,0.5-0.1,0.6c-0.2,3.2,1.2,6.3,3,8.8c0.1,0.1,0.4,0.5,0.6,0.8
					c0.3-0.3,0.6-0.7,0.7-0.8c2-2.5,3.6-5.6,3.6-8.8c0-0.1,0-0.3,0-0.5c-0.4,0.4-1,1-1.2,1.3c-0.6,0.8-1.3,1.7-1.8,2.5
					c-0.2,0.4-0.6,0.6-1.1,0.6s-0.8-0.3-1-0.6c-0.4-0.8-1-1.7-1.6-2.5C92.3,162.4,91.9,161.7,91.4,161.3z"/>
			</g>
			<g>
				<path class="st8" d="M76.6,154.4c-0.4,0.4-0.9,1-1,1.3c-0.5,0.8-1.1,1.6-1.5,2.5c-0.2,0.4-0.6,0.7-1,0.7c-0.5,0-0.9-0.2-1.1-0.5
					c-0.6-0.9-1.2-1.7-1.9-2.5c-0.2-0.2-0.8-0.8-1.2-1.3c0,0.1,0,0.3,0,0.4c0.2,3.3,2,6.4,4.1,8.9c0.1,0.2,0.5,0.6,0.7,0.8
					c0.2-0.3,0.4-0.6,0.5-0.8c1.7-2.6,2.9-5.6,2.5-8.8C76.7,154.9,76.7,154.7,76.6,154.4z"/>
			</g>
		</g>
		<path class="st3" d="M94.4,48.2c-1.9-0.2-3.4-0.5-4.7-1c-1.8-0.7-3.1-1.6-4-2.9c-2-2.7-2.6-6.8-3.4-12.8c0.1,2.2,0.2,4.8,0.4,7.9
			c0.1,1.7,0.2,3.4,0.2,5.1c0,1,0.1,2.1,0.1,3.1c0,1.4,0,2.8,0,4.3c0,1.6-0.1,3.2-0.2,4.8c4.8-0.3,9.6-0.5,14.5-0.5
			c4.5,0,8.9,0.2,13.3,0.5c-0.1-1.5-0.1-3-0.2-4.5c0-1.4,0-2.8,0-4.3c0-1,0.1-2.1,0.1-3.1c0.1-1.8,0.2-3.5,0.2-5.3
			c0.3-5.4,0.3-9,0.7-12c-1.8,5.7-2,11.2-2.9,13.9c-0.3,1-0.7,2.1-1.3,3.1c-0.7,1.1-1.7,2.2-3.4,2.9C102,48.3,99,48.7,94.4,48.2z"/>
		<path class="st4" d="M116.5,12.6c-9.8-4.1-21.9-5.9-32.4-3.4c0,0-5.6,1.4-7.3,1.9c1.2,2.7,4.5,5.7,6.2,12.1
			c1.4,5.5,1.1,20.6,0.1,26.2c-0.1-5.1-0.5-10.8-0.8-16.3c-0.2-4.2-0.3-8.4-2.2-12.6c-1.2-2.6-6-8.6-5.7-10.1
			c0.4-1.9,7.6-3.3,8.9-3.7c11.4-3.1,24.2-1.4,35,2.9c0.8,0.5,1.1,1.5,0.6,2.3C118.4,12.8,117.3,13.1,116.5,12.6z"/>
	</g>
	<path class="st0" d="M140.7,164.9c6.4,2.2,15,5.3,19,11.2c-8-5.3-10.2-6.3-19.6-9.1c-0.6-0.2-0.9-0.8-0.7-1.3
		C139.5,165.1,140.1,164.8,140.7,164.9z"/>
	<path class="st0" d="M135.3,166.4c1.3,0.9,10,7,9.9,8.3c-0.5-0.1-10-5.8-11.1-6.4c-0.5-0.3-0.7-1-0.3-1.5
		C134.1,166.3,134.8,166.1,135.3,166.4z"/>
	<path class="st0" d="M51.8,164.9c-6.4,2.2-15,5.3-19,11.2c8-5.3,10.2-6.3,19.6-9.1c0.6-0.2,0.9-0.8,0.7-1.3
		C53,165.1,52.4,164.8,51.8,164.9z"/>
	<path class="st0" d="M57.2,166.4c-1.3,0.9-10,7-9.9,8.3c0.5-0.1,10-5.8,11.1-6.4c0.5-0.3,0.7-1,0.3-1.5
		C58.4,166.3,57.7,166.1,57.2,166.4z"/>
	<path class="st10" d="M148.3,274.3c2.6-3,5.1-6.1,7.5-9.2c6.9-9,13.3-18.4,19-28.2c6.7-11.3,14.8-27.2,15.5-40.4
		c0.7-13.5-2.5-27.2-8.8-39.1c-3.7-6.8-8.7-13.7-14.8-18.6c0-3.5,0.3-7.1,0.9-10.5l0.5,0.1c2.8,1,6.1,2,9.1,1.9c0.7,0,1.3-0.4,1.6-1
		c0.3-0.6,0.2-1.3-0.2-1.9c-1.5-2-2.7-4.1-3.6-6.4c-0.6-1.5-1-3.2-1.7-4.6c-0.5-0.9-0.9-1.8-1.3-2.8c-0.5-2-0.9-4.1-1.3-6.2
		c-0.2-0.8-0.3-1.6-0.4-2.4c0-0.4-0.1-0.9-0.1-1.2c0.5-9.8-2.1-22.5-6.2-31.6c0-0.4,0.1-0.8,0.1-1.2c0-0.2,0-0.4,0-0.6
		c0-0.2,0-0.5,0-0.7c-0.2-4.9-1-10.1-2.2-14.9c-2.5-10-7-19.7-14.3-27.1c0.6-1.5,0.4-3.2-0.5-4.6c-2.1-3.2-6.3-5.9-9.8-7.3
		c-1.7-0.7-3.6-0.4-4.9,0.7c-1.1-0.6-2.2-1.2-3.3-1.7c0.4-1.1,0.5-2.3,0.2-3.4c-0.3-1.3-1.1-2.4-2.3-3.1
		c-19.2-11.2-40.2-11.2-59.5,0c-1.2,0.7-1.9,1.8-2.3,3.1c-0.3,1.2-0.3,2.3,0.2,3.4c-1.1,0.5-2.2,1.1-3.3,1.7c-1.3-1-3.1-1.4-4.8-0.7
		c-3.5,1.4-7.7,4.1-9.8,7.3c-0.9,1.4-1.1,3.1-0.5,4.6C39.6,35,35.1,44.8,32.7,54.8c-1.2,4.7-2.1,10-2.2,14.9c0,0.2,0,0.5,0,0.7
		c0,0.1,0,0.2,0,0.3c-1.8,3.5-3.3,7.3-4.6,11c-1.8,5.1-3.6,12.1-3.4,17.5c0.2,5.7-0.1,12.9-2.7,18v0.1c-0.1,0.3-0.2,0.6-0.4,0.9
		c-0.6,1-1.2,1.9-1.8,2.9c-0.6,0.9-2.7,3.9-3.6,4.4c-0.8,0.3-1.3,1.1-1.1,2c0.1,0.8,0.8,1.5,1.7,1.5c1.9,0.1,3.9,0,5.7-0.2
		c1.1-0.2,2.5-0.3,3.8-0.5c0.4,3.5,1,7,2,10.4c-6.1,4.9-11.3,11.9-14.9,18.7c-6.4,11.9-9.5,25.6-8.8,39.1
		c0.7,13.2,8.9,29.1,15.5,40.4c5.7,9.8,12.1,19.2,19,28.2c2.4,3.2,4.9,6.3,7.5,9.2c1.6,1.7,3.9,4.4,6.3,5c0.6,0.2,1.2,0.2,1.8,0.2
		c0.5-0.1,1-0.1,1.5-0.3c0,0.1,0.1,0.1,0.1,0.2c1.6,3.8,3.2,7.7,4,11.8c0.1,0.6,0.2,1.2,0.3,1.8c0.3,2.1,0.7,4.2,1,6.3
		c0,0.3,0.1,0.6,0.1,0.9c-0.1,0.4-0.1,0.9-0.2,1.3c-1.6,0.1-3.3,0.2-4.9,0.3c-4.7,0.3-9.4,0.7-14,1.3c-5,0.6-10.3,1.5-15.1,3.1
		c-4.4,1.5-9.3,4-10.6,8.9c-0.6,2-0.4,4.1,0.4,6c1.2,3.1,4.1,5.1,7.3,5.7c-0.4,2.1-0.1,4.2,1,6.1c2.9,5,9.4,5.9,14.3,3.2
		c0.4-0.3,0.8-0.5,1.1-0.8c0.3,0.8,0.7,1.6,1.3,2.4c2.3,2.9,6.2,3.7,9.7,2.8c1.1-0.3,2.1-0.8,3-1.5c1.4-1.1,2.1-2.3,2.9-3.8
		c0.5-0.9,0.9-1.9,1.6-2.6c0.3-0.3,0.5-0.7,0.8-1.1c0.4-0.6,0.8-1.2,1.2-1.8c1.2-1.6,2.3-3.1,3.5-4.7c0.4-0.5,0.8-1,1.2-1.5
		c1.6-2,3.4-3.9,5.4-5.7c0.6-0.6,1.2-1.1,1.8-1.6c0.4-0.3,1-0.7,1.2-1.2c0.9-1.8,0.9-5.3,0.9-7.3c0.1-0.9,0.1-1.8,0.1-2.7
		c0.4-0.5,0.8-1.1,1-1.7c0.8-2.4,2.1-4.6,3.8-6.4c0.5,0.4,0.9,0.8,1.4,1.2c4.5,3.9,9.3,7.5,14.4,10.6c3,1.9,8.4,5.3,12.1,4.4
		c2.4-0.6,3.8-2.1,4.6-4.1c2.8,1.2,5.6,2.4,8.4,3.3c0.1,1,0.3,2,0.7,2.8c0.3,0.5,0.8,0.9,1.2,1.2c0.6,0.5,1.2,1.1,1.8,1.6
		c1.9,1.7,3.7,3.7,5.4,5.7c0.4,0.5,0.8,1,1.2,1.5c1.2,1.5,2.4,3.1,3.5,4.7c0.4,0.6,0.8,1.2,1.2,1.8c0.2,0.4,0.5,0.8,0.8,1.1
		c0.7,0.8,1.1,1.7,1.6,2.6c0.8,1.5,1.6,2.8,2.9,3.8c0.9,0.7,1.9,1.2,3,1.5c3.5,0.9,7.4,0.2,9.7-2.8c0.6-0.8,1-1.6,1.3-2.4
		c0.3,0.3,0.7,0.6,1.1,0.8c4.9,2.7,11.4,1.9,14.3-3.2c1.1-1.9,1.4-4,1-6.1c3.1-0.6,6.1-2.7,7.3-5.7c0.7-1.9,0.9-4,0.4-6
		c-1.3-4.9-6.2-7.4-10.6-8.9c-4.1-1.4-8.5-2.2-12.9-2.8c0.1-0.1,0.1-0.3,0.2-0.4c0.5-1.5,0.5-3.2-0.2-4.6c-1.1-2.5-3.8-4.7-6.4-6.3
		c0.4-0.5,0.8-1,1.5-1.7c1.8-4.1-1.2-7.9-4.2-10.4c-0.5-0.4-1-0.9-1.5-1.3C145.3,277.7,147,275.7,148.3,274.3z M172.5,319.2
		c-0.8,1.8-2.9,2.8-4.9,2.8c-0.9,0-1.8-0.3-2.4-0.8c-1.6-1.3-2.3-3.5-3.4-3.8c-1.4-0.4-2.8-0.7-4-1c-7.3-1.8-11.5-2.7-13.5-3
		c-0.8-0.1-1.2-0.2-1.4-0.2l0,0c1.3,0.6,12.2,5.5,18.2,9.6c2.6,1.8,3.7,3.7,3.8,5.4c0,0,0,0,0,0c0.3,3.5-3.9,5.9-8.1,3.6
		c-0.9-0.5-1.4-3.1-2.6-4c-6.4-4.2-16.4-10.2-18.5-11.4c1.6,1.7,7.6,7.9,11.2,12.3c0.6,0.7,1,1.4,1.3,2c0,0,0-0.1,0-0.1
		c0.6,1.2,0.7,2.3,0.4,3.2c0,0.1,0,0.1-0.1,0.2c0,0.1-0.1,0.2-0.1,0.3c0,0.1-0.1,0.2-0.2,0.3c0,0,0,0,0,0c-0.7,1.1-2.2,1.6-4,1.3
		c-0.2,0-0.5-0.1-0.7-0.1c-2.5-0.6-2.5-3.6-5-6.3c-0.3-0.3-0.5-0.7-0.9-1.1c-0.3-0.4-0.6-0.9-1-1.4c-0.5-0.8-1.1-1.6-1.7-2.5
		c-0.4-0.6-0.9-1.2-1.3-1.8c-0.7-0.9-1.4-1.8-2.2-2.7c-0.5-0.6-1.1-1.2-1.7-1.7c-0.6-0.6-1.2-1.1-1.8-1.6c-0.7-0.5-1.3-1.1-1.8-1.6
		s-0.9-0.9-1.3-1.4c-0.2-0.2-0.3-0.4-0.5-0.6c-1.5-2.3-1-3.8-1.2-5.3c-0.1-0.8-0.2-1.6-0.3-2.6c0,0,0,0,0,0c0.1,0,0.2,0,0.3,0l1-0.3
		l4.3-1.1c0.3-0.1,0.5-0.2,0.8-0.4c0.3,0.8,0.5,1.5,0.7,2c-1,0.4-1.8,1-2.5,1.6c0.4-0.1,0.8-0.1,1.2-0.2c-0.1,0-0.1,0-0.1,0
		c3.6-1,7.2-0.8,10.9-0.7c8,0.3,23.5,0.8,30.3,7.2c1.4,1,2.4,2.2,2.7,3.4c0,0,0-0.1,0.1-0.1C172.9,317.3,172.9,318.2,172.5,319.2z
		 M113.7,305C113.6,305,113.6,305,113.7,305c-6-3.8-10.6-6.8-15.9-11.3c0.7,3.6,4.7,7.5,8.5,10.6c0.1,2-0.2,3.8-1.5,4.1
		c-2.1,0.5-14.2-6.9-24.1-15.6c8.4-5.8,20.8-6.3,29.6-1.1c4.4,2.6,7.6,6.5,9.3,11.4c0.2,0.6,0.6,1.1,1.1,1.5c0,1,0.1,2,0.1,3.1
		C118.5,306.9,116.1,306,113.7,305z M69.7,301.9l-5.3-1.4c0,0,0-0.8-1.3-8.3c-1-5.9-2.3-9.8-9.9-26.9c-0.5-2.1-1.9-5.2-2.3-6.1
		c-8.6-22.9-13.7-56.8-9.5-78.7l0.8-4l-1.9,3.7c-5.1,12.6-4.1,34.4-0.6,53c-6-18.9-7.4-38.5-4.4-57.2c2.8-1.3,8.2-4.2,12.5-7.3
		c3.7,3.3,9.4,7.9,11.2,8c-0.4-0.4-0.8-0.8-1.3-1.3c-0.1-0.1-0.1-0.1-0.2-0.2c-0.4-0.4-0.7-0.8-1.1-1.2c-2.7-2.8-5.5-5.8-8.2-9
		c-4.1,3.3-11,5.4-11,5.4c0,0,0-0.1,0-0.1c0,0,0,0,0,0c0.2-5.1,1.9-14.2,1.9-21.4c0-1,0-2-0.1-2.9l-8.8,9.4
		c-0.3,0.3-0.4,0.2-0.4-0.1c-0.1-0.7,0.7-3,0.8-3.9c0.3-3.1,0.4-5.7,0.4-7.9c0-9.9-2.2-14-2.5-29.5c-0.7,3.2-1,5.8-1.2,8.3l-7.9,2.8
		c0,0,0.1-0.1,0.4-0.2l-0.4,0.1c0,0,5.7-2.8,7.4-15.3c0.4-2.9,0.6-6.4,0.4-10.5c0,0,0,0,0,0v0l0,0c0,0,0-0.1,0-0.1c0,0,0,0,0,0
		c0,0,0,0,0,0c-0.2-5.5,2.9-16.9,6.9-24.9c2.8,2.9,7.8,4.9,12.6,6.2c-0.9,0.5-1.8,1.2-2.5,2c-4.3,4.6-3.6,9.4-2.6,15.1
		C43.1,90.4,44.7,83,52,83.7c-4.1,5.4-5.4,11-5,16c0.5,0.1,0.9,0.5,1,1c1.9,7.8,6.5,17.5,16.2,15.6c3.2-0.6,4.6-2.1,6.5-4.4
		c-0.7,1.9-1.6,3.3-3,4.3c1.4-0.5,2.7-1.3,3.5-2.5c0,0.4,0,0.7,0,1.1l1.6-4.3l0.5-1.2c0.4-1.6,0.5-3.3,0.5-5
		c0-6.8-2.9-13.9-7.1-18.6c-0.7-0.8-1.4-1.5-2.2-2.1c3.5,0.4,7.1,0.8,10.6,1c7.3,0.6,14.6,0.8,21.9,0.8s14.6-0.3,21.9-0.8
		c3.5-0.3,7.1-0.6,10.6-1c-0.8,0.7-1.6,1.4-2.2,2.1c-3.3,3.6-5.7,8.6-6.7,13.9c-0.3,1.4-0.4,2.7-0.4,4.1c-0.1,1.9,0.1,3.8,0.5,5.6
		l2.1,5.5c0-0.4,0-0.8,0-1.2c1,1.4,2.5,2.3,4.3,2.8c-1.6-1-2.6-2.5-3.4-4.5c1.9,2.3,3.3,3.8,6.5,4.4c2.1,0.4,3.9,0.3,5.5-0.2
		c0.1,0,0.1,0,0.2-0.1c1.5-0.6,3-1.6,4.3-2.7c3.2-3.2,5.1-8.2,6.2-12.6c0.1-0.4,0.3-0.7,0.7-0.9c0.5-5.1-0.8-10.8-4.9-16.2
		c7.2-0.6,8.8,6.8,10.3,13.9c1-5.7,1.7-10.5-2.6-15.1c-0.8-0.8-1.7-1.5-2.6-2c4.4-1.2,9.1-3,12-5.6c3.7,8.2,5.7,19,5.7,26.9
		c0,0.7,0,1.4,0,2.1c-0.4,7.4,4.6,16.3,7.2,20.4c0.4,0.4,0.6,0.7,0.6,0.7l-0.2-0.1c0.1,0.1,0.1,0.2,0.2,0.3c0,0.1-7.4-2.6-8.1-2.9
		c0,0,0,0,0-0.1c0,0-0.1,0-0.1,0c0.1-2.8-0.1-5.5-0.5-8.1c-0.9,4.1-3.4,19-2.4,27.7c0.1,7.6,0.8,13.6,0.8,13.6l-0.1-0.1c0,0,0,0,0,0
		l-9.4-11.7c-0.3,0.8,2.4,24.5,2.5,26.9c0,0-7.9-2.4-11.8-6.1c-7.4,7.5-15.1,12.9-20.3,16c5.2-1.4,15-7,16.9-8.7
		c1.2-1,2.3-2.1,3.5-3.4c3.4,2.4,7.7,4.1,10.8,5.1c0.6,0.2,1.3,0.2,1.8,0c3.4,19.2,2.4,39.5-3.6,58.9c0-0.2,0.1-0.4,0.1-0.6
		c-0.1,0.2-0.1,0.5-0.2,0.7c3.4-18.3,4.3-39.6-0.8-52l-1.7-3.3l0.7,3.5c4.2,21.9-0.9,55.9-9.5,78.7c-0.4,0.7-1.5,3.4-2.1,5.5
		c-7.8,17.6-9.2,21.6-10.2,27.5c-1.3,7.5-1.3,8.3-1.3,8.3l-5.3,1.4c-2.1-6-6.1-10.4-11-13.2c2.1,0.4,4.1,0.8,6.1,1.4
		c2.5,0.8,4.3,1.3,6.8,2.3c-2.6-2.4-3.1-2.2-6.4-3.6c-5.2-2.2-11.4-3.4-17.7-3.8c-2.4-0.3-4.8-0.3-7.2,0c-7.7,0.3-15.3,1.8-21.6,4.2
		c3.4-0.4,7-0.8,10.6-1.1C76.5,291,71.9,295.6,69.7,301.9z M45.2,328.7c3.7-4.5,9.9-10.9,11.3-12.4c-1.6,0.9-12,7.2-18.7,11.5
		c-0.1,0.1-0.3,0.2-0.4,0.4c-0.8,1-1.2,2.6-1.9,3.3c-0.1,0.1-0.2,0.3-0.3,0.3c-4.2,2.3-8.4-0.1-8.1-3.6c0,0.1,0.1,0.1,0.1,0.2
		c0-1.7,1.1-3.7,3.8-5.6c6-4.1,16.9-9.1,18.2-9.6l0,0c-0.2,0-0.6,0.1-1.4,0.2c-2,0.4-6.2,1.2-13.5,3c-1.3,0.3-2.6,0.6-4,1
		c-1.1,0.3-1.8,2.5-3.4,3.8c-0.6,0.5-1.5,0.8-2.4,0.8c-1.9,0.1-4.1-1-4.9-2.8c-0.4-1-0.4-1.9-0.2-2.7c0,0,0,0.1,0.1,0.1
		c0.3-1.2,1.2-2.3,2.6-3.3c6.7-6.5,22.4-7,30.5-7.3c3.7-0.1,7.3-0.3,10.9,0.7c-0.7,0-1.3,0-1.8-0.1c1.2,0.1,2.1,0.2,2.8,0.4
		c-0.7-0.6-1.5-1.2-2.5-1.6c0.3-0.5,0.5-1.2,0.8-2.1c0.3,0.2,0.6,0.3,1,0.4l4.1,1.1l1.2,0.3c0,0,0.1,0,0.1,0c0,0,0,0,0,0
		c-0.1,0.9-0.2,1.8-0.3,2.6c-0.2,1.5,0.3,3.1-1.2,5.3c-0.1,0.2-0.3,0.4-0.5,0.6c-0.3,0.4-0.8,0.9-1.3,1.4s-1.1,1-1.8,1.6
		c-0.6,0.5-1.2,1-1.8,1.6c-0.6,0.6-1.1,1.1-1.7,1.7c-0.8,0.9-1.5,1.8-2.2,2.7c-0.5,0.6-0.9,1.2-1.3,1.8c-0.6,0.9-1.2,1.7-1.7,2.5
		c-0.4,0.5-0.7,1-1,1.4c-0.3,0.4-0.6,0.8-0.9,1.1c-2.5,2.7-2.5,5.7-5,6.3c-0.2,0.1-0.5,0.1-0.7,0.1c-1.8,0.3-3.2-0.3-4-1.3
		c0,0,0,0,0,0c-0.1-0.1-0.1-0.2-0.2-0.3c0-0.1-0.1-0.2-0.1-0.3c0-0.1,0-0.1-0.1-0.2c-0.3-0.9-0.2-1.9,0.4-3.2c0,0,0,0.1,0,0.1
		C44.2,330.1,44.6,329.4,45.2,328.7z M51.7,274.6c-2.4-0.6-22.5-25.2-34.9-49.3c1.1,2.5,2.3,5,3.6,7.4l1.7,3.2
		c-11.7-15.2-16.9-34.4-15-53.4c1.2-12.2,10.3-32.9,20.5-39.3c0.1,0,0.3,0,0.4,0c0,1.2-0.1,2.4-0.1,3.5c-0.5,8.7-2.1,14.3-1.3,14.6
		c1.4,0.7,6.6-4.9,8-6.3c-0.1,1-0.5,7-0.9,12.4c-1.1,5.1-2,10.2-2.4,15.4c0.2-1,0.4-2,0.6-3.1l0.5-2.6c0.1,3.4-0.2,8.9-1.6,13.3
		c0,0.9,0,1.9-0.1,2.8c0,2.3,0,4.6,0.1,7c0.2,6.9,1.1,13.8,2.4,20.5c0.3,1.4,0.6,2.8,0.9,4.2c1.3,5.7,3.1,11.3,5.2,16.8
		c0.8,2,1.6,3.9,2.4,5.9c0.1,0.3,0.3,0.6,0.4,0.9c2.8,6.2,5.6,12.4,8.4,18.6c0.9,2.1,1.8,4.2,2.8,6.3
		C52.9,274.3,52.3,274.8,51.7,274.6z M50.6,30.9c3,5.1,8.6,13.7,11,15.5c-3.5-6.8-7-13.5-10.3-20.5c0,0,1.8-2.7,6.2-4.8
		c0-0.2,0.2-0.4,0.5-0.6c0.2-0.1,0.5-0.1,0.7,0.1c0,0,0.1,0,0.1-0.1l0.1,0.3c0,0,0.1,0.1,0.1,0.1c1,2.2,4.6,10.4,6.9,16.1l2.6,6.2
		l0.6-0.3c1.2-0.7-4.1-14.9-6.4-21.1c1.5-0.9,3.1-1.7,4.6-2.4c0,0,0,0,0,0c0.6-0.3,1.3-0.6,2-0.9c1,1.9,2.1,3.7,3.1,5.6
		c3.5,6.2,5.3,20.9,6.2,33c-14.4,1.3-27.9,4-38.3,7.8c-0.4-0.1-0.7,0-1,0.2c0,0,0,0.1-0.1,0.1c-1.4,0.5-2.7,1.1-4,1.6
		c0.2-2,0.5-4.7,1.1-7.6c0,0,0,0,0.1,0C38.3,50.7,42.1,39.2,50.6,30.9z M69.6,12.8c0.5-0.3,0.9-0.5,1.4-0.8
		c9.3,12,8.1,12.1,9.6,27.6c0.5,5.7,0.9,11.5,1.6,17.2c-0.5,0-1,0.1-1.5,0.1c-0.8-12.2-2.5-28.6-5.7-34.5
		C69.6,12.8,69.6,12.8,69.6,12.8z M73.6,10.6c0.3-0.1,0.6-0.3,0.9-0.4c0.9-1.8,7.6-3.1,8.8-3.5c3.1-0.8,6.3-1.3,9.5-1.5
		c7.2-0.6,14.5,0.4,21.7,3c1.3,0.4,2.6,0.9,3.8,1.4c0.2,0.1,0.3,0.2,0.4,0.4c0.3,0.1,0.7,0.3,1,0.4c-0.2,0.3-0.4,0.5-0.6,0.8
		c0,0.2-0.1,0.5-0.2,0.7c-0.2,0.4-0.5,0.6-0.8,0.8c-6.3,8.9-6.7,11.3-7.1,21.4c-0.1,1.6-0.1,3.4-0.3,5.5c0,1.8-0.1,3.5-0.2,5.3
		c0,1-0.1,2.1-0.1,3.1c0,1.5,0,2.9,0,4.3c0.1,1.5,0.1,3,0.2,4.5c-4.4-0.3-8.8-0.5-13.3-0.5c-0.1,0-0.1,0-0.2,0c-1.1,0-2.2,0-3.3,0
		c-0.1,0-0.2,0-0.3,0c-2.8,0.1-5.6,0.2-8.4,0.3c-0.8,0-1.6,0.1-2.4,0.2c0.3-5.8,0.1-11.6-0.2-17.3c-0.6-12.1-0.3-15.4-4.2-21.9
		c-0.8-1.1-1.6-2.4-2.3-3.5C75.3,13,74.5,11.8,73.6,10.6z M142.7,26c-3.4,7.2-7,14.2-10.8,21.3c1.9,1.1,8.4-10.1,11.7-16.3
		c8.4,8.3,12.1,19.5,13.9,28c0,0,0,0,0,0c0.2,1,0.4,2,0.5,3c0,0,0,0.1,0,0.1c0.1,0.4,0.1,0.8,0.2,1.2c0,0.1,0,0.1,0,0.2
		c0,0.3,0.1,0.7,0.1,1c0,0.1,0,0.1,0,0.2c0,0.3,0.1,0.6,0.1,0.9c0,0.1,0,0.1,0,0.2c0,0.4,0.1,0.7,0.1,1c-10.8-4.7-26.3-8.2-43.1-9.8
		c0.3-3.8,0.6-7.5,1-11.2c0.2-2,0.7-4.1,1.1-6.1c0.5-2.4,1.1-4.7,1.6-7.1c0.3-1.5,0.7-3.5,1.3-5.3c0.4-1.2,0.8-2.3,1.2-3.2
		c0,0,0,0,0,0c1-1.8,2.1-3.7,3.1-5.5c2.2,1,4.4,2,6.5,3.2c-2.5,6.3-8.1,20-5.9,21.6l3-6.9c2-5.1,1.6-3.9,6.8-15.9
		c0.2-0.4,0.6-0.6,1-0.4c0.5,0.1,0.7,0.6,0.5,1c0,0,0,0,0,0C141,23.4,142.7,26,142.7,26z M125,95.9c1.3-2.9,3.5-4.7,4.9-4.1
		c1.4,0.7,1.5,3.5,0.2,6.4c-1.3,2.9-3.5,4.7-4.9,4.1C123.8,101.7,123.7,98.8,125,95.9z M68.6,102.3c-1.4,0.6-3.6-1.2-4.9-4.1
		c-1.3-2.9-1.2-5.7,0.2-6.4c1.4-0.6,3.6,1.2,4.9,4.1C70.1,98.8,70,101.7,68.6,102.3z M35.2,70.3c1.7-0.8,3.5-1.5,5.2-2.3
		c0,0,0,0,0,0c0.1,0,0.1,0,0.2-0.1c7.1,5,12.9,6.4,21.6,8c0.2,0,0.3,0.1,0.5,0.1c7.9,1.3,19.1,2.4,27.4,2.3c0.8,0,1.6,0,2.3-0.1
		l3.6-0.3c4.2,0.1,7.6,0.2,11.1,0.3c2.4,0,5,0,8-0.2c6.9-0.4,17.3-1.5,25.9-4c3.5-1,6.7-2.2,9.1-3.7l3.2-2.4
		c0.1,0.1,0.3,0.1,0.4,0.1c0,0,0,0,0,0c1.8,0.7,3.6,1.5,5.2,2.3C152.8,86.2,41.3,86.2,35.2,70.3z M127.3,74.8
		c-7.4,1.3-24.2,3.2-31.4,3.1l-3.6-0.4c-15.7-1.4-35.2-1.7-48.9-10.6c0.8-0.3,1.6-0.6,2.4-0.8c0.1-0.2,0.3-0.3,0.5-0.4
		c4.4-1.6,10.3-3,16.9-4.2c28.4-5.6,61.8-3.8,87,5.3C143.3,71.7,135.9,73.3,127.3,74.8z M118.8,22.4c-3.2,5.8-4.9,22.2-5.7,34.4
		c-0.7-0.1-1.4-0.1-2.1-0.2c0.7-5.7,1.1-11.4,1.6-17.1c1.5-15.6,0.4-15.6,9.7-27.7l0.1-0.1c0.6,0.3,1.2,0.7,1.8,1
		C124.2,12.8,124.2,12.8,118.8,22.4z M131,301.1c1.2,0.7,2.5,1.6,3.7,2.5c-0.7,0-1.4-0.1-2.2-0.1c-0.4,0-0.8-0.1-1.2-0.1
		c-0.1-0.4-0.1-0.8-0.2-1.1C131.1,301.9,131,301.5,131,301.1z M131,299.7c0-0.2,0.1-0.3,0.1-0.5c0.3-2.1,0.6-4.2,1-6.3
		c0.1-0.6,0.2-1.2,0.3-1.8c0.1-0.3,0.1-0.6,0.2-0.9c2.1,0.9,15.1,6.3,16.8,10.2C150.8,303.6,138,301.2,131,299.7z M132.7,290.1
		c0.9-3.7,2.3-7.3,3.7-10.8c1.5,1.5,3.2,3,4.8,4.4C150.5,291.6,135.1,290.4,132.7,290.1z M141,274.6c-0.7,0.2-1.4-0.4-2-1.6
		c0.9-2,1.7-3.9,2.6-5.8c2.8-6.2,5.6-12.4,8.4-18.6c0.3-0.7,0.6-1.4,0.9-2.2c1-2.4,2-4.8,2.9-7.2c1.8-4.8,3.2-9.8,4.4-14.8
		c0.4-1.7,0.8-3.4,1.1-5.1c1.2-6.2,1.9-12.6,2.1-19c0.1-2.7,0.1-5.5,0-8.2c0-1.2-0.1-2.4-0.2-3.6c-0.8-3.7-1.1-7.8-1.1-10.7
		c-0.4-3.2-1-6.3-1.7-9.5l-0.6-13.2c1.4,1.4,6.8,7.3,8.4,6.8c0.5-0.3-0.8-6.3-1.3-14.5c-0.1-1.3-0.2-2.7-0.2-4.1
		c10.2,6.4,19.2,27.1,20.4,39.3c0.2,1.8,0.3,3.7,0.3,5.5c0.2,2.7,0.2,5.5,0.1,8.3c0,0.5-0.1,1.1-0.1,1.6c0,0,0,0,0,0
		c-0.3,2.6-0.8,5.3-1.7,8.2c-2.3,10.7-6.9,20.9-13.6,29.7l1.7-3.2c0.1-0.2,0.2-0.3,0.2-0.5C159.8,253.9,143.2,274.1,141,274.6z"/>
	<path class="st11" d="M132.5,303.5c0.7,0,1.4,0.1,2.2,0.1c-1.2-0.9-2.5-1.7-3.7-2.5c0,0.4,0.1,0.8,0.1,1.2c0.1,0.3,0.1,0.7,0.2,1.1
		C131.7,303.4,132.1,303.5,132.5,303.5z"/>
	<path class="st11" d="M132.6,290.2c-0.1,0.3-0.1,0.6-0.2,0.9c-0.1,0.6-0.2,1.2-0.3,1.8c-0.4,2.1-0.7,4.2-1,6.3
		c0,0.1-0.1,0.3-0.1,0.5c6.9,1.5,19.8,3.9,18.4,0.7C147.7,296.5,134.8,291.1,132.6,290.2z"/>
	<path class="st11" d="M119.6,303.1c-1.7-4.9-4.9-8.8-9.3-11.4c-8.7-5.2-21.2-4.7-29.6,1.1c9.8,8.7,21.9,16.1,24.1,15.6
		c1.3-0.3,1.6-2.1,1.5-4.1c-3.8-3.1-7.8-7-8.5-10.6c5.3,4.5,9.9,7.5,15.8,11.3c0,0,0,0,0.1,0c2.4,1,4.8,1.9,7.1,2.7
		c0-1.1,0-2.1-0.1-3.1C120.2,304.2,119.8,303.7,119.6,303.1z"/>
	<path class="st11" d="M141.2,283.8c-1.7-1.4-3.3-2.9-4.8-4.4c-1.4,3.5-2.8,7.1-3.7,10.8C135.1,290.4,150.5,291.6,141.2,283.8z"/>
	<path class="st12" d="M35.6,331.5c0.6-0.7,1.1-2.3,1.9-3.3C36.7,329.1,36.2,330.7,35.6,331.5z"/>
	<path class="st12" d="M51.4,328.5c3-5.3,12.1-13.6,15-16c1.6-1.3,1.7-4.8,1.4-7.7l-4.1-1.1c-0.4-0.1-0.7-0.2-1-0.4
		c-0.3,0.9-0.5,1.6-0.8,2.1c1,0.4,1.8,1,2.5,1.6c-0.7-0.2-1.7-0.3-2.8-0.4c-1.4,0-2.5,0-4.9,0.1c-8.5,0.4-32.2,1.9-35.2,10.9
		c-0.1,0.4-0.3,0.6-0.6,0.7c1.7,1.3,3.8,1.1,5.1-0.2c2-1.9,2.9-3.1,2.9-3.1s20.3-3.4,23.3-3.5c2.2-0.1-1.2,1.1-3.1,1.8l0.1-0.1
		c-1.3,0.6-12.2,5.5-18.2,9.6c-2.7,1.9-3.8,3.9-3.8,5.6c0.8,1.4,2.3,2.4,4.3,1.8c4.5-1.3,4.5-3.4,4.5-3.4s21.3-12.2,21.7-11.7
		c0.2,0.2-0.3,0.6-1,1.1c0,0-0.1,0-0.2,0.1c-1.4,1.5-7.6,7.9-11.3,12.4c-0.6,0.7-1,1.4-1.3,2c0,0.1,0,0.2,0,0.3
		C43.9,333.9,48.4,333.8,51.4,328.5z"/>
	<path class="st12" d="M43.9,334.5c0.7,1.1,2.2,1.6,4,1.3C46.1,336.1,44.6,335.6,43.9,334.5z"/>
	<path class="st12" d="M58.5,322.7c-0.5,0.6-0.9,1.2-1.3,1.8C57.6,323.9,58,323.3,58.5,322.7z"/>
	<path class="st12" d="M55.4,326.9c-0.4,0.5-0.7,1-1,1.4C54.7,327.9,55,327.4,55.4,326.9z"/>
	<path class="st12" d="M62.4,318.2c-0.6,0.6-1.1,1.1-1.7,1.7C61.2,319.3,61.8,318.7,62.4,318.2z"/>
	<path class="st12" d="M67.2,313.7c-0.3,0.4-0.8,0.9-1.3,1.4C66.4,314.6,66.8,314.1,67.2,313.7z"/>
	<path class="st12" d="M47.8,313.4c0.8-0.1,1.2-0.2,1.4-0.2l0,0C49.2,313.1,48.8,313.2,47.8,313.4z"/>
	<path class="st12" d="M43.8,334.5c-0.1-0.1-0.1-0.2-0.2-0.3C43.7,334.3,43.8,334.4,43.8,334.5z"/>
	<path class="st12" d="M65.9,315c-0.5,0.5-1.1,1-1.8,1.6C64.8,316,65.4,315.5,65.9,315z"/>
	<path class="st12" d="M43.6,333.9c0-0.1,0-0.1-0.1-0.2C43.5,333.8,43.6,333.9,43.6,333.9z"/>
	<path class="st12" d="M67.6,313c1.5-2.3,1-3.8,1.2-5.3c0.1-0.8,0.2-1.7,0.3-2.6c0,0,0,0,0,0c-0.1,0.9-0.2,1.8-0.3,2.6
		C68.6,309.2,69.1,310.8,67.6,313z"/>
	<path class="st12" d="M26.8,321.2c-0.6,0.5-1.4,0.7-2.3,0.8C25.4,322,26.3,321.7,26.8,321.2c1.7-1.3,2.4-3.5,3.5-3.8
		c1.4-0.4,2.8-0.7,4-1c-1.3,0.3-2.6,0.6-4.1,1C29.1,317.7,28.4,320,26.8,321.2z"/>
	<path class="st12" d="M22,313.3c-1.4,1-2.3,2.1-2.6,3.3c0,0.1,0.1,0.1,0.1,0.2C20.2,315.5,21,314.3,22,313.3z"/>
	<path class="st13" d="M43.5,333.8c0,0.1,0,0.1,0.1,0.2c0,0.1,0.1,0.2,0.1,0.3c0.1,0.1,0.1,0.2,0.2,0.3c0,0,0,0,0,0
		c0.7,1,2.2,1.6,4,1.3c0.2,0,0.5-0.1,0.7-0.1c2.5-0.6,2.5-3.6,5-6.3c0.3-0.3,0.5-0.7,0.9-1.1c0.3-0.4,0.6-0.9,1-1.4
		c0.5-0.8,1.1-1.6,1.7-2.5c0.4-0.6,0.9-1.2,1.3-1.8c0.7-0.9,1.4-1.8,2.2-2.7c0.5-0.6,1.1-1.2,1.7-1.7c0.6-0.6,1.2-1.1,1.8-1.6
		c0.7-0.5,1.3-1.1,1.8-1.6s0.9-0.9,1.3-1.4c0.2-0.2,0.3-0.4,0.5-0.6c1.5-2.3,1-3.8,1.2-5.3c0.1-0.8,0.2-1.7,0.3-2.6c0,0-0.1,0-0.1,0
		l-1.2-0.3c0.3,2.9,0.2,6.4-1.4,7.7c-2.9,2.4-12,10.7-15,16s-7.5,5.4-7.5,2.5c0-0.1,0-0.2,0-0.3c0,0,0-0.1,0-0.1
		C43.3,331.8,43.2,332.9,43.5,333.8z"/>
	<path class="st13" d="M57.7,315.1c-0.4-0.5-21.7,11.7-21.7,11.7s0,2.1-4.5,3.4c-2,0.6-3.5-0.4-4.3-1.8c0-0.1-0.1-0.1-0.1-0.2
		c-0.3,3.5,3.9,5.9,8.1,3.6c0.1-0.1,0.2-0.2,0.3-0.3c0.6-0.7,1.1-2.4,1.9-3.3c0.1-0.1,0.3-0.3,0.4-0.4c6.7-4.3,17.1-10.6,18.7-11.5
		c0.1-0.1,0.2-0.1,0.2-0.1C57.4,315.7,57.9,315.3,57.7,315.1z"/>
	<path class="st13" d="M52.2,311.5c-3,0.1-23.3,3.5-23.3,3.5s-0.9,1.2-2.9,3.1c-1.3,1.3-3.5,1.5-5.1,0.2c-0.2,0.1-0.4,0.1-0.7,0.1
		c-0.6,0-1-0.6-0.8-1.2c0.1-0.1,0.1-0.3,0.2-0.4c0-0.1-0.1-0.1-0.1-0.2c0,0,0-0.1-0.1-0.1c-0.2,0.8-0.2,1.7,0.2,2.7
		c0.8,1.8,2.9,2.8,4.9,2.8c0.9,0,1.7-0.3,2.3-0.8c1.6-1.2,2.3-3.5,3.4-3.8c1.5-0.4,2.8-0.7,4.1-1c7.3-1.8,11.5-2.7,13.5-3
		c0.9-0.2,1.4-0.3,1.4-0.3l0,0l0,0l-0.1,0.1C51,312.6,54.4,311.4,52.2,311.5z"/>
	<path class="st14" d="M19.6,316.8c-0.1,0.1-0.1,0.3-0.2,0.4c-0.2,0.6,0.2,1.2,0.8,1.2c0.2,0,0.5,0,0.7-0.1c0.3-0.1,0.6-0.4,0.6-0.7
		c3-9,26.7-10.5,35.2-10.9c2.4-0.1,3.5-0.1,4.9-0.1c0.5,0,1.1,0,1.8,0.1c-3.6-1-7.2-0.8-10.9-0.7c-8.1,0.3-23.8,0.8-30.5,7.3
		C21,314.3,20.2,315.5,19.6,316.8z"/>
	<path class="st12" d="M131.5,319.9c-0.5-0.6-1.1-1.2-1.7-1.7C130.4,318.7,130.9,319.3,131.5,319.9z"/>
	<path class="st12" d="M128,316.6c-0.7-0.5-1.3-1.1-1.8-1.6C126.7,315.5,127.3,316,128,316.6z"/>
	<path class="st12" d="M137.8,328.3c-0.3-0.4-0.6-0.9-1-1.4C137.1,327.4,137.5,327.9,137.8,328.3z"/>
	<path class="st12" d="M172.6,316.8c0-0.1,0.1-0.1,0.1-0.2c-0.3-1.3-1.3-2.4-2.7-3.4C171.1,314.2,172,315.4,172.6,316.8z"/>
	<path class="st12" d="M126.2,315c-0.5-0.5-0.9-0.9-1.3-1.4C125.3,314.1,125.7,314.6,126.2,315z"/>
	<path class="st12" d="M161.9,317.4c-1.5-0.4-2.8-0.7-4.1-1C159.1,316.7,160.4,317,161.9,317.4c1,0.3,1.7,2.5,3.3,3.8
		c0.6,0.5,1.5,0.8,2.4,0.8c-0.9,0-1.7-0.3-2.3-0.8C163.7,320,163,317.7,161.9,317.4z"/>
	<path class="st12" d="M144.3,335.8c1.8,0.3,3.2-0.3,4-1.3C147.5,335.6,146.1,336.1,144.3,335.8z"/>
	<path class="st12" d="M139.9,311.5c3,0.1,23.3,3.5,23.3,3.5s0.9,1.2,2.9,3.1c1.3,1.3,3.5,1.5,5.1,0.2c-0.3-0.1-0.6-0.4-0.6-0.7
		c-3-9-26.7-10.5-35.2-10.9c-3.2-0.1-4.1-0.1-6.6,0c-0.5,0.1-0.9,0.1-1.2,0.2c0.7-0.6,1.5-1.2,2.5-1.6c-0.2-0.5-0.5-1.1-0.7-2
		c-0.2,0.1-0.5,0.3-0.8,0.4l-4.3,1.1c-0.3,2.9-0.2,6.4,1.4,7.7c2.9,2.4,12,10.7,15,16s7.5,5.4,7.5,2.5c0-0.1,0-0.2,0-0.3
		c-0.3-0.6-0.7-1.3-1.3-2c-3.6-4.4-9.6-10.6-11.2-12.3c-0.3-0.1-0.4-0.2-0.4-0.2c-0.7-0.5-1.2-0.9-1-1.1
		c0.4-0.5,21.7,11.7,21.7,11.7s0,2.1,4.5,3.4c2.1,0.6,3.6-0.5,4.4-2c-0.1-1.7-1.2-3.6-3.8-5.4c-6-4.1-16.9-9.1-18.2-9.6l0.1,0.1
		C141.1,312.6,137.7,311.4,139.9,311.5z"/>
	<path class="st12" d="M142.9,313.1c0.2,0,0.6,0.1,1.4,0.2C143.4,313.2,142.9,313.1,142.9,313.1L142.9,313.1z"/>
	<path class="st12" d="M148.5,334.2c-0.1,0.1-0.1,0.2-0.2,0.3C148.4,334.4,148.4,334.3,148.5,334.2z"/>
	<path class="st12" d="M148.6,333.8c0,0.1,0,0.1-0.1,0.2C148.6,333.9,148.6,333.8,148.6,333.8z"/>
	<path class="st12" d="M135,324.5c-0.4-0.6-0.9-1.2-1.3-1.8C134.2,323.3,134.6,323.9,135,324.5z"/>
	<path class="st12" d="M123.3,307.7c-0.1-0.8-0.2-1.6-0.3-2.6c0,0,0,0,0,0C123.1,306.1,123.2,306.9,123.3,307.7
		c0.2,1.5-0.3,3.1,1.2,5.3C123,310.8,123.5,309.2,123.3,307.7z"/>
	<path class="st13" d="M172.7,316.6c0,0.1-0.1,0.1-0.1,0.2c0.1,0.1,0.1,0.3,0.2,0.4c0.2,0.6-0.2,1.2-0.8,1.2c-0.2,0-0.5,0-0.7-0.1
		c-1.7,1.3-3.8,1.1-5.1-0.2c-2-1.9-2.9-3.1-2.9-3.1s-20.3-3.4-23.3-3.5c-2.2-0.1,1.2,1.1,3.1,1.8l-0.1-0.1l0,0l0,0
		c0,0,0.4,0.1,1.4,0.3c2,0.4,6.2,1.2,13.5,3c1.3,0.3,2.6,0.6,4.1,1c1.1,0.3,1.8,2.6,3.4,3.8c0.6,0.5,1.4,0.7,2.3,0.8
		c1.9,0.1,4.1-1,4.9-2.8C172.9,318.2,172.9,317.3,172.7,316.6C172.7,316.5,172.7,316.6,172.7,316.6z"/>
	<path class="st13" d="M140.7,328.5c-3-5.3-12.1-13.6-15-16c-1.6-1.3-1.7-4.8-1.4-7.7l-1,0.3c-0.1,0-0.2,0-0.3,0
		c0.1,0.9,0.2,1.8,0.3,2.6c0.2,1.5-0.3,3.1,1.2,5.3c0.1,0.2,0.3,0.4,0.5,0.6c0.3,0.4,0.8,0.9,1.3,1.4s1.1,1,1.8,1.6
		c0.6,0.5,1.2,1,1.8,1.6c0.6,0.6,1.1,1.1,1.7,1.7c0.8,0.9,1.5,1.8,2.2,2.7c0.5,0.6,0.9,1.2,1.3,1.8c0.6,0.9,1.2,1.7,1.7,2.5
		c0.4,0.5,0.7,1,1,1.4c0.3,0.4,0.6,0.8,0.9,1.1c2.5,2.7,2.5,5.7,5,6.3c0.2,0.1,0.5,0.1,0.7,0.1c1.8,0.2,3.2-0.3,4-1.3c0,0,0,0,0,0
		c0.1-0.1,0.1-0.2,0.2-0.3c0-0.1,0.1-0.2,0.1-0.3c0-0.1,0-0.1,0.1-0.2c0.3-0.9,0.2-1.9-0.4-3.2c0,0,0,0.1,0,0.1c0,0.1,0,0.2,0,0.3
		C148.2,333.9,143.7,333.8,140.7,328.5z"/>
	<path class="st13" d="M160.5,330.2c-4.5-1.3-4.5-3.4-4.5-3.4s-21.3-12.2-21.7-11.7c-0.2,0.2,0.3,0.6,1,1.1c0,0,0.1,0.1,0.4,0.2
		c2.1,1.2,12.1,7.2,18.5,11.4c1.2,0.9,1.7,3.5,2.6,4c4.2,2.3,8.4-0.1,8.1-3.6c0,0,0,0,0,0C164.1,329.7,162.6,330.8,160.5,330.2z"/>
	<path class="st14" d="M135.4,306.7c8.5,0.4,32.2,1.9,35.2,10.9c0.1,0.4,0.3,0.6,0.6,0.7c0.2,0.1,0.4,0.1,0.7,0.1
		c0.6,0,1-0.6,0.8-1.2c-0.1-0.1-0.1-0.3-0.2-0.4c-0.6-1.4-1.5-2.6-2.6-3.6c-6.8-6.3-22.3-6.8-30.3-7.2c-3.7-0.1-7.3-0.3-10.9,0.7
		c0.1,0,0.1,0,0.1,0C131.4,306.6,132.2,306.6,135.4,306.7z"/>
	<path class="st11" d="M172.2,232.2c1.5-2.8,2.8-5.6,4-8.4c-0.5,0.2-0.9,0.3-1.3,0.3c-2.7,0.1-3-6.8-3-10.6
		c-3.7,7.1-10.9,19.2-13.5,11.4c0-0.1-0.1-0.3-0.1-0.4c-1.2,5-2.6,9.9-4.4,14.8c-5.4,20.1,0,15.9,8.1,2.5c2.6-4.3,3.2-1.6,2.8,1.8
		l-0.1,0.8c-0.8,1.2-1.6,2.4-2.5,3.5c0.1-1.5,0.3-3.2,0.5-4.4c-3.8,5.7-11.1,15.4-12.1,8.3c-0.2-1.5,0-3.4,0.4-5.4
		c-0.3,0.7-0.6,1.4-0.9,2.2c-2.8,6.2-5.6,12.4-8.4,18.6c-0.8,1.9-1.7,3.9-2.6,5.8c0.6,1.2,1.3,1.7,2,1.6
		C143.2,274.1,159.8,253.9,172.2,232.2z"/>
	<path class="st11" d="M170.2,212.5c2.7-5.8,3.9-3.9,4.1,0.7c0.1,1.7,0.2,4.2,0.4,6.1c0.4,3.8,1.9,2.4,3.7-1
		c2.1-5.9,3.7-11.8,4.4-17.6c-7.1,5.6-16.6,2.9-21.4-8.5c0.1,2.7,0.1,5.5,0,8.2c-0.2,6.4-0.9,12.7-2.1,19
		C159.1,231.4,164.2,225.8,170.2,212.5z"/>
	<path class="st11" d="M184.7,201.4c0.2-0.6,0.3-1,0.3-1.1c-0.2,1.1-0.4,2.1-0.7,3.2c-0.2,0.9-0.3,1.8-0.5,2.7
		c0.8-2.9,1.4-5.6,1.7-8.2c-0.1,0.2-0.3,0.3-0.4,0.5C185,199.5,184.9,200.4,184.7,201.4z"/>
	<path class="st15" d="M182.8,200.7c0.7-5.1,0.8-10.2,0.3-15.3c-0.8,2.3-2,3.9-3.6,4.4c-2.7,0.8-5.1-5.7-6.3-9.4
		c-1.3,7.7-4.4,21.2-9.4,14.4c-1.2-1.6-2-3.8-2.5-6.3c0.1,1.2,0.1,2.4,0.2,3.6C166.2,203.6,175.7,206.3,182.8,200.7z"/>
	<path class="st15" d="M185.1,198.5c0.1-0.2,0.3-0.3,0.4-0.5c0,0,0,0,0,0c0-0.5,0.1-1.1,0.1-1.6c0.1-2.8,0.1-5.6-0.1-8.3
		C185.6,191.6,185.5,195.1,185.1,198.5z"/>
	<path class="st15" d="M160.7,179.8c4.4,23.2,8.5,17.1,10.6,0.3c0.8-6.3,2.5-5.5,4.2-0.8c0.9,2.4,2.4,6.4,3.5,7.9
		c1.7-2.2,2.5-5.3,2.9-8.7c-2-8.8-6-17.4-12.5-25.9c-0.1-0.2-3.1-3.6-4.4-5.2c0.6,8.2,1.8,14.2,1.3,14.5c-1.6,0.5-7-5.4-8.4-6.8
		l0.6,13.2c0.7,3.1,1.2,6.3,1.7,9.5c0-0.2,0-0.4,0-0.6L160.7,179.8z"/>
	<path class="st16" d="M171.8,213.5c0,3.8,0.3,10.7,3,10.6c0.5,0,0.9-0.1,1.3-0.3c0.8-1.8,1.5-3.7,2.2-5.5c-1.7,3.4-3.2,4.9-3.7,1
		c-0.2-1.9-0.3-4.4-0.4-6.1c-0.2-4.6-1.4-6.5-4.1-0.7c-6.1,13.3-11.2,18.9-10.9,6.9c-0.3,1.7-0.7,3.4-1.1,5.1c0,0.1,0.1,0.3,0.1,0.4
		C160.9,232.7,168.1,220.6,171.8,213.5z"/>
	<path class="st16" d="M184.7,201.4c-0.1,0.7-0.2,1.5-0.3,2.2c0.3-1.1,0.5-2.2,0.7-3.2C185,200.4,184.9,200.8,184.7,201.4z"/>
	<path class="st16" d="M150.5,251.8c1,7.1,8.3-2.6,12.1-8.3c-0.2,1.2-0.4,2.9-0.5,4.4c0.9-1.1,1.7-2.3,2.5-3.5l0.1-0.8
		c0.4-3.4-0.2-6.1-2.8-1.8c-8.1,13.3-13.5,17.5-8.1-2.5c-0.9,2.4-1.8,4.8-2.9,7.2C150.5,248.4,150.3,250.3,150.5,251.8z"/>
	<path class="st11" d="M9.5,200.2c0.6,5.1,1.9,10.2,3.6,15.4c2.2,5.1,4.3,8.4,4.9,3.7c0.2-1.9,0.3-4.4,0.4-6.1
		c0.2-4.6,1.4-6.5,4.1-0.7c5.8,12.7,10.7,18.4,10.9,8.3c-1.4-6.8-2.2-13.6-2.4-20.5c-0.1-2.3-0.2-4.6-0.1-7
		C25.7,203.9,16.4,206.2,9.5,200.2z"/>
	<path class="st11" d="M42.3,248.6c-0.1-0.3-0.3-0.6-0.4-0.9c0.3,1.5,0.4,2.9,0.2,4.1c-1,7.1-8.3-2.6-12.1-8.3
		c0.2,1.2,0.4,2.9,0.5,4.4c-0.9-1.1-1.7-2.3-2.5-3.5l-0.1-0.8c-0.4-3.4,0.2-6.1,2.8-1.8c7.7,12.7,13,17.1,8.8,0
		c-2.1-5.5-3.9-11.1-5.2-16.8c-2.6,7.5-9.8-4.5-13.4-11.5c0,3.8-0.3,10.7-3,10.6c-0.6,0-1.1-0.2-1.7-0.4c0,0,0,0,0,0
		c0.2,0.5,0.4,1.1,0.7,1.6c12.4,24.1,32.5,48.8,34.9,49.3c0.6,0.2,1.2-0.3,1.8-1.1c-0.9-2.1-1.9-4.2-2.8-6.3
		C47.9,261,45.1,254.8,42.3,248.6z"/>
	<path class="st15" d="M10.6,177.6c0.3,3.8,1.2,7.3,3,9.6c1.1-1.5,2.6-5.5,3.5-7.9c1.7-4.7,3.4-5.5,4.2,0.8c2,16,5.8,22.3,10,2.8
		c0.5-5.2,1.3-10.3,2.4-15.4c0.4-5.4,0.8-11.4,0.9-12.4c-1.4,1.4-6.6,7-8,6.3c-0.8-0.4,0.8-5.9,1.3-14.6c-0.7,0.9-4.9,5.7-5,5.8
		C16.6,160.7,12.7,169.1,10.6,177.6z"/>
	<path class="st15" d="M19.4,180.4c-1.2,3.7-3.6,10.2-6.3,9.4c-1.8-0.5-3-2.5-3.8-5.1c-0.6,5.1-0.5,10.3,0.1,15.5
		c6.9,5.9,16.3,3.7,21.3-6.9c0-0.9,0-1.9,0.1-2.8c-0.5,1.6-1.2,3.1-2,4.3C23.8,201.6,20.7,188.1,19.4,180.4z"/>
	<path class="st16" d="M22.4,212.5c-2.7-5.8-3.9-3.9-4.1,0.7c-0.1,1.7-0.2,4.2-0.4,6.1c-0.5,4.7-2.7,1.4-4.9-3.7
		c0.9,2.7,1.9,5.4,3.1,8.1c0,0,0,0,0,0c0.6,0.2,1.1,0.4,1.7,0.4c2.7,0.1,3-6.8,3-10.6c3.7,7.1,10.8,19,13.4,11.5
		c-0.3-1.4-0.6-2.8-0.9-4.2C33.2,230.9,28.2,225.2,22.4,212.5z"/>
	<path class="st16" d="M30.7,241.8c-2.6-4.3-3.2-1.6-2.8,1.8l0.1,0.8c0.8,1.2,1.6,2.4,2.5,3.5c-0.1-1.5-0.3-3.2-0.5-4.4
		c3.8,5.7,11.1,15.4,12.1,8.3c0.2-1.2,0.1-2.6-0.2-4.1c-0.9-1.9-1.7-3.9-2.4-5.9C43.8,258.9,38.4,254.5,30.7,241.8z"/>
	<path class="st17" d="M172.8,124.9c0,0-0.2-0.3-0.6-0.7c0.1,0.2,0.3,0.4,0.4,0.6L172.8,124.9z"/>
	<path class="st17" d="M82.1,288.1c-3.6,0.3-7.2,0.7-10.6,1.1c6.3-2.4,13.9-3.9,21.6-4.2c2.4-0.2,4.8-0.2,7.2,0
		c6.4,0.4,12.5,1.6,17.7,3.8c3.3,1.4,3.8,1.2,6.4,3.6c-2.5-1-4.3-1.5-6.8-2.3c-2-0.6-4-1.1-6.1-1.4c4.9,2.8,8.9,7.2,11,13.2l5.3-1.4
		c0,0,0-0.8,1.3-8.3c1-5.9,2.4-9.9,10.2-27.5c0.6-2.1,1.7-4.8,2.1-5.5c8.6-22.8,13.7-56.8,9.5-78.7l-0.7-3.5l1.7,3.3
		c5.1,12.4,4.2,33.7,0.8,52c0.1-0.2,0.1-0.5,0.2-0.7c0,0.2-0.1,0.4-0.1,0.6c6-19.5,7.1-39.7,3.6-58.9c-0.6,0.2-1.2,0.2-1.8,0
		c-3.1-1-7.4-2.7-10.8-5.1c-1.2,1.2-2.3,2.4-3.5,3.4c-1.9,1.7-11.7,7.2-16.9,8.7c-3.6,2.2-5.9,3.2-5.9,3.2l4.3-10.2
		c-6.4,6.4-13.9,12.5-13.9,12.5l1.5-7.5l-14,18.3l-13.6-19.5l1.9,9.4c0,0-5.1-0.8-12.8-9.5l-1,8.7c0,0.2-0.2,0.2-0.4,0.1
		c-8.3-8.7-18.9-25.7-18.9-25.7l-8.7,4.1l0.4-29.6L34,145.1c0,0,0.5-4.1-0.3-17.1c-0.6-9.8-4.3-17.3-5.8-25.2c-0.5,3-1.1,6.4-1.6,10
		l-0.1-0.1c0.2-0.9,0.4-2,0.5-3C25,122.2,19.3,125,19.3,125l0.4-0.1l7.5-2.7c0.2-2.5,0.5-5.1,1.2-8.3c0.3,15.5,2.5,19.6,2.5,29.6
		c0,2.3-0.1,4.9-0.4,7.9c-0.1,0.9-0.8,3.2-0.8,3.9c0,0.2,0.1,0.3,0.4,0l8.8-9.4c0.1,1,0.1,2,0.1,3c0,7.2-1.7,16.3-1.9,21.4
		c0,0,0,0,0,0c0.1,0,6.9-2.1,11-5.4c2.7,3.2,5.5,6.3,8.2,9.1c0.4,0.4,0.8,0.8,1.1,1.2c0.1,0.1,0.1,0.1,0.2,0.2
		c0.4,0.4,0.9,0.9,1.3,1.3c-1.8-0.1-7.5-4.7-11.2-8c-4.3,3.1-9.7,6-12.5,7.3c-2.9,18.7-1.6,38.4,4.4,57.2c-3.5-18.6-4.5-40.4,0.6-53
		l1.9-3.7l-0.8,4c-4.2,21.9,0.9,55.8,9.5,78.7c0.4,0.9,1.8,4,2.3,6.1c7.6,17.1,8.9,21,9.9,26.9c1.3,7.5,1.3,8.3,1.3,8.3l5.3,1.4
		C71.9,295.6,76.5,291,82.1,288.1z M69.5,185.8c-1.1-0.5-4.1-2.9-7.9-6.5C65.3,182.8,68.3,185.2,69.5,185.8z M60.6,178.3
		c-0.1-0.1-0.2-0.2-0.3-0.3C60.4,178.1,60.5,178.2,60.6,178.3z M47.5,242.9c-5.4-24.1-5.1-51,0.7-65.9c33.1,37.2,69.2,32.9,95.6-0.3
		c6,14.9,6.4,42.2,0.9,66.6c-7.5,18.9-21.5,33.2-42.7,37.6c-2.2,0.5-4.1,0.5-5.8,0.3c-1.8,0.2-3.7,0.1-5.8-0.3
		C69,276.4,54.9,262,47.5,242.9z"/>
	<path class="st18" d="M90.3,280.8c2.1,0.4,4,0.5,5.8,0.3c1.7,0.2,3.6,0.2,5.8-0.3c21.2-4.4,35.3-18.7,42.7-37.6
		c5.5-24.3,5.1-51.7-0.9-66.6c-26.4,33.2-62.5,37.5-95.6,0.3c-5.8,14.9-6.2,41.9-0.7,65.9C54.9,262,69,276.4,90.3,280.8z
		 M96.6,267.1c-1.6,2-1.8,2-3.2-0.1c-1.4-1.9-3.5-5.4-3.2-9.6c0.1-1.7,0.6-2.2,1.2-2c0.3,2.7,1.5,5.2,3,7.3c0.1,0.2,0.4,0.5,0.6,0.8
		c0.3-0.2,0.6-0.6,0.7-0.8c1.6-2.1,2.9-4.5,3.4-7.1c0.8-0.4,1.4-0.1,1.4,1.9C100.4,261.7,98.1,265.2,96.6,267.1z M78.4,241.1
		c0.1-1.9,0.6-2.3,1.4-2c0.5,2.6,2,5.1,3.7,7.2c0.1,0.1,0.5,0.6,0.8,0.9c0.3-0.2,0.7-0.7,0.8-0.9c0.9-1.1,1.7-2.4,2.3-3.7
		c0.5-1.1,0.9-2.3,1-3.5c0.7-0.2,1.2,0.3,1.3,2c0.2,4.2-2.1,7.8-3.6,9.7c-1.6,2-1.8,2.1-3.6,0C80.8,248.9,78.4,245.3,78.4,241.1z
		 M112.4,241.1c-0.2,4.2-2.9,7.7-4.7,9.7c-1.8,2-2.1,2.1-3.5-0.1c-1.4-1.9-3.5-5.5-3-9.7c0.2-1.4,0.7-2,1.2-2
		c0.1,2.7,1.2,5.2,2.8,7.4c0.2,0.2,0.5,0.6,0.7,0.9c0.3-0.3,0.7-0.8,0.9-1c1.8-1.9,3.4-4.4,4.1-7
		C111.8,238.8,112.5,239.1,112.4,241.1z M118,267.1c-1.9,2-2.1,2-3.1-0.1c-1.2-1.9-2.9-5.4-2.1-9.6c0.2-1.3,0.6-1.9,1-2
		c-0.1,2.6,0.7,5.2,2.1,7.4c0.1,0.2,0.2,0.5,0.4,0.7c0.3-0.3,0.6-0.7,0.8-0.9c1.7-1.9,3.3-4.1,4.1-6.6c1.2-0.9,2.1-0.9,1.8,1.5
		C122.5,261.7,119.7,265.2,118,267.1z M129,250.8c-2,2-2.2,2.1-3.6,0c-1.2-1.9-2.9-5.5-1.9-9.7c0.3-1.1,0.6-1.7,1-1.9
		c-0.2,2.5,0.6,5.1,2,7.3c0.1,0.2,0.3,0.5,0.5,0.8c0.4-0.3,0.9-0.8,1.1-1c1.8-1.9,3.7-4.2,4.7-6.7c1.3-0.9,2.3-0.9,1.9,1.5
		C134,245.3,131,248.8,129,250.8z M129.4,202.9c0.3-1,0.6-1.6,1-1.8c-0.1,2.4,1.1,4.7,2.6,6.6c0.1,0.1,0.6,0.7,0.8,0.9
		c0.4-0.1,1.3-0.9,1.5-1.1c1.9-1.6,4-3.8,5.1-6.2c1.3-0.6,2.2-0.5,1.9,1.6c-0.6,4-4,7.3-6.2,9.2c-2.3,1.9-2.6,2-4.1,0
		C130.5,210.3,128.4,206.9,129.4,202.9z M117,222.8c0.3-1.2,0.7-1.8,1.1-2c-0.1,2.6,1,5.2,2.6,7.3c0.1,0.1,0.5,0.7,0.7,0.9
		c0.4-0.2,1.1-0.9,1.3-1.1c1.9-1.9,3.9-4.3,4.8-6.9c1.1-0.6,1.9-0.3,1.7,1.8c-0.4,4.2-3.6,7.8-5.6,9.7c-2.1,2-2.4,2-3.9,0
		C118.3,230.6,116.2,227,117,222.8z M103.2,207.3c0.2-1.3,0.6-1.8,1.2-1.9c0.2,2.5,1.7,4.9,3.4,6.7c0.1,0.2,0.7,0.8,1,1
		c0.4-0.2,1.2-0.9,1.4-1.1c1.8-1.7,3.8-4,4.5-6.5c0.9-0.4,1.6,0,1.5,1.8c-0.1,4-3.2,7.4-5.2,9.2c-2.1,2-2.4,2-4.1,0
		C105.2,214.7,102.7,211.3,103.2,207.3z M90.5,222.8c0.1-1.5,0.6-2.1,1.2-2c0.1,1.3,0.5,2.5,1,3.6c0.7,1.3,1.5,2.6,2.5,3.7
		c0.1,0.2,0.6,0.8,0.9,1c0.4-0.3,0.9-0.9,1.1-1.1c1.8-2,3.5-4.5,4-7.2c0.8-0.2,1.4,0.2,1.4,2c0,4.2-2.7,7.8-4.5,9.7
		c-1.9,2-2.1,2-3.7,0C92.7,230.6,90.2,227,90.5,222.8z M78.3,205.4c0.5,2.5,2.3,4.8,4.1,6.6c0.2,0.2,0.9,0.9,1.2,1.1
		c0.3-0.2,1-0.9,1.2-1.1c1-1,2-2.2,2.7-3.5c0.5-1,0.9-2,1.1-3.1c0.7-0.1,1.2,0.4,1.3,1.9c0.3,4-2.4,7.3-4.2,9.2c-1.9,2-2.2,2-4.1,0
		c-1.9-1.8-4.8-5.2-4.7-9.2C77,205.7,77.5,205.3,78.3,205.4z M65.2,220.9c0.7,2.7,2.5,5.2,4.4,7.1c0.2,0.2,0.8,0.9,1.1,1.1
		c0.3-0.2,0.8-0.8,0.9-1c1.6-2.1,3-4.6,3.1-7.3c0.6,0,1,0.6,1.2,2c0.6,4.2-1.7,7.8-3.3,9.7c-1.6,2-1.8,2-3.9,0
		c-1.9-1.9-4.8-5.5-5-9.7C63.6,220.9,64.3,220.5,65.2,220.9z M50.8,202.9c-0.1-1.9,0.6-2.2,1.7-1.8c0.9,2.5,2.9,4.7,4.8,6.4
		c0.2,0.2,1,0.9,1.4,1.1c0.3-0.2,0.8-0.8,1-1c1.6-1.8,2.9-4.1,3-6.6c0.5,0.2,0.9,0.7,1.1,1.9c0.7,4-1.6,7.3-3.2,9.2
		c-1.7,1.9-1.9,2-4.2,0C54.4,210.3,51.1,206.9,50.8,202.9z M64.8,250.8c-1.4,2-1.6,2.1-3.5,0.1c-1.8-1.9-4.7-5.5-5.1-9.7
		c-0.3-2.2,0.5-2.4,1.6-1.7c0.8,2.6,2.6,5,4.4,6.9c0.2,0.2,0.7,0.7,1,1c0.2-0.3,0.5-0.7,0.6-0.9c1.5-2.2,2.5-4.8,2.5-7.4
		c0.5,0.1,0.9,0.7,1.1,2C68,245.3,66.1,248.9,64.8,250.8z M69.1,255.9c0.7,2.5,2.1,4.9,3.8,6.9c0.1,0.1,0.4,0.5,0.7,0.8
		c0.2-0.3,0.4-0.6,0.5-0.8c1.5-2.2,2.5-4.7,2.6-7.3c0.6-0.1,1,0.4,1.2,2c0.5,4.2-1.4,7.7-2.7,9.6c-1.4,2-1.5,2-3.2,0.1
		c-1.7-1.9-4.2-5.4-4.4-9.6C67.5,255.5,68.2,255.3,69.1,255.9z"/>
	<path class="st15" d="M60.6,212.1c1.6-1.9,3.9-5.2,3.2-9.2c-0.2-1.2-0.6-1.7-1.1-1.9c-0.1,2.5-1.4,4.8-3,6.6c-0.2,0.2-0.7,0.8-1,1
		c-0.4-0.2-1.2-0.9-1.4-1.1c-1.9-1.7-3.9-3.9-4.8-6.4c-1.1-0.4-1.8-0.1-1.7,1.8c0.3,4,3.6,7.4,5.6,9.2
		C58.7,214.1,58.9,214,60.6,212.1z"/>
	<path class="st15" d="M81.6,216.5c1.9,2,2.2,2,4.1,0c1.8-1.9,4.5-5.2,4.2-9.2c-0.1-1.5-0.6-2-1.3-1.9c-0.2,1.1-0.6,2.1-1.1,3.1
		c-0.7,1.3-1.7,2.5-2.7,3.5c-0.2,0.2-0.9,0.9-1.2,1.1c-0.3-0.2-1-0.9-1.2-1.1c-1.8-1.8-3.6-4.1-4.1-6.6c-0.8-0.1-1.3,0.3-1.4,1.9
		C76.8,211.3,79.7,214.7,81.6,216.5z"/>
	<path class="st15" d="M111,216.5c2-1.8,5.1-5.2,5.2-9.2c0.1-1.8-0.6-2.2-1.5-1.8c-0.7,2.5-2.7,4.8-4.5,6.5c-0.2,0.2-1,0.9-1.4,1.1
		c-0.3-0.2-0.9-0.8-1-1c-1.7-1.8-3.2-4.2-3.4-6.7c-0.6,0.1-1,0.6-1.2,1.9c-0.5,4,2,7.4,3.7,9.2C108.6,218.5,108.9,218.5,111,216.5z"
		/>
	<path class="st15" d="M132,212.1c1.5,2,1.8,1.9,4.1,0c2.2-1.9,5.6-5.2,6.2-9.2c0.3-2.1-0.6-2.2-1.9-1.6c-1.1,2.4-3.2,4.6-5.1,6.2
		c-0.2,0.2-1.1,1-1.5,1.1c-0.2-0.2-0.7-0.8-0.8-0.9c-1.5-1.9-2.7-4.2-2.6-6.6c-0.4,0.2-0.7,0.8-1,1.8
		C128.4,206.9,130.5,210.3,132,212.1z"/>
	<path class="st15" d="M63.7,222.8c0.2,4.2,3.1,7.8,5,9.7c2.1,2,2.3,2,3.9,0c1.6-1.9,3.9-5.5,3.3-9.7c-0.2-1.4-0.6-2-1.2-2
		c-0.1,2.7-1.5,5.2-3.1,7.3c-0.1,0.2-0.6,0.8-0.9,1c-0.3-0.2-0.9-0.9-1.1-1.1c-1.9-1.9-3.7-4.4-4.4-7.1
		C64.3,220.5,63.6,220.9,63.7,222.8z"/>
	<path class="st15" d="M98.1,232.5c1.8-1.9,4.5-5.5,4.5-9.7c0-1.8-0.6-2.2-1.4-2c-0.5,2.7-2.2,5.2-4,7.2c-0.2,0.2-0.7,0.8-1.1,1.1
		c-0.3-0.2-0.8-0.8-0.9-1c-1-1.1-1.8-2.4-2.5-3.7c-0.5-1.1-0.9-2.3-1-3.6c-0.6-0.1-1.1,0.5-1.2,2c-0.3,4.2,2.2,7.8,3.9,9.7
		C96,234.5,96.2,234.5,98.1,232.5z"/>
	<path class="st15" d="M123.6,232.5c2-1.9,5.2-5.5,5.6-9.7c0.2-2.1-0.6-2.4-1.7-1.8c-0.9,2.6-2.9,5-4.8,6.9
		c-0.2,0.2-0.9,0.9-1.3,1.1c-0.2-0.2-0.6-0.8-0.7-0.9c-1.6-2.1-2.7-4.7-2.6-7.3c-0.4,0.2-0.8,0.8-1.1,2c-0.8,4.2,1.3,7.8,2.7,9.7
		C121.2,234.5,121.5,234.5,123.6,232.5z"/>
	<path class="st15" d="M66.3,239.1c0,2.6-1,5.2-2.5,7.4c-0.1,0.2-0.4,0.6-0.6,0.9c-0.3-0.3-0.8-0.8-1-1c-1.8-1.9-3.6-4.3-4.4-6.9
		c-1.1-0.7-1.9-0.5-1.6,1.7c0.4,4.2,3.3,7.8,5.1,9.7c1.9,2,2.1,1.9,3.5-0.1c1.3-1.9,3.2-5.5,2.6-9.7
		C67.2,239.8,66.8,239.2,66.3,239.1z"/>
	<path class="st15" d="M86.1,250.8c1.5-1.9,3.8-5.5,3.6-9.7c-0.1-1.7-0.6-2.2-1.3-2c-0.1,1.2-0.5,2.4-1,3.5
		c-0.6,1.3-1.4,2.6-2.3,3.7c-0.1,0.2-0.5,0.7-0.8,0.9c-0.3-0.3-0.7-0.8-0.8-0.9c-1.7-2.1-3.2-4.6-3.7-7.2c-0.8-0.3-1.3,0.1-1.4,2
		c0,4.2,2.4,7.8,4.1,9.7C84.3,252.9,84.5,252.8,86.1,250.8z"/>
	<path class="st15" d="M110.9,239.3c-0.7,2.6-2.3,5.1-4.1,7c-0.2,0.2-0.6,0.7-0.9,1c-0.2-0.3-0.5-0.7-0.7-0.9
		c-1.6-2.2-2.7-4.7-2.8-7.4c-0.5,0-1,0.6-1.2,2c-0.5,4.2,1.6,7.8,3,9.7c1.4,2.2,1.7,2.1,3.5,0.1c1.8-2,4.5-5.5,4.7-9.7
		C112.5,239.1,111.8,238.8,110.9,239.3z"/>
	<path class="st15" d="M132.8,239.6c-1,2.5-2.9,4.8-4.7,6.7c-0.2,0.2-0.7,0.7-1.1,1c-0.2-0.3-0.4-0.6-0.5-0.8
		c-1.4-2.2-2.2-4.8-2-7.3c-0.4,0.2-0.7,0.8-1,1.9c-1,4.2,0.7,7.8,1.9,9.7c1.4,2.1,1.6,2,3.6,0c2-2,5-5.5,5.7-9.7
		C135.1,238.7,134.1,238.7,132.8,239.6z"/>
	<path class="st15" d="M72,267.2c1.7,1.9,1.8,1.9,3.2-0.1c1.3-1.9,3.2-5.4,2.7-9.6c-0.2-1.6-0.6-2.1-1.2-2c-0.1,2.6-1.1,5.1-2.6,7.3
		c-0.1,0.2-0.3,0.5-0.5,0.8c-0.3-0.3-0.6-0.7-0.7-0.8c-1.7-2-3.1-4.4-3.8-6.9c-0.9-0.6-1.6-0.4-1.5,1.7
		C67.8,261.8,70.3,265.3,72,267.2z"/>
	<path class="st15" d="M100.5,257.5c0-2-0.6-2.3-1.4-1.9c-0.5,2.6-1.8,5-3.4,7.1c-0.1,0.2-0.4,0.6-0.7,0.8c-0.2-0.3-0.5-0.6-0.6-0.8
		c-1.5-2.1-2.7-4.6-3-7.3c-0.6-0.2-1.1,0.3-1.2,2c-0.3,4.2,1.8,7.7,3.2,9.6c1.4,2.1,1.6,2.1,3.2,0.1
		C98.1,265.2,100.4,261.7,100.5,257.5z"/>
	<path class="st15" d="M121.2,256c-0.8,2.5-2.4,4.7-4.1,6.6c-0.2,0.2-0.5,0.6-0.8,0.9c-0.2-0.2-0.3-0.5-0.4-0.7
		c-1.4-2.2-2.2-4.8-2.1-7.4c-0.4,0.1-0.8,0.7-1,2c-0.8,4.2,0.9,7.7,2.1,9.6c1,2.1,1.2,2.1,3.1,0.1c1.7-1.9,4.5-5.4,5-9.6
		C123.3,255.1,122.4,255.1,121.2,256z"/>
	<path class="st19" d="M13,215.6c-1.7-5.1-2.9-10.3-3.6-15.4c-0.7-5.2-0.7-10.4-0.1-15.5c-0.4-1.4-0.8-3-1-4.7
		c0.5-2.9,1.3-5.7,2.1-8.5c0,2,0,4,0.2,6.1c2-8.5,6-16.8,12.3-25c0.1-0.2,4.3-4.9,5-5.8c0.1-1.1,0.1-2.3,0.1-3.5c-0.1,0-0.3,0-0.4,0
		c-10.2,6.4-19.3,27.1-20.5,39.3c-1.9,19,3.3,38.2,15,53.4l-1.7-3.2c-1.3-2.5-2.5-5-3.6-7.4c-0.2-0.5-0.5-1.1-0.7-1.6
		C15,221,13.9,218.3,13,215.6z"/>
	<path class="st19" d="M181.9,178.5c0.3-2.3,0.3-4.7,0.3-7c0.9,2.8,1.6,5.6,2.1,8.5c-0.3,2-0.7,3.8-1.2,5.4
		c0.5,5.1,0.4,10.2-0.3,15.3c-0.8,5.8-2.3,11.7-4.4,17.6c-0.7,1.8-1.4,3.7-2.2,5.5c-1.2,2.8-2.5,5.6-4,8.4c-0.1,0.2-0.2,0.3-0.2,0.5
		l-1.7,3.2c6.8-8.8,11.3-19,13.6-29.7c0.2-0.9,0.4-1.8,0.5-2.7c0.1-0.7,0.2-1.5,0.3-2.2c0.1-0.9,0.3-1.9,0.4-2.8
		c0.4-3.5,0.5-6.9,0.4-10.4c0-1.8-0.1-3.7-0.3-5.5c-1.2-12.2-10.3-32.8-20.4-39.3c0,1.4,0.1,2.8,0.2,4.1c1.4,1.6,4.3,5,4.4,5.2
		C175.9,161,180,169.7,181.9,178.5z"/>
	<path class="st16" d="M173.2,180.4c1.2,3.7,3.6,10.2,6.3,9.4c1.6-0.5,2.7-2.1,3.6-4.4c0.6-1.6,1-3.4,1.2-5.4
		c-0.5-2.9-1.2-5.7-2.1-8.5c0,2.3,0,4.7-0.3,7c-0.4,3.4-1.2,6.6-2.9,8.7c-1.1-1.5-2.6-5.5-3.5-7.9c-1.7-4.7-3.4-5.5-4.2,0.8
		c-2.1,16.8-6.2,22.9-10.6-0.3l-0.5-2.6c0,0.2,0,0.4,0,0.6c0,2.9,0.2,7,1.1,10.7c0.6,2.4,1.4,4.7,2.5,6.3
		C168.8,201.6,171.9,188.1,173.2,180.4z"/>
	<path class="st16" d="M21.3,180.1c-0.8-6.3-2.5-5.5-4.2-0.8c-0.9,2.4-2.4,6.4-3.5,7.9c-1.8-2.3-2.7-5.9-3-9.6
		c-0.2-2-0.2-4.1-0.2-6.1c-0.8,2.8-1.6,5.6-2.1,8.5c0.2,1.7,0.6,3.3,1,4.7c0.8,2.6,2,4.6,3.8,5.1c2.7,0.8,5.1-5.7,6.3-9.4
		c1.3,7.7,4.4,21.2,9.4,14.4c0.8-1.1,1.5-2.6,2-4.3c1.4-4.4,1.7-9.9,1.6-13.3l-0.5,2.6c-0.2,1.1-0.4,2.1-0.6,3.1
		C27.1,202.4,23.3,196.1,21.3,180.1z"/>
	<path class="st18" d="M60.3,178c0.1,0.1,0.2,0.2,0.3,0.3C60.5,178.2,60.4,178.1,60.3,178z"/>
	<path class="st18" d="M69.5,185.8c-1.2-0.6-4.1-3-7.9-6.5C65.4,182.8,68.3,185.3,69.5,185.8z"/>
	<path class="st18" d="M164.9,103.5c0,0.1,0,0.2,0,0.2c-0.4,8,5.4,17.7,7.8,21.3c0,0.1-6.9-2.4-8-2.9c0,0,0,0,0,0.1
		c0.7,0.3,8.1,3,8.1,2.9c-0.1-0.1-0.1-0.2-0.2-0.3c-0.1-0.2-0.3-0.4-0.4-0.6c-2.6-4.1-7.6-13-7.2-20.4c0-0.7,0-1.4,0-2.1
		c0,0.7,0,1.3,0,1.9C165,103.6,165,103.5,164.9,103.5z"/>
	<path class="st18" d="M75.9,114.5c0.7-0.1,2-0.2,2.8-0.4c3.2-2.1,7.5-8.6,9.4-11.7c2-3.1,4.9-7.4,9-7.4c4.1,0,7,4.3,8.9,7.5
		c1.4,2.3,2.6,4.8,3.9,7.1c0.6,1,1.7,3,2.8,3.5c0.5,0.2,2.4,0.1,3,0.1c2,0,3.9,0.2,5.5,1.2c0-0.9,0-1.7,0.1-2.6
		c-1.2-2.2-1.8-4.9-1.1-8.1c0-1.4,0.2-2.7,0.4-4.1c-0.4-10.6-14.1-13.2-24.8-13.4c-13.6-0.2-22.7,11.3-22,16.5
		c0.1,0.6,0.1,1.1,0,1.6c0,1.7-0.2,3.4-0.5,5l-0.5,1.2c0.1,1.5,0.1,3,0.2,4.6C74,114.8,75,114.6,75.9,114.5z"/>
	<path class="st18" d="M48.1,164.9c-4.1,3.3-10.9,5.4-11,5.4c0,0,0,0.1,0,0.1c0,0,6.9-2.1,11-5.4c2.7,3.2,5.5,6.3,8.2,9
		C53.6,171.2,50.8,168.1,48.1,164.9z"/>
	<path class="st18" d="M57.7,175.4c-0.1-0.1-0.1-0.1-0.2-0.2C57.5,175.2,57.6,175.3,57.7,175.4z"/>
	<path class="st18" d="M161.6,141.6c0.1,7.4,0.8,13.3,0.8,13.6l0.1,0.1c0,0-0.7-6-0.8-13.6c-1-8.7,1.6-23.6,2.4-27.7
		c0-0.1,0-0.2,0-0.4C163.3,117.3,160.6,132.7,161.6,141.6z"/>
	<path class="st18" d="M155.4,170.3c0,0-7.9-2.4-11.8-6.1c-3.9,4-7.9,7.3-11.6,10.1c5.2-7.3,9.6-14.2,9.5-14.2l8.7,4.1l-0.4-29.6
		l8.3,10.5c0,0-0.5-4.1,0.3-17.1c0.6-9.9,4.3-17.5,5.8-25.5c-2.7-3.5-6.5-4.5-10.8,1.5c-1.4,2-3.1,3.8-4.9,5.4
		c2.9,24.3,0.9,58.5-13.7,48c-8.2-5.9-12.2-18.9-13.3-33c-2,1.3-4.9,1.9-6.9,2.4c-8,1.9-10.2,8.7-15.5,13.8l-2.3,2.1l-2.1-2.2
		c-4.5-4.8-9.8-13.1-16.9-13.8c-1.7-0.2-3.6-0.4-5.2-0.7c-1.2,13.5-5.3,25.8-13.2,31.4c-15.2,11-16.7-26.9-13.2-51.2
		c-2.4-2.5-4.7-5.5-6.7-9c-6.6-11.8-9.4-6.4-11.6,5.6c1.6,7.9,5.3,15.4,5.8,25.2c0.8,13,0.3,17.1,0.3,17.1l8.3-10.5l-0.4,29.6
		l8.7-4.1c0,0,10.6,17,18.9,25.7c0.3,0.1,0.4,0.1,0.4-0.1l1-8.7c7.7,8.7,12.8,9.5,12.8,9.5l-1.9-9.4l13.6,19.5l14-18.3l-1.5,7.5
		c0,0,7.5-6.1,13.9-12.5l-4.3,10.2c0,0,2.3-1.1,5.9-3.2c5.2-3.1,12.9-8.4,20.3-16C147.6,168,155.5,170.4,155.4,170.3
		c0-2.3-2.7-26-2.4-26.8l-0.1-0.1C152.6,143.9,155.3,167.9,155.4,170.3z M112.7,159c0.2-1.3,0.6-1.9,1-2c0,2.5,0.8,4.8,2.1,7
		c0.1,0.1,0.3,0.4,0.4,0.7c0.3-0.3,0.7-0.7,0.8-0.9c1.5-1.8,3-3.8,3.9-6c1.3-1.1,2.4-1.4,2.1,1.2c-0.5,4.2-3.3,7.7-5,9.6
		c-1.9,2-2.1,2.1-3.2,0C113.6,166.7,111.9,163.2,112.7,159z M90.2,165.9c0.1-1.6,0.6-2.1,1.2-2c0.3,2.5,1.5,4.8,2.9,6.8
		c0.1,0.1,0.4,0.5,0.6,0.8c0.3-0.3,0.6-0.7,0.7-0.8c1.5-1.9,2.8-4.2,3.3-6.5c0.9-0.6,1.6-0.4,1.6,1.7c-0.1,4.2-2.4,7.7-3.9,9.6
		c-1.6,2-1.8,2-3.2,0C92,173.6,89.9,170.1,90.2,165.9z M69.4,157.4c0.7,2.4,2.1,4.6,3.7,6.5c0.1,0.2,0.5,0.6,0.7,0.8
		c0.2-0.3,0.4-0.6,0.5-0.8c1.4-2.1,2.4-4.4,2.5-6.9c0.5-0.1,1,0.4,1.2,2c0.5,4.2-1.4,7.7-2.7,9.6c-1.4,2-1.5,2-3.2,0
		c-1.7-1.9-4.2-5.4-4.4-9.6C67.5,156.7,68.3,156.7,69.4,157.4z"/>
	<path class="st18" d="M28.4,113.9c-0.7,3.2-1,5.8-1.2,8.3l-7.5,2.7c-0.2,0.2-0.4,0.2-0.4,0.2l7.9-2.8c0.2-2.5,0.5-5.1,1.2-8.3
		c0.3,15.4,2.5,19.6,2.5,29.5C30.9,133.5,28.8,129.4,28.4,113.9z"/>
	<path class="st18" d="M38.9,145.9l-8.8,9.4c-0.2,0.2-0.4,0.2-0.4,0c0,0.3,0.1,0.4,0.4,0.1l8.8-9.4c0.1,0.9,0.1,1.9,0.1,2.9
		C39,147.9,39,146.9,38.9,145.9z"/>
	<path class="st17" d="M94.7,140.5l2.1,2.2l2.3-2.1c5.3-5.1,7.5-11.9,15.5-13.8c2-0.4,4.9-1,6.9-2.4c0-0.5-0.1-1-0.1-1.6
		c-2,1.2-4.8,1.8-6.7,2.2c-8,1.9-10.2,8.7-15.5,13.8l-2.3,2.1l-2.1-2.2C90.3,134,85,125.7,77.9,125c-1.7-0.2-3.5-0.4-5.2-0.7
		c0,0.6-0.1,1.1-0.1,1.7c1.6,0.4,3.5,0.6,5.2,0.7C84.9,127.4,90.2,135.7,94.7,140.5z"/>
	<path class="st17" d="M27.1,99.1C27.1,99.1,27.1,99.1,27.1,99.1C27.1,99.1,27.1,99.1,27.1,99.1C27.1,99.1,27.1,99.1,27.1,99.1z"/>
	<path class="st17" d="M172.7,125c-2.4-3.6-8.2-13.3-7.8-21.3c0-0.1,0-0.2,0-0.2c-0.2-0.3-0.4-0.7-0.7-1c-1.5,8-5.2,15.7-5.8,25.5
		c-0.8,13-0.3,17.1-0.3,17.1l-8.3-10.5l0.4,29.6l-8.7-4.1c0.1,0-4.3,6.9-9.5,14.2c3.7-2.8,7.7-6.1,11.6-10.1
		c3.9,3.7,11.8,6.1,11.8,6.1c-0.1-2.4-2.8-26.4-2.5-26.9l0.1,0.1l9.4,11.7c0,0,0,0,0,0c0-0.3-0.7-6.2-0.8-13.6
		c-1-8.9,1.7-24.3,2.5-28c0,0.1,0,0.2,0,0.4c0.4,2.7,0.6,5.4,0.5,8.1c0,0,0.1,0,0.1,0C165.8,122.6,172.7,125.1,172.7,125z"/>
	<path class="st15" d="M121.3,111.8c0,0.9-0.1,1.7-0.1,2.6c0.8,0.5,1.5,1.2,2.1,2.1c0.5,0.9,0.8,1.9,0.6,3c-0.2,1.5-1.2,2.6-2.5,3.4
		c0,0.5,0.1,1.1,0.1,1.6c1.1,14.1,5.1,27.1,13.3,33c14.6,10.5,16.6-23.7,13.7-48c1.8-1.6,3.5-3.4,4.9-5.4c4.3-6,8.1-5,10.8-1.5
		c0.2,0.3,0.5,0.6,0.7,1c0,0,0.1,0.1,0.1,0.1c0-0.6,0-1.3,0-1.9c0-7.9-2.1-18.7-5.7-26.9c-2.9,2.6-7.6,4.4-12,5.6
		c0.9,0.5,1.8,1.2,2.6,2c4.3,4.6,3.6,9.4,2.6,15.1c-1.6-7.1-3.2-14.5-10.3-13.9c4.2,5.4,5.5,11.1,4.9,16.2c0.3-0.2,0.7-0.2,1-0.1
		c0.8,0.1,1.3,0.9,1.1,1.6c-2.5,8.7-8.5,19.4-19.3,16.4c-1.1-0.3-2-0.8-2.8-1.3c-1.7-0.5-3.3-1.4-4.3-2.8c0,0.4,0,0.8,0,1.2
		l-2.1-5.5c-0.4-1.8-0.6-3.7-0.5-5.6C119.5,106.9,120.1,109.6,121.3,111.8z"/>
	<path class="st15" d="M73.8,102.7c-0.7-5.2,8.4-16.7,22-16.5c10.7,0.2,24.4,2.7,24.8,13.4c1-5.2,3.4-10.2,6.7-13.9
		c0.7-0.8,1.4-1.5,2.2-2.1c-3.5,0.4-7.1,0.8-10.6,1c-7.3,0.5-14.6,0.8-21.9,0.8s-14.6-0.2-21.9-0.8c-3.5-0.3-7.1-0.6-10.6-1
		c0.8,0.7,1.6,1.4,2.2,2.1c4.2,4.7,7.1,11.8,7.1,18.6C73.9,103.8,73.9,103.3,73.8,102.7z"/>
	<path class="st15" d="M26.2,112.7l0.1,0.1c0.5-3.6,1-7,1.6-10c2.2-11.9,5-17.3,11.6-5.6c1.9,3.4,4.2,6.4,6.7,9
		c-3.5,24.3-2,62.2,13.2,51.2c7.9-5.7,11.9-18,13.2-31.4c0.1-0.6,0.1-1.1,0.1-1.7c-0.1,0-0.2,0-0.3-0.1c-1.8-0.5-3.4-1.4-3.8-3.4
		c-0.3-1.7,0.5-2.9,1.5-4.1c0.7-0.9,1.8-1.3,2.9-1.6c0-1.5-0.1-3-0.2-4.6l-1.6,4.3c0-0.3,0-0.7,0-1.1c-0.9,1.1-2.1,1.9-3.5,2.5
		c-0.9,0.6-1.9,1.1-3.2,1.5c-10.8,3-16.8-7.7-19.3-16.4c-0.2-0.7,0.3-1.5,1.1-1.6c0.2-0.1,0.5-0.1,0.7,0c-0.5-5.1,0.8-10.7,5-16
		c-7.2-0.7-8.8,6.7-10.4,13.8c-1-5.7-1.7-10.5,2.6-15.1c0.8-0.8,1.6-1.5,2.5-2c-4.8-1.3-9.8-3.2-12.6-6.2c-4,8-7.1,19.3-6.9,24.9
		c0,0,0,0,0,0c0,0,0,0.1,0,0.1l0,0c0,0,0,0,0,0c0.1,4.1,0,7.5-0.4,10.5C26.6,110.7,26.4,111.8,26.2,112.7z"/>
	<path class="st15" d="M135.9,116c0,0-0.1,0-0.2,0.1c1.7-0.5,3.2-1.5,4.4-2.8C138.9,114.4,137.4,115.4,135.9,116z"/>
	<path class="st14" d="M63.9,91.8c-1.4,0.7-1.5,3.5-0.2,6.4c1.3,2.9,3.5,4.7,4.9,4.1c1.4-0.6,1.5-3.5,0.2-6.4
		C67.5,93,65.3,91.2,63.9,91.8z"/>
	<path class="st14" d="M125.2,102.3c1.4,0.6,3.6-1.2,4.9-4.1c1.3-2.9,1.2-5.7-0.2-6.4c-1.4-0.6-3.6,1.2-4.9,4.1
		C123.7,98.8,123.8,101.7,125.2,102.3z"/>
	<path class="st12" d="M72.3,49.4c3.4-6.8,0.4-20-5-30c-1.6,0.7-3.1,1.6-4.6,2.4c2.3,6.3,7.7,20.4,6.4,21.1l-0.6,0.3l-2.6-6.2
		c1.1,2.7,1.9,4.8,2,5.6c-1.4-1.8-8.8-17.9-10.3-21.1c-0.1-0.2-0.1-0.3-0.1-0.4c-4.5,2.1-6.2,4.8-6.2,4.8
		c3.2,6.9,6.7,13.6,10.3,20.5c-2.4-1.9-8-10.4-11-15.5c-8.5,8.3-12.3,19.7-14,28.3C48.5,59.7,69.1,55.5,72.3,49.4z"/>
	<path class="st12" d="M158.4,64.4c0,0.1,0,0.1,0,0.2C158.4,64.6,158.4,64.5,158.4,64.4z"/>
	<path class="st12" d="M158.6,65.6c0,0.1,0,0.1,0,0.2C158.6,65.7,158.6,65.6,158.6,65.6z"/>
	<path class="st12" d="M158.3,63.2c0,0.1,0,0.1,0,0.2C158.3,63.4,158.3,63.3,158.3,63.2z"/>
	<path class="st12" d="M158.1,62C158.1,62,158.1,62,158.1,62C158.1,62,158.1,62,158.1,62z"/>
	<path class="st13" d="M72.3,49.4c-3.2,6.1-23.8,10.3-35.7,9.8c0,0,0,0-0.1,0c-0.6,3-0.9,5.6-1.1,7.6c1.3-0.6,2.6-1.1,4-1.6
		c0,0,0-0.1,0.1-0.1c0.2-0.2,0.6-0.3,1-0.2c10.4-3.8,23.9-6.5,38.3-7.8c-0.9-12-2.8-26.8-6.2-33c-1-1.9-2.1-3.7-3.1-5.6
		c-0.7,0.3-1.3,0.6-2,0.9c0,0,0,0,0,0C72.7,29.4,75.7,42.6,72.3,49.4z"/>
	<path class="st13" d="M119,49.4c-1.3-2.5-1.7-5.9-1.4-9.7c-0.5,2-0.9,4.1-1.1,6.1c-0.4,3.7-0.7,7.5-1,11.2
		c16.8,1.5,32.3,5,43.1,9.8c0-0.3-0.1-0.7-0.1-1c0-0.1,0-0.1,0-0.2c0-0.3-0.1-0.6-0.1-0.9c0-0.1,0-0.1,0-0.2c0-0.3-0.1-0.7-0.1-1
		c0-0.1,0-0.1,0-0.2c-0.1-0.4-0.1-0.8-0.2-1.2c0,0,0-0.1,0-0.1c-0.2-0.9-0.3-1.9-0.5-3c0,0,0,0,0,0C146.5,60.3,122.4,56,119,49.4z"
		/>
	<path class="st13" d="M121.7,24.1c-0.5,0.9-0.9,2-1.2,3.2C120.9,26.2,121.3,25.1,121.7,24.1C121.7,24.1,121.7,24.1,121.7,24.1z"/>
	<path class="st12" d="M122.3,11.9C113,24,114.1,24,112.6,39.6c-0.5,5.7-0.9,11.4-1.6,17.1c0.7,0,1.4,0.1,2.1,0.2
		c0.8-12.2,2.5-28.6,5.7-34.4c5.4-9.6,5.4-9.6,5.4-9.6C123.6,12.5,123,12.1,122.3,11.9L122.3,11.9z"/>
	<path class="st12" d="M119.2,11.2c0.2-0.3,0.4-0.5,0.6-0.8c-0.3-0.2-0.7-0.3-1-0.4C119,10.3,119.2,10.7,119.2,11.2z"/>
	<path class="st12" d="M114.5,8.2c-7.1-2.6-14.4-3.6-21.7-3C100.2,4.8,107.6,6,114.5,8.2z"/>
	<path class="st12" d="M116.5,12.6c-9.8-4.1-21.9-5.9-32.4-3.4c0,0-5.6,1.4-7.3,1.9c1.2,2.7,4.5,5.7,6.2,12.1
		c0.9,3.5,1.1,10.8,0.9,17.1c0.5,1.6,1,2.9,1.8,4c0.9,1.3,2.2,2.2,4,2.9c1.3,0.5,2.8,0.8,4.7,1c4.6,0.5,7.6,0.1,9.4-0.8
		c1.7-0.7,2.7-1.8,3.4-2.9c0.6-1,1-2.1,1.3-3.1c0.9-2.7,1.1-8.2,2.9-13.9c-0.2,1.9-0.3,3.9-0.4,6.5c0.5-10,0.8-12.5,7.1-21.4
		C117.6,12.9,117,12.9,116.5,12.6z"/>
	<path class="st12" d="M74.4,10.4c0-0.1,0.1-0.1,0.1-0.2c-0.3,0.1-0.6,0.3-0.9,0.4c0.9,1.2,1.7,2.4,2.4,3.4
		C75,12.4,74.3,11,74.4,10.4z"/>
	<path class="st12" d="M75,22.4c3.3,5.8,4.9,22.3,5.7,34.5c0.5,0,1-0.1,1.5-0.1c-0.7-5.7-1.1-11.5-1.6-17.2C79.1,24.1,80.3,24,71,12
		c-0.5,0.3-0.9,0.5-1.4,0.8C69.6,12.8,69.6,12.8,75,22.4z"/>
	<path class="st12" d="M93.9,56.2c-0.1,0-0.2,0-0.3,0C93.7,56.2,93.8,56.2,93.9,56.2z"/>
	<path class="st12" d="M97.2,56.2c0.1,0,0.1,0,0.2,0c0,0,0,0,0,0C97.3,56.2,97.2,56.2,97.2,56.2z"/>
	<path class="st12" d="M83,51.9c0-1.5,0-2.9,0-4.3c0-1-0.1-2.1-0.1-3.1c0-0.4,0-0.7,0-1.1c-0.2-3.4-0.4-6.9-0.6-10.3
		c-0.2-4.2-0.3-8.4-2.2-12.6c-0.4-0.8-1-1.8-1.8-3c3.9,6.5,3.6,9.8,4.2,21.9c0.3,5.8,0.5,11.6,0.2,17.3c0.8-0.1,1.6-0.1,2.4-0.2
		c-0.8,0-1.5,0.1-2.3,0.1C82.9,55.1,83,53.5,83,51.9z"/>
	<path class="st12" d="M59,20.9l-0.1-0.3c0,0-0.1,0-0.1,0.1C58.8,20.7,58.9,20.8,59,20.9z"/>
	<path class="st12" d="M124.7,45.4c1.8-4.4,2.9-7.1,3.6-8.9l-3,6.9c-2.2-1.6,3.4-15.3,5.9-21.6c-2.1-1.2-4.3-2.3-6.5-3.2
		c-1,1.8-2.1,3.7-3.1,5.5c-0.5,1.1-0.9,2.1-1.3,3.2c-0.5,1.8-1,3.8-1.3,5.3c-0.4,2.3-1,4.7-1.6,7.1c-0.3,3.8,0.1,7.2,1.4,9.7
		c3.4,6.6,27.5,10.9,38.5,9.6c-1.7-8.5-5.5-19.7-13.9-28c-3.3,6.2-9.8,17.4-11.7,16.3c3.8-7.1,7.4-14.1,10.8-21.3
		c0,0-1.7-2.6-6.1-4.8C128.9,37.4,132.8,29.4,124.7,45.4z"/>
	<path class="st18" d="M46.3,99.7c-0.8,0.1-1.3,0.9-1.1,1.6c2.5,8.7,8.5,19.4,19.3,16.4c1.3-0.4,2.3-0.9,3.2-1.5
		c1.4-1,2.3-2.4,3-4.3c-1.9,2.3-3.3,3.8-6.5,4.4c-9.7,1.9-14.3-7.8-16.2-15.6c-0.1-0.5-0.5-0.9-1-1C46.8,99.6,46.6,99.6,46.3,99.7z"
		/>
	<path class="st13" d="M158.9,70.3c-1.7-0.8-3.5-1.5-5.2-2.3c-2.1,2.4-6.6,4.4-12.7,6c-8.5,2.4-18.9,3.5-25.9,4
		c-3,0.2-5.5,0.2-8,0.2c-5.6,0.2-11.4,0.2-17,0.1c-8.3,0.1-19.5-0.9-27.4-2.3c-10.9-1.7-19.2-4.4-22.3-7.9c-1.8,0.7-3.6,1.5-5.2,2.3
		C41.3,86.2,152.8,86.2,158.9,70.3z"/>
	<path class="st12" d="M63.2,61.4c15.1-2.7,33.6-3.9,44.1-2.3c-17.9,0.3-43.5,2.2-60.1,8.5c-0.6,0.2-1.2,0-1.4-0.6
		c-0.2-0.4-0.1-0.7,0-1c-0.8,0.3-1.6,0.6-2.4,0.8c13.7,9,33.2,9.2,48.9,10.6l3.6,0.4c7.2,0.1,24-1.8,31.4-3.1
		c8.6-1.5,16-3.1,22.9-8.1C125.1,57.6,91.6,55.9,63.2,61.4z"/>
	<path class="st12" d="M107.2,78.2c-3.6,0-6.9-0.2-11.1-0.3l-3.6,0.3c-0.7,0-1.5,0.1-2.3,0.1C95.8,78.4,101.5,78.4,107.2,78.2z"/>
	<path class="st12" d="M153.7,68C153.7,68,153.7,68,153.7,68c-0.1-0.1-0.2-0.1-0.3-0.2l-3.2,2.4c-2.5,1.5-5.7,2.7-9.1,3.7
		C147.1,72.5,151.6,70.5,153.7,68z"/>
	<path class="st12" d="M62.7,76c-0.2,0-0.4-0.1-0.5-0.1c-8.7-1.5-14.5-3-21.6-8c-0.1,0-0.1,0-0.2,0.1c0,0,0,0,0,0
		C43.5,71.6,51.9,74.3,62.7,76z"/>
	<path class="st18" d="M149.2,101.3c0.2-0.7-0.3-1.5-1.1-1.6c-0.4-0.1-0.7,0-1,0.1c-0.3,0.2-0.6,0.5-0.7,0.9
		c-1.1,4.4-3,9.4-6.2,12.6c-1.3,1.3-2.7,2.2-4.4,2.8c-1.6,0.5-3.5,0.7-5.5,0.2c-3.2-0.6-4.6-2.1-6.5-4.4c0.7,2.1,1.8,3.5,3.4,4.5
		c0.8,0.5,1.7,0.9,2.8,1.3C140.7,120.7,146.7,110,149.2,101.3z"/>
	<path class="st14" d="M45.8,67c0.2,0.6,0.8,0.8,1.4,0.6c16.6-6.3,42.2-8.2,60.1-8.5c-10.5-1.6-29-0.3-44.1,2.3
		c-6.6,1.2-12.5,2.6-16.9,4.2c-0.2,0.1-0.3,0.2-0.5,0.4C45.7,66.3,45.6,66.6,45.8,67z"/>
	<path class="st14" d="M57.6,21.6c1.5,3.2,8.9,19.3,10.3,21.1c-0.1-0.7-0.9-2.9-2-5.6C63.6,31.4,60,23.2,59,21c0,0,0-0.1-0.1-0.1
		c-0.1-0.1-0.1-0.2-0.2-0.2c-0.2-0.1-0.4-0.2-0.7-0.1c-0.2,0.1-0.4,0.3-0.5,0.6C57.6,21.3,57.6,21.4,57.6,21.6z"/>
	<path class="st14" d="M136.1,20.2c-0.4-0.2-0.8,0-1,0.4c-5.2,12-4.7,10.8-6.8,15.9c-0.7,1.8-1.8,4.5-3.6,8.9
		c8.1-16,4.2-8,11.9-24.2c0,0,0,0,0,0C136.8,20.8,136.6,20.3,136.1,20.2z"/>
	<path class="st10" d="M94.8,138.8l2.1,2.2l2.3-2.1c5.3-5.1,7.5-11.9,15.5-13.8c1.9-0.4,4.7-1,6.7-2.2c1.3-0.8,2.3-1.9,2.5-3.4
		c0.2-1.1-0.1-2.1-0.6-3c-0.5-1-1.3-1.6-2.1-2.1c-1.6-0.9-3.5-1.2-5.5-1.2c-0.6,0-2.5,0.1-3-0.1c-1.1-0.5-2.2-2.5-2.8-3.5
		c-1.3-2.3-2.5-4.8-3.9-7.1c-1.9-3.2-4.8-7.5-8.9-7.5c-4.1,0-7,4.3-9,7.4c-1.9,3.1-6.2,9.6-9.4,11.7c-0.8,0.2-2.1,0.3-2.8,0.4
		c-0.9,0.1-1.9,0.3-2.9,0.6c-1.1,0.3-2.2,0.8-2.9,1.6c-1,1.2-1.8,2.4-1.5,4.1c0.4,2,2,2.9,3.8,3.4c0.1,0,0.2,0,0.3,0.1
		c1.6,0.4,3.5,0.5,5.2,0.7C85,125.7,90.3,134,94.8,138.8z M97.2,136.7c-4.7-4.9-10.3-14-18.9-14.8c0,0-0.1,0-0.1,0
		c-1.7-0.5-2.9-1.8-1-2.1c5.8,1.5,8.9,2.8,12.8,6.5c2.6,2.8,4.7,6,7.1,8.5c2.3-2.4,4.3-5.4,6.8-8.1c3.1-2.7,6-4.3,10.7-6.4
		c0.9-0.1,1.5-0.2,1.8,0c0.6,0.4,0.1,1.1-1,1.7c-0.4,0.1-0.8,0.2-1.2,0.3C104.9,124.4,102.1,132.2,97.2,136.7z M103.5,104.1
		c3,4.8,4.8,10.1,7.9,11.8c2.1,1.1,6.4-0.3,8.6,1.4c-0.8,0.1-1.7,0.3-2.5,0.6c-5.9,1.1-11.2,4.1-15.9,7.9c-1,0-1.7-1.5-4.4-5.3
		c-2.5,3.5-3.3,5.1-4.2,5.3c-4.6-4.2-8.5-5.9-14.9-6.6c-1.2-0.4-3.1-0.8-4.9-0.8c1.8-0.7,6.2-0.9,7-1.3c2.4-1.4,6.1-5.5,10.7-12.9
		C95.7,96.1,98.5,96.1,103.5,104.1z"/>
	<path class="st12" d="M90.8,104.1c-4.6,7.4-8.3,11.5-10.7,12.9c-0.8,0.4-5.2,0.6-7,1.3c1.8,0,3.7,0.4,4.9,0.8
		c6.4,0.7,10.3,2.4,14.9,6.6c0.9-0.2,1.7-1.8,4.2-5.3c2.7,3.8,3.4,5.3,4.4,5.3c4.7-3.8,10-6.8,15.9-7.9c0.9-0.3,1.8-0.5,2.5-0.6
		c-2.2-1.7-6.5-0.3-8.6-1.4c-3.1-1.7-4.9-7-7.9-11.8C98.5,96.1,95.7,96.1,90.8,104.1z M100.2,106.3c1.3,2.4,4,5,2.4,6.2
		C101,113.6,98.4,104.6,100.2,106.3z M91.6,112.5c-1.6-1.2,1.1-3.8,2.4-6.2C95.7,104.6,93.2,113.6,91.6,112.5z M86.6,115.1
		c-0.3,0.5-1,0.7-1.5,0.4c-0.5-0.4-0.6-1-0.3-1.5c3.3-5.1,6.3-10.5,10.4-14.9C92.5,104.5,89.5,109.8,86.6,115.1z"/>
	<path class="st12" d="M115.4,121.9c1.1-0.6,1.6-1.3,1-1.7c-0.2-0.2-0.9-0.1-1.8,0c-4.8,2.1-7.6,3.7-10.7,6.4
		c-2.5,2.7-4.6,5.7-6.8,8.1c-2.4-2.5-4.5-5.7-7.1-8.5c-4-3.8-7-5-12.8-6.5c-1.9,0.2-0.7,1.5,1,2.1c0,0,0.1,0,0.1,0
		c8.6,0.8,14.2,9.9,18.9,14.8c4.9-4.5,7.7-12.3,17-14.5C114.6,122.1,115,122,115.4,121.9z"/>
	<path class="st10" d="M94,106.3c-1.3,2.4-4,5-2.4,6.2C93.2,113.6,95.7,104.6,94,106.3z"/>
	<path class="st10" d="M102.6,112.5c1.6-1.2-1.1-3.8-2.4-6.2C98.4,104.6,101,113.6,102.6,112.5z"/>
	<path class="st14" d="M85.1,115.5c0.5,0.3,1.2,0.1,1.5-0.4c2.9-5.3,5.9-10.6,8.6-16c-4.1,4.4-7.1,9.8-10.4,14.9
		C84.5,114.5,84.6,115.1,85.1,115.5z"/>
	<path class="st15" d="M72,168.6c1.7,2,1.8,2,3.2,0c1.3-1.9,3.2-5.4,2.7-9.6c-0.2-1.6-0.6-2.1-1.2-2c-0.2,2.5-1.2,4.8-2.5,6.9
		c-0.1,0.2-0.3,0.5-0.5,0.8c-0.2-0.2-0.6-0.6-0.7-0.8c-1.6-1.9-3-4.1-3.7-6.5c-1-0.8-1.9-0.7-1.7,1.6
		C67.8,163.2,70.3,166.7,72,168.6z"/>
	<path class="st15" d="M93.4,175.5c1.4,2,1.6,2,3.2,0c1.5-1.9,3.8-5.4,3.9-9.6c0-2.1-0.7-2.3-1.6-1.7c-0.5,2.4-1.8,4.6-3.3,6.5
		c-0.1,0.1-0.4,0.5-0.7,0.8c-0.2-0.3-0.5-0.7-0.6-0.8c-1.4-2-2.6-4.3-2.9-6.8c-0.6-0.1-1.1,0.4-1.2,2
		C89.9,170.1,92,173.6,93.4,175.5z"/>
	<path class="st15" d="M118,168.6c1.7-1.9,4.5-5.4,5-9.6c0.3-2.6-0.8-2.3-2.1-1.2c-0.9,2.2-2.4,4.3-3.9,6c-0.1,0.2-0.5,0.6-0.8,0.9
		c-0.1-0.3-0.3-0.6-0.4-0.7c-1.3-2.2-2.1-4.5-2.1-7c-0.4,0.1-0.8,0.7-1,2c-0.8,4.2,0.9,7.7,2.1,9.6
		C115.9,170.7,116.1,170.6,118,168.6z"/>
	<path class="st13" d="M108.5,41.4c-0.3,1-0.7,2.1-1.3,3.1c-0.7,1.1-1.7,2.2-3.4,2.9c-1.8,0.9-4.8,1.3-9.4,0.8
		c-1.9-0.2-3.4-0.5-4.7-1c-1.8-0.7-3.1-1.6-4-2.9c-0.8-1.1-1.4-2.4-1.8-4c-0.1,3.7-0.4,7-0.8,9.1c0-1.9-0.1-4-0.2-6
		c0,0.4,0,0.7,0,1.1c0,1,0.1,2.1,0.1,3.1c0,1.4,0,2.8,0,4.3c0,1.6-0.1,3.2-0.2,4.8c0.8,0,1.5-0.1,2.3-0.1c2.8-0.2,5.6-0.3,8.4-0.3
		c0.1,0,0.2,0,0.3,0c1.1,0,2.2,0,3.3,0c0,0,0.1,0,0.1,0c0,0,0,0,0,0c4.5,0,8.9,0.2,13.3,0.5c-0.1-1.5-0.1-3-0.2-4.5
		c0-1.4,0-2.8,0-4.3c0-1,0.1-2.1,0.1-3.1c0.1-1.8,0.2-3.5,0.2-5.3c0.1-2.1,0.2-3.9,0.3-5.5c0.1-2.6,0.2-4.7,0.4-6.5
		C109.6,33.2,109.4,38.7,108.5,41.4z"/>
	<path class="st14" d="M76,14c0.7,1.1,1.5,2.4,2.3,3.5c0.8,1.2,1.4,2.2,1.8,3c1.9,4.2,2,8.4,2.2,12.6c0.2,3.4,0.4,6.9,0.6,10.3
		c0.1,2.1,0.2,4.1,0.2,6c0.4-2.1,0.6-5.4,0.8-9.1c0.2-6.3,0-13.6-0.9-17.1c-1.7-6.4-5-9.4-6.2-12.1c1.7-0.5,7.3-1.9,7.3-1.9
		c10.5-2.5,22.6-0.7,32.4,3.4c0.5,0.3,1.1,0.3,1.6,0.1c0.3-0.2,0.6-0.4,0.8-0.8c0.1-0.2,0.2-0.5,0.2-0.7c0-0.4-0.1-0.9-0.4-1.2
		c-0.1-0.1-0.3-0.3-0.4-0.4c-1.2-0.5-2.5-1-3.8-1.4c-6.9-2.3-14.4-3.4-21.7-3c-3.2,0.2-6.4,0.7-9.5,1.5c-1.3,0.4-8,1.7-8.8,3.5
		c0,0.1-0.1,0.1-0.1,0.2C74.3,11,75,12.4,76,14z"/>
	<path class="st0" d="M140.7,164.9c6.4,2.2,15,5.3,19,11.2c-8-5.3-10.2-6.3-19.6-9.1c-0.6-0.2-0.9-0.8-0.7-1.3
		C139.5,165.1,140.1,164.8,140.7,164.9z"/>
	<path class="st0" d="M135.3,166.4c1.3,0.9,10,7,9.9,8.3c-0.5-0.1-10-5.8-11.1-6.4c-0.5-0.3-0.7-1-0.3-1.5
		C134.1,166.3,134.8,166.1,135.3,166.4z"/>
	<path class="st0" d="M51.8,164.9c-6.4,2.2-15,5.3-19,11.2c8-5.3,10.2-6.3,19.6-9.1c0.6-0.2,0.9-0.8,0.7-1.3
		C53,165.1,52.4,164.8,51.8,164.9z"/>
	<path class="st0" d="M57.2,166.4c-1.3,0.9-10,7-9.9,8.3c0.5-0.1,10-5.8,11.1-6.4c0.5-0.3,0.7-1,0.3-1.5
		C58.4,166.3,57.7,166.1,57.2,166.4z"/>
</g>
</svg>
