<?xml version="1.0" encoding="utf-8"?>
<!-- Generator: Adobe Illustrator 23.0.6, SVG Export Plug-In . SVG Version: 6.00 Build 0)  -->
<svg version="1.1" id="Layer_1" xmlns="http://www.w3.org/2000/svg" xmlns:xlink="http://www.w3.org/1999/xlink" x="0px" y="0px"
	 viewBox="0 0 192.8 340.9" style="enable-background:new 0 0 192.8 340.9;" xml:space="preserve">
<style type="text/css">
	.st0{fill-rule:evenodd;clip-rule:evenodd;fill:#050505;}
	.st1{fill-rule:evenodd;clip-rule:evenodd;fill:#2B2B28;}
	.st2{fill-rule:evenodd;clip-rule:evenodd;fill:#FFCC04;}
	.st3{fill-rule:evenodd;clip-rule:evenodd;fill:#EF8B22;}
	.st4{fill-rule:evenodd;clip-rule:evenodd;fill:#FFFFFF;}
	.st5{fill-rule:evenodd;clip-rule:evenodd;fill:#3F3E3B;}
	.st6{fill-rule:evenodd;clip-rule:evenodd;fill:#8E764C;}
	.st7{fill-rule:evenodd;clip-rule:evenodd;fill:#917E56;}
	.st8{fill-rule:evenodd;clip-rule:evenodd;fill:#B99B60;}
	.st9{fill-rule:evenodd;clip-rule:evenodd;fill:#60605E;}
	.st10{fill:#050505;}
	.st11{fill:#2B2B28;}
	.st12{fill:#FFCC04;}
	.st13{fill:#EF8B22;}
	.st14{fill:#FFFFFF;}
	.st15{fill:#3F3E3B;}
	.st16{fill:#8E764C;}
	.st17{fill:#917E56;}
	.st18{fill:#B99B60;}
	.st19{fill:#60605E;}
	.st20{fill:#525252;}
	.st21{fill-rule:evenodd;clip-rule:evenodd;fill:#525252;}
</style>
<g>
	<path class="st10" d="M148.3,274.3c2.6-3,5.1-6.1,7.5-9.2c6.9-9,13.3-18.4,19-28.2c6.7-11.3,14.8-27.2,15.5-40.4
		c0.7-13.5-2.5-27.2-8.8-39.1c-3.7-6.8-8.7-13.7-14.8-18.6c0-3.5,0.3-7.1,0.9-10.5l0.5,0.1c2.8,1,6.1,2,9.1,1.9c0.7,0,1.3-0.4,1.6-1
		c0.3-0.6,0.2-1.3-0.2-1.9c-1.5-2-2.7-4.1-3.6-6.4c-0.6-1.5-1-3.2-1.7-4.6c-0.5-0.9-0.9-1.8-1.3-2.8c-0.5-2-0.9-4.1-1.3-6.2
		c-0.2-0.8-0.3-1.6-0.4-2.4c0-0.4-0.1-0.9-0.1-1.2c0.5-9.8-2.1-22.5-6.2-31.6c0-0.4,0.1-0.8,0.1-1.2c0-0.2,0-0.4,0-0.6
		c0-0.2,0-0.5,0-0.7c-0.2-4.9-1-10.1-2.2-14.9c-2.5-10-7-19.7-14.3-27.1c0.6-1.5,0.4-3.2-0.5-4.6c-2.1-3.2-6.3-5.9-9.8-7.3
		c-1.7-0.7-3.6-0.4-4.9,0.7c-1.1-0.6-2.2-1.2-3.3-1.7c0.4-1.1,0.5-2.3,0.2-3.4c-0.3-1.3-1.1-2.4-2.3-3.1
		c-19.2-11.2-40.2-11.2-59.5,0c-1.2,0.7-1.9,1.8-2.3,3.1c-0.3,1.2-0.3,2.3,0.2,3.4c-1.1,0.5-2.2,1.1-3.3,1.7c-1.3-1-3.1-1.4-4.8-0.7
		c-3.5,1.4-7.7,4.1-9.8,7.3c-0.9,1.4-1.1,3.1-0.5,4.6C39.6,35,35.1,44.8,32.7,54.8c-1.2,4.7-2.1,10-2.2,14.9c0,0.2,0,0.5,0,0.7
		c0,0.1,0,0.2,0,0.3c-1.8,3.5-3.3,7.3-4.6,11c-1.8,5.1-3.6,12.1-3.4,17.5c0.2,5.7-0.1,12.9-2.7,18v0.1c-0.1,0.3-0.2,0.6-0.4,0.9
		c-0.6,1-1.2,1.9-1.8,2.9c-0.6,0.9-2.7,3.9-3.6,4.4c-0.8,0.3-1.3,1.1-1.1,2c0.1,0.8,0.8,1.5,1.7,1.5c1.9,0.1,3.9,0,5.7-0.2
		c1.1-0.2,2.5-0.3,3.8-0.5c0.4,3.5,1,7,2,10.4c-6.1,4.9-11.3,11.9-14.9,18.7c-6.4,11.9-9.5,25.6-8.8,39.1
		c0.7,13.2,8.9,29.1,15.5,40.4c5.7,9.8,12.1,19.2,19,28.2c2.4,3.2,4.9,6.3,7.5,9.2c1.6,1.7,3.9,4.4,6.3,5c0.6,0.2,1.2,0.2,1.8,0.2
		c0.5-0.1,1-0.1,1.5-0.3c0,0.1,0.1,0.1,0.1,0.2c1.6,3.8,3.2,7.7,4,11.8c0.1,0.6,0.2,1.2,0.3,1.8c0.3,2.1,0.7,4.2,1,6.3
		c0,0.3,0.1,0.6,0.1,0.9c-0.1,0.4-0.1,0.9-0.2,1.3c-1.6,0.1-3.3,0.2-4.9,0.3c-4.7,0.3-9.4,0.7-14,1.3c-5,0.6-10.3,1.5-15.1,3.1
		c-4.4,1.5-9.3,4-10.6,8.9c-0.6,2-0.4,4.1,0.4,6c1.2,3.1,4.1,5.1,7.3,5.7c-0.4,2.1-0.1,4.2,1,6.1c2.9,5,9.4,5.9,14.3,3.2
		c0.4-0.3,0.8-0.5,1.1-0.8c0.3,0.8,0.7,1.6,1.3,2.4c2.3,2.9,6.2,3.7,9.7,2.8c1.1-0.3,2.1-0.8,3-1.5c1.4-1.1,2.1-2.3,2.9-3.8
		c0.5-0.9,0.9-1.9,1.6-2.6c0.3-0.3,0.5-0.7,0.8-1.1c0.4-0.6,0.8-1.2,1.2-1.8c1.2-1.6,2.3-3.1,3.5-4.7c0.4-0.5,0.8-1,1.2-1.5
		c1.6-2,3.4-3.9,5.4-5.7c0.6-0.6,1.2-1.1,1.8-1.6c0.4-0.3,1-0.7,1.2-1.2c0.9-1.8,0.9-5.3,0.9-7.3c0.1-0.9,0.1-1.8,0.1-2.7
		c0.4-0.5,0.8-1.1,1-1.7c0.8-2.4,2.1-4.6,3.8-6.4c0.5,0.4,0.9,0.8,1.4,1.2c4.5,3.9,9.3,7.5,14.4,10.6c3,1.9,8.4,5.3,12.1,4.4
		c2.4-0.6,3.8-2.1,4.6-4.1c2.8,1.2,5.6,2.4,8.4,3.3c0.1,1,0.3,2,0.7,2.8c0.3,0.5,0.8,0.9,1.2,1.2c0.6,0.5,1.2,1.1,1.8,1.6
		c1.9,1.7,3.7,3.7,5.4,5.7c0.4,0.5,0.8,1,1.2,1.5c1.2,1.5,2.4,3.1,3.5,4.7c0.4,0.6,0.8,1.2,1.2,1.8c0.2,0.4,0.5,0.8,0.8,1.1
		c0.7,0.8,1.1,1.7,1.6,2.6c0.8,1.5,1.6,2.8,2.9,3.8c0.9,0.7,1.9,1.2,3,1.5c3.5,0.9,7.4,0.2,9.7-2.8c0.6-0.8,1-1.6,1.3-2.4
		c0.3,0.3,0.7,0.6,1.1,0.8c4.9,2.7,11.4,1.9,14.3-3.2c1.1-1.9,1.4-4,1-6.1c3.1-0.6,6.1-2.7,7.3-5.7c0.7-1.9,0.9-4,0.4-6
		c-1.3-4.9-6.2-7.4-10.6-8.9c-4.1-1.4-8.5-2.2-12.9-2.8c0.1-0.1,0.1-0.3,0.2-0.4c0.5-1.5,0.5-3.2-0.2-4.6c-1.1-2.5-3.8-4.7-6.4-6.3
		c0.4-0.5,0.8-1,1.5-1.7c1.8-4.1-1.2-7.9-4.2-10.4c-0.5-0.4-1-0.9-1.5-1.3C145.3,277.7,147,275.7,148.3,274.3z M134.7,303.6
		c-0.7,0-1.4-0.1-2.2-0.1c-0.4,0-0.8-0.1-1.2-0.1c-0.1-0.4-0.1-0.8-0.2-1.1c-0.1-0.4-0.1-0.8-0.1-1.2
		C132.2,301.9,133.5,302.7,134.7,303.6z M183.1,185.4c-0.8,2.3-2,3.9-3.6,4.4c-2.7,0.8-5.1-5.7-6.3-9.4c-1.3,7.7-4.4,21.2-9.4,14.4
		c-1.2-1.6-2-3.8-2.5-6.3c-0.8-3.7-1.1-7.8-1.1-10.7c0-0.2,0-0.4,0-0.6l0.5,2.6c4.4,23.2,8.5,17.1,10.6,0.3c0.8-6.3,2.5-5.5,4.2-0.8
		c0.9,2.4,2.4,6.4,3.5,7.9c1.7-2.2,2.5-5.3,2.9-8.7c0.3-2.3,0.3-4.7,0.3-7c0.9,2.8,1.6,5.6,2.1,8.5C184,182,183.6,183.8,183.1,185.4
		z M159.3,219.4c-0.2,12,4.9,6.4,10.9-6.9c2.7-5.8,3.9-3.9,4.1,0.7c0.1,1.7,0.2,4.2,0.4,6.1c0.4,3.8,1.9,2.4,3.7-1
		c-0.7,1.8-1.4,3.7-2.2,5.5c-0.5,0.2-0.9,0.3-1.3,0.3c-2.7,0.1-3-6.8-3-10.6c-3.7,7.1-10.9,19.2-13.5,11.4c0-0.1-0.1-0.3-0.1-0.4
		C158.6,222.8,159,221.1,159.3,219.4z M161.9,241.8c2.6-4.3,3.2-1.6,2.8,1.8l-0.1,0.8c-0.8,1.2-1.6,2.4-2.5,3.5
		c0.1-1.5,0.3-3.2,0.5-4.4c-3.8,5.7-11.1,15.4-12.1,8.3c-0.2-1.5,0-3.4,0.4-5.4c1-2.4,2-4.8,2.9-7.2
		C148.4,259.3,153.9,255.1,161.9,241.8z M152.5,97.7c-1.5-6.8-3.1-13.9-9.5-13.9c-0.3,0-0.5,0-0.8,0c4.1,5.4,5.4,11,4.9,16
		c0.3-0.2,0.6-0.2,1-0.1c0.8,0.1,1.3,0.9,1.1,1.6c-2.5,8.7-8.5,19.4-19.3,16.4c-0.9-0.3-1.7-0.6-2.3-1c-1.9-0.5-3.7-1.4-4.8-2.9
		c0,0,0,0,0,0c-0.1,0-0.5-0.9-1-1.9h-0.5c0,0.8-0.1,1.6-0.1,2.5c-1.6-0.9-3.5-1.2-5.5-1.2c-0.6,0-2.5,0.1-3-0.1
		c-1.1-0.5-2.2-2.5-2.8-3.5c-1.3-2.3-2.5-4.8-3.9-7.1c-1.9-3.2-4.8-7.5-8.9-7.5c-4.1,0-7,4.3-9,7.4c-1.9,3.1-6.2,9.6-9.4,11.7
		c-0.8,0.2-2.1,0.3-2.8,0.4c-0.9,0.1-1.9,0.3-2.9,0.6c0-1.5-0.1-3-0.2-4.6l0,0h-0.1c-0.6,1.3-1.5,3.3-1.6,3.3c0,0,0,0,0,0
		c-0.9,1.1-2.1,1.9-3.5,2.5c-0.9,0.6-1.9,1.1-3.2,1.5c-10.8,3-16.8-7.7-19.3-16.4c-0.2-0.7,0.3-1.5,1.1-1.6c0.2-0.1,0.5-0.1,0.7,0
		c0,0,0,0,0,0C46.5,94.7,47.9,89,52,83.7c-0.3,0-0.6,0-0.9,0c-6.5,0-8,7.1-9.5,13.9c-1-5.7-1.7-10.5,2.6-15.1
		c2.4-2.5,5.3-3.5,8.4-3.5c5.2,0,10.7,2.9,14.2,6.8c3.7,4.1,6.3,9.9,7,15.8h0.1c0.6-5.6,9.4-15.5,22-15.3
		c10.7,0.2,24.4,2.7,24.8,13.3h0.1c1-5.1,3.4-10,6.6-13.6c3.4-3.9,9-6.8,14.2-6.8c3.1,0,6.1,1,8.4,3.5
		C154.2,87.2,153.5,92,152.5,97.7z M101.6,125.7c-1,0-1.7-1.5-4.4-5.3c-2.5,3.5-3.3,5.1-4.2,5.3c-4.6-4.2-8.5-5.9-14.9-6.6
		c-1.2-0.4-3.1-0.8-4.9-0.8c1.8-0.7,6.2-0.9,7-1.3c2.4-1.4,6.1-5.5,10.7-12.9c4.9-8,7.7-8,12.7,0c3,4.8,4.8,10.1,7.9,11.8
		c2.1,1.1,6.4-0.3,8.6,1.4c-0.8,0.1-1.7,0.3-2.5,0.6C111.5,118.9,106.2,122,101.6,125.7z M115.4,121.9c-0.4,0.1-0.8,0.2-1.2,0.3
		c-9.3,2.2-12.1,10-17,14.5c-4.7-4.9-10.3-14-18.9-14.8c0,0-0.1,0-0.1,0c-1.7-0.5-2.9-1.8-1-2.1c5.8,1.5,8.9,2.8,12.8,6.5
		c2.6,2.8,4.7,6,7.1,8.5c2.3-2.4,4.3-5.4,6.8-8.1c3.1-2.7,6-4.3,10.7-6.4c0.9-0.1,1.5-0.2,1.8,0C117,120.6,116.5,121.3,115.4,121.9z
		 M131.3,21.8c-2.5,6.3-8.1,20-5.9,21.6l3-6.9c2-5.1,1.6-3.9,6.8-15.9c0.2-0.4,0.6-0.6,1-0.4c0.5,0.1,0.7,0.6,0.5,1c0,0,0,0,0,0
		c4.4,2.1,6.1,4.8,6.1,4.8c-3.4,7.2-7,14.2-10.8,21.3c1.9,1.1,8.4-10.1,11.7-16.3c8.4,8.3,12.1,19.5,13.9,28c0,0,0,0,0,0
		c0.2,1,0.4,2,0.5,3c0,0,0,0.1,0,0.1c0.1,0.4,0.1,0.8,0.2,1.2c0,0.1,0,0.1,0,0.2c0,0.3,0.1,0.7,0.1,1c0,0.1,0,0.1,0,0.2
		c0,0.3,0.1,0.6,0.1,0.9c0,0.1,0,0.1,0,0.2c0,0.4,0.1,0.7,0.1,1c-10.8-4.7-26.3-8.2-43.1-9.8c0.3-3.8,0.6-7.5,1-11.2
		c0.2-2,0.7-4.1,1.1-6.1c0.5-2.4,1.1-4.7,1.6-7.1c0.3-1.5,0.7-3.5,1.3-5.3c0.4-1.2,0.8-2.3,1.2-3.2c0,0,0,0,0,0
		c1-1.8,2.1-3.7,3.1-5.5C127,19.5,129.2,20.6,131.3,21.8z M150.3,66.7c-7,5-14.4,6.6-22.9,8.1c-7.4,1.3-24.2,3.2-31.4,3.1l-3.6-0.4
		c-15.7-1.4-35.2-1.7-48.9-10.6c0.8-0.3,1.6-0.6,2.4-0.8c0.1-0.2,0.3-0.3,0.5-0.4c4.4-1.6,10.3-3,16.9-4.2
		C91.6,55.9,125.1,57.6,150.3,66.7z M122.4,11.8c0.6,0.3,1.2,0.7,1.8,1c0,0,0,0-5.4,9.6c-3.2,5.8-4.9,22.2-5.7,34.4
		c-0.7-0.1-1.4-0.1-2.1-0.2c0.7-5.7,1.1-11.4,1.6-17.1C114.1,24,113,24,122.4,11.8L122.4,11.8z M74.5,10.2c0.9-1.8,7.6-3.1,8.8-3.5
		c3.1-0.8,6.3-1.3,9.5-1.5c7.2-0.6,14.5,0.4,21.7,3c1.3,0.4,2.6,0.9,3.8,1.4c0.2,0.1,0.3,0.2,0.4,0.4c0.3,0.1,0.7,0.3,1,0.4
		c-0.2,0.3-0.4,0.5-0.6,0.8c0,0.2-0.1,0.5-0.2,0.7c-0.2,0.4-0.5,0.6-0.8,0.8c-6.3,8.9-6.7,11.3-7.1,21.4c-0.1,1.6-0.1,3.4-0.3,5.5
		c0,1.8-0.1,3.5-0.2,5.3c0,1-0.1,2.1-0.1,3.1c0,1.5,0,2.9,0,4.3c0.1,1.5,0.1,3,0.2,4.5c-4.4-0.3-8.8-0.5-13.3-0.5
		c-0.1,0-0.1,0-0.2,0c-1.1,0-2.2,0-3.3,0c-0.1,0-0.2,0-0.4,0c-2.8,0.1-5.6,0.2-8.4,0.3c-0.8,0-1.6,0.1-2.4,0.2
		c0.3-5.8,0.1-11.6-0.2-17.3c-0.6-12.1-0.3-15.4-4.2-21.9c-0.8-1.1-1.6-2.4-2.3-3.5c-0.7-1-1.5-2.1-2.4-3.4
		C73.9,10.5,74.2,10.3,74.5,10.2z M71,12c9.3,12,8.1,12.1,9.6,27.6c0.5,5.7,0.9,11.5,1.6,17.2c-0.5,0-1,0.1-1.5,0.1
		c-0.8-12.2-2.5-28.6-5.7-34.5c-5.4-9.6-5.4-9.6-5.4-9.6C70.1,12.5,70.5,12.3,71,12z M36.5,59.2C36.5,59.2,36.6,59.2,36.5,59.2
		c1.8-8.5,5.6-20,14-28.3c3,5.1,8.6,13.7,11,15.5c-3.5-6.8-7-13.5-10.3-20.5c0,0,1.8-2.7,6.2-4.8c0-0.2,0.2-0.4,0.5-0.6
		c0.2-0.1,0.5-0.1,0.7,0.1c0,0,0.1,0,0.1-0.1l0.1,0.3c0,0,0.1,0.1,0.1,0.1c1,2.2,4.6,10.4,6.9,16.1l2.6,6.2l0.6-0.3
		c1.2-0.7-4.1-14.9-6.4-21.1c1.5-0.9,3.1-1.7,4.6-2.4c0,0,0,0,0,0c0.6-0.3,1.3-0.6,2-0.9c1,1.9,2.1,3.7,3.1,5.6
		c3.5,6.2,5.3,20.9,6.2,33c-14.4,1.3-27.9,4-38.3,7.8c-0.4-0.1-0.7,0-1,0.2c0,0,0,0.1-0.1,0.1c-1.4,0.5-2.7,1.1-4,1.6
		C35.6,64.8,35.9,62.2,36.5,59.2z M40.5,68C40.5,68,40.4,68,40.5,68c0-0.1,0.1-0.1,0.1-0.1c7.1,5,12.9,6.4,21.6,8
		c0.2,0,0.3,0.1,0.5,0.1c7.9,1.3,19.1,2.4,27.4,2.3c0.8,0,1.6,0,2.3-0.1l3.6-0.3c4.2,0.1,7.6,0.2,11.1,0.3c2.4,0,5,0,8-0.2
		c6.9-0.4,17.3-1.5,25.9-4c3.5-1,6.7-2.2,9.1-3.7l3.2-2.4c0.1,0.1,0.3,0.1,0.4,0.1c0,0,0,0,0,0c1.8,0.7,3.6,1.5,5.2,2.3
		c-6.1,15.9-117.6,15.9-123.7,0C36.9,69.5,38.7,68.8,40.5,68z M27.1,99.1C27.1,99.1,27.1,99.1,27.1,99.1
		C27.1,99.1,27.1,99.1,27.1,99.1C27.1,99.1,27.1,99.1,27.1,99.1z M10.4,171.5c0,2,0,4,0.2,6.1c0.3,3.8,1.2,7.3,3,9.6
		c1.1-1.5,2.6-5.5,3.5-7.9c1.7-4.7,3.4-5.5,4.2,0.8c2,16,5.8,22.3,10,2.8c0.2-1,0.4-2,0.6-3.1l0.5-2.6c0.1,3.4-0.2,8.9-1.6,13.3
		c-0.5,1.6-1.2,3.1-2,4.3c-5,6.8-8.1-6.7-9.4-14.4c-1.2,3.7-3.6,10.2-6.3,9.4c-1.8-0.5-3-2.5-3.8-5.1c-0.4-1.4-0.8-3-1-4.7
		C8.8,177.1,9.6,174.3,10.4,171.5z M17.8,224.1c-0.6,0-1.1-0.2-1.7-0.4c0,0,0,0,0,0c-1.2-2.7-2.2-5.4-3.1-8.1
		c2.2,5.1,4.3,8.4,4.9,3.7c0.2-1.9,0.3-4.4,0.4-6.1c0.2-4.6,1.4-6.5,4.1-0.7c5.8,12.7,10.7,18.4,10.9,8.3c0.3,1.4,0.6,2.8,0.9,4.2
		c-2.6,7.5-9.8-4.5-13.4-11.5C20.8,217.3,20.5,224.2,17.8,224.1z M27.9,243.6c-0.4-3.4,0.2-6.1,2.8-1.8c7.7,12.7,13,17.1,8.8,0
		c0.8,2,1.6,3.9,2.4,5.9c0.3,1.5,0.4,2.9,0.2,4.1c-1,7.1-8.3-2.6-12.1-8.3c0.2,1.2,0.4,2.9,0.5,4.4c-0.9-1.1-1.7-2.3-2.5-3.5
		L27.9,243.6z M68.8,307.7c-0.2,1.5,0.3,3.1-1.2,5.3c-0.1,0.2-0.3,0.4-0.5,0.6c-0.3,0.4-0.8,0.9-1.3,1.4c-0.5,0.5-1.1,1-1.8,1.6
		c-0.6,0.5-1.2,1-1.8,1.6c-0.6,0.6-1.1,1.1-1.7,1.7c-0.8,0.9-1.5,1.8-2.2,2.7c-0.5,0.6-0.9,1.2-1.3,1.8c-0.6,0.9-1.2,1.7-1.7,2.5
		c-0.4,0.5-0.7,1-1,1.4c-0.3,0.4-0.6,0.8-0.9,1.1c-2.5,2.7-2.5,5.7-5,6.3c-0.2,0.1-0.5,0.1-0.7,0.1c-1.8,0.3-3.2-0.3-4-1.3
		c0,0,0,0,0,0c-0.1-0.1-0.1-0.2-0.2-0.3c0-0.1-0.1-0.2-0.1-0.3c0-0.1,0-0.1-0.1-0.2c-0.3-0.9-0.2-1.9,0.4-3.2c0,0,0,0.1,0,0.1
		c0.3-0.6,0.7-1.3,1.3-2c3.7-4.5,9.9-10.9,11.3-12.4c-1.6,0.9-12,7.2-18.7,11.5c-0.1,0.1-0.3,0.2-0.4,0.4c-0.8,1-1.2,2.6-1.9,3.3
		c-0.1,0.1-0.2,0.3-0.3,0.3c-4.2,2.3-8.4-0.1-8.1-3.6c0,0.1,0.1,0.1,0.1,0.2c0-1.7,1.1-3.7,3.8-5.6c6-4.1,16.9-9.1,18.2-9.6l0,0
		c-0.2,0-0.6,0.1-1.4,0.2c-2,0.4-6.2,1.2-13.5,3c-1.3,0.3-2.6,0.6-4,1c-1.1,0.3-1.8,2.5-3.4,3.8c-0.6,0.5-1.5,0.8-2.4,0.8
		c-1.9,0.1-4.1-1-4.9-2.8c-0.4-1-0.4-1.9-0.2-2.7c0,0,0,0.1,0.1,0.1c0.3-1.2,1.2-2.3,2.6-3.3c6.7-6.5,22.4-7,30.5-7.3
		c3.7-0.1,7.3-0.3,10.9,0.7c-0.7,0-1.3,0-1.8-0.1c1.2,0.1,2.1,0.2,2.8,0.4c-0.7-0.6-1.5-1.2-2.5-1.6c0.3-0.5,0.5-1.2,0.8-2.1
		c0.3,0.2,0.6,0.3,1,0.4l4.1,1.1l1.2,0.3c0,0,0.1,0,0.1,0c0,0,0,0,0,0C69,306,68.9,306.9,68.8,307.7z M122.5,301.9
		c-2.1-6-6.1-10.4-11-13.2c2.1,0.4,4.1,0.8,6.1,1.4c2.5,0.8,4.3,1.3,6.8,2.3c-2.6-2.4-3.1-2.2-6.4-3.6c-5.2-2.2-11.4-3.4-17.7-3.8
		c-2.4-0.3-4.8-0.3-7.2,0c-7.7,0.3-15.3,1.8-21.6,4.2c3.4-0.4,7-0.8,10.6-1.1c-5.6,2.8-10.2,7.5-12.4,13.8l-5.3-1.4
		c0,0,0-0.8-1.3-8.3c-1-5.9-2.3-9.8-9.9-26.9c-0.5-2.1-1.9-5.2-2.3-6.1c-8.6-22.9-13.7-56.8-9.5-78.7l0.8-4l-1.9,3.7
		c-5.1,12.6-4.1,34.4-0.6,53c-6-18.9-7.4-38.5-4.4-57.2c2.8-1.3,8.2-4.2,12.5-7.3c0.9,0.8,1.9,1.7,2.9,2.5c-1.9,1.5-3.4,2.9-3.4,3.5
		c0.2,0,2.2-1.2,4.5-2.5c2.9,2.4,5.9,4.4,7.1,4.5c-0.4-0.4-0.8-0.8-1.3-1.3c-0.1-0.1-0.2-0.2-0.2-0.2c-0.4-0.4-0.7-0.7-1.1-1.1
		c-0.9-0.9-1.8-1.9-2.7-2.9c0,0,0,0,0,0c1.1-0.7,2.2-1.3,3.1-1.8c0.8-0.5,1.5-0.9,1.7-1c0.5-0.3,0.7-1,0.3-1.5
		c-0.3-0.5-1-0.7-1.5-0.4c-0.3,0.2-0.9,0.6-1.7,1.2c-0.9,0.6-2,1.4-3.1,2.3c0,0,0,0,0,0c-0.7-0.7-1.4-1.5-2-2.3c0,0,0,0,0,0
		c0.6-0.2,1.3-0.4,2-0.6c0.6-0.2,0.9-0.8,0.7-1.3c-0.1-0.6-0.7-0.9-1.3-0.8c-0.9,0.3-1.9,0.6-2.9,1c0,0,0,0-0.1,0
		c-0.3-0.3-0.5-0.6-0.8-0.9c-4.1,3.3-11,5.4-11,5.4c0,0,0-0.1,0-0.1c0,0,0,0,0,0c0.2-5.1,1.9-14.2,1.9-21.4c0-1,0-2-0.1-2.9
		l-8.8,9.4c-0.3,0.3-0.4,0.2-0.4-0.1c-0.1-0.7,0.7-3,0.8-3.9c0.3-3.1,0.4-5.7,0.4-7.9c0-9.9-2.2-14-2.5-29.5c-0.7,3.2-1,5.8-1.2,8.3
		l-7.9,2.8c0,0,0.1-0.1,0.4-0.2l-0.4,0.1c0,0,5.7-2.8,7.4-15.3c-0.1,1.1-0.3,2.1-0.5,3l0.1,0.1c0.5-3.6,1-7,1.6-10
		c2.2-11.9,5-17.3,11.6-5.6c1.9,3.4,4.2,6.4,6.7,9c-3.5,24.3-2,62.2,13.2,51.2c7.9-5.7,11.9-18,13.2-31.4c0.1-0.6,0.1-1.1,0.1-1.7
		c1.6,0.4,3.5,0.5,5.2,0.7c7.1,0.7,12.4,9,16.9,13.8l2.1,2.2l2.3-2.1c5.3-5.1,7.5-11.9,15.5-13.8c1.9-0.4,4.7-1,6.7-2.2
		c0,0.5,0.1,1.1,0.1,1.6c1.1,14.1,5.1,27.1,13.3,33c14.6,10.5,16.6-23.7,13.7-48c1.8-1.6,3.5-3.4,4.9-5.4c4.3-6,8.1-5,10.8-1.5
		c0.2,0.3,0.5,0.6,0.7,1c0,0,0.1,0.1,0.1,0.1c0-0.6,0-1.3,0-1.9c0,0.7,0,1.4,0,2.1c-0.4,7.4,4.6,16.3,7.2,20.4
		c0.4,0.4,0.6,0.7,0.6,0.7l-0.2-0.1c0.1,0.1,0.1,0.2,0.2,0.3c0,0.1-7.4-2.6-8.1-2.9c0,0,0,0,0-0.1c0,0-0.1,0-0.1,0
		c0.1-2.8-0.1-5.5-0.5-8.1c-0.9,4.1-3.4,19-2.4,27.7c0.1,7.6,0.8,13.6,0.8,13.6l-0.1-0.1c0,0,0,0,0,0l-9.4-11.7
		c-0.3,0.8,2.4,24.5,2.5,26.9c0,0-7.9-2.4-11.8-6.1c-0.4,0.4-0.8,0.8-1.2,1.2c-0.1,0-0.1,0-0.2-0.1c-0.6-0.2-1.1-0.4-1.6-0.6
		c-0.6-0.1-1.2,0.2-1.3,0.8c-0.2,0.5,0.1,1.1,0.7,1.3c0.2,0.1,0.3,0.1,0.5,0.1c0.1,0,0.1,0,0.2,0c-0.6,0.6-1.3,1.2-1.9,1.7
		c0,0-0.1-0.1-0.1-0.1c-0.7-0.5-1.4-1-1.9-1.4c-0.7-0.5-1.2-0.9-1.5-1c-0.5-0.3-1.2-0.1-1.5,0.4c-0.4,0.5-0.2,1.2,0.3,1.5
		c0.2,0.1,0.8,0.4,1.5,0.9c0.5,0.3,1,0.6,1.6,1c0,0,0.1,0.1,0.1,0.1c-5.3,4.5-10.3,7.8-14,10c5-1.4,14.3-6.6,16.6-8.5
		c2.5,1.5,4.9,2.9,5.1,2.9c0-0.6-1.8-2.3-4-3.9c0.8-0.8,1.7-1.6,2.5-2.5c3.4,2.4,7.7,4.1,10.8,5.1c0.3,0.1,0.6,0.1,0.9,0.1
		c0.3,0.2,0.7,0.4,1,0.6c3.3,19,2.2,38.9-3.8,58.1c0-0.2,0.1-0.4,0.1-0.6c-0.1,0.2-0.1,0.5-0.2,0.7c3.4-18.3,4.3-39.6-0.8-52
		l-1.7-3.3l0.7,3.5c4.2,21.9-0.9,55.9-9.5,78.7c-0.4,0.7-1.5,3.4-2.1,5.5c-7.8,17.6-9.2,21.6-10.2,27.5c-1.3,7.5-1.3,8.3-1.3,8.3
		L122.5,301.9z M170,313.2c1.4,1,2.4,2.2,2.7,3.4c0,0,0-0.1,0.1-0.1c0.2,0.8,0.2,1.7-0.2,2.7c-0.8,1.8-2.9,2.8-4.9,2.8
		c-0.9,0-1.8-0.3-2.4-0.8c-1.6-1.3-2.3-3.5-3.4-3.8c-1.4-0.4-2.8-0.7-4-1c-7.3-1.8-11.5-2.7-13.5-3c-0.8-0.1-1.2-0.2-1.4-0.2l0,0
		c1.3,0.6,12.2,5.5,18.2,9.6c2.6,1.8,3.7,3.7,3.8,5.4c0,0,0,0,0,0c0.3,3.5-3.9,5.9-8.1,3.6c-0.9-0.5-1.4-3.1-2.6-4
		c-6.4-4.2-16.4-10.2-18.5-11.4c1.6,1.7,7.6,7.9,11.2,12.3c0.6,0.7,1,1.4,1.3,2c0,0,0-0.1,0-0.1c0.6,1.2,0.7,2.3,0.4,3.2
		c0,0.1,0,0.1-0.1,0.2c0,0.1-0.1,0.2-0.1,0.3c0,0.1-0.1,0.2-0.2,0.3c0,0,0,0,0,0c-0.7,1.1-2.2,1.6-4,1.3c-0.2,0-0.5-0.1-0.7-0.1
		c-2.5-0.6-2.5-3.6-5-6.3c-0.3-0.3-0.5-0.7-0.9-1.1c-0.3-0.4-0.6-0.9-1-1.4c-0.5-0.8-1.1-1.6-1.7-2.5c-0.4-0.6-0.9-1.2-1.3-1.8
		c-0.7-0.9-1.4-1.8-2.2-2.7c-0.5-0.6-1.1-1.2-1.7-1.7c-0.6-0.6-1.2-1.1-1.8-1.6c-0.7-0.5-1.3-1.1-1.8-1.6s-0.9-0.9-1.3-1.4
		c-0.2-0.2-0.3-0.4-0.5-0.6c-1.5-2.3-1-3.8-1.2-5.3c-0.1-0.8-0.2-1.6-0.3-2.6c0,0,0,0,0,0c0.1,0,0.2,0,0.3,0l1-0.3l4.3-1.1
		c0.3-0.1,0.5-0.2,0.8-0.4c0.3,0.8,0.5,1.5,0.7,2c-1,0.4-1.8,1-2.5,1.6c0.4-0.1,0.8-0.1,1.2-0.2c-0.1,0-0.1,0-0.1,0
		c3.6-1,7.2-0.8,10.9-0.7C147.7,306.3,163.2,306.8,170,313.2z"/>
	<path class="st10" d="M52.6,80.7c-2.9,0-5.3,1-7.1,2.9c-0.2,0.2-0.4,0.5-0.6,0.7c1.5-1.6,3.5-2.5,6.2-2.5c0.4,0,0.7,0,1.1,0.1
		l3.2,0.3l-2,2.6c-4.2,5.5-5.6,11.9-4,17.9c1.4,5.3,5.2,9.9,9.5,11.7c1.3,0.5,2.8,0.8,4.4,0.8c2.9,0,5.3-0.9,6.5-2.5l0.1-0.1
		c0.3-0.6,1.1-2.3,1.7-3.8c1.6-7-1-16-6.2-21.8C62.1,83.2,56.9,80.7,52.6,80.7z M68.8,95.9c1.3,2.9,1.2,5.8-0.2,6.4
		c-1.4,0.6-3.6-1.2-4.9-4.1c-1.3-2.9-1.2-5.7,0.2-6.4C65.3,91.2,67.5,93,68.8,95.9z"/>
	<path class="st10" d="M143,82c2.7,0,4.7,1,6.2,2.5c-0.2-0.2-0.4-0.5-0.6-0.7c-1.8-1.9-4.2-2.9-7.1-2.9c-4.4,0-9.5,2.5-12.8,6.2
		c-5.2,5.8-7.8,14.8-6.2,21.8c0.5,1.2,1.1,2.5,1.5,3.3c0.5,0.6,1,1.2,1.5,1.7c1.3,0.9,3.2,1.4,5.4,1.4c1.6,0,3.1-0.3,4.4-0.8
		c4.4-1.8,8.1-6.4,9.5-11.8c1.6-6,0.2-12.4-4-17.8l-2-2.6L142,82C142.4,82,142.7,82,143,82z M130.1,98.2c-1.3,2.9-3.5,4.7-4.9,4.1
		c-1.4-0.6-1.5-3.5-0.2-6.4c1.3-2.9,3.5-4.7,4.9-4.1C131.3,92.5,131.4,95.3,130.1,98.2z"/>
	<path class="st10" d="M60.6,212.1c1.6-1.9,3.9-5.2,3.2-9.2c-0.2-1.2-0.6-1.7-1.1-1.9c-0.1,2.5-1.4,4.8-3,6.6c-0.2,0.2-0.7,0.8-1,1
		c-0.4-0.2-1.2-0.9-1.4-1.1c-1.9-1.7-3.9-3.9-4.8-6.4c-1.1-0.4-1.8-0.1-1.7,1.8c0.3,4,3.6,7.4,5.6,9.2
		C58.7,214.1,58.9,214,60.6,212.1z"/>
	<path class="st10" d="M88.6,205.4c-0.2,1.1-0.6,2.1-1.1,3.1c-0.7,1.3-1.7,2.5-2.7,3.5c-0.2,0.2-0.9,0.9-1.2,1.1
		c-0.3-0.2-1-0.9-1.2-1.1c-1.8-1.8-3.6-4.1-4.1-6.6c-0.8-0.1-1.3,0.3-1.4,1.9c-0.1,4,2.8,7.4,4.7,9.2c1.9,2,2.2,2,4.1,0
		c1.8-1.9,4.5-5.2,4.2-9.2C89.8,205.8,89.3,205.3,88.6,205.4z"/>
	<path class="st10" d="M111,216.5c2-1.8,5.1-5.2,5.2-9.2c0.1-1.8-0.6-2.2-1.5-1.8c-0.7,2.5-2.7,4.8-4.5,6.5c-0.2,0.2-1,0.9-1.4,1.1
		c-0.3-0.2-0.9-0.8-1-1c-1.7-1.8-3.2-4.2-3.4-6.7c-0.6,0.1-1,0.6-1.2,1.9c-0.5,4,2,7.4,3.7,9.2C108.6,218.5,108.9,218.5,111,216.5z"
		/>
	<path class="st10" d="M136.1,212.1c2.2-1.9,5.6-5.2,6.2-9.2c0.3-2.1-0.6-2.2-1.9-1.6c-1.1,2.4-3.2,4.6-5.1,6.2
		c-0.2,0.2-1.1,1-1.5,1.1c-0.2-0.2-0.7-0.8-0.8-0.9c-1.5-1.9-2.7-4.2-2.6-6.6c-0.4,0.2-0.7,0.8-1,1.8c-1,4,1.1,7.4,2.6,9.2
		C133.5,214.1,133.8,214,136.1,212.1z"/>
	<path class="st10" d="M63.7,222.8c0.2,4.2,3.1,7.8,5,9.7c2.1,2,2.3,2,3.9,0c1.6-1.9,3.9-5.5,3.3-9.7c-0.2-1.4-0.6-2-1.2-2
		c-0.1,2.7-1.5,5.2-3.1,7.3c-0.1,0.2-0.6,0.8-0.9,1c-0.3-0.2-0.9-0.9-1.1-1.1c-1.9-1.9-3.7-4.4-4.4-7.1
		C64.3,220.5,63.6,220.9,63.7,222.8z"/>
	<path class="st10" d="M96.1,229.1c-0.3-0.2-0.8-0.8-0.9-1c-1-1.1-1.8-2.4-2.5-3.7c-0.5-1.1-0.9-2.3-1-3.6c-0.6-0.1-1.1,0.5-1.2,2
		c-0.3,4.2,2.2,7.8,3.9,9.7c1.6,2,1.8,2,3.7,0c1.8-1.9,4.5-5.5,4.5-9.7c0-1.8-0.6-2.2-1.4-2c-0.5,2.7-2.2,5.2-4,7.2
		C97,228.2,96.5,228.8,96.1,229.1z"/>
	<path class="st10" d="M121.4,229c-0.2-0.2-0.6-0.8-0.7-0.9c-1.6-2.1-2.7-4.7-2.6-7.3c-0.4,0.2-0.8,0.8-1.1,2
		c-0.8,4.2,1.3,7.8,2.7,9.7c1.5,2,1.8,2,3.9,0c2-1.9,5.2-5.5,5.6-9.7c0.2-2.1-0.6-2.4-1.7-1.8c-0.9,2.6-2.9,5-4.8,6.9
		C122.5,228.1,121.8,228.8,121.4,229z"/>
	<path class="st10" d="M66.3,239.1c0,2.6-1,5.2-2.5,7.4c-0.1,0.2-0.4,0.6-0.6,0.9c-0.3-0.3-0.8-0.8-1-1c-1.8-1.9-3.6-4.3-4.4-6.9
		c-1.1-0.7-1.9-0.5-1.6,1.7c0.4,4.2,3.3,7.8,5.1,9.7c1.9,2,2.1,1.9,3.5-0.1c1.3-1.9,3.2-5.5,2.6-9.7
		C67.2,239.8,66.8,239.2,66.3,239.1z"/>
	<path class="st10" d="M88.4,239.1c-0.1,1.2-0.5,2.4-1,3.5c-0.6,1.3-1.4,2.6-2.3,3.7c-0.1,0.2-0.5,0.7-0.8,0.9
		c-0.3-0.3-0.7-0.8-0.8-0.9c-1.7-2.1-3.2-4.6-3.7-7.2c-0.8-0.3-1.3,0.1-1.4,2c0,4.2,2.4,7.8,4.1,9.7c1.8,2.1,2,2,3.6,0
		c1.5-1.9,3.8-5.5,3.6-9.7C89.6,239.4,89.1,238.9,88.4,239.1z"/>
	<path class="st10" d="M110.9,239.3c-0.7,2.6-2.3,5.1-4.1,7c-0.2,0.2-0.6,0.7-0.9,1c-0.2-0.3-0.5-0.7-0.7-0.9
		c-1.6-2.2-2.7-4.7-2.8-7.4c-0.5,0-1,0.6-1.2,2c-0.5,4.2,1.6,7.8,3,9.7c1.4,2.2,1.7,2.1,3.5,0.1c1.8-2,4.5-5.5,4.7-9.7
		C112.5,239.1,111.8,238.8,110.9,239.3z"/>
	<path class="st10" d="M134.7,241.1c0.4-2.4-0.6-2.4-1.9-1.5c-1,2.5-2.9,4.8-4.7,6.7c-0.2,0.2-0.7,0.7-1.1,1
		c-0.2-0.3-0.4-0.6-0.5-0.8c-1.4-2.2-2.2-4.8-2-7.3c-0.4,0.2-0.7,0.8-1,1.9c-1,4.2,0.7,7.8,1.9,9.7c1.4,2.1,1.6,2,3.6,0
		C131,248.8,134,245.3,134.7,241.1z"/>
	<path class="st10" d="M76.7,255.5c-0.1,2.6-1.1,5.1-2.6,7.3c-0.1,0.2-0.3,0.5-0.5,0.8c-0.3-0.3-0.6-0.7-0.7-0.8
		c-1.7-2-3.1-4.4-3.8-6.9c-0.9-0.6-1.6-0.4-1.5,1.7c0.2,4.2,2.7,7.7,4.4,9.6c1.7,1.9,1.8,1.9,3.2-0.1c1.3-1.9,3.2-5.4,2.7-9.6
		C77.7,255.9,77.3,255.4,76.7,255.5z"/>
	<path class="st10" d="M99.1,255.6c-0.5,2.6-1.8,5-3.4,7.1c-0.1,0.2-0.4,0.6-0.7,0.8c-0.2-0.3-0.5-0.6-0.6-0.8
		c-1.5-2.1-2.7-4.6-3-7.3c-0.6-0.2-1.1,0.3-1.2,2c-0.3,4.2,1.8,7.7,3.2,9.6c1.4,2.1,1.6,2.1,3.2,0.1c1.5-1.9,3.8-5.4,3.9-9.6
		C100.5,255.5,99.9,255.2,99.1,255.6z"/>
	<path class="st10" d="M121.2,256c-0.8,2.5-2.4,4.7-4.1,6.6c-0.2,0.2-0.5,0.6-0.8,0.9c-0.2-0.2-0.3-0.5-0.4-0.7
		c-1.4-2.2-2.2-4.8-2.1-7.4c-0.4,0.1-0.8,0.7-1,2c-0.8,4.2,0.9,7.7,2.1,9.6c1,2.1,1.2,2.1,3.1,0.1c1.7-1.9,4.5-5.4,5-9.6
		C123.3,255.1,122.4,255.1,121.2,256z"/>
	<path class="st10" d="M94,106.3c-1.3,2.4-4,5-2.4,6.2C93.2,113.6,95.7,104.6,94,106.3z"/>
	<path class="st10" d="M102.6,112.5c1.6-1.2-1.1-3.8-2.4-6.2C98.4,104.6,101,113.6,102.6,112.5z"/>
	<path class="st10" d="M72,168.6c1.7,2,1.8,2,3.2,0c1.3-1.9,3.2-5.4,2.7-9.6c-0.2-1.6-0.6-2.1-1.2-2c-0.2,2.5-1.2,4.8-2.5,6.9
		c-0.1,0.2-0.3,0.5-0.5,0.8c-0.2-0.2-0.6-0.6-0.7-0.8c-1.6-1.9-3-4.1-3.7-6.5c-1-0.8-1.9-0.7-1.7,1.6
		C67.8,163.2,70.3,166.7,72,168.6z"/>
	<path class="st10" d="M96.6,175.5c1.5-1.9,3.8-5.4,3.9-9.6c0-2.1-0.7-2.3-1.6-1.7c-0.5,2.4-1.8,4.6-3.3,6.5
		c-0.1,0.1-0.4,0.5-0.7,0.8c-0.2-0.3-0.5-0.7-0.6-0.8c-1.4-2-2.6-4.3-2.9-6.8c-0.6-0.1-1.1,0.4-1.2,2c-0.3,4.2,1.8,7.7,3.2,9.6
		C94.8,177.5,95,177.5,96.6,175.5z"/>
	<path class="st10" d="M118,168.6c1.7-1.9,4.5-5.4,5-9.6c0.3-2.6-0.8-2.3-2.1-1.2c-0.9,2.2-2.4,4.3-3.9,6c-0.1,0.2-0.5,0.6-0.8,0.9
		c-0.1-0.3-0.3-0.6-0.4-0.7c-1.3-2.2-2.1-4.5-2.1-7c-0.4,0.1-0.8,0.7-1,2c-0.8,4.2,0.9,7.7,2.1,9.6
		C115.9,170.7,116.1,170.6,118,168.6z"/>
</g>
</svg>
