<svg id="Layer_1" data-name="Layer 1" xmlns="http://www.w3.org/2000/svg" viewBox="0 0 300 300"><path d="M249.97578,111.92957A38.6273,38.6273,0,0,0,244.82369,63.572a37.3726,37.3726,0,0,0-27.4422-11.35861,36.70521,36.70521,0,0,0-25.1598,9.34316,77.41479,77.41479,0,0,0-28.41656-34.86334,75.17232,75.17232,0,0,0-43.43235-13.34737A74.74523,74.74523,0,0,0,65.50173,36.03641,74.74531,74.74531,0,0,0,42.73111,91.01424c0,1.5216.09343,3.68388.29365,6.51351a66.81694,66.81694,0,0,0-28.32313,24.78607,67.64449,67.64449,0,0,0,9.16964,84.5823,65.40216,65.40216,0,0,0,47.97046,19.941h43.20545v59.76953h69.086V226.8371h52.65539a58.2346,58.2346,0,0,0,58.20789-58.26128h0A56.3259,56.3259,0,0,0,282.26308,132.271,56.9,56.9,0,0,0,249.97578,111.92957ZM174.8701,226.8371h-50.72V212.00817a25.36,25.36,0,1,1,50.72,0Zm-32.14047,42.498,3.05655-12.80013a6.76713,6.76713,0,1,1,7.42113,0l3.05655,12.80013Zm36.65189-96.50151v22.19669a34.32942,34.32942,0,0,0-59.76953,0V172.83364H80.38405L149.4834,88.74519l69.09935,84.08845Z"/></svg>