<svg id="Layer_1" data-name="Layer 1" xmlns="http://www.w3.org/2000/svg" viewBox="0 0 717.62 217.98"><defs><style>.cls-1{fill:#009ade;}.cls-2{fill:#003764;}.cls-3{fill:none;stroke:#003b63;stroke-miterlimit:10;stroke-width:1.51px;}.cls-4{fill:#003b63;}</style></defs><title>lfedge</title><polygon class="cls-1" points="23.5 86.58 23.5 44.46 1.03 44.46 1.03 107.63 68.34 107.63 68.34 86.58 23.5 86.58"/><polygon class="cls-2" points="113.17 2.3 1.05 2.3 1.05 33.91 23.47 33.91 23.47 23.46 90.75 23.46 90.75 86.58 79.55 86.58 79.55 107.63 113.17 107.63 113.17 2.3"/><path class="cls-2" d="M142.8,2.3H177V80.64H226v27H142.8Z"/><path class="cls-2" d="M240.61,2.3h85.71v27H274.78V42.42H319V67.5H274.78v40.13H240.61Z"/><path class="cls-1" d="M353.3,2.3h70.11v8.56H363V48.92h56.6v8.56H363V99.09h61.16v8.56H353.3V2.3Z"/><path class="cls-1" d="M437.63,2.3h35.13C503.48,3,519.41,20.15,519.41,55s-15.93,51.93-46.65,52.67H437.63Zm9.66,96.77h20.62c29.16,0,41.81-12.54,41.81-44.11s-12.66-44.11-41.81-44.11H447.29Z"/><path class="cls-1" d="M621.8,105.92h-7l-1.28-18.5h-.29C606.44,101.94,592.79,108,578.14,108c-32,0-47.92-25-47.92-52.9s15.93-52.9,47.92-52.9c21.33,0,38.54,11.52,42.38,33.7h-9.68c-1.13-11.66-13.5-25.45-32.7-25.45-26.87,0-38.25,22.47-38.25,44.65S551.27,99.8,578.14,99.8c22.47,0,35.55-15.65,35.13-37.26H578.71V54.3H621.8v51.62Z"/><path class="cls-1" d="M640.44,2.24h70.11V10.8H650.1V48.89h56.61v8.56H650.1V99.07h61.16v8.56H640.44V2.24Z"/><line class="cls-3" x1="1.05" y1="134.62" x2="711.26" y2="134.62"/><path class="cls-4" d="M25.3,161.62a19.85,19.85,0,0,1,6.59,1,13.9,13.9,0,0,1,5.08,3,13.36,13.36,0,0,1,3.25,4.89,19.19,19.19,0,0,1,0,13A13.36,13.36,0,0,1,37,188.49a13.9,13.9,0,0,1-5.08,3,20.12,20.12,0,0,1-6.59,1H6.42v23.19H1.27V161.62Zm-1.14,26.53a13.29,13.29,0,0,0,8.71-2.73q3.35-2.73,3.34-8.34c0-3.74-1.11-6.51-3.34-8.33A13.29,13.29,0,0,0,24.16,166H6.42v22.13Z"/><path class="cls-4" d="M79.1,161.62a23.37,23.37,0,0,1,6.33.84A15.17,15.17,0,0,1,90.66,165a12.13,12.13,0,0,1,3.56,4.39,14.23,14.23,0,0,1,1.33,6.33,15.18,15.18,0,0,1-2.66,8.94A12.06,12.06,0,0,1,85,189.51v.15a12,12,0,0,1,4.4,1.41,8.79,8.79,0,0,1,2.84,2.61,10.84,10.84,0,0,1,1.59,3.68,27.67,27.67,0,0,1,.65,4.5c.05.91.1,2,.15,3.34s.15,2.64.3,4a24.25,24.25,0,0,0,.72,3.79A7.18,7.18,0,0,0,97,215.73H91.3a6.74,6.74,0,0,1-.72-1.85,18.38,18.38,0,0,1-.38-2.28c-.07-.78-.14-1.55-.19-2.31s-.1-1.41-.15-2q-.15-2.88-.49-5.72a15.77,15.77,0,0,0-1.44-5.08,8.92,8.92,0,0,0-3.18-3.6A9.62,9.62,0,0,0,79,191.71H59.47v24H54.32V161.62Zm-.38,25.69a13.78,13.78,0,0,0,4.47-.72,11.09,11.09,0,0,0,3.72-2.08,10.34,10.34,0,0,0,2.54-3.3,10,10,0,0,0,.94-4.43,10.65,10.65,0,0,0-2.88-7.88Q84.63,166,78.72,166H59.47v21.29Z"/><path class="cls-4" d="M147.53,161.62V166h-32.2v19.55h30.16V190H115.33v21.37h32.58v4.39H110.17V161.62Z"/><path class="cls-4" d="M167.84,161.62l18,47.44,18.65-47.44H212v54.11h-5.16V169h-.15l-18.49,46.76h-4.85L165.57,169h-.15v46.76h-5.16V161.62Z"/><path class="cls-4" d="M233.47,161.62v54.11h-5.15V161.62Z"/><path class="cls-4" d="M287.43,161.62V166H255.22v19.55h30.16V190H255.22v21.37h32.59v4.39H250.07V161.62Z"/><path class="cls-4" d="M325.09,161.62a23.27,23.27,0,0,1,6.33.84,15.09,15.09,0,0,1,5.23,2.54,12.13,12.13,0,0,1,3.56,4.39,14.09,14.09,0,0,1,1.33,6.33,15.17,15.17,0,0,1-2.65,8.94,12.11,12.11,0,0,1-7.88,4.85v.15a12,12,0,0,1,4.39,1.41,8.79,8.79,0,0,1,2.84,2.61,10.84,10.84,0,0,1,1.59,3.68,26.62,26.62,0,0,1,.65,4.5c0,.91.1,2,.15,3.34s.15,2.64.3,4a25.46,25.46,0,0,0,.72,3.79,7.18,7.18,0,0,0,1.33,2.76H337.3a6.16,6.16,0,0,1-.72-1.85,15.28,15.28,0,0,1-.38-2.28c-.08-.78-.14-1.55-.19-2.31s-.1-1.41-.15-2c-.11-1.92-.27-3.83-.5-5.72a15.28,15.28,0,0,0-1.44-5.08,8.92,8.92,0,0,0-3.18-3.6,9.62,9.62,0,0,0-5.72-1.21H305.47v24h-5.16V161.62Zm-.37,25.69a13.86,13.86,0,0,0,4.47-.72,11.14,11.14,0,0,0,3.71-2.08,10.2,10.2,0,0,0,2.54-3.3,10,10,0,0,0,.95-4.43,10.65,10.65,0,0,0-2.88-7.88q-2.88-2.88-8.79-2.88H305.47v21.29Z"/><path class="cls-4" d="M390,161.62l18,47.44,18.65-47.44h7.58v54.11H429V169h-.15l-18.49,46.76H405.5L387.69,169h-.15v46.76h-5.15V161.62Z"/><path class="cls-4" d="M487.42,161.62V166H455.21v19.55h30.17V190H455.21v21.37H487.8v4.39H450.06V161.62Z"/><path class="cls-4" d="M507.73,161.62l18,47.44,18.65-47.44h7.58v54.11h-5.16V169h-.15l-18.49,46.76h-4.85L505.46,169h-.15v46.76h-5.16V161.62Z"/><path class="cls-4" d="M590.72,161.62a32.55,32.55,0,0,1,6.55.65,15.94,15.94,0,0,1,5.53,2.19,11.6,11.6,0,0,1,3.83,4.1,12.67,12.67,0,0,1,1.44,6.33,12.91,12.91,0,0,1-.68,4.13,12.64,12.64,0,0,1-1.93,3.63,12.37,12.37,0,0,1-3,2.77,10.87,10.87,0,0,1-3.83,1.59v.15a12.82,12.82,0,0,1,8.34,4.28,13.17,13.17,0,0,1,3.11,8.91,21.69,21.69,0,0,1-.23,2.92,14.07,14.07,0,0,1-.91,3.33,13.81,13.81,0,0,1-2,3.37,11.52,11.52,0,0,1-3.45,2.92,20.57,20.57,0,0,1-5.3,2.05,31.16,31.16,0,0,1-7.54.79H567.83V161.62Zm0,23.72a17.92,17.92,0,0,0,5.38-.72,11.13,11.13,0,0,0,3.79-2,8.12,8.12,0,0,0,2.27-2.91,8.63,8.63,0,0,0,.76-3.57q0-10.15-12.2-10.15H573v19.32Zm0,26a29.62,29.62,0,0,0,5.45-.49,12.5,12.5,0,0,0,4.55-1.79,9.07,9.07,0,0,0,3.11-3.44A11.55,11.55,0,0,0,605,200.2c0-3.49-1.22-6.1-3.67-7.85s-6-2.61-10.57-2.61H573v21.6Z"/><path class="cls-4" d="M661,161.62V166h-32.2v19.55H659V190H628.84v21.37h32.58v4.39H623.68V161.62Z"/><path class="cls-4" d="M698.71,161.62a23.37,23.37,0,0,1,6.33.84,15.12,15.12,0,0,1,5.22,2.54,12.26,12.26,0,0,1,3.57,4.39,14.23,14.23,0,0,1,1.32,6.33,15.17,15.17,0,0,1-2.65,8.94,12.11,12.11,0,0,1-7.88,4.85v.15a11.94,11.94,0,0,1,4.39,1.41,8.83,8.83,0,0,1,2.85,2.61,10.84,10.84,0,0,1,1.59,3.68,26.64,26.64,0,0,1,.64,4.5c0,.91.1,2,.15,3.34s.16,2.64.31,4a24.25,24.25,0,0,0,.72,3.79,7.17,7.17,0,0,0,1.32,2.76h-5.68a6.74,6.74,0,0,1-.72-1.85,16.68,16.68,0,0,1-.38-2.28c-.08-.78-.14-1.55-.19-2.31s-.1-1.41-.15-2c-.1-1.92-.27-3.83-.49-5.72a15.77,15.77,0,0,0-1.44-5.08,9,9,0,0,0-3.19-3.6,9.6,9.6,0,0,0-5.72-1.21H679.08v24h-5.15V161.62Zm-.38,25.69a13.86,13.86,0,0,0,4.47-.72,11.14,11.14,0,0,0,3.71-2.08,10.2,10.2,0,0,0,2.54-3.3,10,10,0,0,0,1-4.43,10.65,10.65,0,0,0-2.88-7.88q-2.88-2.88-8.79-2.88H679.08v21.29Z"/></svg>